0
SECTION
2
HEADER
9
$ACADVER
1
AC1009
9
$INSUNITS
70
4
0
ENDSEC
0
SECTION
2
ENTITIES
0
LINE
8
CUT
10
0.0000
20
0.0000
30
0.0
11
23.0000
21
0.0000
31
0.0
0
LINE
8
CUT
10
23.0000
20
0.0000
30
0.0
11
23.0000
21
37.9293
31
0.0
0
ARC
8
CUT
10
-6.0000
20
-89.0000
30
0.0
40
130.2000
50
77.130320
51
83.384414
0
LINE
8
CUT
10
9.0000
20
40.3331
30
0.0
11
9.0000
21
11.0000
31
0.0
0
LINE
8
CUT
10
9.0000
20
11.0000
30
0.0
11
0.0000
21
11.0000
31
0.0
0
LINE
8
CUT
10
0.0000
20
11.0000
30
0.0
11
0.0000
21
0.0000
31
0.0
0
CIRCLE
8
CUT
10
16.0000
20
5.5000
30
0.0
40
3.2000
0
CIRCLE
8
CUT
10
16.0000
20
23.0000
30
0.0
40
3.2000
0
TEXT
8
NOTES
10
0.0
20
-4.0
30
0.0
40
1.5
1
DCCREG-UTR-101 lamination, as cut (tip face R130.20), M235-35A 0.35 mm; one part for both hands (hand B = turned over)
0
ENDSEC
0
EOF
