ISO-10303-21;
HEADER;
FILE_DESCRIPTION(('Open CASCADE Model'),'2;1');
FILE_NAME('Open CASCADE Shape Model','2026-10-05T12:46:08',('Author'),(
    'Open CASCADE'),'Open CASCADE STEP processor 8.0','Open CASCADE 8.0'
  ,'Unknown');
FILE_SCHEMA(('AUTOMOTIVE_DESIGN { 1 0 10303 214 1 1 1 1 }'));
ENDSEC;
DATA;
#1 = APPLICATION_PROTOCOL_DEFINITION('international standard',
  'automotive_design',2000,#2);
#2 = APPLICATION_CONTEXT(
  'core data for automotive mechanical design processes');
#3 = SHAPE_DEFINITION_REPRESENTATION(#4,#10);
#4 = PRODUCT_DEFINITION_SHAPE('','',#5);
#5 = PRODUCT_DEFINITION('design','',#6,#9);
#6 = PRODUCT_DEFINITION_FORMATION('','',#7);
#7 = PRODUCT('cem_core 1','cem_core 1','',(#8));
#8 = PRODUCT_CONTEXT('',#2,'mechanical');
#9 = PRODUCT_DEFINITION_CONTEXT('part definition',#2,'design');
#10 = ADVANCED_BREP_SHAPE_REPRESENTATION('',(#11,#15),#1809);
#11 = AXIS2_PLACEMENT_3D('',#12,#13,#14);
#12 = CARTESIAN_POINT('',(0.,0.,0.));
#13 = DIRECTION('',(0.,0.,1.));
#14 = DIRECTION('',(1.,0.,-0.));
#15 = MANIFOLD_SOLID_BREP('',#16);
#16 = CLOSED_SHELL('',(#17,#659,#718,#772,#826,#880,#934,#988,#1059,
    #1108,#1157,#1206,#1255,#1304,#1353,#1402,#1451,#1500,#1549,#1598,
    #1647,#1696,#1745,#1772));
#17 = ADVANCED_FACE('',(#18,#473,#504,#535,#566,#597,#628),#32,.F.);
#18 = FACE_BOUND('',#19,.T.);
#19 = EDGE_LOOP('',(#20,#55,#83,#111,#139,#167,#195,#223,#251,#279,#307,
    #335,#363,#391,#419,#447));
#20 = ORIENTED_EDGE('',*,*,#21,.T.);
#21 = EDGE_CURVE('',#22,#24,#26,.T.);
#22 = VERTEX_POINT('',#23);
#23 = CARTESIAN_POINT('',(93.036794415334,-15.35570739589,
    29.999759710444));
#24 = VERTEX_POINT('',#25);
#25 = CARTESIAN_POINT('',(93.036794415333,-15.35570739589,
    -30.00024028956));
#26 = SURFACE_CURVE('',#27,(#31,#43),.PCURVE_S1.);
#27 = LINE('',#28,#29);
#28 = CARTESIAN_POINT('',(93.036794415333,-15.35570739589,
    -2.402895631821E-04));
#29 = VECTOR('',#30,1.);
#30 = DIRECTION('',(-1.571554895303E-14,-1.803144460603E-15,-1.));
#31 = PCURVE('',#32,#37);
#32 = PLANE('',#33);
#33 = AXIS2_PLACEMENT_3D('',#34,#35,#36);
#34 = CARTESIAN_POINT('',(55.891246899297,-18.71765292059,
    -2.402895594447E-04));
#35 = DIRECTION('',(-9.013892499825E-02,0.995929201399,
    -3.792215342724E-16));
#36 = DIRECTION('',(0.995929201399,9.013892499825E-02,7.652228794259E-16
    ));
#37 = DEFINITIONAL_REPRESENTATION('',(#38),#42);
#38 = LINE('',#39,#40);
#39 = CARTESIAN_POINT('',(37.297377628691,3.765876011638E-12));
#40 = VECTOR('',#41,1.);
#41 = DIRECTION('',(-1.657933050107E-14,1.));
#42 = ( GEOMETRIC_REPRESENTATION_CONTEXT(2) 
PARAMETRIC_REPRESENTATION_CONTEXT() REPRESENTATION_CONTEXT('2D SPACE',''
  ) );
#43 = PCURVE('',#44,#49);
#44 = PLANE('',#45);
#45 = AXIS2_PLACEMENT_3D('',#46,#47,#48);
#46 = CARTESIAN_POINT('',(91.684710540359,-0.416769374903,
    -30.00024028956));
#47 = DIRECTION('',(-0.995929201399,-9.013892499825E-02,
    1.581410762164E-14));
#48 = DIRECTION('',(1.571554895303E-14,1.803144460603E-15,1.));
#49 = DEFINITIONAL_REPRESENTATION('',(#50),#54);
#50 = LINE('',#51,#52);
#51 = CARTESIAN_POINT('',(30.,-15.));
#52 = VECTOR('',#53,1.);
#53 = DIRECTION('',(-1.,1.12103877146E-44));
#54 = ( GEOMETRIC_REPRESENTATION_CONTEXT(2) 
PARAMETRIC_REPRESENTATION_CONTEXT() REPRESENTATION_CONTEXT('2D SPACE',''
  ) );
#55 = ORIENTED_EDGE('',*,*,#56,.T.);
#56 = EDGE_CURVE('',#24,#57,#59,.T.);
#57 = VERTEX_POINT('',#58);
#58 = CARTESIAN_POINT('',(82.683067133738,-16.29279594152,
    -33.78409213256));
#59 = SURFACE_CURVE('',#60,(#64,#71),.PCURVE_S1.);
#60 = LINE('',#61,#62);
#61 = CARTESIAN_POINT('',(93.036794415333,-15.35570739589,
    -30.00024028956));
#62 = VECTOR('',#63,1.);
#63 = DIRECTION('',(-0.93586732138,-8.470288266643E-02,-0.342020143326)
  );
#64 = PCURVE('',#32,#65);
#65 = DEFINITIONAL_REPRESENTATION('',(#66),#70);
#66 = LINE('',#67,#68);
#67 = CARTESIAN_POINT('',(37.297377628691,30.000000000004));
#68 = VECTOR('',#69,1.);
#69 = DIRECTION('',(-0.939692620786,0.342020143326));
#70 = ( GEOMETRIC_REPRESENTATION_CONTEXT(2) 
PARAMETRIC_REPRESENTATION_CONTEXT() REPRESENTATION_CONTEXT('2D SPACE',''
  ) );
#71 = PCURVE('',#72,#77);
#72 = PLANE('',#73);
#73 = AXIS2_PLACEMENT_3D('',#74,#75,#76);
#74 = CARTESIAN_POINT('',(81.330983258764,-1.353857920532,
    -33.78409213256));
#75 = DIRECTION('',(-0.340627848205,-3.082932804712E-02,0.939692620786)
  );
#76 = DIRECTION('',(0.93586732138,8.470288266643E-02,0.342020143326));
#77 = DEFINITIONAL_REPRESENTATION('',(#78),#82);
#78 = LINE('',#79,#80);
#79 = CARTESIAN_POINT('',(11.063242668122,-15.));
#80 = VECTOR('',#81,1.);
#81 = DIRECTION('',(-1.,6.28623533848E-31));
#82 = ( GEOMETRIC_REPRESENTATION_CONTEXT(2) 
PARAMETRIC_REPRESENTATION_CONTEXT() REPRESENTATION_CONTEXT('2D SPACE',''
  ) );
#83 = ORIENTED_EDGE('',*,*,#84,.T.);
#84 = EDGE_CURVE('',#57,#85,#87,.T.);
#85 = VERTEX_POINT('',#86);
#86 = CARTESIAN_POINT('',(19.374681597522,-22.02267092419,
    -39.45522880608));
#87 = SURFACE_CURVE('',#88,(#92,#99),.PCURVE_S1.);
#88 = LINE('',#89,#90);
#89 = CARTESIAN_POINT('',(82.683067133738,-16.29279594152,
    -33.78409213256));
#90 = VECTOR('',#91,1.);
#91 = DIRECTION('',(-0.991989257343,-8.978233105436E-02,
    -8.886195105765E-02));
#92 = PCURVE('',#32,#93);
#93 = DEFINITIONAL_REPRESENTATION('',(#94),#98);
#94 = LINE('',#95,#96);
#95 = CARTESIAN_POINT('',(26.901330131493,33.783851843001));
#96 = VECTOR('',#97,1.);
#97 = DIRECTION('',(-0.996043951668,8.886195105765E-02));
#98 = ( GEOMETRIC_REPRESENTATION_CONTEXT(2) 
PARAMETRIC_REPRESENTATION_CONTEXT() REPRESENTATION_CONTEXT('2D SPACE',''
  ) );
#99 = PCURVE('',#100,#105);
#100 = PLANE('',#101);
#101 = AXIS2_PLACEMENT_3D('',#102,#103,#104);
#102 = CARTESIAN_POINT('',(18.022597722548,-7.083732903202,
    -39.45522880608));
#103 = DIRECTION('',(-8.850021195164E-02,-8.009920741583E-03,
    0.996043951668));
#104 = DIRECTION('',(0.991989257343,8.978233105436E-02,
    8.886195105765E-02));
#105 = DEFINITIONAL_REPRESENTATION('',(#106),#110);
#106 = LINE('',#107,#108);
#107 = CARTESIAN_POINT('',(63.819628153797,-15.));
#108 = VECTOR('',#109,1.);
#109 = DIRECTION('',(-1.,4.914973218076E-31));
#110 = ( GEOMETRIC_REPRESENTATION_CONTEXT(2) 
PARAMETRIC_REPRESENTATION_CONTEXT() REPRESENTATION_CONTEXT('2D SPACE',''
  ) );
#111 = ORIENTED_EDGE('',*,*,#112,.T.);
#112 = EDGE_CURVE('',#85,#113,#115,.T.);
#113 = VERTEX_POINT('',#114);
#114 = CARTESIAN_POINT('',(13.766053376263,-22.53029307029,
    -30.00024028955));
#115 = SURFACE_CURVE('',#116,(#120,#127),.PCURVE_S1.);
#116 = LINE('',#117,#118);
#117 = CARTESIAN_POINT('',(19.374681597522,-22.02267092419,
    -39.45522880608));
#118 = VECTOR('',#119,1.);
#119 = DIRECTION('',(-0.509641167314,-4.61262777434E-02,0.85914972332));
#120 = PCURVE('',#32,#121);
#121 = DEFINITIONAL_REPRESENTATION('',(#122),#126);
#122 = LINE('',#123,#124);
#123 = CARTESIAN_POINT('',(-36.66582448879,39.454988516521));
#124 = VECTOR('',#125,1.);
#125 = DIRECTION('',(-0.511724293853,-0.85914972332));
#126 = ( GEOMETRIC_REPRESENTATION_CONTEXT(2) 
PARAMETRIC_REPRESENTATION_CONTEXT() REPRESENTATION_CONTEXT('2D SPACE',''
  ) );
#127 = PCURVE('',#128,#133);
#128 = PLANE('',#129);
#129 = AXIS2_PLACEMENT_3D('',#130,#131,#132);
#130 = CARTESIAN_POINT('',(12.41396950129,-7.591355049303,
    -30.00024028955));
#131 = DIRECTION('',(0.855652297829,7.74428324726E-02,0.511724293853));
#132 = DIRECTION('',(0.509641167314,4.61262777434E-02,-0.85914972332));
#133 = DEFINITIONAL_REPRESENTATION('',(#134),#138);
#134 = LINE('',#135,#136);
#135 = CARTESIAN_POINT('',(11.005053321774,-15.));
#136 = VECTOR('',#137,1.);
#137 = DIRECTION('',(-1.,4.190823558987E-31));
#138 = ( GEOMETRIC_REPRESENTATION_CONTEXT(2) 
PARAMETRIC_REPRESENTATION_CONTEXT() REPRESENTATION_CONTEXT('2D SPACE',''
  ) );
#139 = ORIENTED_EDGE('',*,*,#140,.T.);
#140 = EDGE_CURVE('',#113,#141,#143,.T.);
#141 = VERTEX_POINT('',#142);
#142 = CARTESIAN_POINT('',(-6.152530651728,-24.33307157026,
    -30.00024028955));
#143 = SURFACE_CURVE('',#144,(#148,#155),.PCURVE_S1.);
#144 = LINE('',#145,#146);
#145 = CARTESIAN_POINT('',(13.766053376263,-22.53029307029,
    -30.00024028955));
#146 = VECTOR('',#147,1.);
#147 = DIRECTION('',(-0.995929201399,-9.013892499825E-02,
    7.783856726403E-14));
#148 = PCURVE('',#32,#149);
#149 = DEFINITIONAL_REPRESENTATION('',(#150),#154);
#150 = LINE('',#151,#152);
#151 = CARTESIAN_POINT('',(-42.29737762869,29.999999999998));
#152 = VECTOR('',#153,1.);
#153 = DIRECTION('',(-1.,-7.860379014345E-14));
#154 = ( GEOMETRIC_REPRESENTATION_CONTEXT(2) 
PARAMETRIC_REPRESENTATION_CONTEXT() REPRESENTATION_CONTEXT('2D SPACE',''
  ) );
#155 = PCURVE('',#156,#161);
#156 = PLANE('',#157);
#157 = AXIS2_PLACEMENT_3D('',#158,#159,#160);
#158 = CARTESIAN_POINT('',(-7.504614526701,-9.394133549268,
    -30.00024028955));
#159 = DIRECTION('',(7.748751951191E-14,7.393962576365E-15,1.));
#160 = DIRECTION('',(0.995929201399,9.013892499825E-02,
    -7.783856726403E-14));
#161 = DEFINITIONAL_REPRESENTATION('',(#162),#166);
#162 = LINE('',#163,#164);
#163 = CARTESIAN_POINT('',(20.000000000002,-15.));
#164 = VECTOR('',#165,1.);
#165 = DIRECTION('',(-1.,6.409494854897E-31));
#166 = ( GEOMETRIC_REPRESENTATION_CONTEXT(2) 
PARAMETRIC_REPRESENTATION_CONTEXT() REPRESENTATION_CONTEXT('2D SPACE',''
  ) );
#167 = ORIENTED_EDGE('',*,*,#168,.T.);
#168 = EDGE_CURVE('',#141,#169,#171,.T.);
#169 = VERTEX_POINT('',#170);
#170 = CARTESIAN_POINT('',(4.002713348271,-23.41394722289,-59.3909665218
    ));
#171 = SURFACE_CURVE('',#172,(#176,#183),.PCURVE_S1.);
#172 = LINE('',#173,#174);
#173 = CARTESIAN_POINT('',(-6.152530651728,-24.33307157026,
    -30.00024028955));
#174 = VECTOR('',#175,1.);
#175 = DIRECTION('',(0.326437558409,2.954500234824E-02,-0.944756906985)
  );
#176 = PCURVE('',#32,#177);
#177 = DEFINITIONAL_REPRESENTATION('',(#178),#182);
#178 = LINE('',#179,#180);
#179 = CARTESIAN_POINT('',(-62.29737762869,29.999999999996));
#180 = VECTOR('',#181,1.);
#181 = DIRECTION('',(0.327771851604,0.944756906985));
#182 = ( GEOMETRIC_REPRESENTATION_CONTEXT(2) 
PARAMETRIC_REPRESENTATION_CONTEXT() REPRESENTATION_CONTEXT('2D SPACE',''
  ) );
#183 = PCURVE('',#184,#189);
#184 = PLANE('',#185);
#185 = AXIS2_PLACEMENT_3D('',#186,#187,#188);
#186 = CARTESIAN_POINT('',(2.650629473297,-8.475009201906,-59.3909665218
    ));
#187 = DIRECTION('',(-0.94091099189,-8.515937198032E-02,-0.327771851604)
  );
#188 = DIRECTION('',(-0.326437558409,-2.954500234824E-02,0.944756906985)
  );
#189 = DEFINITIONAL_REPRESENTATION('',(#190),#194);
#190 = LINE('',#191,#192);
#191 = CARTESIAN_POINT('',(31.109300196632,-15.));
#192 = VECTOR('',#193,1.);
#193 = DIRECTION('',(-1.,-2.465190328816E-31));
#194 = ( GEOMETRIC_REPRESENTATION_CONTEXT(2) 
PARAMETRIC_REPRESENTATION_CONTEXT() REPRESENTATION_CONTEXT('2D SPACE',''
  ) );
#195 = ORIENTED_EDGE('',*,*,#196,.T.);
#196 = EDGE_CURVE('',#169,#197,#199,.T.);
#197 = VERTEX_POINT('',#198);
#198 = CARTESIAN_POINT('',(93.069536592264,-15.35274398782,
    -59.3909665218));
#199 = SURFACE_CURVE('',#200,(#204,#211),.PCURVE_S1.);
#200 = LINE('',#201,#202);
#201 = CARTESIAN_POINT('',(4.002713348271,-23.41394722289,-59.3909665218
    ));
#202 = VECTOR('',#203,1.);
#203 = DIRECTION('',(0.995929201399,9.013892499825E-02,
    -7.769324298828E-14));
#204 = PCURVE('',#32,#205);
#205 = DEFINITIONAL_REPRESENTATION('',(#206),#210);
#206 = LINE('',#207,#208);
#207 = CARTESIAN_POINT('',(-52.10062470114,59.390726232241));
#208 = VECTOR('',#209,1.);
#209 = DIRECTION('',(1.,7.845846586771E-14));
#210 = ( GEOMETRIC_REPRESENTATION_CONTEXT(2) 
PARAMETRIC_REPRESENTATION_CONTEXT() REPRESENTATION_CONTEXT('2D SPACE',''
  ) );
#211 = PCURVE('',#212,#217);
#212 = PLANE('',#213);
#213 = AXIS2_PLACEMENT_3D('',#214,#215,#216);
#214 = CARTESIAN_POINT('',(91.71745271729,-0.413805966835,-59.3909665218
    ));
#215 = DIRECTION('',(-7.734278682202E-14,-7.380863202373E-15,-1.));
#216 = DIRECTION('',(-0.995929201399,-9.013892499825E-02,
    7.769324298828E-14));
#217 = DEFINITIONAL_REPRESENTATION('',(#218),#222);
#218 = LINE('',#219,#220);
#219 = CARTESIAN_POINT('',(89.430878338378,-15.));
#220 = VECTOR('',#221,1.);
#221 = DIRECTION('',(-1.,-5.423418723371E-31));
#222 = ( GEOMETRIC_REPRESENTATION_CONTEXT(2) 
PARAMETRIC_REPRESENTATION_CONTEXT() REPRESENTATION_CONTEXT('2D SPACE',''
  ) );
#223 = ORIENTED_EDGE('',*,*,#224,.T.);
#224 = EDGE_CURVE('',#197,#225,#227,.T.);
#225 = VERTEX_POINT('',#226);
#226 = CARTESIAN_POINT('',(117.93502445031,-13.10223427093,
    -45.30367655368));
#227 = SURFACE_CURVE('',#228,(#232,#239),.PCURVE_S1.);
#228 = LINE('',#229,#230);
#229 = CARTESIAN_POINT('',(93.069536592264,-15.35274398782,
    -59.3909665218));
#230 = VECTOR('',#231,1.);
#231 = DIRECTION('',(0.867384251851,7.850466068511E-02,0.491407751151));
#232 = PCURVE('',#32,#233);
#233 = DEFINITIONAL_REPRESENTATION('',(#234),#238);
#234 = LINE('',#235,#236);
#235 = CARTESIAN_POINT('',(37.330253637231,59.390726232248));
#236 = VECTOR('',#237,1.);
#237 = DIRECTION('',(0.870929630974,-0.491407751151));
#238 = ( GEOMETRIC_REPRESENTATION_CONTEXT(2) 
PARAMETRIC_REPRESENTATION_CONTEXT() REPRESENTATION_CONTEXT('2D SPACE',''
  ) );
#239 = PCURVE('',#240,#245);
#240 = PLANE('',#241);
#241 = AXIS2_PLACEMENT_3D('',#242,#243,#244);
#242 = CARTESIAN_POINT('',(116.58294057534,1.836703750053,
    -45.30367655368));
#243 = DIRECTION('',(0.489407329166,4.42949664246E-02,-0.870929630974));
#244 = DIRECTION('',(-0.867384251851,-7.850466068511E-02,-0.491407751151
    ));
#245 = DEFINITIONAL_REPRESENTATION('',(#246),#250);
#246 = LINE('',#247,#248);
#247 = CARTESIAN_POINT('',(28.667211567415,-15.));
#248 = VECTOR('',#249,1.);
#249 = DIRECTION('',(-1.,-7.149051953565E-31));
#250 = ( GEOMETRIC_REPRESENTATION_CONTEXT(2) 
PARAMETRIC_REPRESENTATION_CONTEXT() REPRESENTATION_CONTEXT('2D SPACE',''
  ) );
#251 = ORIENTED_EDGE('',*,*,#252,.T.);
#252 = EDGE_CURVE('',#225,#253,#255,.T.);
#253 = VERTEX_POINT('',#254);
#254 = CARTESIAN_POINT('',(117.93502445032,-13.10223427093,
    45.303195974562));
#255 = SURFACE_CURVE('',#256,(#260,#267),.PCURVE_S1.);
#256 = LINE('',#257,#258);
#257 = CARTESIAN_POINT('',(117.93502445032,-13.10223427093,
    45.303195974562));
#258 = VECTOR('',#259,1.);
#259 = DIRECTION('',(3.82542936809E-14,3.843066794163E-15,1.));
#260 = PCURVE('',#32,#261);
#261 = DEFINITIONAL_REPRESENTATION('',(#262),#266);
#262 = LINE('',#263,#264);
#263 = CARTESIAN_POINT('',(62.297377628693,-45.30343626412));
#264 = VECTOR('',#265,1.);
#265 = DIRECTION('',(3.921020094467E-14,-1.));
#266 = ( GEOMETRIC_REPRESENTATION_CONTEXT(2) 
PARAMETRIC_REPRESENTATION_CONTEXT() REPRESENTATION_CONTEXT('2D SPACE',''
  ) );
#267 = PCURVE('',#268,#273);
#268 = PLANE('',#269);
#269 = AXIS2_PLACEMENT_3D('',#270,#271,#272);
#270 = CARTESIAN_POINT('',(116.58294057534,1.836703750053,
    45.303195974562));
#271 = DIRECTION('',(0.995929201399,9.013892499825E-02,
    -3.844497806524E-14));
#272 = DIRECTION('',(-3.82542936809E-14,-3.843066794163E-15,-1.));
#273 = DEFINITIONAL_REPRESENTATION('',(#274),#278);
#274 = LINE('',#275,#276);
#275 = CARTESIAN_POINT('',(-2.337672045636E-28,-15.));
#276 = VECTOR('',#277,1.);
#277 = DIRECTION('',(-1.,-2.80259692865E-44));
#278 = ( GEOMETRIC_REPRESENTATION_CONTEXT(2) 
PARAMETRIC_REPRESENTATION_CONTEXT() REPRESENTATION_CONTEXT('2D SPACE',''
  ) );
#279 = ORIENTED_EDGE('',*,*,#280,.T.);
#280 = EDGE_CURVE('',#253,#281,#283,.T.);
#281 = VERTEX_POINT('',#282);
#282 = CARTESIAN_POINT('',(93.069536592267,-15.35274398782,
    59.390485942688));
#283 = SURFACE_CURVE('',#284,(#288,#295),.PCURVE_S1.);
#284 = LINE('',#285,#286);
#285 = CARTESIAN_POINT('',(93.069536592267,-15.35274398782,
    59.390485942688));
#286 = VECTOR('',#287,1.);
#287 = DIRECTION('',(-0.867384251851,-7.850466068511E-02,0.491407751151)
  );
#288 = PCURVE('',#32,#289);
#289 = DEFINITIONAL_REPRESENTATION('',(#290),#294);
#290 = LINE('',#291,#292);
#291 = CARTESIAN_POINT('',(37.330253637235,-59.39072623224));
#292 = VECTOR('',#293,1.);
#293 = DIRECTION('',(-0.870929630974,-0.491407751151));
#294 = ( GEOMETRIC_REPRESENTATION_CONTEXT(2) 
PARAMETRIC_REPRESENTATION_CONTEXT() REPRESENTATION_CONTEXT('2D SPACE',''
  ) );
#295 = PCURVE('',#296,#301);
#296 = PLANE('',#297);
#297 = AXIS2_PLACEMENT_3D('',#298,#299,#300);
#298 = CARTESIAN_POINT('',(91.717452717294,-0.413805966835,
    59.390485942688));
#299 = DIRECTION('',(0.489407329166,4.42949664246E-02,0.870929630974));
#300 = DIRECTION('',(0.867384251851,7.850466068511E-02,-0.491407751151)
  );
#301 = DEFINITIONAL_REPRESENTATION('',(#302),#306);
#302 = LINE('',#303,#304);
#303 = CARTESIAN_POINT('',(5.076362177961E-15,-15.));
#304 = VECTOR('',#305,1.);
#305 = DIRECTION('',(-1.,5.423418723394E-31));
#306 = ( GEOMETRIC_REPRESENTATION_CONTEXT(2) 
PARAMETRIC_REPRESENTATION_CONTEXT() REPRESENTATION_CONTEXT('2D SPACE',''
  ) );
#307 = ORIENTED_EDGE('',*,*,#308,.T.);
#308 = EDGE_CURVE('',#281,#309,#311,.T.);
#309 = VERTEX_POINT('',#310);
#310 = CARTESIAN_POINT('',(4.002713348275,-23.41394722289,
    59.390485942688));
#311 = SURFACE_CURVE('',#312,(#316,#323),.PCURVE_S1.);
#312 = LINE('',#313,#314);
#313 = CARTESIAN_POINT('',(4.002713348275,-23.41394722289,
    59.390485942688));
#314 = VECTOR('',#315,1.);
#315 = DIRECTION('',(-0.995929201399,-9.013892499825E-02,
    -2.354255099531E-15));
#316 = PCURVE('',#32,#317);
#317 = DEFINITIONAL_REPRESENTATION('',(#318),#322);
#318 = LINE('',#319,#320);
#319 = CARTESIAN_POINT('',(-52.10062470114,-59.39072623224));
#320 = VECTOR('',#321,1.);
#321 = DIRECTION('',(-1.,1.589032220106E-15));
#322 = ( GEOMETRIC_REPRESENTATION_CONTEXT(2) 
PARAMETRIC_REPRESENTATION_CONTEXT() REPRESENTATION_CONTEXT('2D SPACE',''
  ) );
#323 = PCURVE('',#324,#329);
#324 = PLANE('',#325);
#325 = AXIS2_PLACEMENT_3D('',#326,#327,#328);
#326 = CARTESIAN_POINT('',(2.650629473301,-8.475009201906,
    59.390485942688));
#327 = DIRECTION('',(-2.378854022602E-15,1.65467775938E-16,1.));
#328 = DIRECTION('',(0.995929201399,9.013892499825E-02,
    2.354255099531E-15));
#329 = DEFINITIONAL_REPRESENTATION('',(#330),#334);
#330 = LINE('',#331,#332);
#331 = CARTESIAN_POINT('',(5.828670879282E-15,-15.));
#332 = VECTOR('',#333,1.);
#333 = DIRECTION('',(-1.,5.916456789158E-31));
#334 = ( GEOMETRIC_REPRESENTATION_CONTEXT(2) 
PARAMETRIC_REPRESENTATION_CONTEXT() REPRESENTATION_CONTEXT('2D SPACE',''
  ) );
#335 = ORIENTED_EDGE('',*,*,#336,.T.);
#336 = EDGE_CURVE('',#309,#337,#339,.T.);
#337 = VERTEX_POINT('',#338);
#338 = CARTESIAN_POINT('',(-6.152530651727,-24.33307157026,
    29.999759710444));
#339 = SURFACE_CURVE('',#340,(#344,#351),.PCURVE_S1.);
#340 = LINE('',#341,#342);
#341 = CARTESIAN_POINT('',(-6.152530651727,-24.33307157026,
    29.999759710444));
#342 = VECTOR('',#343,1.);
#343 = DIRECTION('',(-0.326437558409,-2.954500234825E-02,-0.944756906985
    ));
#344 = PCURVE('',#32,#345);
#345 = DEFINITIONAL_REPRESENTATION('',(#346),#350);
#346 = LINE('',#347,#348);
#347 = CARTESIAN_POINT('',(-62.29737762869,-30.));
#348 = VECTOR('',#349,1.);
#349 = DIRECTION('',(-0.327771851604,0.944756906985));
#350 = ( GEOMETRIC_REPRESENTATION_CONTEXT(2) 
PARAMETRIC_REPRESENTATION_CONTEXT() REPRESENTATION_CONTEXT('2D SPACE',''
  ) );
#351 = PCURVE('',#352,#357);
#352 = PLANE('',#353);
#353 = AXIS2_PLACEMENT_3D('',#354,#355,#356);
#354 = CARTESIAN_POINT('',(-7.504614526701,-9.394133549268,
    29.999759710444));
#355 = DIRECTION('',(-0.94091099189,-8.515937198032E-02,0.327771851604)
  );
#356 = DIRECTION('',(0.326437558409,2.954500234825E-02,0.944756906985));
#357 = DEFINITIONAL_REPRESENTATION('',(#358),#362);
#358 = LINE('',#359,#360);
#359 = CARTESIAN_POINT('',(1.910474246491E-15,-15.));
#360 = VECTOR('',#361,1.);
#361 = DIRECTION('',(-1.,2.465190328816E-31));
#362 = ( GEOMETRIC_REPRESENTATION_CONTEXT(2) 
PARAMETRIC_REPRESENTATION_CONTEXT() REPRESENTATION_CONTEXT('2D SPACE',''
  ) );
#363 = ORIENTED_EDGE('',*,*,#364,.T.);
#364 = EDGE_CURVE('',#337,#365,#367,.T.);
#365 = VERTEX_POINT('',#366);
#366 = CARTESIAN_POINT('',(13.766053376264,-22.53029307029,
    29.999759710444));
#367 = SURFACE_CURVE('',#368,(#372,#379),.PCURVE_S1.);
#368 = LINE('',#369,#370);
#369 = CARTESIAN_POINT('',(33.684398092868,-20.72753622977,
    29.999759710444));
#370 = VECTOR('',#371,1.);
#371 = DIRECTION('',(0.995929201399,9.013892499825E-02,
    9.872692628651E-16));
#372 = PCURVE('',#32,#373);
#373 = DEFINITIONAL_REPRESENTATION('',(#374),#378);
#374 = LINE('',#375,#376);
#375 = CARTESIAN_POINT('',(-22.29761791824,-30.));
#376 = VECTOR('',#377,1.);
#377 = DIRECTION('',(1.,-2.220463834393E-16));
#378 = ( GEOMETRIC_REPRESENTATION_CONTEXT(2) 
PARAMETRIC_REPRESENTATION_CONTEXT() REPRESENTATION_CONTEXT('2D SPACE',''
  ) );
#379 = PCURVE('',#380,#385);
#380 = PLANE('',#381);
#381 = AXIS2_PLACEMENT_3D('',#382,#383,#384);
#382 = CARTESIAN_POINT('',(12.413969501291,-7.591355049303,
    29.999759710444));
#383 = DIRECTION('',(1.017432909967E-15,-2.886864097429E-16,-1.));
#384 = DIRECTION('',(-0.995929201399,-9.013892499825E-02,
    -9.872692628651E-16));
#385 = DEFINITIONAL_REPRESENTATION('',(#386),#390);
#386 = LINE('',#387,#388);
#387 = CARTESIAN_POINT('',(-19.99975971044,-15.));
#388 = VECTOR('',#389,1.);
#389 = DIRECTION('',(-1.,-5.423418723394E-31));
#390 = ( GEOMETRIC_REPRESENTATION_CONTEXT(2) 
PARAMETRIC_REPRESENTATION_CONTEXT() REPRESENTATION_CONTEXT('2D SPACE',''
  ) );
#391 = ORIENTED_EDGE('',*,*,#392,.T.);
#392 = EDGE_CURVE('',#365,#393,#395,.T.);
#393 = VERTEX_POINT('',#394);
#394 = CARTESIAN_POINT('',(19.374681597524,-22.02267092419,
    39.454748226967));
#395 = SURFACE_CURVE('',#396,(#400,#407),.PCURVE_S1.);
#396 = LINE('',#397,#398);
#397 = CARTESIAN_POINT('',(19.374681597524,-22.02267092419,
    39.454748226967));
#398 = VECTOR('',#399,1.);
#399 = DIRECTION('',(0.509641167314,4.612627774341E-02,0.85914972332));
#400 = PCURVE('',#32,#401);
#401 = DEFINITIONAL_REPRESENTATION('',(#402),#406);
#402 = LINE('',#403,#404);
#403 = CARTESIAN_POINT('',(-36.66582448879,-39.45498851652));
#404 = VECTOR('',#405,1.);
#405 = DIRECTION('',(0.511724293853,-0.85914972332));
#406 = ( GEOMETRIC_REPRESENTATION_CONTEXT(2) 
PARAMETRIC_REPRESENTATION_CONTEXT() REPRESENTATION_CONTEXT('2D SPACE',''
  ) );
#407 = PCURVE('',#408,#413);
#408 = PLANE('',#409);
#409 = AXIS2_PLACEMENT_3D('',#410,#411,#412);
#410 = CARTESIAN_POINT('',(18.02259772255,-7.083732903202,
    39.454748226967));
#411 = DIRECTION('',(0.855652297829,7.74428324726E-02,-0.511724293853));
#412 = DIRECTION('',(-0.509641167314,-4.612627774341E-02,-0.85914972332)
  );
#413 = DEFINITIONAL_REPRESENTATION('',(#414),#418);
#414 = LINE('',#415,#416);
#415 = CARTESIAN_POINT('',(-2.982672489803E-15,-15.));
#416 = VECTOR('',#417,1.);
#417 = DIRECTION('',(-1.,-4.190823558987E-31));
#418 = ( GEOMETRIC_REPRESENTATION_CONTEXT(2) 
PARAMETRIC_REPRESENTATION_CONTEXT() REPRESENTATION_CONTEXT('2D SPACE',''
  ) );
#419 = ORIENTED_EDGE('',*,*,#420,.T.);
#420 = EDGE_CURVE('',#393,#421,#423,.T.);
#421 = VERTEX_POINT('',#422);
#422 = CARTESIAN_POINT('',(82.68306713374,-16.29279594152,
    33.783611553442));
#423 = SURFACE_CURVE('',#424,(#428,#435),.PCURVE_S1.);
#424 = LINE('',#425,#426);
#425 = CARTESIAN_POINT('',(82.68306713374,-16.29279594152,
    33.783611553442));
#426 = VECTOR('',#427,1.);
#427 = DIRECTION('',(0.991989257343,8.978233105436E-02,
    -8.886195105772E-02));
#428 = PCURVE('',#32,#429);
#429 = DEFINITIONAL_REPRESENTATION('',(#430),#434);
#430 = LINE('',#431,#432);
#431 = CARTESIAN_POINT('',(26.901330131495,-33.783851843));
#432 = VECTOR('',#433,1.);
#433 = DIRECTION('',(0.996043951668,8.886195105772E-02));
#434 = ( GEOMETRIC_REPRESENTATION_CONTEXT(2) 
PARAMETRIC_REPRESENTATION_CONTEXT() REPRESENTATION_CONTEXT('2D SPACE',''
  ) );
#435 = PCURVE('',#436,#441);
#436 = PLANE('',#437);
#437 = AXIS2_PLACEMENT_3D('',#438,#439,#440);
#438 = CARTESIAN_POINT('',(81.330983258766,-1.353857920531,
    33.783611553442));
#439 = DIRECTION('',(-8.850021195172E-02,-8.009920741591E-03,
    -0.996043951668));
#440 = DIRECTION('',(-0.991989257343,-8.978233105436E-02,
    8.886195105772E-02));
#441 = DEFINITIONAL_REPRESENTATION('',(#442),#446);
#442 = LINE('',#443,#444);
#443 = CARTESIAN_POINT('',(-5.805612375572E-15,-15.));
#444 = VECTOR('',#445,1.);
#445 = DIRECTION('',(-1.,-7.823127434101E-31));
#446 = ( GEOMETRIC_REPRESENTATION_CONTEXT(2) 
PARAMETRIC_REPRESENTATION_CONTEXT() REPRESENTATION_CONTEXT('2D SPACE',''
  ) );
#447 = ORIENTED_EDGE('',*,*,#448,.T.);
#448 = EDGE_CURVE('',#421,#22,#449,.T.);
#449 = SURFACE_CURVE('',#450,(#454,#461),.PCURVE_S1.);
#450 = LINE('',#451,#452);
#451 = CARTESIAN_POINT('',(93.036794415334,-15.35570739589,
    29.999759710444));
#452 = VECTOR('',#453,1.);
#453 = DIRECTION('',(0.93586732138,8.470288266643E-02,-0.342020143326));
#454 = PCURVE('',#32,#455);
#455 = DEFINITIONAL_REPRESENTATION('',(#456),#460);
#456 = LINE('',#457,#458);
#457 = CARTESIAN_POINT('',(37.297377628692,-30.));
#458 = VECTOR('',#459,1.);
#459 = DIRECTION('',(0.939692620786,0.342020143326));
#460 = ( GEOMETRIC_REPRESENTATION_CONTEXT(2) 
PARAMETRIC_REPRESENTATION_CONTEXT() REPRESENTATION_CONTEXT('2D SPACE',''
  ) );
#461 = PCURVE('',#462,#467);
#462 = PLANE('',#463);
#463 = AXIS2_PLACEMENT_3D('',#464,#465,#466);
#464 = CARTESIAN_POINT('',(91.68471054036,-0.416769374903,
    29.999759710444));
#465 = DIRECTION('',(-0.340627848205,-3.082932804713E-02,-0.939692620786
    ));
#466 = DIRECTION('',(-0.93586732138,-8.470288266643E-02,0.342020143326)
  );
#467 = DEFINITIONAL_REPRESENTATION('',(#468),#472);
#468 = LINE('',#469,#470);
#469 = CARTESIAN_POINT('',(-5.477159014251E-15,-15.));
#470 = VECTOR('',#471,1.);
#471 = DIRECTION('',(-1.,-4.807121141191E-31));
#472 = ( GEOMETRIC_REPRESENTATION_CONTEXT(2) 
PARAMETRIC_REPRESENTATION_CONTEXT() REPRESENTATION_CONTEXT('2D SPACE',''
  ) );
#473 = FACE_BOUND('',#474,.T.);
#474 = EDGE_LOOP('',(#475));
#475 = ORIENTED_EDGE('',*,*,#476,.T.);
#476 = EDGE_CURVE('',#477,#477,#479,.T.);
#477 = VERTEX_POINT('',#478);
#478 = CARTESIAN_POINT('',(20.181670188191,-21.94963251549,
    -49.42309766394));
#479 = SURFACE_CURVE('',#480,(#485,#492),.PCURVE_S1.);
#480 = CIRCLE('',#481,3.25);
#481 = AXIS2_PLACEMENT_3D('',#482,#483,#484);
#482 = CARTESIAN_POINT('',(23.41844009274,-21.65668100924,
    -49.42309766394));
#483 = DIRECTION('',(-9.013892499825E-02,0.995929201399,
    -3.792215342724E-16));
#484 = DIRECTION('',(0.995929201399,9.013892499825E-02,
    7.652228794259E-16));
#485 = PCURVE('',#32,#486);
#486 = DEFINITIONAL_REPRESENTATION('',(#487),#491);
#487 = CIRCLE('',#488,3.25);
#488 = AXIS2_PLACEMENT_2D('',#489,#490);
#489 = CARTESIAN_POINT('',(-32.6055373825,49.422857374382));
#490 = DIRECTION('',(1.,0.));
#491 = ( GEOMETRIC_REPRESENTATION_CONTEXT(2) 
PARAMETRIC_REPRESENTATION_CONTEXT() REPRESENTATION_CONTEXT('2D SPACE',''
  ) );
#492 = PCURVE('',#493,#498);
#493 = CYLINDRICAL_SURFACE('',#494,3.25);
#494 = AXIS2_PLACEMENT_3D('',#495,#496,#497);
#495 = CARTESIAN_POINT('',(22.066356217766,-6.717742988257,
    -49.42309766394));
#496 = DIRECTION('',(-9.013892499825E-02,0.995929201399,
    -3.792215342724E-16));
#497 = DIRECTION('',(0.995929201399,9.013892499825E-02,
    7.652228794259E-16));
#498 = DEFINITIONAL_REPRESENTATION('',(#499),#503);
#499 = LINE('',#500,#501);
#500 = CARTESIAN_POINT('',(0.,-15.));
#501 = VECTOR('',#502,1.);
#502 = DIRECTION('',(1.,0.));
#503 = ( GEOMETRIC_REPRESENTATION_CONTEXT(2) 
PARAMETRIC_REPRESENTATION_CONTEXT() REPRESENTATION_CONTEXT('2D SPACE',''
  ) );
#504 = FACE_BOUND('',#505,.T.);
#505 = EDGE_LOOP('',(#506));
#506 = ORIENTED_EDGE('',*,*,#507,.T.);
#507 = EDGE_CURVE('',#508,#508,#510,.T.);
#508 = VERTEX_POINT('',#509);
#509 = CARTESIAN_POINT('',(52.410601073322,-19.0326769932,
    -48.00531349556));
#510 = SURFACE_CURVE('',#511,(#516,#523),.PCURVE_S1.);
#511 = CIRCLE('',#512,3.25);
#512 = AXIS2_PLACEMENT_3D('',#513,#514,#515);
#513 = CARTESIAN_POINT('',(55.64737097787,-18.73972548696,
    -48.00531349556));
#514 = DIRECTION('',(-9.013892499825E-02,0.995929201399,
    -3.792215342724E-16));
#515 = DIRECTION('',(0.995929201399,9.013892499825E-02,
    7.652228794259E-16));
#516 = PCURVE('',#32,#517);
#517 = DEFINITIONAL_REPRESENTATION('',(#518),#522);
#518 = CIRCLE('',#519,3.25);
#519 = AXIS2_PLACEMENT_2D('',#520,#521);
#520 = CARTESIAN_POINT('',(-0.244872749071,48.005073206003));
#521 = DIRECTION('',(1.,0.));
#522 = ( GEOMETRIC_REPRESENTATION_CONTEXT(2) 
PARAMETRIC_REPRESENTATION_CONTEXT() REPRESENTATION_CONTEXT('2D SPACE',''
  ) );
#523 = PCURVE('',#524,#529);
#524 = CYLINDRICAL_SURFACE('',#525,3.25);
#525 = AXIS2_PLACEMENT_3D('',#526,#527,#528);
#526 = CARTESIAN_POINT('',(54.295287102896,-3.80078746597,
    -48.00531349556));
#527 = DIRECTION('',(-9.013892499825E-02,0.995929201399,
    -3.792215342724E-16));
#528 = DIRECTION('',(0.995929201399,9.013892499825E-02,
    7.652228794259E-16));
#529 = DEFINITIONAL_REPRESENTATION('',(#530),#534);
#530 = LINE('',#531,#532);
#531 = CARTESIAN_POINT('',(0.,-15.));
#532 = VECTOR('',#533,1.);
#533 = DIRECTION('',(1.,0.));
#534 = ( GEOMETRIC_REPRESENTATION_CONTEXT(2) 
PARAMETRIC_REPRESENTATION_CONTEXT() REPRESENTATION_CONTEXT('2D SPACE',''
  ) );
#535 = FACE_BOUND('',#536,.T.);
#536 = EDGE_LOOP('',(#537));
#537 = ORIENTED_EDGE('',*,*,#538,.T.);
#538 = EDGE_CURVE('',#539,#539,#541,.T.);
#539 = VERTEX_POINT('',#540);
#540 = CARTESIAN_POINT('',(52.410601073322,-19.0326769932,
    48.005313495563));
#541 = SURFACE_CURVE('',#542,(#547,#554),.PCURVE_S1.);
#542 = CIRCLE('',#543,3.25);
#543 = AXIS2_PLACEMENT_3D('',#544,#545,#546);
#544 = CARTESIAN_POINT('',(55.64737097787,-18.73972548696,
    48.005313495563));
#545 = DIRECTION('',(-9.013892499825E-02,0.995929201399,
    -3.792215342724E-16));
#546 = DIRECTION('',(0.995929201399,9.013892499825E-02,
    7.652228794259E-16));
#547 = PCURVE('',#32,#548);
#548 = DEFINITIONAL_REPRESENTATION('',(#549),#553);
#549 = CIRCLE('',#550,3.25);
#550 = AXIS2_PLACEMENT_2D('',#551,#552);
#551 = CARTESIAN_POINT('',(-0.244872749071,-48.00555378512));
#552 = DIRECTION('',(1.,0.));
#553 = ( GEOMETRIC_REPRESENTATION_CONTEXT(2) 
PARAMETRIC_REPRESENTATION_CONTEXT() REPRESENTATION_CONTEXT('2D SPACE',''
  ) );
#554 = PCURVE('',#555,#560);
#555 = CYLINDRICAL_SURFACE('',#556,3.25);
#556 = AXIS2_PLACEMENT_3D('',#557,#558,#559);
#557 = CARTESIAN_POINT('',(54.295287102896,-3.80078746597,
    48.005313495563));
#558 = DIRECTION('',(-9.013892499825E-02,0.995929201399,
    -3.792215342724E-16));
#559 = DIRECTION('',(0.995929201399,9.013892499825E-02,
    7.652228794259E-16));
#560 = DEFINITIONAL_REPRESENTATION('',(#561),#565);
#561 = LINE('',#562,#563);
#562 = CARTESIAN_POINT('',(0.,-15.));
#563 = VECTOR('',#564,1.);
#564 = DIRECTION('',(1.,0.));
#565 = ( GEOMETRIC_REPRESENTATION_CONTEXT(2) 
PARAMETRIC_REPRESENTATION_CONTEXT() REPRESENTATION_CONTEXT('2D SPACE',''
  ) );
#566 = FACE_BOUND('',#567,.T.);
#567 = EDGE_LOOP('',(#568));
#568 = ORIENTED_EDGE('',*,*,#569,.T.);
#569 = EDGE_CURVE('',#570,#570,#572,.T.);
#570 = VERTEX_POINT('',#571);
#571 = CARTESIAN_POINT('',(84.639531958453,-16.11572147092,
    -46.58752932718));
#572 = SURFACE_CURVE('',#573,(#578,#585),.PCURVE_S1.);
#573 = CIRCLE('',#574,3.25);
#574 = AXIS2_PLACEMENT_3D('',#575,#576,#577);
#575 = CARTESIAN_POINT('',(87.876301863001,-15.82276996467,
    -46.58752932718));
#576 = DIRECTION('',(-9.013892499825E-02,0.995929201399,
    -3.792215342724E-16));
#577 = DIRECTION('',(0.995929201399,9.013892499825E-02,
    7.652228794259E-16));
#578 = PCURVE('',#32,#579);
#579 = DEFINITIONAL_REPRESENTATION('',(#580),#584);
#580 = CIRCLE('',#581,3.25);
#581 = AXIS2_PLACEMENT_2D('',#582,#583);
#582 = CARTESIAN_POINT('',(32.115791884362,46.587289037624));
#583 = DIRECTION('',(1.,0.));
#584 = ( GEOMETRIC_REPRESENTATION_CONTEXT(2) 
PARAMETRIC_REPRESENTATION_CONTEXT() REPRESENTATION_CONTEXT('2D SPACE',''
  ) );
#585 = PCURVE('',#586,#591);
#586 = CYLINDRICAL_SURFACE('',#587,3.25);
#587 = AXIS2_PLACEMENT_3D('',#588,#589,#590);
#588 = CARTESIAN_POINT('',(86.524217988027,-0.883831943684,
    -46.58752932718));
#589 = DIRECTION('',(-9.013892499825E-02,0.995929201399,
    -3.792215342724E-16));
#590 = DIRECTION('',(0.995929201399,9.013892499825E-02,
    7.652228794259E-16));
#591 = DEFINITIONAL_REPRESENTATION('',(#592),#596);
#592 = LINE('',#593,#594);
#593 = CARTESIAN_POINT('',(0.,-15.));
#594 = VECTOR('',#595,1.);
#595 = DIRECTION('',(1.,0.));
#596 = ( GEOMETRIC_REPRESENTATION_CONTEXT(2) 
PARAMETRIC_REPRESENTATION_CONTEXT() REPRESENTATION_CONTEXT('2D SPACE',''
  ) );
#597 = FACE_BOUND('',#598,.T.);
#598 = EDGE_LOOP('',(#599));
#599 = ORIENTED_EDGE('',*,*,#600,.T.);
#600 = EDGE_CURVE('',#601,#601,#603,.T.);
#601 = VERTEX_POINT('',#602);
#602 = CARTESIAN_POINT('',(20.181670188191,-21.94963251549,
    49.423097663941));
#603 = SURFACE_CURVE('',#604,(#609,#616),.PCURVE_S1.);
#604 = CIRCLE('',#605,3.25);
#605 = AXIS2_PLACEMENT_3D('',#606,#607,#608);
#606 = CARTESIAN_POINT('',(23.41844009274,-21.65668100924,
    49.423097663941));
#607 = DIRECTION('',(-9.013892499825E-02,0.995929201399,
    -3.792215342724E-16));
#608 = DIRECTION('',(0.995929201399,9.013892499825E-02,
    7.652228794259E-16));
#609 = PCURVE('',#32,#610);
#610 = DEFINITIONAL_REPRESENTATION('',(#611),#615);
#611 = CIRCLE('',#612,3.25);
#612 = AXIS2_PLACEMENT_2D('',#613,#614);
#613 = CARTESIAN_POINT('',(-32.6055373825,-49.4233379535));
#614 = DIRECTION('',(1.,0.));
#615 = ( GEOMETRIC_REPRESENTATION_CONTEXT(2) 
PARAMETRIC_REPRESENTATION_CONTEXT() REPRESENTATION_CONTEXT('2D SPACE',''
  ) );
#616 = PCURVE('',#617,#622);
#617 = CYLINDRICAL_SURFACE('',#618,3.25);
#618 = AXIS2_PLACEMENT_3D('',#619,#620,#621);
#619 = CARTESIAN_POINT('',(22.066356217766,-6.717742988257,
    49.423097663941));
#620 = DIRECTION('',(-9.013892499825E-02,0.995929201399,
    -3.792215342724E-16));
#621 = DIRECTION('',(0.995929201399,9.013892499825E-02,
    7.652228794259E-16));
#622 = DEFINITIONAL_REPRESENTATION('',(#623),#627);
#623 = LINE('',#624,#625);
#624 = CARTESIAN_POINT('',(0.,-15.));
#625 = VECTOR('',#626,1.);
#626 = DIRECTION('',(1.,0.));
#627 = ( GEOMETRIC_REPRESENTATION_CONTEXT(2) 
PARAMETRIC_REPRESENTATION_CONTEXT() REPRESENTATION_CONTEXT('2D SPACE',''
  ) );
#628 = FACE_BOUND('',#629,.T.);
#629 = EDGE_LOOP('',(#630));
#630 = ORIENTED_EDGE('',*,*,#631,.T.);
#631 = EDGE_CURVE('',#632,#632,#634,.T.);
#632 = VERTEX_POINT('',#633);
#633 = CARTESIAN_POINT('',(84.639531958452,-16.11572147092,
    46.587529327184));
#634 = SURFACE_CURVE('',#635,(#640,#647),.PCURVE_S1.);
#635 = CIRCLE('',#636,3.25);
#636 = AXIS2_PLACEMENT_3D('',#637,#638,#639);
#637 = CARTESIAN_POINT('',(87.876301863001,-15.82276996467,
    46.587529327184));
#638 = DIRECTION('',(-9.013892499825E-02,0.995929201399,
    -3.792215342724E-16));
#639 = DIRECTION('',(0.995929201399,9.013892499825E-02,
    7.652228794259E-16));
#640 = PCURVE('',#32,#641);
#641 = DEFINITIONAL_REPRESENTATION('',(#642),#646);
#642 = CIRCLE('',#643,3.25);
#643 = AXIS2_PLACEMENT_2D('',#644,#645);
#644 = CARTESIAN_POINT('',(32.115791884362,-46.58776961674));
#645 = DIRECTION('',(1.,0.));
#646 = ( GEOMETRIC_REPRESENTATION_CONTEXT(2) 
PARAMETRIC_REPRESENTATION_CONTEXT() REPRESENTATION_CONTEXT('2D SPACE',''
  ) );
#647 = PCURVE('',#648,#653);
#648 = CYLINDRICAL_SURFACE('',#649,3.25);
#649 = AXIS2_PLACEMENT_3D('',#650,#651,#652);
#650 = CARTESIAN_POINT('',(86.524217988027,-0.883831943684,
    46.587529327184));
#651 = DIRECTION('',(-9.013892499825E-02,0.995929201399,
    -3.792215342724E-16));
#652 = DIRECTION('',(0.995929201399,9.013892499825E-02,
    7.652228794259E-16));
#653 = DEFINITIONAL_REPRESENTATION('',(#654),#658);
#654 = LINE('',#655,#656);
#655 = CARTESIAN_POINT('',(0.,-15.));
#656 = VECTOR('',#657,1.);
#657 = DIRECTION('',(1.,0.));
#658 = ( GEOMETRIC_REPRESENTATION_CONTEXT(2) 
PARAMETRIC_REPRESENTATION_CONTEXT() REPRESENTATION_CONTEXT('2D SPACE',''
  ) );
#659 = ADVANCED_FACE('',(#660),#648,.F.);
#660 = FACE_BOUND('',#661,.F.);
#661 = EDGE_LOOP('',(#662,#685,#716,#717));
#662 = ORIENTED_EDGE('',*,*,#663,.T.);
#663 = EDGE_CURVE('',#632,#664,#666,.T.);
#664 = VERTEX_POINT('',#665);
#665 = CARTESIAN_POINT('',(81.935364208505,13.762154571064,
    46.587529327184));
#666 = SEAM_CURVE('',#667,(#671,#678),.PCURVE_S1.);
#667 = LINE('',#668,#669);
#668 = CARTESIAN_POINT('',(83.287448083479,-1.176783449928,
    46.587529327184));
#669 = VECTOR('',#670,1.);
#670 = DIRECTION('',(-9.013892499825E-02,0.995929201399,
    -3.792215342724E-16));
#671 = PCURVE('',#648,#672);
#672 = DEFINITIONAL_REPRESENTATION('',(#673),#677);
#673 = LINE('',#674,#675);
#674 = CARTESIAN_POINT('',(9.424777960769,0.));
#675 = VECTOR('',#676,1.);
#676 = DIRECTION('',(0.,1.));
#677 = ( GEOMETRIC_REPRESENTATION_CONTEXT(2) 
PARAMETRIC_REPRESENTATION_CONTEXT() REPRESENTATION_CONTEXT('2D SPACE',''
  ) );
#678 = PCURVE('',#648,#679);
#679 = DEFINITIONAL_REPRESENTATION('',(#680),#684);
#680 = LINE('',#681,#682);
#681 = CARTESIAN_POINT('',(3.14159265359,0.));
#682 = VECTOR('',#683,1.);
#683 = DIRECTION('',(0.,1.));
#684 = ( GEOMETRIC_REPRESENTATION_CONTEXT(2) 
PARAMETRIC_REPRESENTATION_CONTEXT() REPRESENTATION_CONTEXT('2D SPACE',''
  ) );
#685 = ORIENTED_EDGE('',*,*,#686,.T.);
#686 = EDGE_CURVE('',#664,#664,#687,.T.);
#687 = SURFACE_CURVE('',#688,(#693,#700),.PCURVE_S1.);
#688 = CIRCLE('',#689,3.25);
#689 = AXIS2_PLACEMENT_3D('',#690,#691,#692);
#690 = CARTESIAN_POINT('',(85.172134113053,14.055106077308,
    46.587529327184));
#691 = DIRECTION('',(9.013892499825E-02,-0.995929201399,
    3.792215342724E-16));
#692 = DIRECTION('',(0.995929201399,9.013892499825E-02,
    7.652228794259E-16));
#693 = PCURVE('',#648,#694);
#694 = DEFINITIONAL_REPRESENTATION('',(#695),#699);
#695 = LINE('',#696,#697);
#696 = CARTESIAN_POINT('',(12.566370614359,15.));
#697 = VECTOR('',#698,1.);
#698 = DIRECTION('',(-1.,0.));
#699 = ( GEOMETRIC_REPRESENTATION_CONTEXT(2) 
PARAMETRIC_REPRESENTATION_CONTEXT() REPRESENTATION_CONTEXT('2D SPACE',''
  ) );
#700 = PCURVE('',#701,#706);
#701 = PLANE('',#702);
#702 = AXIS2_PLACEMENT_3D('',#703,#704,#705);
#703 = CARTESIAN_POINT('',(53.187079149349,11.160223121384,
    -2.402895594561E-04));
#704 = DIRECTION('',(-9.013892499825E-02,0.995929201399,
    -3.792215342724E-16));
#705 = DIRECTION('',(0.995929201399,9.013892499825E-02,
    7.652228794259E-16));
#706 = DEFINITIONAL_REPRESENTATION('',(#707),#715);
#707 = ( BOUNDED_CURVE() B_SPLINE_CURVE(2,(#708,#709,#710,#711,#712,#713
,#714),.UNSPECIFIED.,.T.,.F.) B_SPLINE_CURVE_WITH_KNOTS((1,2,2,2,2,1),(
    -2.094395102393,0.,2.094395102393,4.188790204786,6.28318530718,
8.377580409573),.UNSPECIFIED.) CURVE() GEOMETRIC_REPRESENTATION_ITEM() 
RATIONAL_B_SPLINE_CURVE((1.,0.5,1.,0.5,1.,0.5,1.)) REPRESENTATION_ITEM(
  '') );
#708 = CARTESIAN_POINT('',(35.365791884362,-46.58776961674));
#709 = CARTESIAN_POINT('',(35.365791884362,-52.21693474134));
#710 = CARTESIAN_POINT('',(30.490791884362,-49.40235217904));
#711 = CARTESIAN_POINT('',(25.615791884362,-46.58776961674));
#712 = CARTESIAN_POINT('',(30.490791884362,-43.77318705444));
#713 = CARTESIAN_POINT('',(35.365791884362,-40.95860449214));
#714 = CARTESIAN_POINT('',(35.365791884362,-46.58776961674));
#715 = ( GEOMETRIC_REPRESENTATION_CONTEXT(2) 
PARAMETRIC_REPRESENTATION_CONTEXT() REPRESENTATION_CONTEXT('2D SPACE',''
  ) );
#716 = ORIENTED_EDGE('',*,*,#663,.F.);
#717 = ORIENTED_EDGE('',*,*,#631,.T.);
#718 = ADVANCED_FACE('',(#719),#617,.F.);
#719 = FACE_BOUND('',#720,.F.);
#720 = EDGE_LOOP('',(#721,#744,#770,#771));
#721 = ORIENTED_EDGE('',*,*,#722,.T.);
#722 = EDGE_CURVE('',#601,#723,#725,.T.);
#723 = VERTEX_POINT('',#724);
#724 = CARTESIAN_POINT('',(17.477502438244,7.928243526491,
    49.423097663941));
#725 = SEAM_CURVE('',#726,(#730,#737),.PCURVE_S1.);
#726 = LINE('',#727,#728);
#727 = CARTESIAN_POINT('',(18.829586313218,-7.010694494501,
    49.423097663941));
#728 = VECTOR('',#729,1.);
#729 = DIRECTION('',(-9.013892499825E-02,0.995929201399,
    -3.792215342724E-16));
#730 = PCURVE('',#617,#731);
#731 = DEFINITIONAL_REPRESENTATION('',(#732),#736);
#732 = LINE('',#733,#734);
#733 = CARTESIAN_POINT('',(9.424777960769,0.));
#734 = VECTOR('',#735,1.);
#735 = DIRECTION('',(0.,1.));
#736 = ( GEOMETRIC_REPRESENTATION_CONTEXT(2) 
PARAMETRIC_REPRESENTATION_CONTEXT() REPRESENTATION_CONTEXT('2D SPACE',''
  ) );
#737 = PCURVE('',#617,#738);
#738 = DEFINITIONAL_REPRESENTATION('',(#739),#743);
#739 = LINE('',#740,#741);
#740 = CARTESIAN_POINT('',(3.14159265359,0.));
#741 = VECTOR('',#742,1.);
#742 = DIRECTION('',(0.,1.));
#743 = ( GEOMETRIC_REPRESENTATION_CONTEXT(2) 
PARAMETRIC_REPRESENTATION_CONTEXT() REPRESENTATION_CONTEXT('2D SPACE',''
  ) );
#744 = ORIENTED_EDGE('',*,*,#745,.T.);
#745 = EDGE_CURVE('',#723,#723,#746,.T.);
#746 = SURFACE_CURVE('',#747,(#752,#759),.PCURVE_S1.);
#747 = CIRCLE('',#748,3.25);
#748 = AXIS2_PLACEMENT_3D('',#749,#750,#751);
#749 = CARTESIAN_POINT('',(20.714272342792,8.221195032735,
    49.423097663941));
#750 = DIRECTION('',(9.013892499825E-02,-0.995929201399,
    3.792215342724E-16));
#751 = DIRECTION('',(0.995929201399,9.013892499825E-02,
    7.652228794259E-16));
#752 = PCURVE('',#617,#753);
#753 = DEFINITIONAL_REPRESENTATION('',(#754),#758);
#754 = LINE('',#755,#756);
#755 = CARTESIAN_POINT('',(12.566370614359,15.));
#756 = VECTOR('',#757,1.);
#757 = DIRECTION('',(-1.,0.));
#758 = ( GEOMETRIC_REPRESENTATION_CONTEXT(2) 
PARAMETRIC_REPRESENTATION_CONTEXT() REPRESENTATION_CONTEXT('2D SPACE',''
  ) );
#759 = PCURVE('',#701,#760);
#760 = DEFINITIONAL_REPRESENTATION('',(#761),#769);
#761 = ( BOUNDED_CURVE() B_SPLINE_CURVE(2,(#762,#763,#764,#765,#766,#767
,#768),.UNSPECIFIED.,.T.,.F.) B_SPLINE_CURVE_WITH_KNOTS((1,2,2,2,2,1),(
    -2.094395102393,0.,2.094395102393,4.188790204786,6.28318530718,
8.377580409573),.UNSPECIFIED.) CURVE() GEOMETRIC_REPRESENTATION_ITEM() 
RATIONAL_B_SPLINE_CURVE((1.,0.5,1.,0.5,1.,0.5,1.)) REPRESENTATION_ITEM(
  '') );
#762 = CARTESIAN_POINT('',(-29.3555373825,-49.4233379535));
#763 = CARTESIAN_POINT('',(-29.3555373825,-55.0525030781));
#764 = CARTESIAN_POINT('',(-34.2305373825,-52.2379205158));
#765 = CARTESIAN_POINT('',(-39.1055373825,-49.4233379535));
#766 = CARTESIAN_POINT('',(-34.2305373825,-46.6087553912));
#767 = CARTESIAN_POINT('',(-29.3555373825,-43.7941728289));
#768 = CARTESIAN_POINT('',(-29.3555373825,-49.4233379535));
#769 = ( GEOMETRIC_REPRESENTATION_CONTEXT(2) 
PARAMETRIC_REPRESENTATION_CONTEXT() REPRESENTATION_CONTEXT('2D SPACE',''
  ) );
#770 = ORIENTED_EDGE('',*,*,#722,.F.);
#771 = ORIENTED_EDGE('',*,*,#600,.T.);
#772 = ADVANCED_FACE('',(#773),#586,.F.);
#773 = FACE_BOUND('',#774,.F.);
#774 = EDGE_LOOP('',(#775,#798,#824,#825));
#775 = ORIENTED_EDGE('',*,*,#776,.T.);
#776 = EDGE_CURVE('',#570,#777,#779,.T.);
#777 = VERTEX_POINT('',#778);
#778 = CARTESIAN_POINT('',(81.935364208505,13.762154571064,
    -46.58752932718));
#779 = SEAM_CURVE('',#780,(#784,#791),.PCURVE_S1.);
#780 = LINE('',#781,#782);
#781 = CARTESIAN_POINT('',(83.287448083479,-1.176783449928,
    -46.58752932718));
#782 = VECTOR('',#783,1.);
#783 = DIRECTION('',(-9.013892499825E-02,0.995929201399,
    -3.792215342724E-16));
#784 = PCURVE('',#586,#785);
#785 = DEFINITIONAL_REPRESENTATION('',(#786),#790);
#786 = LINE('',#787,#788);
#787 = CARTESIAN_POINT('',(9.424777960769,0.));
#788 = VECTOR('',#789,1.);
#789 = DIRECTION('',(0.,1.));
#790 = ( GEOMETRIC_REPRESENTATION_CONTEXT(2) 
PARAMETRIC_REPRESENTATION_CONTEXT() REPRESENTATION_CONTEXT('2D SPACE',''
  ) );
#791 = PCURVE('',#586,#792);
#792 = DEFINITIONAL_REPRESENTATION('',(#793),#797);
#793 = LINE('',#794,#795);
#794 = CARTESIAN_POINT('',(3.14159265359,0.));
#795 = VECTOR('',#796,1.);
#796 = DIRECTION('',(0.,1.));
#797 = ( GEOMETRIC_REPRESENTATION_CONTEXT(2) 
PARAMETRIC_REPRESENTATION_CONTEXT() REPRESENTATION_CONTEXT('2D SPACE',''
  ) );
#798 = ORIENTED_EDGE('',*,*,#799,.T.);
#799 = EDGE_CURVE('',#777,#777,#800,.T.);
#800 = SURFACE_CURVE('',#801,(#806,#813),.PCURVE_S1.);
#801 = CIRCLE('',#802,3.25);
#802 = AXIS2_PLACEMENT_3D('',#803,#804,#805);
#803 = CARTESIAN_POINT('',(85.172134113053,14.055106077308,
    -46.58752932718));
#804 = DIRECTION('',(9.013892499825E-02,-0.995929201399,
    3.792215342724E-16));
#805 = DIRECTION('',(0.995929201399,9.013892499825E-02,
    7.652228794259E-16));
#806 = PCURVE('',#586,#807);
#807 = DEFINITIONAL_REPRESENTATION('',(#808),#812);
#808 = LINE('',#809,#810);
#809 = CARTESIAN_POINT('',(12.566370614359,15.));
#810 = VECTOR('',#811,1.);
#811 = DIRECTION('',(-1.,0.));
#812 = ( GEOMETRIC_REPRESENTATION_CONTEXT(2) 
PARAMETRIC_REPRESENTATION_CONTEXT() REPRESENTATION_CONTEXT('2D SPACE',''
  ) );
#813 = PCURVE('',#701,#814);
#814 = DEFINITIONAL_REPRESENTATION('',(#815),#823);
#815 = ( BOUNDED_CURVE() B_SPLINE_CURVE(2,(#816,#817,#818,#819,#820,#821
,#822),.UNSPECIFIED.,.T.,.F.) B_SPLINE_CURVE_WITH_KNOTS((1,2,2,2,2,1),(
    -2.094395102393,0.,2.094395102393,4.188790204786,6.28318530718,
8.377580409573),.UNSPECIFIED.) CURVE() GEOMETRIC_REPRESENTATION_ITEM() 
RATIONAL_B_SPLINE_CURVE((1.,0.5,1.,0.5,1.,0.5,1.)) REPRESENTATION_ITEM(
  '') );
#816 = CARTESIAN_POINT('',(35.365791884362,46.587289037624));
#817 = CARTESIAN_POINT('',(35.365791884362,40.958123913025));
#818 = CARTESIAN_POINT('',(30.490791884362,43.772706475325));
#819 = CARTESIAN_POINT('',(25.615791884362,46.587289037624));
#820 = CARTESIAN_POINT('',(30.490791884362,49.401871599924));
#821 = CARTESIAN_POINT('',(35.365791884362,52.216454162223));
#822 = CARTESIAN_POINT('',(35.365791884362,46.587289037624));
#823 = ( GEOMETRIC_REPRESENTATION_CONTEXT(2) 
PARAMETRIC_REPRESENTATION_CONTEXT() REPRESENTATION_CONTEXT('2D SPACE',''
  ) );
#824 = ORIENTED_EDGE('',*,*,#776,.F.);
#825 = ORIENTED_EDGE('',*,*,#569,.T.);
#826 = ADVANCED_FACE('',(#827),#555,.F.);
#827 = FACE_BOUND('',#828,.F.);
#828 = EDGE_LOOP('',(#829,#852,#878,#879));
#829 = ORIENTED_EDGE('',*,*,#830,.T.);
#830 = EDGE_CURVE('',#539,#831,#833,.T.);
#831 = VERTEX_POINT('',#832);
#832 = CARTESIAN_POINT('',(49.706433323374,10.845199048777,
    48.005313495563));
#833 = SEAM_CURVE('',#834,(#838,#845),.PCURVE_S1.);
#834 = LINE('',#835,#836);
#835 = CARTESIAN_POINT('',(51.058517198348,-4.093738972214,
    48.005313495563));
#836 = VECTOR('',#837,1.);
#837 = DIRECTION('',(-9.013892499825E-02,0.995929201399,
    -3.792215342724E-16));
#838 = PCURVE('',#555,#839);
#839 = DEFINITIONAL_REPRESENTATION('',(#840),#844);
#840 = LINE('',#841,#842);
#841 = CARTESIAN_POINT('',(9.424777960769,0.));
#842 = VECTOR('',#843,1.);
#843 = DIRECTION('',(0.,1.));
#844 = ( GEOMETRIC_REPRESENTATION_CONTEXT(2) 
PARAMETRIC_REPRESENTATION_CONTEXT() REPRESENTATION_CONTEXT('2D SPACE',''
  ) );
#845 = PCURVE('',#555,#846);
#846 = DEFINITIONAL_REPRESENTATION('',(#847),#851);
#847 = LINE('',#848,#849);
#848 = CARTESIAN_POINT('',(3.14159265359,0.));
#849 = VECTOR('',#850,1.);
#850 = DIRECTION('',(0.,1.));
#851 = ( GEOMETRIC_REPRESENTATION_CONTEXT(2) 
PARAMETRIC_REPRESENTATION_CONTEXT() REPRESENTATION_CONTEXT('2D SPACE',''
  ) );
#852 = ORIENTED_EDGE('',*,*,#853,.T.);
#853 = EDGE_CURVE('',#831,#831,#854,.T.);
#854 = SURFACE_CURVE('',#855,(#860,#867),.PCURVE_S1.);
#855 = CIRCLE('',#856,3.25);
#856 = AXIS2_PLACEMENT_3D('',#857,#858,#859);
#857 = CARTESIAN_POINT('',(52.943203227923,11.138150555022,
    48.005313495563));
#858 = DIRECTION('',(9.013892499825E-02,-0.995929201399,
    3.792215342724E-16));
#859 = DIRECTION('',(0.995929201399,9.013892499825E-02,
    7.652228794259E-16));
#860 = PCURVE('',#555,#861);
#861 = DEFINITIONAL_REPRESENTATION('',(#862),#866);
#862 = LINE('',#863,#864);
#863 = CARTESIAN_POINT('',(12.566370614359,15.));
#864 = VECTOR('',#865,1.);
#865 = DIRECTION('',(-1.,0.));
#866 = ( GEOMETRIC_REPRESENTATION_CONTEXT(2) 
PARAMETRIC_REPRESENTATION_CONTEXT() REPRESENTATION_CONTEXT('2D SPACE',''
  ) );
#867 = PCURVE('',#701,#868);
#868 = DEFINITIONAL_REPRESENTATION('',(#869),#877);
#869 = ( BOUNDED_CURVE() B_SPLINE_CURVE(2,(#870,#871,#872,#873,#874,#875
,#876),.UNSPECIFIED.,.T.,.F.) B_SPLINE_CURVE_WITH_KNOTS((1,2,2,2,2,1),(
    -2.094395102393,0.,2.094395102393,4.188790204786,6.28318530718,
8.377580409573),.UNSPECIFIED.) CURVE() GEOMETRIC_REPRESENTATION_ITEM() 
RATIONAL_B_SPLINE_CURVE((1.,0.5,1.,0.5,1.,0.5,1.)) REPRESENTATION_ITEM(
  '') );
#870 = CARTESIAN_POINT('',(3.005127250929,-48.00555378512));
#871 = CARTESIAN_POINT('',(3.005127250929,-53.63471890972));
#872 = CARTESIAN_POINT('',(-1.869872749071,-50.82013634742));
#873 = CARTESIAN_POINT('',(-6.744872749071,-48.00555378512));
#874 = CARTESIAN_POINT('',(-1.869872749071,-45.19097122282));
#875 = CARTESIAN_POINT('',(3.005127250929,-42.37638866052));
#876 = CARTESIAN_POINT('',(3.005127250929,-48.00555378512));
#877 = ( GEOMETRIC_REPRESENTATION_CONTEXT(2) 
PARAMETRIC_REPRESENTATION_CONTEXT() REPRESENTATION_CONTEXT('2D SPACE',''
  ) );
#878 = ORIENTED_EDGE('',*,*,#830,.F.);
#879 = ORIENTED_EDGE('',*,*,#538,.T.);
#880 = ADVANCED_FACE('',(#881),#524,.F.);
#881 = FACE_BOUND('',#882,.F.);
#882 = EDGE_LOOP('',(#883,#906,#932,#933));
#883 = ORIENTED_EDGE('',*,*,#884,.T.);
#884 = EDGE_CURVE('',#508,#885,#887,.T.);
#885 = VERTEX_POINT('',#886);
#886 = CARTESIAN_POINT('',(49.706433323374,10.845199048777,
    -48.00531349556));
#887 = SEAM_CURVE('',#888,(#892,#899),.PCURVE_S1.);
#888 = LINE('',#889,#890);
#889 = CARTESIAN_POINT('',(51.058517198348,-4.093738972214,
    -48.00531349556));
#890 = VECTOR('',#891,1.);
#891 = DIRECTION('',(-9.013892499825E-02,0.995929201399,
    -3.792215342724E-16));
#892 = PCURVE('',#524,#893);
#893 = DEFINITIONAL_REPRESENTATION('',(#894),#898);
#894 = LINE('',#895,#896);
#895 = CARTESIAN_POINT('',(9.424777960769,0.));
#896 = VECTOR('',#897,1.);
#897 = DIRECTION('',(0.,1.));
#898 = ( GEOMETRIC_REPRESENTATION_CONTEXT(2) 
PARAMETRIC_REPRESENTATION_CONTEXT() REPRESENTATION_CONTEXT('2D SPACE',''
  ) );
#899 = PCURVE('',#524,#900);
#900 = DEFINITIONAL_REPRESENTATION('',(#901),#905);
#901 = LINE('',#902,#903);
#902 = CARTESIAN_POINT('',(3.14159265359,0.));
#903 = VECTOR('',#904,1.);
#904 = DIRECTION('',(0.,1.));
#905 = ( GEOMETRIC_REPRESENTATION_CONTEXT(2) 
PARAMETRIC_REPRESENTATION_CONTEXT() REPRESENTATION_CONTEXT('2D SPACE',''
  ) );
#906 = ORIENTED_EDGE('',*,*,#907,.T.);
#907 = EDGE_CURVE('',#885,#885,#908,.T.);
#908 = SURFACE_CURVE('',#909,(#914,#921),.PCURVE_S1.);
#909 = CIRCLE('',#910,3.25);
#910 = AXIS2_PLACEMENT_3D('',#911,#912,#913);
#911 = CARTESIAN_POINT('',(52.943203227923,11.138150555022,
    -48.00531349556));
#912 = DIRECTION('',(9.013892499825E-02,-0.995929201399,
    3.792215342724E-16));
#913 = DIRECTION('',(0.995929201399,9.013892499825E-02,
    7.652228794259E-16));
#914 = PCURVE('',#524,#915);
#915 = DEFINITIONAL_REPRESENTATION('',(#916),#920);
#916 = LINE('',#917,#918);
#917 = CARTESIAN_POINT('',(12.566370614359,15.));
#918 = VECTOR('',#919,1.);
#919 = DIRECTION('',(-1.,0.));
#920 = ( GEOMETRIC_REPRESENTATION_CONTEXT(2) 
PARAMETRIC_REPRESENTATION_CONTEXT() REPRESENTATION_CONTEXT('2D SPACE',''
  ) );
#921 = PCURVE('',#701,#922);
#922 = DEFINITIONAL_REPRESENTATION('',(#923),#931);
#923 = ( BOUNDED_CURVE() B_SPLINE_CURVE(2,(#924,#925,#926,#927,#928,#929
,#930),.UNSPECIFIED.,.T.,.F.) B_SPLINE_CURVE_WITH_KNOTS((1,2,2,2,2,1),(
    -2.094395102393,0.,2.094395102393,4.188790204786,6.28318530718,
8.377580409573),.UNSPECIFIED.) CURVE() GEOMETRIC_REPRESENTATION_ITEM() 
RATIONAL_B_SPLINE_CURVE((1.,0.5,1.,0.5,1.,0.5,1.)) REPRESENTATION_ITEM(
  '') );
#924 = CARTESIAN_POINT('',(3.005127250929,48.005073206003));
#925 = CARTESIAN_POINT('',(3.005127250929,42.375908081404));
#926 = CARTESIAN_POINT('',(-1.869872749071,45.190490643703));
#927 = CARTESIAN_POINT('',(-6.744872749071,48.005073206003));
#928 = CARTESIAN_POINT('',(-1.869872749071,50.819655768302));
#929 = CARTESIAN_POINT('',(3.005127250929,53.634238330602));
#930 = CARTESIAN_POINT('',(3.005127250929,48.005073206003));
#931 = ( GEOMETRIC_REPRESENTATION_CONTEXT(2) 
PARAMETRIC_REPRESENTATION_CONTEXT() REPRESENTATION_CONTEXT('2D SPACE',''
  ) );
#932 = ORIENTED_EDGE('',*,*,#884,.F.);
#933 = ORIENTED_EDGE('',*,*,#507,.T.);
#934 = ADVANCED_FACE('',(#935),#493,.F.);
#935 = FACE_BOUND('',#936,.F.);
#936 = EDGE_LOOP('',(#937,#960,#986,#987));
#937 = ORIENTED_EDGE('',*,*,#938,.T.);
#938 = EDGE_CURVE('',#477,#939,#941,.T.);
#939 = VERTEX_POINT('',#940);
#940 = CARTESIAN_POINT('',(17.477502438244,7.928243526491,
    -49.42309766394));
#941 = SEAM_CURVE('',#942,(#946,#953),.PCURVE_S1.);
#942 = LINE('',#943,#944);
#943 = CARTESIAN_POINT('',(18.829586313218,-7.010694494501,
    -49.42309766394));
#944 = VECTOR('',#945,1.);
#945 = DIRECTION('',(-9.013892499825E-02,0.995929201399,
    -3.792215342724E-16));
#946 = PCURVE('',#493,#947);
#947 = DEFINITIONAL_REPRESENTATION('',(#948),#952);
#948 = LINE('',#949,#950);
#949 = CARTESIAN_POINT('',(9.424777960769,0.));
#950 = VECTOR('',#951,1.);
#951 = DIRECTION('',(0.,1.));
#952 = ( GEOMETRIC_REPRESENTATION_CONTEXT(2) 
PARAMETRIC_REPRESENTATION_CONTEXT() REPRESENTATION_CONTEXT('2D SPACE',''
  ) );
#953 = PCURVE('',#493,#954);
#954 = DEFINITIONAL_REPRESENTATION('',(#955),#959);
#955 = LINE('',#956,#957);
#956 = CARTESIAN_POINT('',(3.14159265359,0.));
#957 = VECTOR('',#958,1.);
#958 = DIRECTION('',(0.,1.));
#959 = ( GEOMETRIC_REPRESENTATION_CONTEXT(2) 
PARAMETRIC_REPRESENTATION_CONTEXT() REPRESENTATION_CONTEXT('2D SPACE',''
  ) );
#960 = ORIENTED_EDGE('',*,*,#961,.T.);
#961 = EDGE_CURVE('',#939,#939,#962,.T.);
#962 = SURFACE_CURVE('',#963,(#968,#975),.PCURVE_S1.);
#963 = CIRCLE('',#964,3.25);
#964 = AXIS2_PLACEMENT_3D('',#965,#966,#967);
#965 = CARTESIAN_POINT('',(20.714272342792,8.221195032735,
    -49.42309766394));
#966 = DIRECTION('',(9.013892499825E-02,-0.995929201399,
    3.792215342724E-16));
#967 = DIRECTION('',(0.995929201399,9.013892499825E-02,
    7.652228794259E-16));
#968 = PCURVE('',#493,#969);
#969 = DEFINITIONAL_REPRESENTATION('',(#970),#974);
#970 = LINE('',#971,#972);
#971 = CARTESIAN_POINT('',(12.566370614359,15.));
#972 = VECTOR('',#973,1.);
#973 = DIRECTION('',(-1.,0.));
#974 = ( GEOMETRIC_REPRESENTATION_CONTEXT(2) 
PARAMETRIC_REPRESENTATION_CONTEXT() REPRESENTATION_CONTEXT('2D SPACE',''
  ) );
#975 = PCURVE('',#701,#976);
#976 = DEFINITIONAL_REPRESENTATION('',(#977),#985);
#977 = ( BOUNDED_CURVE() B_SPLINE_CURVE(2,(#978,#979,#980,#981,#982,#983
,#984),.UNSPECIFIED.,.T.,.F.) B_SPLINE_CURVE_WITH_KNOTS((1,2,2,2,2,1),(
    -2.094395102393,0.,2.094395102393,4.188790204786,6.28318530718,
8.377580409573),.UNSPECIFIED.) CURVE() GEOMETRIC_REPRESENTATION_ITEM() 
RATIONAL_B_SPLINE_CURVE((1.,0.5,1.,0.5,1.,0.5,1.)) REPRESENTATION_ITEM(
  '') );
#978 = CARTESIAN_POINT('',(-29.3555373825,49.422857374382));
#979 = CARTESIAN_POINT('',(-29.3555373825,43.793692249783));
#980 = CARTESIAN_POINT('',(-34.2305373825,46.608274812082));
#981 = CARTESIAN_POINT('',(-39.1055373825,49.422857374382));
#982 = CARTESIAN_POINT('',(-34.2305373825,52.237439936681));
#983 = CARTESIAN_POINT('',(-29.3555373825,55.05202249898));
#984 = CARTESIAN_POINT('',(-29.3555373825,49.422857374382));
#985 = ( GEOMETRIC_REPRESENTATION_CONTEXT(2) 
PARAMETRIC_REPRESENTATION_CONTEXT() REPRESENTATION_CONTEXT('2D SPACE',''
  ) );
#986 = ORIENTED_EDGE('',*,*,#938,.F.);
#987 = ORIENTED_EDGE('',*,*,#476,.T.);
#988 = ADVANCED_FACE('',(#989),#72,.T.);
#989 = FACE_BOUND('',#990,.T.);
#990 = EDGE_LOOP('',(#991,#1014,#1037,#1058));
#991 = ORIENTED_EDGE('',*,*,#992,.T.);
#992 = EDGE_CURVE('',#24,#993,#995,.T.);
#993 = VERTEX_POINT('',#994);
#994 = CARTESIAN_POINT('',(90.332626665386,14.522168646088,
    -30.00024028956));
#995 = SURFACE_CURVE('',#996,(#1000,#1007),.PCURVE_S1.);
#996 = LINE('',#997,#998);
#997 = CARTESIAN_POINT('',(91.684710540359,-0.416769374903,
    -30.00024028956));
#998 = VECTOR('',#999,1.);
#999 = DIRECTION('',(-9.013892499825E-02,0.995929201399,
    -3.792215342724E-16));
#1000 = PCURVE('',#72,#1001);
#1001 = DEFINITIONAL_REPRESENTATION('',(#1002),#1006);
#1002 = LINE('',#1003,#1004);
#1003 = CARTESIAN_POINT('',(11.063242668122,4.869622749696E-16));
#1004 = VECTOR('',#1005,1.);
#1005 = DIRECTION('',(-3.651439342834E-16,1.));
#1006 = ( GEOMETRIC_REPRESENTATION_CONTEXT(2) 
PARAMETRIC_REPRESENTATION_CONTEXT() REPRESENTATION_CONTEXT('2D SPACE',''
  ) );
#1007 = PCURVE('',#44,#1008);
#1008 = DEFINITIONAL_REPRESENTATION('',(#1009),#1013);
#1009 = LINE('',#1010,#1011);
#1010 = CARTESIAN_POINT('',(0.,0.));
#1011 = VECTOR('',#1012,1.);
#1012 = DIRECTION('',(-6.442364059303E-30,1.));
#1013 = ( GEOMETRIC_REPRESENTATION_CONTEXT(2) 
PARAMETRIC_REPRESENTATION_CONTEXT() REPRESENTATION_CONTEXT('2D SPACE',''
  ) );
#1014 = ORIENTED_EDGE('',*,*,#1015,.F.);
#1015 = EDGE_CURVE('',#1016,#993,#1018,.T.);
#1016 = VERTEX_POINT('',#1017);
#1017 = CARTESIAN_POINT('',(79.97889938379,13.58508010046,
    -33.78409213256));
#1018 = SURFACE_CURVE('',#1019,(#1023,#1030),.PCURVE_S1.);
#1019 = LINE('',#1020,#1021);
#1020 = CARTESIAN_POINT('',(90.332626665386,14.522168646088,
    -30.00024028956));
#1021 = VECTOR('',#1022,1.);
#1022 = DIRECTION('',(0.93586732138,8.470288266643E-02,0.342020143326));
#1023 = PCURVE('',#72,#1024);
#1024 = DEFINITIONAL_REPRESENTATION('',(#1025),#1029);
#1025 = LINE('',#1026,#1027);
#1026 = CARTESIAN_POINT('',(11.063242668122,15.));
#1027 = VECTOR('',#1028,1.);
#1028 = DIRECTION('',(1.,-6.28623533848E-31));
#1029 = ( GEOMETRIC_REPRESENTATION_CONTEXT(2) 
PARAMETRIC_REPRESENTATION_CONTEXT() REPRESENTATION_CONTEXT('2D SPACE',''
  ) );
#1030 = PCURVE('',#701,#1031);
#1031 = DEFINITIONAL_REPRESENTATION('',(#1032),#1036);
#1032 = LINE('',#1033,#1034);
#1033 = CARTESIAN_POINT('',(37.297377628691,30.000000000004));
#1034 = VECTOR('',#1035,1.);
#1035 = DIRECTION('',(0.939692620786,-0.342020143326));
#1036 = ( GEOMETRIC_REPRESENTATION_CONTEXT(2) 
PARAMETRIC_REPRESENTATION_CONTEXT() REPRESENTATION_CONTEXT('2D SPACE',''
  ) );
#1037 = ORIENTED_EDGE('',*,*,#1038,.F.);
#1038 = EDGE_CURVE('',#57,#1016,#1039,.T.);
#1039 = SURFACE_CURVE('',#1040,(#1044,#1051),.PCURVE_S1.);
#1040 = LINE('',#1041,#1042);
#1041 = CARTESIAN_POINT('',(81.330983258764,-1.353857920532,
    -33.78409213256));
#1042 = VECTOR('',#1043,1.);
#1043 = DIRECTION('',(-9.013892499825E-02,0.995929201399,
    -3.792215342724E-16));
#1044 = PCURVE('',#72,#1045);
#1045 = DEFINITIONAL_REPRESENTATION('',(#1046),#1050);
#1046 = LINE('',#1047,#1048);
#1047 = CARTESIAN_POINT('',(0.,0.));
#1048 = VECTOR('',#1049,1.);
#1049 = DIRECTION('',(-3.651439342834E-16,1.));
#1050 = ( GEOMETRIC_REPRESENTATION_CONTEXT(2) 
PARAMETRIC_REPRESENTATION_CONTEXT() REPRESENTATION_CONTEXT('2D SPACE',''
  ) );
#1051 = PCURVE('',#100,#1052);
#1052 = DEFINITIONAL_REPRESENTATION('',(#1053),#1057);
#1053 = LINE('',#1054,#1055);
#1054 = CARTESIAN_POINT('',(63.819628153797,-1.681942173317E-16));
#1055 = VECTOR('',#1056,1.);
#1056 = DIRECTION('',(-3.870408250381E-16,1.));
#1057 = ( GEOMETRIC_REPRESENTATION_CONTEXT(2) 
PARAMETRIC_REPRESENTATION_CONTEXT() REPRESENTATION_CONTEXT('2D SPACE',''
  ) );
#1058 = ORIENTED_EDGE('',*,*,#56,.F.);
#1059 = ADVANCED_FACE('',(#1060),#100,.T.);
#1060 = FACE_BOUND('',#1061,.T.);
#1061 = EDGE_LOOP('',(#1062,#1063,#1086,#1107));
#1062 = ORIENTED_EDGE('',*,*,#1038,.T.);
#1063 = ORIENTED_EDGE('',*,*,#1064,.F.);
#1064 = EDGE_CURVE('',#1065,#1016,#1067,.T.);
#1065 = VERTEX_POINT('',#1066);
#1066 = CARTESIAN_POINT('',(16.670513847574,7.85520511779,
    -39.45522880608));
#1067 = SURFACE_CURVE('',#1068,(#1072,#1079),.PCURVE_S1.);
#1068 = LINE('',#1069,#1070);
#1069 = CARTESIAN_POINT('',(79.97889938379,13.58508010046,
    -33.78409213256));
#1070 = VECTOR('',#1071,1.);
#1071 = DIRECTION('',(0.991989257343,8.978233105436E-02,
    8.886195105765E-02));
#1072 = PCURVE('',#100,#1073);
#1073 = DEFINITIONAL_REPRESENTATION('',(#1074),#1078);
#1074 = LINE('',#1075,#1076);
#1075 = CARTESIAN_POINT('',(63.819628153797,15.));
#1076 = VECTOR('',#1077,1.);
#1077 = DIRECTION('',(1.,-4.914973218076E-31));
#1078 = ( GEOMETRIC_REPRESENTATION_CONTEXT(2) 
PARAMETRIC_REPRESENTATION_CONTEXT() REPRESENTATION_CONTEXT('2D SPACE',''
  ) );
#1079 = PCURVE('',#701,#1080);
#1080 = DEFINITIONAL_REPRESENTATION('',(#1081),#1085);
#1081 = LINE('',#1082,#1083);
#1082 = CARTESIAN_POINT('',(26.901330131493,33.783851843001));
#1083 = VECTOR('',#1084,1.);
#1084 = DIRECTION('',(0.996043951668,-8.886195105765E-02));
#1085 = ( GEOMETRIC_REPRESENTATION_CONTEXT(2) 
PARAMETRIC_REPRESENTATION_CONTEXT() REPRESENTATION_CONTEXT('2D SPACE',''
  ) );
#1086 = ORIENTED_EDGE('',*,*,#1087,.F.);
#1087 = EDGE_CURVE('',#85,#1065,#1088,.T.);
#1088 = SURFACE_CURVE('',#1089,(#1093,#1100),.PCURVE_S1.);
#1089 = LINE('',#1090,#1091);
#1090 = CARTESIAN_POINT('',(18.022597722548,-7.083732903202,
    -39.45522880608));
#1091 = VECTOR('',#1092,1.);
#1092 = DIRECTION('',(-9.013892499825E-02,0.995929201399,
    -3.792215342724E-16));
#1093 = PCURVE('',#100,#1094);
#1094 = DEFINITIONAL_REPRESENTATION('',(#1095),#1099);
#1095 = LINE('',#1096,#1097);
#1096 = CARTESIAN_POINT('',(0.,0.));
#1097 = VECTOR('',#1098,1.);
#1098 = DIRECTION('',(-3.870408250381E-16,1.));
#1099 = ( GEOMETRIC_REPRESENTATION_CONTEXT(2) 
PARAMETRIC_REPRESENTATION_CONTEXT() REPRESENTATION_CONTEXT('2D SPACE',''
  ) );
#1100 = PCURVE('',#128,#1101);
#1101 = DEFINITIONAL_REPRESENTATION('',(#1102),#1106);
#1102 = LINE('',#1103,#1104);
#1103 = CARTESIAN_POINT('',(11.005053321774,-1.36441569269E-15));
#1104 = VECTOR('',#1105,1.);
#1105 = DIRECTION('',(-1.988448326535E-16,1.));
#1106 = ( GEOMETRIC_REPRESENTATION_CONTEXT(2) 
PARAMETRIC_REPRESENTATION_CONTEXT() REPRESENTATION_CONTEXT('2D SPACE',''
  ) );
#1107 = ORIENTED_EDGE('',*,*,#84,.F.);
#1108 = ADVANCED_FACE('',(#1109),#128,.T.);
#1109 = FACE_BOUND('',#1110,.T.);
#1110 = EDGE_LOOP('',(#1111,#1112,#1135,#1156));
#1111 = ORIENTED_EDGE('',*,*,#1087,.T.);
#1112 = ORIENTED_EDGE('',*,*,#1113,.F.);
#1113 = EDGE_CURVE('',#1114,#1065,#1116,.T.);
#1114 = VERTEX_POINT('',#1115);
#1115 = CARTESIAN_POINT('',(11.061885626316,7.347582971689,
    -30.00024028955));
#1116 = SURFACE_CURVE('',#1117,(#1121,#1128),.PCURVE_S1.);
#1117 = LINE('',#1118,#1119);
#1118 = CARTESIAN_POINT('',(16.670513847574,7.85520511779,
    -39.45522880608));
#1119 = VECTOR('',#1120,1.);
#1120 = DIRECTION('',(0.509641167314,4.61262777434E-02,-0.85914972332));
#1121 = PCURVE('',#128,#1122);
#1122 = DEFINITIONAL_REPRESENTATION('',(#1123),#1127);
#1123 = LINE('',#1124,#1125);
#1124 = CARTESIAN_POINT('',(11.005053321774,15.));
#1125 = VECTOR('',#1126,1.);
#1126 = DIRECTION('',(1.,-4.190823558987E-31));
#1127 = ( GEOMETRIC_REPRESENTATION_CONTEXT(2) 
PARAMETRIC_REPRESENTATION_CONTEXT() REPRESENTATION_CONTEXT('2D SPACE',''
  ) );
#1128 = PCURVE('',#701,#1129);
#1129 = DEFINITIONAL_REPRESENTATION('',(#1130),#1134);
#1130 = LINE('',#1131,#1132);
#1131 = CARTESIAN_POINT('',(-36.66582448879,39.454988516521));
#1132 = VECTOR('',#1133,1.);
#1133 = DIRECTION('',(0.511724293853,0.85914972332));
#1134 = ( GEOMETRIC_REPRESENTATION_CONTEXT(2) 
PARAMETRIC_REPRESENTATION_CONTEXT() REPRESENTATION_CONTEXT('2D SPACE',''
  ) );
#1135 = ORIENTED_EDGE('',*,*,#1136,.F.);
#1136 = EDGE_CURVE('',#113,#1114,#1137,.T.);
#1137 = SURFACE_CURVE('',#1138,(#1142,#1149),.PCURVE_S1.);
#1138 = LINE('',#1139,#1140);
#1139 = CARTESIAN_POINT('',(12.41396950129,-7.591355049303,
    -30.00024028955));
#1140 = VECTOR('',#1141,1.);
#1141 = DIRECTION('',(-9.013892499825E-02,0.995929201399,
    -3.792215342724E-16));
#1142 = PCURVE('',#128,#1143);
#1143 = DEFINITIONAL_REPRESENTATION('',(#1144),#1148);
#1144 = LINE('',#1145,#1146);
#1145 = CARTESIAN_POINT('',(0.,-0.));
#1146 = VECTOR('',#1147,1.);
#1147 = DIRECTION('',(-1.988448326535E-16,1.));
#1148 = ( GEOMETRIC_REPRESENTATION_CONTEXT(2) 
PARAMETRIC_REPRESENTATION_CONTEXT() REPRESENTATION_CONTEXT('2D SPACE',''
  ) );
#1149 = PCURVE('',#156,#1150);
#1150 = DEFINITIONAL_REPRESENTATION('',(#1151),#1155);
#1151 = LINE('',#1152,#1153);
#1152 = CARTESIAN_POINT('',(20.000000000002,6.661338147759E-16));
#1153 = VECTOR('',#1154,1.);
#1154 = DIRECTION('',(-3.885780586188E-16,1.));
#1155 = ( GEOMETRIC_REPRESENTATION_CONTEXT(2) 
PARAMETRIC_REPRESENTATION_CONTEXT() REPRESENTATION_CONTEXT('2D SPACE',''
  ) );
#1156 = ORIENTED_EDGE('',*,*,#112,.F.);
#1157 = ADVANCED_FACE('',(#1158),#156,.T.);
#1158 = FACE_BOUND('',#1159,.T.);
#1159 = EDGE_LOOP('',(#1160,#1161,#1184,#1205));
#1160 = ORIENTED_EDGE('',*,*,#1136,.T.);
#1161 = ORIENTED_EDGE('',*,*,#1162,.F.);
#1162 = EDGE_CURVE('',#1163,#1114,#1165,.T.);
#1163 = VERTEX_POINT('',#1164);
#1164 = CARTESIAN_POINT('',(-8.856698401675,5.544804471724,
    -30.00024028955));
#1165 = SURFACE_CURVE('',#1166,(#1170,#1177),.PCURVE_S1.);
#1166 = LINE('',#1167,#1168);
#1167 = CARTESIAN_POINT('',(11.061885626316,7.347582971689,
    -30.00024028955));
#1168 = VECTOR('',#1169,1.);
#1169 = DIRECTION('',(0.995929201399,9.013892499825E-02,
    -7.783856726403E-14));
#1170 = PCURVE('',#156,#1171);
#1171 = DEFINITIONAL_REPRESENTATION('',(#1172),#1176);
#1172 = LINE('',#1173,#1174);
#1173 = CARTESIAN_POINT('',(20.000000000002,15.));
#1174 = VECTOR('',#1175,1.);
#1175 = DIRECTION('',(1.,-6.409494854897E-31));
#1176 = ( GEOMETRIC_REPRESENTATION_CONTEXT(2) 
PARAMETRIC_REPRESENTATION_CONTEXT() REPRESENTATION_CONTEXT('2D SPACE',''
  ) );
#1177 = PCURVE('',#701,#1178);
#1178 = DEFINITIONAL_REPRESENTATION('',(#1179),#1183);
#1179 = LINE('',#1180,#1181);
#1180 = CARTESIAN_POINT('',(-42.29737762869,29.999999999998));
#1181 = VECTOR('',#1182,1.);
#1182 = DIRECTION('',(1.,7.860379014345E-14));
#1183 = ( GEOMETRIC_REPRESENTATION_CONTEXT(2) 
PARAMETRIC_REPRESENTATION_CONTEXT() REPRESENTATION_CONTEXT('2D SPACE',''
  ) );
#1184 = ORIENTED_EDGE('',*,*,#1185,.F.);
#1185 = EDGE_CURVE('',#141,#1163,#1186,.T.);
#1186 = SURFACE_CURVE('',#1187,(#1191,#1198),.PCURVE_S1.);
#1187 = LINE('',#1188,#1189);
#1188 = CARTESIAN_POINT('',(-7.504614526701,-9.394133549268,
    -30.00024028955));
#1189 = VECTOR('',#1190,1.);
#1190 = DIRECTION('',(-9.013892499825E-02,0.995929201399,
    -3.792215342724E-16));
#1191 = PCURVE('',#156,#1192);
#1192 = DEFINITIONAL_REPRESENTATION('',(#1193),#1197);
#1193 = LINE('',#1194,#1195);
#1194 = CARTESIAN_POINT('',(0.,-0.));
#1195 = VECTOR('',#1196,1.);
#1196 = DIRECTION('',(-3.885780586188E-16,1.));
#1197 = ( GEOMETRIC_REPRESENTATION_CONTEXT(2) 
PARAMETRIC_REPRESENTATION_CONTEXT() REPRESENTATION_CONTEXT('2D SPACE',''
  ) );
#1198 = PCURVE('',#184,#1199);
#1199 = DEFINITIONAL_REPRESENTATION('',(#1200),#1204);
#1200 = LINE('',#1201,#1202);
#1201 = CARTESIAN_POINT('',(31.109300196632,-4.095207780008E-16));
#1202 = VECTOR('',#1203,1.);
#1203 = DIRECTION('',(1.273649497661E-16,1.));
#1204 = ( GEOMETRIC_REPRESENTATION_CONTEXT(2) 
PARAMETRIC_REPRESENTATION_CONTEXT() REPRESENTATION_CONTEXT('2D SPACE',''
  ) );
#1205 = ORIENTED_EDGE('',*,*,#140,.F.);
#1206 = ADVANCED_FACE('',(#1207),#184,.T.);
#1207 = FACE_BOUND('',#1208,.T.);
#1208 = EDGE_LOOP('',(#1209,#1210,#1233,#1254));
#1209 = ORIENTED_EDGE('',*,*,#1185,.T.);
#1210 = ORIENTED_EDGE('',*,*,#1211,.F.);
#1211 = EDGE_CURVE('',#1212,#1163,#1214,.T.);
#1212 = VERTEX_POINT('',#1213);
#1213 = CARTESIAN_POINT('',(1.298545598323,6.463928819086,-59.3909665218
    ));
#1214 = SURFACE_CURVE('',#1215,(#1219,#1226),.PCURVE_S1.);
#1215 = LINE('',#1216,#1217);
#1216 = CARTESIAN_POINT('',(-8.856698401675,5.544804471724,
    -30.00024028955));
#1217 = VECTOR('',#1218,1.);
#1218 = DIRECTION('',(-0.326437558409,-2.954500234824E-02,0.944756906985
    ));
#1219 = PCURVE('',#184,#1220);
#1220 = DEFINITIONAL_REPRESENTATION('',(#1221),#1225);
#1221 = LINE('',#1222,#1223);
#1222 = CARTESIAN_POINT('',(31.109300196632,15.));
#1223 = VECTOR('',#1224,1.);
#1224 = DIRECTION('',(1.,2.465190328816E-31));
#1225 = ( GEOMETRIC_REPRESENTATION_CONTEXT(2) 
PARAMETRIC_REPRESENTATION_CONTEXT() REPRESENTATION_CONTEXT('2D SPACE',''
  ) );
#1226 = PCURVE('',#701,#1227);
#1227 = DEFINITIONAL_REPRESENTATION('',(#1228),#1232);
#1228 = LINE('',#1229,#1230);
#1229 = CARTESIAN_POINT('',(-62.29737762869,29.999999999996));
#1230 = VECTOR('',#1231,1.);
#1231 = DIRECTION('',(-0.327771851604,-0.944756906985));
#1232 = ( GEOMETRIC_REPRESENTATION_CONTEXT(2) 
PARAMETRIC_REPRESENTATION_CONTEXT() REPRESENTATION_CONTEXT('2D SPACE',''
  ) );
#1233 = ORIENTED_EDGE('',*,*,#1234,.F.);
#1234 = EDGE_CURVE('',#169,#1212,#1235,.T.);
#1235 = SURFACE_CURVE('',#1236,(#1240,#1247),.PCURVE_S1.);
#1236 = LINE('',#1237,#1238);
#1237 = CARTESIAN_POINT('',(2.650629473297,-8.475009201906,
    -59.3909665218));
#1238 = VECTOR('',#1239,1.);
#1239 = DIRECTION('',(-9.013892499825E-02,0.995929201399,
    -3.792215342724E-16));
#1240 = PCURVE('',#184,#1241);
#1241 = DEFINITIONAL_REPRESENTATION('',(#1242),#1246);
#1242 = LINE('',#1243,#1244);
#1243 = CARTESIAN_POINT('',(0.,-0.));
#1244 = VECTOR('',#1245,1.);
#1245 = DIRECTION('',(1.273649497661E-16,1.));
#1246 = ( GEOMETRIC_REPRESENTATION_CONTEXT(2) 
PARAMETRIC_REPRESENTATION_CONTEXT() REPRESENTATION_CONTEXT('2D SPACE',''
  ) );
#1247 = PCURVE('',#212,#1248);
#1248 = DEFINITIONAL_REPRESENTATION('',(#1249),#1253);
#1249 = LINE('',#1250,#1251);
#1250 = CARTESIAN_POINT('',(89.430878338378,7.762597027036E-16));
#1251 = VECTOR('',#1252,1.);
#1252 = DIRECTION('',(3.885780586188E-16,1.));
#1253 = ( GEOMETRIC_REPRESENTATION_CONTEXT(2) 
PARAMETRIC_REPRESENTATION_CONTEXT() REPRESENTATION_CONTEXT('2D SPACE',''
  ) );
#1254 = ORIENTED_EDGE('',*,*,#168,.F.);
#1255 = ADVANCED_FACE('',(#1256),#212,.T.);
#1256 = FACE_BOUND('',#1257,.T.);
#1257 = EDGE_LOOP('',(#1258,#1259,#1282,#1303));
#1258 = ORIENTED_EDGE('',*,*,#1234,.T.);
#1259 = ORIENTED_EDGE('',*,*,#1260,.F.);
#1260 = EDGE_CURVE('',#1261,#1212,#1263,.T.);
#1261 = VERTEX_POINT('',#1262);
#1262 = CARTESIAN_POINT('',(90.365368842316,14.525132054156,
    -59.3909665218));
#1263 = SURFACE_CURVE('',#1264,(#1268,#1275),.PCURVE_S1.);
#1264 = LINE('',#1265,#1266);
#1265 = CARTESIAN_POINT('',(1.298545598323,6.463928819086,-59.3909665218
    ));
#1266 = VECTOR('',#1267,1.);
#1267 = DIRECTION('',(-0.995929201399,-9.013892499825E-02,
    7.769324298828E-14));
#1268 = PCURVE('',#212,#1269);
#1269 = DEFINITIONAL_REPRESENTATION('',(#1270),#1274);
#1270 = LINE('',#1271,#1272);
#1271 = CARTESIAN_POINT('',(89.430878338378,15.));
#1272 = VECTOR('',#1273,1.);
#1273 = DIRECTION('',(1.,5.423418723371E-31));
#1274 = ( GEOMETRIC_REPRESENTATION_CONTEXT(2) 
PARAMETRIC_REPRESENTATION_CONTEXT() REPRESENTATION_CONTEXT('2D SPACE',''
  ) );
#1275 = PCURVE('',#701,#1276);
#1276 = DEFINITIONAL_REPRESENTATION('',(#1277),#1281);
#1277 = LINE('',#1278,#1279);
#1278 = CARTESIAN_POINT('',(-52.10062470114,59.390726232241));
#1279 = VECTOR('',#1280,1.);
#1280 = DIRECTION('',(-1.,-7.845846586771E-14));
#1281 = ( GEOMETRIC_REPRESENTATION_CONTEXT(2) 
PARAMETRIC_REPRESENTATION_CONTEXT() REPRESENTATION_CONTEXT('2D SPACE',''
  ) );
#1282 = ORIENTED_EDGE('',*,*,#1283,.F.);
#1283 = EDGE_CURVE('',#197,#1261,#1284,.T.);
#1284 = SURFACE_CURVE('',#1285,(#1289,#1296),.PCURVE_S1.);
#1285 = LINE('',#1286,#1287);
#1286 = CARTESIAN_POINT('',(91.71745271729,-0.413805966835,
    -59.3909665218));
#1287 = VECTOR('',#1288,1.);
#1288 = DIRECTION('',(-9.013892499825E-02,0.995929201399,
    -3.792215342724E-16));
#1289 = PCURVE('',#212,#1290);
#1290 = DEFINITIONAL_REPRESENTATION('',(#1291),#1295);
#1291 = LINE('',#1292,#1293);
#1292 = CARTESIAN_POINT('',(0.,-0.));
#1293 = VECTOR('',#1294,1.);
#1294 = DIRECTION('',(3.885780586188E-16,1.));
#1295 = ( GEOMETRIC_REPRESENTATION_CONTEXT(2) 
PARAMETRIC_REPRESENTATION_CONTEXT() REPRESENTATION_CONTEXT('2D SPACE',''
  ) );
#1296 = PCURVE('',#240,#1297);
#1297 = DEFINITIONAL_REPRESENTATION('',(#1298),#1302);
#1298 = LINE('',#1299,#1300);
#1299 = CARTESIAN_POINT('',(28.667211567415,9.564644665055E-16));
#1300 = VECTOR('',#1301,1.);
#1301 = DIRECTION('',(3.384241451974E-16,1.));
#1302 = ( GEOMETRIC_REPRESENTATION_CONTEXT(2) 
PARAMETRIC_REPRESENTATION_CONTEXT() REPRESENTATION_CONTEXT('2D SPACE',''
  ) );
#1303 = ORIENTED_EDGE('',*,*,#196,.F.);
#1304 = ADVANCED_FACE('',(#1305),#240,.T.);
#1305 = FACE_BOUND('',#1306,.T.);
#1306 = EDGE_LOOP('',(#1307,#1308,#1331,#1352));
#1307 = ORIENTED_EDGE('',*,*,#1283,.T.);
#1308 = ORIENTED_EDGE('',*,*,#1309,.F.);
#1309 = EDGE_CURVE('',#1310,#1261,#1312,.T.);
#1310 = VERTEX_POINT('',#1311);
#1311 = CARTESIAN_POINT('',(115.23085670037,16.775641771045,
    -45.30367655368));
#1312 = SURFACE_CURVE('',#1313,(#1317,#1324),.PCURVE_S1.);
#1313 = LINE('',#1314,#1315);
#1314 = CARTESIAN_POINT('',(90.365368842316,14.525132054156,
    -59.3909665218));
#1315 = VECTOR('',#1316,1.);
#1316 = DIRECTION('',(-0.867384251851,-7.850466068511E-02,
    -0.491407751151));
#1317 = PCURVE('',#240,#1318);
#1318 = DEFINITIONAL_REPRESENTATION('',(#1319),#1323);
#1319 = LINE('',#1320,#1321);
#1320 = CARTESIAN_POINT('',(28.667211567415,15.));
#1321 = VECTOR('',#1322,1.);
#1322 = DIRECTION('',(1.,7.149051953565E-31));
#1323 = ( GEOMETRIC_REPRESENTATION_CONTEXT(2) 
PARAMETRIC_REPRESENTATION_CONTEXT() REPRESENTATION_CONTEXT('2D SPACE',''
  ) );
#1324 = PCURVE('',#701,#1325);
#1325 = DEFINITIONAL_REPRESENTATION('',(#1326),#1330);
#1326 = LINE('',#1327,#1328);
#1327 = CARTESIAN_POINT('',(37.330253637231,59.390726232248));
#1328 = VECTOR('',#1329,1.);
#1329 = DIRECTION('',(-0.870929630974,0.491407751151));
#1330 = ( GEOMETRIC_REPRESENTATION_CONTEXT(2) 
PARAMETRIC_REPRESENTATION_CONTEXT() REPRESENTATION_CONTEXT('2D SPACE',''
  ) );
#1331 = ORIENTED_EDGE('',*,*,#1332,.F.);
#1332 = EDGE_CURVE('',#225,#1310,#1333,.T.);
#1333 = SURFACE_CURVE('',#1334,(#1338,#1345),.PCURVE_S1.);
#1334 = LINE('',#1335,#1336);
#1335 = CARTESIAN_POINT('',(116.58294057534,1.836703750053,
    -45.30367655368));
#1336 = VECTOR('',#1337,1.);
#1337 = DIRECTION('',(-9.013892499825E-02,0.995929201399,
    -3.792215342724E-16));
#1338 = PCURVE('',#240,#1339);
#1339 = DEFINITIONAL_REPRESENTATION('',(#1340),#1344);
#1340 = LINE('',#1341,#1342);
#1341 = CARTESIAN_POINT('',(0.,0.));
#1342 = VECTOR('',#1343,1.);
#1343 = DIRECTION('',(3.384241451974E-16,1.));
#1344 = ( GEOMETRIC_REPRESENTATION_CONTEXT(2) 
PARAMETRIC_REPRESENTATION_CONTEXT() REPRESENTATION_CONTEXT('2D SPACE',''
  ) );
#1345 = PCURVE('',#268,#1346);
#1346 = DEFINITIONAL_REPRESENTATION('',(#1347),#1351);
#1347 = LINE('',#1348,#1349);
#1348 = CARTESIAN_POINT('',(90.606872528245,-1.412061020345E-27));
#1349 = VECTOR('',#1350,1.);
#1350 = DIRECTION('',(1.558448030424E-29,1.));
#1351 = ( GEOMETRIC_REPRESENTATION_CONTEXT(2) 
PARAMETRIC_REPRESENTATION_CONTEXT() REPRESENTATION_CONTEXT('2D SPACE',''
  ) );
#1352 = ORIENTED_EDGE('',*,*,#224,.F.);
#1353 = ADVANCED_FACE('',(#1354),#268,.T.);
#1354 = FACE_BOUND('',#1355,.T.);
#1355 = EDGE_LOOP('',(#1356,#1357,#1380,#1401));
#1356 = ORIENTED_EDGE('',*,*,#1332,.T.);
#1357 = ORIENTED_EDGE('',*,*,#1358,.F.);
#1358 = EDGE_CURVE('',#1359,#1310,#1361,.T.);
#1359 = VERTEX_POINT('',#1360);
#1360 = CARTESIAN_POINT('',(115.23085670037,16.775641771045,
    45.303195974562));
#1361 = SURFACE_CURVE('',#1362,(#1366,#1373),.PCURVE_S1.);
#1362 = LINE('',#1363,#1364);
#1363 = CARTESIAN_POINT('',(115.23085670037,16.775641771045,
    45.303195974562));
#1364 = VECTOR('',#1365,1.);
#1365 = DIRECTION('',(-3.82542936809E-14,-3.843066794163E-15,-1.));
#1366 = PCURVE('',#268,#1367);
#1367 = DEFINITIONAL_REPRESENTATION('',(#1368),#1372);
#1368 = LINE('',#1369,#1370);
#1369 = CARTESIAN_POINT('',(2.337672045636E-28,15.));
#1370 = VECTOR('',#1371,1.);
#1371 = DIRECTION('',(1.,2.80259692865E-44));
#1372 = ( GEOMETRIC_REPRESENTATION_CONTEXT(2) 
PARAMETRIC_REPRESENTATION_CONTEXT() REPRESENTATION_CONTEXT('2D SPACE',''
  ) );
#1373 = PCURVE('',#701,#1374);
#1374 = DEFINITIONAL_REPRESENTATION('',(#1375),#1379);
#1375 = LINE('',#1376,#1377);
#1376 = CARTESIAN_POINT('',(62.297377628693,-45.30343626412));
#1377 = VECTOR('',#1378,1.);
#1378 = DIRECTION('',(-3.921020094467E-14,1.));
#1379 = ( GEOMETRIC_REPRESENTATION_CONTEXT(2) 
PARAMETRIC_REPRESENTATION_CONTEXT() REPRESENTATION_CONTEXT('2D SPACE',''
  ) );
#1380 = ORIENTED_EDGE('',*,*,#1381,.F.);
#1381 = EDGE_CURVE('',#253,#1359,#1382,.T.);
#1382 = SURFACE_CURVE('',#1383,(#1387,#1394),.PCURVE_S1.);
#1383 = LINE('',#1384,#1385);
#1384 = CARTESIAN_POINT('',(116.58294057534,1.836703750053,
    45.303195974562));
#1385 = VECTOR('',#1386,1.);
#1386 = DIRECTION('',(-9.013892499825E-02,0.995929201399,
    -3.792215342724E-16));
#1387 = PCURVE('',#268,#1388);
#1388 = DEFINITIONAL_REPRESENTATION('',(#1389),#1393);
#1389 = LINE('',#1390,#1391);
#1390 = CARTESIAN_POINT('',(0.,0.));
#1391 = VECTOR('',#1392,1.);
#1392 = DIRECTION('',(1.558448030424E-29,1.));
#1393 = ( GEOMETRIC_REPRESENTATION_CONTEXT(2) 
PARAMETRIC_REPRESENTATION_CONTEXT() REPRESENTATION_CONTEXT('2D SPACE',''
  ) );
#1394 = PCURVE('',#296,#1395);
#1395 = DEFINITIONAL_REPRESENTATION('',(#1396),#1400);
#1396 = LINE('',#1397,#1398);
#1397 = CARTESIAN_POINT('',(28.667211567415,-9.564644665057E-16));
#1398 = VECTOR('',#1399,1.);
#1399 = DIRECTION('',(-3.384241451974E-16,1.));
#1400 = ( GEOMETRIC_REPRESENTATION_CONTEXT(2) 
PARAMETRIC_REPRESENTATION_CONTEXT() REPRESENTATION_CONTEXT('2D SPACE',''
  ) );
#1401 = ORIENTED_EDGE('',*,*,#252,.F.);
#1402 = ADVANCED_FACE('',(#1403),#296,.T.);
#1403 = FACE_BOUND('',#1404,.T.);
#1404 = EDGE_LOOP('',(#1405,#1406,#1429,#1450));
#1405 = ORIENTED_EDGE('',*,*,#1381,.T.);
#1406 = ORIENTED_EDGE('',*,*,#1407,.F.);
#1407 = EDGE_CURVE('',#1408,#1359,#1410,.T.);
#1408 = VERTEX_POINT('',#1409);
#1409 = CARTESIAN_POINT('',(90.36536884232,14.525132054157,
    59.390485942688));
#1410 = SURFACE_CURVE('',#1411,(#1415,#1422),.PCURVE_S1.);
#1411 = LINE('',#1412,#1413);
#1412 = CARTESIAN_POINT('',(90.36536884232,14.525132054157,
    59.390485942688));
#1413 = VECTOR('',#1414,1.);
#1414 = DIRECTION('',(0.867384251851,7.850466068511E-02,-0.491407751151)
  );
#1415 = PCURVE('',#296,#1416);
#1416 = DEFINITIONAL_REPRESENTATION('',(#1417),#1421);
#1417 = LINE('',#1418,#1419);
#1418 = CARTESIAN_POINT('',(-5.076362177961E-15,15.));
#1419 = VECTOR('',#1420,1.);
#1420 = DIRECTION('',(1.,-5.423418723394E-31));
#1421 = ( GEOMETRIC_REPRESENTATION_CONTEXT(2) 
PARAMETRIC_REPRESENTATION_CONTEXT() REPRESENTATION_CONTEXT('2D SPACE',''
  ) );
#1422 = PCURVE('',#701,#1423);
#1423 = DEFINITIONAL_REPRESENTATION('',(#1424),#1428);
#1424 = LINE('',#1425,#1426);
#1425 = CARTESIAN_POINT('',(37.330253637235,-59.39072623224));
#1426 = VECTOR('',#1427,1.);
#1427 = DIRECTION('',(0.870929630974,0.491407751151));
#1428 = ( GEOMETRIC_REPRESENTATION_CONTEXT(2) 
PARAMETRIC_REPRESENTATION_CONTEXT() REPRESENTATION_CONTEXT('2D SPACE',''
  ) );
#1429 = ORIENTED_EDGE('',*,*,#1430,.F.);
#1430 = EDGE_CURVE('',#281,#1408,#1431,.T.);
#1431 = SURFACE_CURVE('',#1432,(#1436,#1443),.PCURVE_S1.);
#1432 = LINE('',#1433,#1434);
#1433 = CARTESIAN_POINT('',(91.717452717294,-0.413805966835,
    59.390485942688));
#1434 = VECTOR('',#1435,1.);
#1435 = DIRECTION('',(-9.013892499825E-02,0.995929201399,
    -3.792215342724E-16));
#1436 = PCURVE('',#296,#1437);
#1437 = DEFINITIONAL_REPRESENTATION('',(#1438),#1442);
#1438 = LINE('',#1439,#1440);
#1439 = CARTESIAN_POINT('',(0.,-0.));
#1440 = VECTOR('',#1441,1.);
#1441 = DIRECTION('',(-3.384241451974E-16,1.));
#1442 = ( GEOMETRIC_REPRESENTATION_CONTEXT(2) 
PARAMETRIC_REPRESENTATION_CONTEXT() REPRESENTATION_CONTEXT('2D SPACE',''
  ) );
#1443 = PCURVE('',#324,#1444);
#1444 = DEFINITIONAL_REPRESENTATION('',(#1445),#1449);
#1445 = LINE('',#1446,#1447);
#1446 = CARTESIAN_POINT('',(89.430878338378,-7.762597027037E-16));
#1447 = VECTOR('',#1448,1.);
#1448 = DIRECTION('',(-3.885780586188E-16,1.));
#1449 = ( GEOMETRIC_REPRESENTATION_CONTEXT(2) 
PARAMETRIC_REPRESENTATION_CONTEXT() REPRESENTATION_CONTEXT('2D SPACE',''
  ) );
#1450 = ORIENTED_EDGE('',*,*,#280,.F.);
#1451 = ADVANCED_FACE('',(#1452),#324,.T.);
#1452 = FACE_BOUND('',#1453,.T.);
#1453 = EDGE_LOOP('',(#1454,#1455,#1478,#1499));
#1454 = ORIENTED_EDGE('',*,*,#1430,.T.);
#1455 = ORIENTED_EDGE('',*,*,#1456,.F.);
#1456 = EDGE_CURVE('',#1457,#1408,#1459,.T.);
#1457 = VERTEX_POINT('',#1458);
#1458 = CARTESIAN_POINT('',(1.298545598327,6.463928819086,
    59.390485942688));
#1459 = SURFACE_CURVE('',#1460,(#1464,#1471),.PCURVE_S1.);
#1460 = LINE('',#1461,#1462);
#1461 = CARTESIAN_POINT('',(1.298545598327,6.463928819086,
    59.390485942688));
#1462 = VECTOR('',#1463,1.);
#1463 = DIRECTION('',(0.995929201399,9.013892499825E-02,
    2.354255099531E-15));
#1464 = PCURVE('',#324,#1465);
#1465 = DEFINITIONAL_REPRESENTATION('',(#1466),#1470);
#1466 = LINE('',#1467,#1468);
#1467 = CARTESIAN_POINT('',(-5.828670879282E-15,15.));
#1468 = VECTOR('',#1469,1.);
#1469 = DIRECTION('',(1.,-5.916456789158E-31));
#1470 = ( GEOMETRIC_REPRESENTATION_CONTEXT(2) 
PARAMETRIC_REPRESENTATION_CONTEXT() REPRESENTATION_CONTEXT('2D SPACE',''
  ) );
#1471 = PCURVE('',#701,#1472);
#1472 = DEFINITIONAL_REPRESENTATION('',(#1473),#1477);
#1473 = LINE('',#1474,#1475);
#1474 = CARTESIAN_POINT('',(-52.10062470114,-59.39072623224));
#1475 = VECTOR('',#1476,1.);
#1476 = DIRECTION('',(1.,-1.589032220106E-15));
#1477 = ( GEOMETRIC_REPRESENTATION_CONTEXT(2) 
PARAMETRIC_REPRESENTATION_CONTEXT() REPRESENTATION_CONTEXT('2D SPACE',''
  ) );
#1478 = ORIENTED_EDGE('',*,*,#1479,.F.);
#1479 = EDGE_CURVE('',#309,#1457,#1480,.T.);
#1480 = SURFACE_CURVE('',#1481,(#1485,#1492),.PCURVE_S1.);
#1481 = LINE('',#1482,#1483);
#1482 = CARTESIAN_POINT('',(2.650629473301,-8.475009201906,
    59.390485942688));
#1483 = VECTOR('',#1484,1.);
#1484 = DIRECTION('',(-9.013892499825E-02,0.995929201399,
    -3.792215342724E-16));
#1485 = PCURVE('',#324,#1486);
#1486 = DEFINITIONAL_REPRESENTATION('',(#1487),#1491);
#1487 = LINE('',#1488,#1489);
#1488 = CARTESIAN_POINT('',(0.,0.));
#1489 = VECTOR('',#1490,1.);
#1490 = DIRECTION('',(-3.885780586188E-16,1.));
#1491 = ( GEOMETRIC_REPRESENTATION_CONTEXT(2) 
PARAMETRIC_REPRESENTATION_CONTEXT() REPRESENTATION_CONTEXT('2D SPACE',''
  ) );
#1492 = PCURVE('',#352,#1493);
#1493 = DEFINITIONAL_REPRESENTATION('',(#1494),#1498);
#1494 = LINE('',#1495,#1496);
#1495 = CARTESIAN_POINT('',(31.109300196632,4.095207780019E-16));
#1496 = VECTOR('',#1497,1.);
#1497 = DIRECTION('',(-1.273649497661E-16,1.));
#1498 = ( GEOMETRIC_REPRESENTATION_CONTEXT(2) 
PARAMETRIC_REPRESENTATION_CONTEXT() REPRESENTATION_CONTEXT('2D SPACE',''
  ) );
#1499 = ORIENTED_EDGE('',*,*,#308,.F.);
#1500 = ADVANCED_FACE('',(#1501),#352,.T.);
#1501 = FACE_BOUND('',#1502,.T.);
#1502 = EDGE_LOOP('',(#1503,#1504,#1527,#1548));
#1503 = ORIENTED_EDGE('',*,*,#1479,.T.);
#1504 = ORIENTED_EDGE('',*,*,#1505,.F.);
#1505 = EDGE_CURVE('',#1506,#1457,#1508,.T.);
#1506 = VERTEX_POINT('',#1507);
#1507 = CARTESIAN_POINT('',(-8.856698401674,5.544804471724,
    29.999759710444));
#1508 = SURFACE_CURVE('',#1509,(#1513,#1520),.PCURVE_S1.);
#1509 = LINE('',#1510,#1511);
#1510 = CARTESIAN_POINT('',(-8.856698401674,5.544804471724,
    29.999759710444));
#1511 = VECTOR('',#1512,1.);
#1512 = DIRECTION('',(0.326437558409,2.954500234825E-02,0.944756906985)
  );
#1513 = PCURVE('',#352,#1514);
#1514 = DEFINITIONAL_REPRESENTATION('',(#1515),#1519);
#1515 = LINE('',#1516,#1517);
#1516 = CARTESIAN_POINT('',(-1.910474246491E-15,15.));
#1517 = VECTOR('',#1518,1.);
#1518 = DIRECTION('',(1.,-2.465190328816E-31));
#1519 = ( GEOMETRIC_REPRESENTATION_CONTEXT(2) 
PARAMETRIC_REPRESENTATION_CONTEXT() REPRESENTATION_CONTEXT('2D SPACE',''
  ) );
#1520 = PCURVE('',#701,#1521);
#1521 = DEFINITIONAL_REPRESENTATION('',(#1522),#1526);
#1522 = LINE('',#1523,#1524);
#1523 = CARTESIAN_POINT('',(-62.29737762869,-30.));
#1524 = VECTOR('',#1525,1.);
#1525 = DIRECTION('',(0.327771851604,-0.944756906985));
#1526 = ( GEOMETRIC_REPRESENTATION_CONTEXT(2) 
PARAMETRIC_REPRESENTATION_CONTEXT() REPRESENTATION_CONTEXT('2D SPACE',''
  ) );
#1527 = ORIENTED_EDGE('',*,*,#1528,.F.);
#1528 = EDGE_CURVE('',#337,#1506,#1529,.T.);
#1529 = SURFACE_CURVE('',#1530,(#1534,#1541),.PCURVE_S1.);
#1530 = LINE('',#1531,#1532);
#1531 = CARTESIAN_POINT('',(-7.504614526701,-9.394133549268,
    29.999759710444));
#1532 = VECTOR('',#1533,1.);
#1533 = DIRECTION('',(-9.013892499825E-02,0.995929201399,
    -3.792215342724E-16));
#1534 = PCURVE('',#352,#1535);
#1535 = DEFINITIONAL_REPRESENTATION('',(#1536),#1540);
#1536 = LINE('',#1537,#1538);
#1537 = CARTESIAN_POINT('',(0.,0.));
#1538 = VECTOR('',#1539,1.);
#1539 = DIRECTION('',(-1.273649497661E-16,1.));
#1540 = ( GEOMETRIC_REPRESENTATION_CONTEXT(2) 
PARAMETRIC_REPRESENTATION_CONTEXT() REPRESENTATION_CONTEXT('2D SPACE',''
  ) );
#1541 = PCURVE('',#380,#1542);
#1542 = DEFINITIONAL_REPRESENTATION('',(#1543),#1547);
#1543 = LINE('',#1544,#1545);
#1544 = CARTESIAN_POINT('',(20.000000000002,-6.661338147759E-16));
#1545 = VECTOR('',#1546,1.);
#1546 = DIRECTION('',(3.885780586188E-16,1.));
#1547 = ( GEOMETRIC_REPRESENTATION_CONTEXT(2) 
PARAMETRIC_REPRESENTATION_CONTEXT() REPRESENTATION_CONTEXT('2D SPACE',''
  ) );
#1548 = ORIENTED_EDGE('',*,*,#336,.F.);
#1549 = ADVANCED_FACE('',(#1550),#380,.T.);
#1550 = FACE_BOUND('',#1551,.T.);
#1551 = EDGE_LOOP('',(#1552,#1553,#1576,#1597));
#1552 = ORIENTED_EDGE('',*,*,#1528,.T.);
#1553 = ORIENTED_EDGE('',*,*,#1554,.F.);
#1554 = EDGE_CURVE('',#1555,#1506,#1557,.T.);
#1555 = VERTEX_POINT('',#1556);
#1556 = CARTESIAN_POINT('',(11.061885626317,7.347582971689,
    29.999759710444));
#1557 = SURFACE_CURVE('',#1558,(#1562,#1569),.PCURVE_S1.);
#1558 = LINE('',#1559,#1560);
#1559 = CARTESIAN_POINT('',(30.98023034292,9.150339812212,
    29.999759710444));
#1560 = VECTOR('',#1561,1.);
#1561 = DIRECTION('',(-0.995929201399,-9.013892499825E-02,
    -9.872692628651E-16));
#1562 = PCURVE('',#380,#1563);
#1563 = DEFINITIONAL_REPRESENTATION('',(#1564),#1568);
#1564 = LINE('',#1565,#1566);
#1565 = CARTESIAN_POINT('',(-19.99975971044,15.));
#1566 = VECTOR('',#1567,1.);
#1567 = DIRECTION('',(1.,5.423418723394E-31));
#1568 = ( GEOMETRIC_REPRESENTATION_CONTEXT(2) 
PARAMETRIC_REPRESENTATION_CONTEXT() REPRESENTATION_CONTEXT('2D SPACE',''
  ) );
#1569 = PCURVE('',#701,#1570);
#1570 = DEFINITIONAL_REPRESENTATION('',(#1571),#1575);
#1571 = LINE('',#1572,#1573);
#1572 = CARTESIAN_POINT('',(-22.29761791824,-30.));
#1573 = VECTOR('',#1574,1.);
#1574 = DIRECTION('',(-1.,2.220463834393E-16));
#1575 = ( GEOMETRIC_REPRESENTATION_CONTEXT(2) 
PARAMETRIC_REPRESENTATION_CONTEXT() REPRESENTATION_CONTEXT('2D SPACE',''
  ) );
#1576 = ORIENTED_EDGE('',*,*,#1577,.F.);
#1577 = EDGE_CURVE('',#365,#1555,#1578,.T.);
#1578 = SURFACE_CURVE('',#1579,(#1583,#1590),.PCURVE_S1.);
#1579 = LINE('',#1580,#1581);
#1580 = CARTESIAN_POINT('',(12.413969501291,-7.591355049303,
    29.999759710444));
#1581 = VECTOR('',#1582,1.);
#1582 = DIRECTION('',(-9.013892499825E-02,0.995929201399,
    -3.792215342724E-16));
#1583 = PCURVE('',#380,#1584);
#1584 = DEFINITIONAL_REPRESENTATION('',(#1585),#1589);
#1585 = LINE('',#1586,#1587);
#1586 = CARTESIAN_POINT('',(0.,0.));
#1587 = VECTOR('',#1588,1.);
#1588 = DIRECTION('',(3.885780586188E-16,1.));
#1589 = ( GEOMETRIC_REPRESENTATION_CONTEXT(2) 
PARAMETRIC_REPRESENTATION_CONTEXT() REPRESENTATION_CONTEXT('2D SPACE',''
  ) );
#1590 = PCURVE('',#408,#1591);
#1591 = DEFINITIONAL_REPRESENTATION('',(#1592),#1596);
#1592 = LINE('',#1593,#1594);
#1593 = CARTESIAN_POINT('',(11.005053321774,1.364415692689E-15));
#1594 = VECTOR('',#1595,1.);
#1595 = DIRECTION('',(1.988448326535E-16,1.));
#1596 = ( GEOMETRIC_REPRESENTATION_CONTEXT(2) 
PARAMETRIC_REPRESENTATION_CONTEXT() REPRESENTATION_CONTEXT('2D SPACE',''
  ) );
#1597 = ORIENTED_EDGE('',*,*,#364,.F.);
#1598 = ADVANCED_FACE('',(#1599),#408,.T.);
#1599 = FACE_BOUND('',#1600,.T.);
#1600 = EDGE_LOOP('',(#1601,#1602,#1625,#1646));
#1601 = ORIENTED_EDGE('',*,*,#1577,.T.);
#1602 = ORIENTED_EDGE('',*,*,#1603,.F.);
#1603 = EDGE_CURVE('',#1604,#1555,#1606,.T.);
#1604 = VERTEX_POINT('',#1605);
#1605 = CARTESIAN_POINT('',(16.670513847576,7.85520511779,
    39.454748226967));
#1606 = SURFACE_CURVE('',#1607,(#1611,#1618),.PCURVE_S1.);
#1607 = LINE('',#1608,#1609);
#1608 = CARTESIAN_POINT('',(16.670513847576,7.85520511779,
    39.454748226967));
#1609 = VECTOR('',#1610,1.);
#1610 = DIRECTION('',(-0.509641167314,-4.612627774341E-02,-0.85914972332
    ));
#1611 = PCURVE('',#408,#1612);
#1612 = DEFINITIONAL_REPRESENTATION('',(#1613),#1617);
#1613 = LINE('',#1614,#1615);
#1614 = CARTESIAN_POINT('',(2.982672489803E-15,15.));
#1615 = VECTOR('',#1616,1.);
#1616 = DIRECTION('',(1.,4.190823558987E-31));
#1617 = ( GEOMETRIC_REPRESENTATION_CONTEXT(2) 
PARAMETRIC_REPRESENTATION_CONTEXT() REPRESENTATION_CONTEXT('2D SPACE',''
  ) );
#1618 = PCURVE('',#701,#1619);
#1619 = DEFINITIONAL_REPRESENTATION('',(#1620),#1624);
#1620 = LINE('',#1621,#1622);
#1621 = CARTESIAN_POINT('',(-36.66582448879,-39.45498851652));
#1622 = VECTOR('',#1623,1.);
#1623 = DIRECTION('',(-0.511724293853,0.85914972332));
#1624 = ( GEOMETRIC_REPRESENTATION_CONTEXT(2) 
PARAMETRIC_REPRESENTATION_CONTEXT() REPRESENTATION_CONTEXT('2D SPACE',''
  ) );
#1625 = ORIENTED_EDGE('',*,*,#1626,.F.);
#1626 = EDGE_CURVE('',#393,#1604,#1627,.T.);
#1627 = SURFACE_CURVE('',#1628,(#1632,#1639),.PCURVE_S1.);
#1628 = LINE('',#1629,#1630);
#1629 = CARTESIAN_POINT('',(18.02259772255,-7.083732903202,
    39.454748226967));
#1630 = VECTOR('',#1631,1.);
#1631 = DIRECTION('',(-9.013892499825E-02,0.995929201399,
    -3.792215342724E-16));
#1632 = PCURVE('',#408,#1633);
#1633 = DEFINITIONAL_REPRESENTATION('',(#1634),#1638);
#1634 = LINE('',#1635,#1636);
#1635 = CARTESIAN_POINT('',(0.,0.));
#1636 = VECTOR('',#1637,1.);
#1637 = DIRECTION('',(1.988448326535E-16,1.));
#1638 = ( GEOMETRIC_REPRESENTATION_CONTEXT(2) 
PARAMETRIC_REPRESENTATION_CONTEXT() REPRESENTATION_CONTEXT('2D SPACE',''
  ) );
#1639 = PCURVE('',#436,#1640);
#1640 = DEFINITIONAL_REPRESENTATION('',(#1641),#1645);
#1641 = LINE('',#1642,#1643);
#1642 = CARTESIAN_POINT('',(63.819628153798,1.681942173319E-16));
#1643 = VECTOR('',#1644,1.);
#1644 = DIRECTION('',(3.870408250381E-16,1.));
#1645 = ( GEOMETRIC_REPRESENTATION_CONTEXT(2) 
PARAMETRIC_REPRESENTATION_CONTEXT() REPRESENTATION_CONTEXT('2D SPACE',''
  ) );
#1646 = ORIENTED_EDGE('',*,*,#392,.F.);
#1647 = ADVANCED_FACE('',(#1648),#436,.T.);
#1648 = FACE_BOUND('',#1649,.T.);
#1649 = EDGE_LOOP('',(#1650,#1651,#1674,#1695));
#1650 = ORIENTED_EDGE('',*,*,#1626,.T.);
#1651 = ORIENTED_EDGE('',*,*,#1652,.F.);
#1652 = EDGE_CURVE('',#1653,#1604,#1655,.T.);
#1653 = VERTEX_POINT('',#1654);
#1654 = CARTESIAN_POINT('',(79.978899383792,13.58508010046,
    33.783611553442));
#1655 = SURFACE_CURVE('',#1656,(#1660,#1667),.PCURVE_S1.);
#1656 = LINE('',#1657,#1658);
#1657 = CARTESIAN_POINT('',(79.978899383792,13.58508010046,
    33.783611553442));
#1658 = VECTOR('',#1659,1.);
#1659 = DIRECTION('',(-0.991989257343,-8.978233105436E-02,
    8.886195105772E-02));
#1660 = PCURVE('',#436,#1661);
#1661 = DEFINITIONAL_REPRESENTATION('',(#1662),#1666);
#1662 = LINE('',#1663,#1664);
#1663 = CARTESIAN_POINT('',(5.805612375572E-15,15.));
#1664 = VECTOR('',#1665,1.);
#1665 = DIRECTION('',(1.,7.823127434101E-31));
#1666 = ( GEOMETRIC_REPRESENTATION_CONTEXT(2) 
PARAMETRIC_REPRESENTATION_CONTEXT() REPRESENTATION_CONTEXT('2D SPACE',''
  ) );
#1667 = PCURVE('',#701,#1668);
#1668 = DEFINITIONAL_REPRESENTATION('',(#1669),#1673);
#1669 = LINE('',#1670,#1671);
#1670 = CARTESIAN_POINT('',(26.901330131495,-33.783851843));
#1671 = VECTOR('',#1672,1.);
#1672 = DIRECTION('',(-0.996043951668,-8.886195105772E-02));
#1673 = ( GEOMETRIC_REPRESENTATION_CONTEXT(2) 
PARAMETRIC_REPRESENTATION_CONTEXT() REPRESENTATION_CONTEXT('2D SPACE',''
  ) );
#1674 = ORIENTED_EDGE('',*,*,#1675,.F.);
#1675 = EDGE_CURVE('',#421,#1653,#1676,.T.);
#1676 = SURFACE_CURVE('',#1677,(#1681,#1688),.PCURVE_S1.);
#1677 = LINE('',#1678,#1679);
#1678 = CARTESIAN_POINT('',(81.330983258766,-1.353857920531,
    33.783611553442));
#1679 = VECTOR('',#1680,1.);
#1680 = DIRECTION('',(-9.013892499825E-02,0.995929201399,
    -3.792215342724E-16));
#1681 = PCURVE('',#436,#1682);
#1682 = DEFINITIONAL_REPRESENTATION('',(#1683),#1687);
#1683 = LINE('',#1684,#1685);
#1684 = CARTESIAN_POINT('',(0.,-0.));
#1685 = VECTOR('',#1686,1.);
#1686 = DIRECTION('',(3.870408250381E-16,1.));
#1687 = ( GEOMETRIC_REPRESENTATION_CONTEXT(2) 
PARAMETRIC_REPRESENTATION_CONTEXT() REPRESENTATION_CONTEXT('2D SPACE',''
  ) );
#1688 = PCURVE('',#462,#1689);
#1689 = DEFINITIONAL_REPRESENTATION('',(#1690),#1694);
#1690 = LINE('',#1691,#1692);
#1691 = CARTESIAN_POINT('',(11.063242668121,-4.869622749692E-16));
#1692 = VECTOR('',#1693,1.);
#1693 = DIRECTION('',(3.651439342834E-16,1.));
#1694 = ( GEOMETRIC_REPRESENTATION_CONTEXT(2) 
PARAMETRIC_REPRESENTATION_CONTEXT() REPRESENTATION_CONTEXT('2D SPACE',''
  ) );
#1695 = ORIENTED_EDGE('',*,*,#420,.F.);
#1696 = ADVANCED_FACE('',(#1697),#462,.T.);
#1697 = FACE_BOUND('',#1698,.T.);
#1698 = EDGE_LOOP('',(#1699,#1700,#1723,#1744));
#1699 = ORIENTED_EDGE('',*,*,#1675,.T.);
#1700 = ORIENTED_EDGE('',*,*,#1701,.F.);
#1701 = EDGE_CURVE('',#1702,#1653,#1704,.T.);
#1702 = VERTEX_POINT('',#1703);
#1703 = CARTESIAN_POINT('',(90.332626665386,14.522168646088,
    29.999759710444));
#1704 = SURFACE_CURVE('',#1705,(#1709,#1716),.PCURVE_S1.);
#1705 = LINE('',#1706,#1707);
#1706 = CARTESIAN_POINT('',(90.332626665386,14.522168646088,
    29.999759710444));
#1707 = VECTOR('',#1708,1.);
#1708 = DIRECTION('',(-0.93586732138,-8.470288266643E-02,0.342020143326)
  );
#1709 = PCURVE('',#462,#1710);
#1710 = DEFINITIONAL_REPRESENTATION('',(#1711),#1715);
#1711 = LINE('',#1712,#1713);
#1712 = CARTESIAN_POINT('',(5.477159014251E-15,15.));
#1713 = VECTOR('',#1714,1.);
#1714 = DIRECTION('',(1.,4.807121141191E-31));
#1715 = ( GEOMETRIC_REPRESENTATION_CONTEXT(2) 
PARAMETRIC_REPRESENTATION_CONTEXT() REPRESENTATION_CONTEXT('2D SPACE',''
  ) );
#1716 = PCURVE('',#701,#1717);
#1717 = DEFINITIONAL_REPRESENTATION('',(#1718),#1722);
#1718 = LINE('',#1719,#1720);
#1719 = CARTESIAN_POINT('',(37.297377628692,-30.));
#1720 = VECTOR('',#1721,1.);
#1721 = DIRECTION('',(-0.939692620786,-0.342020143326));
#1722 = ( GEOMETRIC_REPRESENTATION_CONTEXT(2) 
PARAMETRIC_REPRESENTATION_CONTEXT() REPRESENTATION_CONTEXT('2D SPACE',''
  ) );
#1723 = ORIENTED_EDGE('',*,*,#1724,.F.);
#1724 = EDGE_CURVE('',#22,#1702,#1725,.T.);
#1725 = SURFACE_CURVE('',#1726,(#1730,#1737),.PCURVE_S1.);
#1726 = LINE('',#1727,#1728);
#1727 = CARTESIAN_POINT('',(91.68471054036,-0.416769374903,
    29.999759710444));
#1728 = VECTOR('',#1729,1.);
#1729 = DIRECTION('',(-9.013892499825E-02,0.995929201399,
    -3.792215342724E-16));
#1730 = PCURVE('',#462,#1731);
#1731 = DEFINITIONAL_REPRESENTATION('',(#1732),#1736);
#1732 = LINE('',#1733,#1734);
#1733 = CARTESIAN_POINT('',(0.,-0.));
#1734 = VECTOR('',#1735,1.);
#1735 = DIRECTION('',(3.651439342834E-16,1.));
#1736 = ( GEOMETRIC_REPRESENTATION_CONTEXT(2) 
PARAMETRIC_REPRESENTATION_CONTEXT() REPRESENTATION_CONTEXT('2D SPACE',''
  ) );
#1737 = PCURVE('',#44,#1738);
#1738 = DEFINITIONAL_REPRESENTATION('',(#1739),#1743);
#1739 = LINE('',#1740,#1741);
#1740 = CARTESIAN_POINT('',(60.000000000007,3.865418435582E-28));
#1741 = VECTOR('',#1742,1.);
#1742 = DIRECTION('',(-6.442364059303E-30,1.));
#1743 = ( GEOMETRIC_REPRESENTATION_CONTEXT(2) 
PARAMETRIC_REPRESENTATION_CONTEXT() REPRESENTATION_CONTEXT('2D SPACE',''
  ) );
#1744 = ORIENTED_EDGE('',*,*,#448,.F.);
#1745 = ADVANCED_FACE('',(#1746),#44,.T.);
#1746 = FACE_BOUND('',#1747,.T.);
#1747 = EDGE_LOOP('',(#1748,#1749,#1770,#1771));
#1748 = ORIENTED_EDGE('',*,*,#1724,.T.);
#1749 = ORIENTED_EDGE('',*,*,#1750,.F.);
#1750 = EDGE_CURVE('',#993,#1702,#1751,.T.);
#1751 = SURFACE_CURVE('',#1752,(#1756,#1763),.PCURVE_S1.);
#1752 = LINE('',#1753,#1754);
#1753 = CARTESIAN_POINT('',(90.332626665386,14.522168646088,
    -2.402895631935E-04));
#1754 = VECTOR('',#1755,1.);
#1755 = DIRECTION('',(1.571554895303E-14,1.803144460603E-15,1.));
#1756 = PCURVE('',#44,#1757);
#1757 = DEFINITIONAL_REPRESENTATION('',(#1758),#1762);
#1758 = LINE('',#1759,#1760);
#1759 = CARTESIAN_POINT('',(30.,15.));
#1760 = VECTOR('',#1761,1.);
#1761 = DIRECTION('',(1.,-1.12103877146E-44));
#1762 = ( GEOMETRIC_REPRESENTATION_CONTEXT(2) 
PARAMETRIC_REPRESENTATION_CONTEXT() REPRESENTATION_CONTEXT('2D SPACE',''
  ) );
#1763 = PCURVE('',#701,#1764);
#1764 = DEFINITIONAL_REPRESENTATION('',(#1765),#1769);
#1765 = LINE('',#1766,#1767);
#1766 = CARTESIAN_POINT('',(37.297377628691,3.765876011638E-12));
#1767 = VECTOR('',#1768,1.);
#1768 = DIRECTION('',(1.657933050107E-14,-1.));
#1769 = ( GEOMETRIC_REPRESENTATION_CONTEXT(2) 
PARAMETRIC_REPRESENTATION_CONTEXT() REPRESENTATION_CONTEXT('2D SPACE',''
  ) );
#1770 = ORIENTED_EDGE('',*,*,#992,.F.);
#1771 = ORIENTED_EDGE('',*,*,#21,.F.);
#1772 = ADVANCED_FACE('',(#1773,#1791,#1794,#1797,#1800,#1803,#1806),
  #701,.T.);
#1773 = FACE_BOUND('',#1774,.T.);
#1774 = EDGE_LOOP('',(#1775,#1776,#1777,#1778,#1779,#1780,#1781,#1782,
    #1783,#1784,#1785,#1786,#1787,#1788,#1789,#1790));
#1775 = ORIENTED_EDGE('',*,*,#1750,.T.);
#1776 = ORIENTED_EDGE('',*,*,#1701,.T.);
#1777 = ORIENTED_EDGE('',*,*,#1652,.T.);
#1778 = ORIENTED_EDGE('',*,*,#1603,.T.);
#1779 = ORIENTED_EDGE('',*,*,#1554,.T.);
#1780 = ORIENTED_EDGE('',*,*,#1505,.T.);
#1781 = ORIENTED_EDGE('',*,*,#1456,.T.);
#1782 = ORIENTED_EDGE('',*,*,#1407,.T.);
#1783 = ORIENTED_EDGE('',*,*,#1358,.T.);
#1784 = ORIENTED_EDGE('',*,*,#1309,.T.);
#1785 = ORIENTED_EDGE('',*,*,#1260,.T.);
#1786 = ORIENTED_EDGE('',*,*,#1211,.T.);
#1787 = ORIENTED_EDGE('',*,*,#1162,.T.);
#1788 = ORIENTED_EDGE('',*,*,#1113,.T.);
#1789 = ORIENTED_EDGE('',*,*,#1064,.T.);
#1790 = ORIENTED_EDGE('',*,*,#1015,.T.);
#1791 = FACE_BOUND('',#1792,.T.);
#1792 = EDGE_LOOP('',(#1793));
#1793 = ORIENTED_EDGE('',*,*,#961,.T.);
#1794 = FACE_BOUND('',#1795,.T.);
#1795 = EDGE_LOOP('',(#1796));
#1796 = ORIENTED_EDGE('',*,*,#907,.T.);
#1797 = FACE_BOUND('',#1798,.T.);
#1798 = EDGE_LOOP('',(#1799));
#1799 = ORIENTED_EDGE('',*,*,#853,.T.);
#1800 = FACE_BOUND('',#1801,.T.);
#1801 = EDGE_LOOP('',(#1802));
#1802 = ORIENTED_EDGE('',*,*,#799,.T.);
#1803 = FACE_BOUND('',#1804,.T.);
#1804 = EDGE_LOOP('',(#1805));
#1805 = ORIENTED_EDGE('',*,*,#745,.T.);
#1806 = FACE_BOUND('',#1807,.T.);
#1807 = EDGE_LOOP('',(#1808));
#1808 = ORIENTED_EDGE('',*,*,#686,.T.);
#1809 = ( GEOMETRIC_REPRESENTATION_CONTEXT(3) 
GLOBAL_UNCERTAINTY_ASSIGNED_CONTEXT((#1813)) 
GLOBAL_UNIT_ASSIGNED_CONTEXT((#1810,#1811,#1812)) REPRESENTATION_CONTEXT
('Context #1','3D Context with UNIT and UNCERTAINTY') );
#1810 = ( LENGTH_UNIT() NAMED_UNIT(*) SI_UNIT(.MILLI.,.METRE.) );
#1811 = ( NAMED_UNIT(*) PLANE_ANGLE_UNIT() SI_UNIT($,.RADIAN.) );
#1812 = ( NAMED_UNIT(*) SI_UNIT($,.STERADIAN.) SOLID_ANGLE_UNIT() );
#1813 = UNCERTAINTY_MEASURE_WITH_UNIT(LENGTH_MEASURE(1.E-07),#1810,
  'distance_accuracy_value','confusion accuracy');
#1814 = PRODUCT_RELATED_PRODUCT_CATEGORY('part',$,(#7));
ENDSEC;
END-ISO-10303-21;
