ISO-10303-21;
HEADER;
FILE_DESCRIPTION(('Open CASCADE Model'),'2;1');
FILE_NAME('Open CASCADE Shape Model','2026-10-05T13:34:57',('Author'),(
    'Open CASCADE'),'Open CASCADE STEP processor 8.0','Open CASCADE 8.0'
  ,'Unknown');
FILE_SCHEMA(('AUTOMOTIVE_DESIGN { 1 0 10303 214 1 1 1 1 }'));
ENDSEC;
DATA;
#1 = APPLICATION_PROTOCOL_DEFINITION('international standard',
  'automotive_design',2000,#2);
#2 = APPLICATION_CONTEXT(
  'core data for automotive mechanical design processes');
#3 = SHAPE_DEFINITION_REPRESENTATION(#4,#10);
#4 = PRODUCT_DEFINITION_SHAPE('','',#5);
#5 = PRODUCT_DEFINITION('design','',#6,#9);
#6 = PRODUCT_DEFINITION_FORMATION('','',#7);
#7 = PRODUCT('cem_spool_2 3','cem_spool_2 3','',(#8));
#8 = PRODUCT_CONTEXT('',#2,'mechanical');
#9 = PRODUCT_DEFINITION_CONTEXT('part definition',#2,'design');
#10 = ADVANCED_BREP_SHAPE_REPRESENTATION('',(#11,#15),#1777);
#11 = AXIS2_PLACEMENT_3D('',#12,#13,#14);
#12 = CARTESIAN_POINT('',(0.,0.,0.));
#13 = DIRECTION('',(0.,0.,1.));
#14 = DIRECTION('',(1.,0.,-0.));
#15 = MANIFOLD_SOLID_BREP('',#16);
#16 = CLOSED_SHELL('',(#17,#143,#219,#301,#377,#453,#647,#723,#777,#826,
    #880,#929,#1039,#1117,#1193,#1271,#1342,#1397,#1502,#1553,#1635,
    #1688,#1737,#1764));
#17 = ADVANCED_FACE('',(#18),#33,.T.);
#18 = FACE_BOUND('',#19,.T.);
#19 = EDGE_LOOP('',(#20,#56,#84,#117));
#20 = ORIENTED_EDGE('',*,*,#21,.T.);
#21 = EDGE_CURVE('',#22,#24,#26,.T.);
#22 = VERTEX_POINT('',#23);
#23 = CARTESIAN_POINT('',(79.539830255048,32.5,24.999759710439));
#24 = VERTEX_POINT('',#25);
#25 = CARTESIAN_POINT('',(74.539830255048,27.5,24.999759710439));
#26 = SURFACE_CURVE('',#27,(#32,#44),.PCURVE_S1.);
#27 = CIRCLE('',#28,5.);
#28 = AXIS2_PLACEMENT_3D('',#29,#30,#31);
#29 = CARTESIAN_POINT('',(79.539830255047,27.5,24.999759710439));
#30 = DIRECTION('',(-7.961103256588E-14,1.705383118723E-16,1.));
#31 = DIRECTION('',(-2.262079412674E-15,1.,-1.705383118725E-16));
#32 = PCURVE('',#33,#38);
#33 = CYLINDRICAL_SURFACE('',#34,5.);
#34 = AXIS2_PLACEMENT_3D('',#35,#36,#37);
#35 = CARTESIAN_POINT('',(79.539830255047,27.5,24.999759710439));
#36 = DIRECTION('',(8.641769498938E-14,-2.567568543575E-16,-1.));
#37 = DIRECTION('',(-2.262079412674E-15,1.,-2.567568543577E-16));
#38 = DEFINITIONAL_REPRESENTATION('',(#39),#43);
#39 = LINE('',#40,#41);
#40 = CARTESIAN_POINT('',(6.28318530718,0.));
#41 = VECTOR('',#42,1.);
#42 = DIRECTION('',(-1.,-2.261727773485E-14));
#43 = ( GEOMETRIC_REPRESENTATION_CONTEXT(2) 
PARAMETRIC_REPRESENTATION_CONTEXT() REPRESENTATION_CONTEXT('2D SPACE',''
  ) );
#44 = PCURVE('',#45,#50);
#45 = PLANE('',#46);
#46 = AXIS2_PLACEMENT_3D('',#47,#48,#49);
#47 = CARTESIAN_POINT('',(89.539830255047,3.268496584496E-13,
    24.99975971044));
#48 = DIRECTION('',(-7.961103309293E-14,2.280177524854E-16,1.));
#49 = DIRECTION('',(1.,2.262079412674E-15,7.961103309293E-14));
#50 = DEFINITIONAL_REPRESENTATION('',(#51),#55);
#51 = CIRCLE('',#52,5.);
#52 = AXIS2_PLACEMENT_2D('',#53,#54);
#53 = CARTESIAN_POINT('',(-10.,27.5));
#54 = DIRECTION('',(-5.976911567876E-30,1.));
#55 = ( GEOMETRIC_REPRESENTATION_CONTEXT(2) 
PARAMETRIC_REPRESENTATION_CONTEXT() REPRESENTATION_CONTEXT('2D SPACE',''
  ) );
#56 = ORIENTED_EDGE('',*,*,#57,.T.);
#57 = EDGE_CURVE('',#24,#58,#60,.T.);
#58 = VERTEX_POINT('',#59);
#59 = CARTESIAN_POINT('',(74.539830255048,27.5,27.499759710439));
#60 = SURFACE_CURVE('',#61,(#65,#72),.PCURVE_S1.);
#61 = LINE('',#62,#63);
#62 = CARTESIAN_POINT('',(74.539830255047,27.5,24.999759710439));
#63 = VECTOR('',#64,1.);
#64 = DIRECTION('',(-8.641769498938E-14,2.567568543575E-16,1.));
#65 = PCURVE('',#33,#66);
#66 = DEFINITIONAL_REPRESENTATION('',(#67),#71);
#67 = LINE('',#68,#69);
#68 = CARTESIAN_POINT('',(4.712388980385,-2.48689957516E-14));
#69 = VECTOR('',#70,1.);
#70 = DIRECTION('',(0.,-1.));
#71 = ( GEOMETRIC_REPRESENTATION_CONTEXT(2) 
PARAMETRIC_REPRESENTATION_CONTEXT() REPRESENTATION_CONTEXT('2D SPACE',''
  ) );
#72 = PCURVE('',#73,#78);
#73 = PLANE('',#74);
#74 = AXIS2_PLACEMENT_3D('',#75,#76,#77);
#75 = CARTESIAN_POINT('',(74.539830255047,-27.5,24.999759710439));
#76 = DIRECTION('',(1.,9.575673587392E-16,8.641769498938E-14));
#77 = DIRECTION('',(-9.575673587392E-16,1.,-2.384695670324E-16));
#78 = DEFINITIONAL_REPRESENTATION('',(#79),#83);
#79 = LINE('',#80,#81);
#80 = CARTESIAN_POINT('',(55.,-2.339730087211E-15));
#81 = VECTOR('',#82,1.);
#82 = DIRECTION('',(1.828728732512E-17,1.));
#83 = ( GEOMETRIC_REPRESENTATION_CONTEXT(2) 
PARAMETRIC_REPRESENTATION_CONTEXT() REPRESENTATION_CONTEXT('2D SPACE',''
  ) );
#84 = ORIENTED_EDGE('',*,*,#85,.T.);
#85 = EDGE_CURVE('',#58,#86,#88,.T.);
#86 = VERTEX_POINT('',#87);
#87 = CARTESIAN_POINT('',(79.539830255048,32.5,27.499759710439));
#88 = SURFACE_CURVE('',#89,(#94,#101),.PCURVE_S1.);
#89 = CIRCLE('',#90,5.);
#90 = AXIS2_PLACEMENT_3D('',#91,#92,#93);
#91 = CARTESIAN_POINT('',(79.539830255047,27.5,27.499759710439));
#92 = DIRECTION('',(7.961103256588E-14,-1.705383118723E-16,-1.));
#93 = DIRECTION('',(-2.262079412674E-15,1.,-1.705383118725E-16));
#94 = PCURVE('',#33,#95);
#95 = DEFINITIONAL_REPRESENTATION('',(#96),#100);
#96 = LINE('',#97,#98);
#97 = CARTESIAN_POINT('',(0.,-2.5));
#98 = VECTOR('',#99,1.);
#99 = DIRECTION('',(1.,2.261727773485E-14));
#100 = ( GEOMETRIC_REPRESENTATION_CONTEXT(2) 
PARAMETRIC_REPRESENTATION_CONTEXT() REPRESENTATION_CONTEXT('2D SPACE',''
  ) );
#101 = PCURVE('',#102,#107);
#102 = PLANE('',#103);
#103 = AXIS2_PLACEMENT_3D('',#104,#105,#106);
#104 = CARTESIAN_POINT('',(97.048049257183,-8.75,27.499759710441));
#105 = DIRECTION('',(-7.961103256588E-14,5.827380487969E-16,1.));
#106 = DIRECTION('',(1.,2.262079412674E-15,7.961103256588E-14));
#107 = DEFINITIONAL_REPRESENTATION('',(#108),#116);
#108 = ( BOUNDED_CURVE() B_SPLINE_CURVE(2,(#109,#110,#111,#112,#113,#114
,#115),.UNSPECIFIED.,.T.,.F.) B_SPLINE_CURVE_WITH_KNOTS((1,2,2,2,2,1),(
    -2.094395102393,0.,2.094395102393,4.188790204786,6.28318530718,
8.377580409573),.UNSPECIFIED.) CURVE() GEOMETRIC_REPRESENTATION_ITEM() 
RATIONAL_B_SPLINE_CURVE((1.,0.5,1.,0.5,1.,0.5,1.)) REPRESENTATION_ITEM(
  '') );
#109 = CARTESIAN_POINT('',(-17.50821900213,41.25));
#110 = CARTESIAN_POINT('',(-8.847964964291,41.25));
#111 = CARTESIAN_POINT('',(-13.17809198321,33.75));
#112 = CARTESIAN_POINT('',(-17.50821900213,26.25));
#113 = CARTESIAN_POINT('',(-21.83834602105,33.75));
#114 = CARTESIAN_POINT('',(-26.16847303997,41.25));
#115 = CARTESIAN_POINT('',(-17.50821900213,41.25));
#116 = ( GEOMETRIC_REPRESENTATION_CONTEXT(2) 
PARAMETRIC_REPRESENTATION_CONTEXT() REPRESENTATION_CONTEXT('2D SPACE',''
  ) );
#117 = ORIENTED_EDGE('',*,*,#118,.F.);
#118 = EDGE_CURVE('',#22,#86,#119,.T.);
#119 = SURFACE_CURVE('',#120,(#124,#131),.PCURVE_S1.);
#120 = LINE('',#121,#122);
#121 = CARTESIAN_POINT('',(79.539830255047,32.5,24.999759710439));
#122 = VECTOR('',#123,1.);
#123 = DIRECTION('',(-8.641769498938E-14,2.567568543575E-16,1.));
#124 = PCURVE('',#33,#125);
#125 = DEFINITIONAL_REPRESENTATION('',(#126),#130);
#126 = LINE('',#127,#128);
#127 = CARTESIAN_POINT('',(6.28318530718,0.));
#128 = VECTOR('',#129,1.);
#129 = DIRECTION('',(0.,-1.));
#130 = ( GEOMETRIC_REPRESENTATION_CONTEXT(2) 
PARAMETRIC_REPRESENTATION_CONTEXT() REPRESENTATION_CONTEXT('2D SPACE',''
  ) );
#131 = PCURVE('',#132,#137);
#132 = PLANE('',#133);
#133 = AXIS2_PLACEMENT_3D('',#134,#135,#136);
#134 = CARTESIAN_POINT('',(79.539830255047,32.5,24.999759710439));
#135 = DIRECTION('',(1.915134717478E-15,-1.,2.567568543576E-16));
#136 = DIRECTION('',(1.,1.915134717478E-15,7.961103309293E-14));
#137 = DEFINITIONAL_REPRESENTATION('',(#138),#142);
#138 = LINE('',#139,#140);
#139 = CARTESIAN_POINT('',(-0.,0.));
#140 = VECTOR('',#141,1.);
#141 = DIRECTION('',(-6.806661896446E-15,1.));
#142 = ( GEOMETRIC_REPRESENTATION_CONTEXT(2) 
PARAMETRIC_REPRESENTATION_CONTEXT() REPRESENTATION_CONTEXT('2D SPACE',''
  ) );
#143 = ADVANCED_FACE('',(#144),#73,.F.);
#144 = FACE_BOUND('',#145,.T.);
#145 = EDGE_LOOP('',(#146,#169,#197,#218));
#146 = ORIENTED_EDGE('',*,*,#147,.T.);
#147 = EDGE_CURVE('',#24,#148,#150,.T.);
#148 = VERTEX_POINT('',#149);
#149 = CARTESIAN_POINT('',(74.539830255048,-27.5,24.999759710439));
#150 = SURFACE_CURVE('',#151,(#155,#162),.PCURVE_S1.);
#151 = LINE('',#152,#153);
#152 = CARTESIAN_POINT('',(74.539830255047,27.5,24.999759710439));
#153 = VECTOR('',#154,1.);
#154 = DIRECTION('',(9.575673587392E-16,-1.,2.384695670324E-16));
#155 = PCURVE('',#73,#156);
#156 = DEFINITIONAL_REPRESENTATION('',(#157),#161);
#157 = LINE('',#158,#159);
#158 = CARTESIAN_POINT('',(55.,-2.339730087211E-15));
#159 = VECTOR('',#160,1.);
#160 = DIRECTION('',(-1.,-8.504906634414E-31));
#161 = ( GEOMETRIC_REPRESENTATION_CONTEXT(2) 
PARAMETRIC_REPRESENTATION_CONTEXT() REPRESENTATION_CONTEXT('2D SPACE',''
  ) );
#162 = PCURVE('',#45,#163);
#163 = DEFINITIONAL_REPRESENTATION('',(#164),#168);
#164 = LINE('',#165,#166);
#165 = CARTESIAN_POINT('',(-15.,27.5));
#166 = VECTOR('',#167,1.);
#167 = DIRECTION('',(-1.290634266127E-15,-1.));
#168 = ( GEOMETRIC_REPRESENTATION_CONTEXT(2) 
PARAMETRIC_REPRESENTATION_CONTEXT() REPRESENTATION_CONTEXT('2D SPACE',''
  ) );
#169 = ORIENTED_EDGE('',*,*,#170,.T.);
#170 = EDGE_CURVE('',#148,#171,#173,.T.);
#171 = VERTEX_POINT('',#172);
#172 = CARTESIAN_POINT('',(74.539830255048,-27.5,27.499759710439));
#173 = SURFACE_CURVE('',#174,(#178,#185),.PCURVE_S1.);
#174 = LINE('',#175,#176);
#175 = CARTESIAN_POINT('',(74.539830255047,-27.5,24.999759710439));
#176 = VECTOR('',#177,1.);
#177 = DIRECTION('',(-8.641769498938E-14,2.567568543575E-16,1.));
#178 = PCURVE('',#73,#179);
#179 = DEFINITIONAL_REPRESENTATION('',(#180),#184);
#180 = LINE('',#181,#182);
#181 = CARTESIAN_POINT('',(0.,0.));
#182 = VECTOR('',#183,1.);
#183 = DIRECTION('',(1.828728732512E-17,1.));
#184 = ( GEOMETRIC_REPRESENTATION_CONTEXT(2) 
PARAMETRIC_REPRESENTATION_CONTEXT() REPRESENTATION_CONTEXT('2D SPACE',''
  ) );
#185 = PCURVE('',#186,#191);
#186 = CYLINDRICAL_SURFACE('',#187,5.);
#187 = AXIS2_PLACEMENT_3D('',#188,#189,#190);
#188 = CARTESIAN_POINT('',(79.539830255047,-27.5,24.999759710439));
#189 = DIRECTION('',(8.641769498938E-14,-2.567568543575E-16,-1.));
#190 = DIRECTION('',(-1.,-4.038436252074E-15,-8.641769498938E-14));
#191 = DEFINITIONAL_REPRESENTATION('',(#192),#196);
#192 = LINE('',#193,#194);
#193 = CARTESIAN_POINT('',(6.28318530718,-2.48689957516E-14));
#194 = VECTOR('',#195,1.);
#195 = DIRECTION('',(0.,-1.));
#196 = ( GEOMETRIC_REPRESENTATION_CONTEXT(2) 
PARAMETRIC_REPRESENTATION_CONTEXT() REPRESENTATION_CONTEXT('2D SPACE',''
  ) );
#197 = ORIENTED_EDGE('',*,*,#198,.T.);
#198 = EDGE_CURVE('',#171,#58,#199,.T.);
#199 = SURFACE_CURVE('',#200,(#204,#211),.PCURVE_S1.);
#200 = LINE('',#201,#202);
#201 = CARTESIAN_POINT('',(74.539830255047,27.5,27.499759710439));
#202 = VECTOR('',#203,1.);
#203 = DIRECTION('',(-9.575673587392E-16,1.,-2.384695670324E-16));
#204 = PCURVE('',#73,#205);
#205 = DEFINITIONAL_REPRESENTATION('',(#206),#210);
#206 = LINE('',#207,#208);
#207 = CARTESIAN_POINT('',(55.,2.5));
#208 = VECTOR('',#209,1.);
#209 = DIRECTION('',(1.,8.504906634414E-31));
#210 = ( GEOMETRIC_REPRESENTATION_CONTEXT(2) 
PARAMETRIC_REPRESENTATION_CONTEXT() REPRESENTATION_CONTEXT('2D SPACE',''
  ) );
#211 = PCURVE('',#102,#212);
#212 = DEFINITIONAL_REPRESENTATION('',(#213),#217);
#213 = LINE('',#214,#215);
#214 = CARTESIAN_POINT('',(-22.50821900213,36.25));
#215 = VECTOR('',#216,1.);
#216 = DIRECTION('',(1.290634266127E-15,1.));
#217 = ( GEOMETRIC_REPRESENTATION_CONTEXT(2) 
PARAMETRIC_REPRESENTATION_CONTEXT() REPRESENTATION_CONTEXT('2D SPACE',''
  ) );
#218 = ORIENTED_EDGE('',*,*,#57,.F.);
#219 = ADVANCED_FACE('',(#220),#186,.T.);
#220 = FACE_BOUND('',#221,.T.);
#221 = EDGE_LOOP('',(#222,#246,#274,#300));
#222 = ORIENTED_EDGE('',*,*,#223,.T.);
#223 = EDGE_CURVE('',#148,#224,#226,.T.);
#224 = VERTEX_POINT('',#225);
#225 = CARTESIAN_POINT('',(79.539830255048,-32.5,24.999759710439));
#226 = SURFACE_CURVE('',#227,(#232,#239),.PCURVE_S1.);
#227 = CIRCLE('',#228,5.);
#228 = AXIS2_PLACEMENT_3D('',#229,#230,#231);
#229 = CARTESIAN_POINT('',(79.539830255047,-27.5,24.999759710439));
#230 = DIRECTION('',(-7.970442980677E-14,2.280191106609E-16,1.));
#231 = DIRECTION('',(-1.,-4.038436252074E-15,-7.970442980677E-14));
#232 = PCURVE('',#186,#233);
#233 = DEFINITIONAL_REPRESENTATION('',(#234),#238);
#234 = LINE('',#235,#236);
#235 = CARTESIAN_POINT('',(6.28318530718,-3.19744231092E-14));
#236 = VECTOR('',#237,1.);
#237 = DIRECTION('',(-1.,2.035554996137E-14));
#238 = ( GEOMETRIC_REPRESENTATION_CONTEXT(2) 
PARAMETRIC_REPRESENTATION_CONTEXT() REPRESENTATION_CONTEXT('2D SPACE',''
  ) );
#239 = PCURVE('',#45,#240);
#240 = DEFINITIONAL_REPRESENTATION('',(#241),#245);
#241 = CIRCLE('',#242,5.);
#242 = AXIS2_PLACEMENT_2D('',#243,#244);
#243 = CARTESIAN_POINT('',(-10.,-27.5));
#244 = DIRECTION('',(-1.,-1.762479051592E-15));
#245 = ( GEOMETRIC_REPRESENTATION_CONTEXT(2) 
PARAMETRIC_REPRESENTATION_CONTEXT() REPRESENTATION_CONTEXT('2D SPACE',''
  ) );
#246 = ORIENTED_EDGE('',*,*,#247,.T.);
#247 = EDGE_CURVE('',#224,#248,#250,.T.);
#248 = VERTEX_POINT('',#249);
#249 = CARTESIAN_POINT('',(79.539830255048,-32.5,27.499759710439));
#250 = SURFACE_CURVE('',#251,(#255,#262),.PCURVE_S1.);
#251 = LINE('',#252,#253);
#252 = CARTESIAN_POINT('',(79.539830255048,-32.5,24.999759710439));
#253 = VECTOR('',#254,1.);
#254 = DIRECTION('',(-8.641769498938E-14,2.567568543575E-16,1.));
#255 = PCURVE('',#186,#256);
#256 = DEFINITIONAL_REPRESENTATION('',(#257),#261);
#257 = LINE('',#258,#259);
#258 = CARTESIAN_POINT('',(4.712388980385,0.));
#259 = VECTOR('',#260,1.);
#260 = DIRECTION('',(0.,-1.));
#261 = ( GEOMETRIC_REPRESENTATION_CONTEXT(2) 
PARAMETRIC_REPRESENTATION_CONTEXT() REPRESENTATION_CONTEXT('2D SPACE',''
  ) );
#262 = PCURVE('',#263,#268);
#263 = PLANE('',#264);
#264 = AXIS2_PLACEMENT_3D('',#265,#266,#267);
#265 = CARTESIAN_POINT('',(104.53983025504,-32.5,24.999759710441));
#266 = DIRECTION('',(-5.093148125468E-15,1.,-2.567568543579E-16));
#267 = DIRECTION('',(-1.,-5.093148125468E-15,-7.958085695794E-14));
#268 = DEFINITIONAL_REPRESENTATION('',(#269),#273);
#269 = LINE('',#270,#271);
#270 = CARTESIAN_POINT('',(25.,-3.993184266875E-14));
#271 = VECTOR('',#272,1.);
#272 = DIRECTION('',(6.836838031439E-15,1.));
#273 = ( GEOMETRIC_REPRESENTATION_CONTEXT(2) 
PARAMETRIC_REPRESENTATION_CONTEXT() REPRESENTATION_CONTEXT('2D SPACE',''
  ) );
#274 = ORIENTED_EDGE('',*,*,#275,.T.);
#275 = EDGE_CURVE('',#248,#171,#276,.T.);
#276 = SURFACE_CURVE('',#277,(#282,#289),.PCURVE_S1.);
#277 = CIRCLE('',#278,5.);
#278 = AXIS2_PLACEMENT_3D('',#279,#280,#281);
#279 = CARTESIAN_POINT('',(79.539830255047,-27.5,27.499759710439));
#280 = DIRECTION('',(7.970442980677E-14,-2.280191106609E-16,-1.));
#281 = DIRECTION('',(-1.,-4.038436252074E-15,-7.970442980677E-14));
#282 = PCURVE('',#186,#283);
#283 = DEFINITIONAL_REPRESENTATION('',(#284),#288);
#284 = LINE('',#285,#286);
#285 = CARTESIAN_POINT('',(-4.707345624411E-14,-2.5));
#286 = VECTOR('',#287,1.);
#287 = DIRECTION('',(1.,-2.035554996137E-14));
#288 = ( GEOMETRIC_REPRESENTATION_CONTEXT(2) 
PARAMETRIC_REPRESENTATION_CONTEXT() REPRESENTATION_CONTEXT('2D SPACE',''
  ) );
#289 = PCURVE('',#102,#290);
#290 = DEFINITIONAL_REPRESENTATION('',(#291),#299);
#291 = ( BOUNDED_CURVE() B_SPLINE_CURVE(2,(#292,#293,#294,#295,#296,#297
,#298),.UNSPECIFIED.,.T.,.F.) B_SPLINE_CURVE_WITH_KNOTS((1,2,2,2,2,1),(
    -2.094395102393,0.,2.094395102393,4.188790204786,6.28318530718,
8.377580409573),.UNSPECIFIED.) CURVE() GEOMETRIC_REPRESENTATION_ITEM() 
RATIONAL_B_SPLINE_CURVE((1.,0.5,1.,0.5,1.,0.5,1.)) REPRESENTATION_ITEM(
  '') );
#292 = CARTESIAN_POINT('',(-22.50821900213,-18.75));
#293 = CARTESIAN_POINT('',(-22.50821900213,-10.08974596215));
#294 = CARTESIAN_POINT('',(-15.00821900213,-14.41987298107));
#295 = CARTESIAN_POINT('',(-7.508219002135,-18.75));
#296 = CARTESIAN_POINT('',(-15.00821900213,-23.08012701892));
#297 = CARTESIAN_POINT('',(-22.50821900213,-27.41025403784));
#298 = CARTESIAN_POINT('',(-22.50821900213,-18.75));
#299 = ( GEOMETRIC_REPRESENTATION_CONTEXT(2) 
PARAMETRIC_REPRESENTATION_CONTEXT() REPRESENTATION_CONTEXT('2D SPACE',''
  ) );
#300 = ORIENTED_EDGE('',*,*,#170,.F.);
#301 = ADVANCED_FACE('',(#302),#263,.F.);
#302 = FACE_BOUND('',#303,.T.);
#303 = EDGE_LOOP('',(#304,#327,#355,#376));
#304 = ORIENTED_EDGE('',*,*,#305,.T.);
#305 = EDGE_CURVE('',#224,#306,#308,.T.);
#306 = VERTEX_POINT('',#307);
#307 = CARTESIAN_POINT('',(104.53983025504,-32.5,24.999759710441));
#308 = SURFACE_CURVE('',#309,(#313,#320),.PCURVE_S1.);
#309 = LINE('',#310,#311);
#310 = CARTESIAN_POINT('',(79.539830255048,-32.5,24.999759710439));
#311 = VECTOR('',#312,1.);
#312 = DIRECTION('',(1.,5.093148125468E-15,7.958085695794E-14));
#313 = PCURVE('',#263,#314);
#314 = DEFINITIONAL_REPRESENTATION('',(#315),#319);
#315 = LINE('',#316,#317);
#316 = CARTESIAN_POINT('',(25.,-3.993184266875E-14));
#317 = VECTOR('',#318,1.);
#318 = DIRECTION('',(-1.,-6.310887241768E-29));
#319 = ( GEOMETRIC_REPRESENTATION_CONTEXT(2) 
PARAMETRIC_REPRESENTATION_CONTEXT() REPRESENTATION_CONTEXT('2D SPACE',''
  ) );
#320 = PCURVE('',#45,#321);
#321 = DEFINITIONAL_REPRESENTATION('',(#322),#326);
#322 = LINE('',#323,#324);
#323 = CARTESIAN_POINT('',(-10.,-32.5));
#324 = VECTOR('',#325,1.);
#325 = DIRECTION('',(1.,2.844946500602E-15));
#326 = ( GEOMETRIC_REPRESENTATION_CONTEXT(2) 
PARAMETRIC_REPRESENTATION_CONTEXT() REPRESENTATION_CONTEXT('2D SPACE',''
  ) );
#327 = ORIENTED_EDGE('',*,*,#328,.T.);
#328 = EDGE_CURVE('',#306,#329,#331,.T.);
#329 = VERTEX_POINT('',#330);
#330 = CARTESIAN_POINT('',(104.53983025504,-32.5,27.499759710441));
#331 = SURFACE_CURVE('',#332,(#336,#343),.PCURVE_S1.);
#332 = LINE('',#333,#334);
#333 = CARTESIAN_POINT('',(104.53983025504,-32.5,24.999759710441));
#334 = VECTOR('',#335,1.);
#335 = DIRECTION('',(-8.641769498938E-14,2.567568543575E-16,1.));
#336 = PCURVE('',#263,#337);
#337 = DEFINITIONAL_REPRESENTATION('',(#338),#342);
#338 = LINE('',#339,#340);
#339 = CARTESIAN_POINT('',(0.,0.));
#340 = VECTOR('',#341,1.);
#341 = DIRECTION('',(6.836838031439E-15,1.));
#342 = ( GEOMETRIC_REPRESENTATION_CONTEXT(2) 
PARAMETRIC_REPRESENTATION_CONTEXT() REPRESENTATION_CONTEXT('2D SPACE',''
  ) );
#343 = PCURVE('',#344,#349);
#344 = PLANE('',#345);
#345 = AXIS2_PLACEMENT_3D('',#346,#347,#348);
#346 = CARTESIAN_POINT('',(104.53983025505,-17.5,-2.402895585784E-04));
#347 = DIRECTION('',(-1.,-2.262079412674E-15,-7.866631969018E-14));
#348 = DIRECTION('',(-2.262079412674E-15,1.,-2.280043196125E-16));
#349 = DEFINITIONAL_REPRESENTATION('',(#350),#354);
#350 = LINE('',#351,#352);
#351 = CARTESIAN_POINT('',(-15.,-25.));
#352 = VECTOR('',#353,1.);
#353 = DIRECTION('',(2.875253474513E-17,-1.));
#354 = ( GEOMETRIC_REPRESENTATION_CONTEXT(2) 
PARAMETRIC_REPRESENTATION_CONTEXT() REPRESENTATION_CONTEXT('2D SPACE',''
  ) );
#355 = ORIENTED_EDGE('',*,*,#356,.T.);
#356 = EDGE_CURVE('',#329,#248,#357,.T.);
#357 = SURFACE_CURVE('',#358,(#362,#369),.PCURVE_S1.);
#358 = LINE('',#359,#360);
#359 = CARTESIAN_POINT('',(79.539830255048,-32.5,27.499759710439));
#360 = VECTOR('',#361,1.);
#361 = DIRECTION('',(-1.,-5.093148125468E-15,-7.958085695794E-14));
#362 = PCURVE('',#263,#363);
#363 = DEFINITIONAL_REPRESENTATION('',(#364),#368);
#364 = LINE('',#365,#366);
#365 = CARTESIAN_POINT('',(25.,2.5));
#366 = VECTOR('',#367,1.);
#367 = DIRECTION('',(1.,6.310887241768E-29));
#368 = ( GEOMETRIC_REPRESENTATION_CONTEXT(2) 
PARAMETRIC_REPRESENTATION_CONTEXT() REPRESENTATION_CONTEXT('2D SPACE',''
  ) );
#369 = PCURVE('',#102,#370);
#370 = DEFINITIONAL_REPRESENTATION('',(#371),#375);
#371 = LINE('',#372,#373);
#372 = CARTESIAN_POINT('',(-17.50821900213,-23.75));
#373 = VECTOR('',#374,1.);
#374 = DIRECTION('',(-1.,-2.844946500602E-15));
#375 = ( GEOMETRIC_REPRESENTATION_CONTEXT(2) 
PARAMETRIC_REPRESENTATION_CONTEXT() REPRESENTATION_CONTEXT('2D SPACE',''
  ) );
#376 = ORIENTED_EDGE('',*,*,#247,.F.);
#377 = ADVANCED_FACE('',(#378),#132,.F.);
#378 = FACE_BOUND('',#379,.T.);
#379 = EDGE_LOOP('',(#380,#403,#404,#427));
#380 = ORIENTED_EDGE('',*,*,#381,.T.);
#381 = EDGE_CURVE('',#382,#22,#384,.T.);
#382 = VERTEX_POINT('',#383);
#383 = CARTESIAN_POINT('',(104.53983025504,32.5,24.999759710441));
#384 = SURFACE_CURVE('',#385,(#389,#396),.PCURVE_S1.);
#385 = LINE('',#386,#387);
#386 = CARTESIAN_POINT('',(104.53983025504,32.5,24.999759710441));
#387 = VECTOR('',#388,1.);
#388 = DIRECTION('',(-1.,-1.915134717478E-15,-7.961103309293E-14));
#389 = PCURVE('',#132,#390);
#390 = DEFINITIONAL_REPRESENTATION('',(#391),#395);
#391 = LINE('',#392,#393);
#392 = CARTESIAN_POINT('',(25.,3.917743929392E-14));
#393 = VECTOR('',#394,1.);
#394 = DIRECTION('',(-1.,7.573064690122E-29));
#395 = ( GEOMETRIC_REPRESENTATION_CONTEXT(2) 
PARAMETRIC_REPRESENTATION_CONTEXT() REPRESENTATION_CONTEXT('2D SPACE',''
  ) );
#396 = PCURVE('',#45,#397);
#397 = DEFINITIONAL_REPRESENTATION('',(#398),#402);
#398 = LINE('',#399,#400);
#399 = CARTESIAN_POINT('',(15.,32.5));
#400 = VECTOR('',#401,1.);
#401 = DIRECTION('',(-1.,3.469446951954E-16));
#402 = ( GEOMETRIC_REPRESENTATION_CONTEXT(2) 
PARAMETRIC_REPRESENTATION_CONTEXT() REPRESENTATION_CONTEXT('2D SPACE',''
  ) );
#403 = ORIENTED_EDGE('',*,*,#118,.T.);
#404 = ORIENTED_EDGE('',*,*,#405,.T.);
#405 = EDGE_CURVE('',#86,#406,#408,.T.);
#406 = VERTEX_POINT('',#407);
#407 = CARTESIAN_POINT('',(104.53983025504,32.5,27.499759710441));
#408 = SURFACE_CURVE('',#409,(#413,#420),.PCURVE_S1.);
#409 = LINE('',#410,#411);
#410 = CARTESIAN_POINT('',(104.53983025504,32.5,27.499759710441));
#411 = VECTOR('',#412,1.);
#412 = DIRECTION('',(1.,1.915134717478E-15,7.961103309293E-14));
#413 = PCURVE('',#132,#414);
#414 = DEFINITIONAL_REPRESENTATION('',(#415),#419);
#415 = LINE('',#416,#417);
#416 = CARTESIAN_POINT('',(25.,2.5));
#417 = VECTOR('',#418,1.);
#418 = DIRECTION('',(1.,-7.573064690122E-29));
#419 = ( GEOMETRIC_REPRESENTATION_CONTEXT(2) 
PARAMETRIC_REPRESENTATION_CONTEXT() REPRESENTATION_CONTEXT('2D SPACE',''
  ) );
#420 = PCURVE('',#102,#421);
#421 = DEFINITIONAL_REPRESENTATION('',(#422),#426);
#422 = LINE('',#423,#424);
#423 = CARTESIAN_POINT('',(7.491780997865,41.25));
#424 = VECTOR('',#425,1.);
#425 = DIRECTION('',(1.,-3.469446951954E-16));
#426 = ( GEOMETRIC_REPRESENTATION_CONTEXT(2) 
PARAMETRIC_REPRESENTATION_CONTEXT() REPRESENTATION_CONTEXT('2D SPACE',''
  ) );
#427 = ORIENTED_EDGE('',*,*,#428,.F.);
#428 = EDGE_CURVE('',#382,#406,#429,.T.);
#429 = SURFACE_CURVE('',#430,(#434,#441),.PCURVE_S1.);
#430 = LINE('',#431,#432);
#431 = CARTESIAN_POINT('',(104.53983025504,32.5,24.999759710441));
#432 = VECTOR('',#433,1.);
#433 = DIRECTION('',(-8.641769498938E-14,2.567568543575E-16,1.));
#434 = PCURVE('',#132,#435);
#435 = DEFINITIONAL_REPRESENTATION('',(#436),#440);
#436 = LINE('',#437,#438);
#437 = CARTESIAN_POINT('',(25.,3.917743929392E-14));
#438 = VECTOR('',#439,1.);
#439 = DIRECTION('',(-6.806661896446E-15,1.));
#440 = ( GEOMETRIC_REPRESENTATION_CONTEXT(2) 
PARAMETRIC_REPRESENTATION_CONTEXT() REPRESENTATION_CONTEXT('2D SPACE',''
  ) );
#441 = PCURVE('',#442,#447);
#442 = PLANE('',#443);
#443 = AXIS2_PLACEMENT_3D('',#444,#445,#446);
#444 = CARTESIAN_POINT('',(104.53983025505,15.,-2.402895585858E-04));
#445 = DIRECTION('',(-1.,-2.262079412674E-15,-7.866631969018E-14));
#446 = DIRECTION('',(-2.262079412674E-15,1.,-2.28039049314E-16));
#447 = DEFINITIONAL_REPRESENTATION('',(#448),#452);
#448 = LINE('',#449,#450);
#449 = CARTESIAN_POINT('',(17.5,-25.));
#450 = VECTOR('',#451,1.);
#451 = DIRECTION('',(2.871780504372E-17,-1.));
#452 = ( GEOMETRIC_REPRESENTATION_CONTEXT(2) 
PARAMETRIC_REPRESENTATION_CONTEXT() REPRESENTATION_CONTEXT('2D SPACE',''
  ) );
#453 = ADVANCED_FACE('',(#454),#45,.F.);
#454 = FACE_BOUND('',#455,.T.);
#455 = EDGE_LOOP('',(#456,#486,#515,#543,#572,#600,#621,#622,#623,#624,
    #625,#626));
#456 = ORIENTED_EDGE('',*,*,#457,.T.);
#457 = EDGE_CURVE('',#458,#460,#462,.T.);
#458 = VERTEX_POINT('',#459);
#459 = CARTESIAN_POINT('',(104.53983025504,17.5,24.999759710441));
#460 = VERTEX_POINT('',#461);
#461 = CARTESIAN_POINT('',(92.056268259318,17.5,24.99975971044));
#462 = SURFACE_CURVE('',#463,(#467,#474),.PCURVE_S1.);
#463 = LINE('',#464,#465);
#464 = CARTESIAN_POINT('',(97.039830255047,17.5,24.999759710441));
#465 = VECTOR('',#466,1.);
#466 = DIRECTION('',(-1.,-2.622901895677E-15,-7.961103309293E-14));
#467 = PCURVE('',#45,#468);
#468 = DEFINITIONAL_REPRESENTATION('',(#469),#473);
#469 = LINE('',#470,#471);
#470 = CARTESIAN_POINT('',(7.5,17.5));
#471 = VECTOR('',#472,1.);
#472 = DIRECTION('',(-1.,-3.608224830032E-16));
#473 = ( GEOMETRIC_REPRESENTATION_CONTEXT(2) 
PARAMETRIC_REPRESENTATION_CONTEXT() REPRESENTATION_CONTEXT('2D SPACE',''
  ) );
#474 = PCURVE('',#475,#480);
#475 = PLANE('',#476);
#476 = AXIS2_PLACEMENT_3D('',#477,#478,#479);
#477 = CARTESIAN_POINT('',(104.53983025504,17.5,-2.402895585864E-04));
#478 = DIRECTION('',(2.622901895677E-15,-1.,5.797308251577E-16));
#479 = DIRECTION('',(-1.,-2.622901895677E-15,-8.008943010335E-14));
#480 = DEFINITIONAL_REPRESENTATION('',(#481),#485);
#481 = LINE('',#482,#483);
#482 = CARTESIAN_POINT('',(7.5,-25.));
#483 = VECTOR('',#484,1.);
#484 = DIRECTION('',(1.,-4.783970104138E-16));
#485 = ( GEOMETRIC_REPRESENTATION_CONTEXT(2) 
PARAMETRIC_REPRESENTATION_CONTEXT() REPRESENTATION_CONTEXT('2D SPACE',''
  ) );
#486 = ORIENTED_EDGE('',*,*,#487,.T.);
#487 = EDGE_CURVE('',#460,#488,#490,.T.);
#488 = VERTEX_POINT('',#489);
#489 = CARTESIAN_POINT('',(89.556268259318,15.,24.99975971044));
#490 = SURFACE_CURVE('',#491,(#496,#503),.PCURVE_S1.);
#491 = CIRCLE('',#492,2.5);
#492 = AXIS2_PLACEMENT_3D('',#493,#494,#495);
#493 = CARTESIAN_POINT('',(92.056268259317,15.,24.99975971044));
#494 = DIRECTION('',(-7.961103309293E-14,2.280177524854E-16,1.));
#495 = DIRECTION('',(-2.262079412674E-15,1.,-2.280177524856E-16));
#496 = PCURVE('',#45,#497);
#497 = DEFINITIONAL_REPRESENTATION('',(#498),#502);
#498 = CIRCLE('',#499,2.5);
#499 = AXIS2_PLACEMENT_2D('',#500,#501);
#500 = CARTESIAN_POINT('',(2.51643800427,15.));
#501 = DIRECTION('',(-5.976911567876E-30,1.));
#502 = ( GEOMETRIC_REPRESENTATION_CONTEXT(2) 
PARAMETRIC_REPRESENTATION_CONTEXT() REPRESENTATION_CONTEXT('2D SPACE',''
  ) );
#503 = PCURVE('',#504,#509);
#504 = CYLINDRICAL_SURFACE('',#505,2.5);
#505 = AXIS2_PLACEMENT_3D('',#506,#507,#508);
#506 = CARTESIAN_POINT('',(92.056268259319,15.,-2.402895595851E-04));
#507 = DIRECTION('',(-7.866631969018E-14,5.797308251575E-16,1.));
#508 = DIRECTION('',(-2.262079412674E-15,1.,-5.797308251577E-16));
#509 = DEFINITIONAL_REPRESENTATION('',(#510),#514);
#510 = LINE('',#511,#512);
#511 = CARTESIAN_POINT('',(0.,25.));
#512 = VECTOR('',#513,1.);
#513 = DIRECTION('',(1.,0.));
#514 = ( GEOMETRIC_REPRESENTATION_CONTEXT(2) 
PARAMETRIC_REPRESENTATION_CONTEXT() REPRESENTATION_CONTEXT('2D SPACE',''
  ) );
#515 = ORIENTED_EDGE('',*,*,#516,.T.);
#516 = EDGE_CURVE('',#488,#517,#519,.T.);
#517 = VERTEX_POINT('',#518);
#518 = CARTESIAN_POINT('',(89.556268259318,-15.,24.99975971044));
#519 = SURFACE_CURVE('',#520,(#524,#531),.PCURVE_S1.);
#520 = LINE('',#521,#522);
#521 = CARTESIAN_POINT('',(89.556268259317,7.5,24.99975971044));
#522 = VECTOR('',#523,1.);
#523 = DIRECTION('',(2.262079412674E-15,-1.,2.280177524856E-16));
#524 = PCURVE('',#45,#525);
#525 = DEFINITIONAL_REPRESENTATION('',(#526),#530);
#526 = LINE('',#527,#528);
#527 = CARTESIAN_POINT('',(1.643800426997E-02,7.5));
#528 = VECTOR('',#529,1.);
#529 = DIRECTION('',(5.976911567876E-30,-1.));
#530 = ( GEOMETRIC_REPRESENTATION_CONTEXT(2) 
PARAMETRIC_REPRESENTATION_CONTEXT() REPRESENTATION_CONTEXT('2D SPACE',''
  ) );
#531 = PCURVE('',#532,#537);
#532 = PLANE('',#533);
#533 = AXIS2_PLACEMENT_3D('',#534,#535,#536);
#534 = CARTESIAN_POINT('',(89.556268259319,15.,-2.402895597887E-04));
#535 = DIRECTION('',(1.,2.262079412674E-15,7.866631969018E-14));
#536 = DIRECTION('',(2.262079412674E-15,-1.,5.602657000178E-16));
#537 = DEFINITIONAL_REPRESENTATION('',(#538),#542);
#538 = LINE('',#539,#540);
#539 = CARTESIAN_POINT('',(7.5,-25.));
#540 = VECTOR('',#541,1.);
#541 = DIRECTION('',(1.,3.322479475323E-16));
#542 = ( GEOMETRIC_REPRESENTATION_CONTEXT(2) 
PARAMETRIC_REPRESENTATION_CONTEXT() REPRESENTATION_CONTEXT('2D SPACE',''
  ) );
#543 = ORIENTED_EDGE('',*,*,#544,.T.);
#544 = EDGE_CURVE('',#517,#545,#547,.T.);
#545 = VERTEX_POINT('',#546);
#546 = CARTESIAN_POINT('',(92.056268259318,-17.5,24.99975971044));
#547 = SURFACE_CURVE('',#548,(#553,#560),.PCURVE_S1.);
#548 = CIRCLE('',#549,2.5);
#549 = AXIS2_PLACEMENT_3D('',#550,#551,#552);
#550 = CARTESIAN_POINT('',(92.056268259317,-15.,24.99975971044));
#551 = DIRECTION('',(-7.961103309293E-14,2.280177524854E-16,1.));
#552 = DIRECTION('',(-1.,-2.262079412674E-15,-7.961103309293E-14));
#553 = PCURVE('',#45,#554);
#554 = DEFINITIONAL_REPRESENTATION('',(#555),#559);
#555 = CIRCLE('',#556,2.5);
#556 = AXIS2_PLACEMENT_2D('',#557,#558);
#557 = CARTESIAN_POINT('',(2.51643800427,-15.));
#558 = DIRECTION('',(-1.,5.976911567876E-30));
#559 = ( GEOMETRIC_REPRESENTATION_CONTEXT(2) 
PARAMETRIC_REPRESENTATION_CONTEXT() REPRESENTATION_CONTEXT('2D SPACE',''
  ) );
#560 = PCURVE('',#561,#566);
#561 = CYLINDRICAL_SURFACE('',#562,2.5);
#562 = AXIS2_PLACEMENT_3D('',#563,#564,#565);
#563 = CARTESIAN_POINT('',(92.056268259319,-15.,-2.402895595738E-04));
#564 = DIRECTION('',(-7.866631969018E-14,5.797308251575E-16,1.));
#565 = DIRECTION('',(-1.,-2.262079412674E-15,-7.866631969018E-14));
#566 = DEFINITIONAL_REPRESENTATION('',(#567),#571);
#567 = LINE('',#568,#569);
#568 = CARTESIAN_POINT('',(0.,25.));
#569 = VECTOR('',#570,1.);
#570 = DIRECTION('',(1.,0.));
#571 = ( GEOMETRIC_REPRESENTATION_CONTEXT(2) 
PARAMETRIC_REPRESENTATION_CONTEXT() REPRESENTATION_CONTEXT('2D SPACE',''
  ) );
#572 = ORIENTED_EDGE('',*,*,#573,.T.);
#573 = EDGE_CURVE('',#545,#574,#576,.T.);
#574 = VERTEX_POINT('',#575);
#575 = CARTESIAN_POINT('',(104.53983025504,-17.5,24.999759710441));
#576 = SURFACE_CURVE('',#577,(#581,#588),.PCURVE_S1.);
#577 = LINE('',#578,#579);
#578 = CARTESIAN_POINT('',(90.798049257183,-17.5,24.99975971044));
#579 = VECTOR('',#580,1.);
#580 = DIRECTION('',(1.,2.081668171172E-15,7.961103309293E-14));
#581 = PCURVE('',#45,#582);
#582 = DEFINITIONAL_REPRESENTATION('',(#583),#587);
#583 = LINE('',#584,#585);
#584 = CARTESIAN_POINT('',(1.258219002135,-17.5));
#585 = VECTOR('',#586,1.);
#586 = DIRECTION('',(1.,-1.804112415016E-16));
#587 = ( GEOMETRIC_REPRESENTATION_CONTEXT(2) 
PARAMETRIC_REPRESENTATION_CONTEXT() REPRESENTATION_CONTEXT('2D SPACE',''
  ) );
#588 = PCURVE('',#589,#594);
#589 = PLANE('',#590);
#590 = AXIS2_PLACEMENT_3D('',#591,#592,#593);
#591 = CARTESIAN_POINT('',(92.05626825932,-17.5,-2.402895595727E-04));
#592 = DIRECTION('',(-2.081668171172E-15,1.,-5.797308251577E-16));
#593 = DIRECTION('',(1.,2.081668171172E-15,7.965301302513E-14));
#594 = DEFINITIONAL_REPRESENTATION('',(#595),#599);
#595 = LINE('',#596,#597);
#596 = CARTESIAN_POINT('',(-1.258219002135,-25.));
#597 = VECTOR('',#598,1.);
#598 = DIRECTION('',(1.,4.197993219325E-17));
#599 = ( GEOMETRIC_REPRESENTATION_CONTEXT(2) 
PARAMETRIC_REPRESENTATION_CONTEXT() REPRESENTATION_CONTEXT('2D SPACE',''
  ) );
#600 = ORIENTED_EDGE('',*,*,#601,.F.);
#601 = EDGE_CURVE('',#306,#574,#602,.T.);
#602 = SURFACE_CURVE('',#603,(#607,#614),.PCURVE_S1.);
#603 = LINE('',#604,#605);
#604 = CARTESIAN_POINT('',(104.53983025504,-32.5,24.999759710441));
#605 = VECTOR('',#606,1.);
#606 = DIRECTION('',(-2.262079412674E-15,1.,-2.280165693482E-16));
#607 = PCURVE('',#45,#608);
#608 = DEFINITIONAL_REPRESENTATION('',(#609),#613);
#609 = LINE('',#610,#611);
#610 = CARTESIAN_POINT('',(15.,-32.5));
#611 = VECTOR('',#612,1.);
#612 = DIRECTION('',(-5.976911567876E-30,1.));
#613 = ( GEOMETRIC_REPRESENTATION_CONTEXT(2) 
PARAMETRIC_REPRESENTATION_CONTEXT() REPRESENTATION_CONTEXT('2D SPACE',''
  ) );
#614 = PCURVE('',#344,#615);
#615 = DEFINITIONAL_REPRESENTATION('',(#616),#620);
#616 = LINE('',#617,#618);
#617 = CARTESIAN_POINT('',(-15.,-25.));
#618 = VECTOR('',#619,1.);
#619 = DIRECTION('',(1.,1.224973568799E-20));
#620 = ( GEOMETRIC_REPRESENTATION_CONTEXT(2) 
PARAMETRIC_REPRESENTATION_CONTEXT() REPRESENTATION_CONTEXT('2D SPACE',''
  ) );
#621 = ORIENTED_EDGE('',*,*,#305,.F.);
#622 = ORIENTED_EDGE('',*,*,#223,.F.);
#623 = ORIENTED_EDGE('',*,*,#147,.F.);
#624 = ORIENTED_EDGE('',*,*,#21,.F.);
#625 = ORIENTED_EDGE('',*,*,#381,.F.);
#626 = ORIENTED_EDGE('',*,*,#627,.F.);
#627 = EDGE_CURVE('',#458,#382,#628,.T.);
#628 = SURFACE_CURVE('',#629,(#633,#640),.PCURVE_S1.);
#629 = LINE('',#630,#631);
#630 = CARTESIAN_POINT('',(104.53983025504,15.,24.999759710441));
#631 = VECTOR('',#632,1.);
#632 = DIRECTION('',(-2.262079412674E-15,1.,-2.280177524856E-16));
#633 = PCURVE('',#45,#634);
#634 = DEFINITIONAL_REPRESENTATION('',(#635),#639);
#635 = LINE('',#636,#637);
#636 = CARTESIAN_POINT('',(15.,15.));
#637 = VECTOR('',#638,1.);
#638 = DIRECTION('',(-5.976911567876E-30,1.));
#639 = ( GEOMETRIC_REPRESENTATION_CONTEXT(2) 
PARAMETRIC_REPRESENTATION_CONTEXT() REPRESENTATION_CONTEXT('2D SPACE',''
  ) );
#640 = PCURVE('',#442,#641);
#641 = DEFINITIONAL_REPRESENTATION('',(#642),#646);
#642 = LINE('',#643,#644);
#643 = CARTESIAN_POINT('',(7.977429998883E-16,-25.));
#644 = VECTOR('',#645,1.);
#645 = DIRECTION('',(1.,-2.12968283778E-20));
#646 = ( GEOMETRIC_REPRESENTATION_CONTEXT(2) 
PARAMETRIC_REPRESENTATION_CONTEXT() REPRESENTATION_CONTEXT('2D SPACE',''
  ) );
#647 = ADVANCED_FACE('',(#648),#475,.F.);
#648 = FACE_BOUND('',#649,.T.);
#649 = EDGE_LOOP('',(#650,#651,#674,#702));
#650 = ORIENTED_EDGE('',*,*,#457,.F.);
#651 = ORIENTED_EDGE('',*,*,#652,.T.);
#652 = EDGE_CURVE('',#458,#653,#655,.T.);
#653 = VERTEX_POINT('',#654);
#654 = CARTESIAN_POINT('',(104.53983025505,17.5,-25.00024028955));
#655 = SURFACE_CURVE('',#656,(#660,#667),.PCURVE_S1.);
#656 = LINE('',#657,#658);
#657 = CARTESIAN_POINT('',(104.53983025504,17.5,-2.402895585864E-04));
#658 = VECTOR('',#659,1.);
#659 = DIRECTION('',(7.866631969018E-14,-5.797308251575E-16,-1.));
#660 = PCURVE('',#475,#661);
#661 = DEFINITIONAL_REPRESENTATION('',(#662),#666);
#662 = LINE('',#663,#664);
#663 = CARTESIAN_POINT('',(0.,0.));
#664 = VECTOR('',#665,1.);
#665 = DIRECTION('',(1.423110413169E-15,1.));
#666 = ( GEOMETRIC_REPRESENTATION_CONTEXT(2) 
PARAMETRIC_REPRESENTATION_CONTEXT() REPRESENTATION_CONTEXT('2D SPACE',''
  ) );
#667 = PCURVE('',#442,#668);
#668 = DEFINITIONAL_REPRESENTATION('',(#669),#673);
#669 = LINE('',#670,#671);
#670 = CARTESIAN_POINT('',(2.5,-1.875124706455E-19));
#671 = VECTOR('',#672,1.);
#672 = DIRECTION('',(-3.516917758438E-16,1.));
#673 = ( GEOMETRIC_REPRESENTATION_CONTEXT(2) 
PARAMETRIC_REPRESENTATION_CONTEXT() REPRESENTATION_CONTEXT('2D SPACE',''
  ) );
#674 = ORIENTED_EDGE('',*,*,#675,.F.);
#675 = EDGE_CURVE('',#676,#653,#678,.T.);
#676 = VERTEX_POINT('',#677);
#677 = CARTESIAN_POINT('',(92.056268259322,17.5,-25.00024028956));
#678 = SURFACE_CURVE('',#679,(#683,#690),.PCURVE_S1.);
#679 = LINE('',#680,#681);
#680 = CARTESIAN_POINT('',(97.039830255052,17.5,-25.00024028955));
#681 = VECTOR('',#682,1.);
#682 = DIRECTION('',(1.,2.622901895677E-15,7.961103309293E-14));
#683 = PCURVE('',#475,#684);
#684 = DEFINITIONAL_REPRESENTATION('',(#685),#689);
#685 = LINE('',#686,#687);
#686 = CARTESIAN_POINT('',(7.5,25.));
#687 = VECTOR('',#688,1.);
#688 = DIRECTION('',(-1.,4.783970104138E-16));
#689 = ( GEOMETRIC_REPRESENTATION_CONTEXT(2) 
PARAMETRIC_REPRESENTATION_CONTEXT() REPRESENTATION_CONTEXT('2D SPACE',''
  ) );
#690 = PCURVE('',#691,#696);
#691 = PLANE('',#692);
#692 = AXIS2_PLACEMENT_3D('',#693,#694,#695);
#693 = CARTESIAN_POINT('',(89.539830255052,3.126388037344E-13,
    -25.00024028956));
#694 = DIRECTION('',(-7.961103309293E-14,2.280177524854E-16,1.));
#695 = DIRECTION('',(1.,2.262079412674E-15,7.961103309293E-14));
#696 = DEFINITIONAL_REPRESENTATION('',(#697),#701);
#697 = LINE('',#698,#699);
#698 = CARTESIAN_POINT('',(7.5,17.5));
#699 = VECTOR('',#700,1.);
#700 = DIRECTION('',(1.,3.608224830032E-16));
#701 = ( GEOMETRIC_REPRESENTATION_CONTEXT(2) 
PARAMETRIC_REPRESENTATION_CONTEXT() REPRESENTATION_CONTEXT('2D SPACE',''
  ) );
#702 = ORIENTED_EDGE('',*,*,#703,.F.);
#703 = EDGE_CURVE('',#460,#676,#704,.T.);
#704 = SURFACE_CURVE('',#705,(#709,#716),.PCURVE_S1.);
#705 = LINE('',#706,#707);
#706 = CARTESIAN_POINT('',(92.056268259319,17.5,-2.402895595862E-04));
#707 = VECTOR('',#708,1.);
#708 = DIRECTION('',(7.866631969018E-14,-5.797308251575E-16,-1.));
#709 = PCURVE('',#475,#710);
#710 = DEFINITIONAL_REPRESENTATION('',(#711),#715);
#711 = LINE('',#712,#713);
#712 = CARTESIAN_POINT('',(12.48356199573,7.591001390847E-19));
#713 = VECTOR('',#714,1.);
#714 = DIRECTION('',(1.423110413169E-15,1.));
#715 = ( GEOMETRIC_REPRESENTATION_CONTEXT(2) 
PARAMETRIC_REPRESENTATION_CONTEXT() REPRESENTATION_CONTEXT('2D SPACE',''
  ) );
#716 = PCURVE('',#504,#717);
#717 = DEFINITIONAL_REPRESENTATION('',(#718),#722);
#718 = LINE('',#719,#720);
#719 = CARTESIAN_POINT('',(0.,0.));
#720 = VECTOR('',#721,1.);
#721 = DIRECTION('',(0.,-1.));
#722 = ( GEOMETRIC_REPRESENTATION_CONTEXT(2) 
PARAMETRIC_REPRESENTATION_CONTEXT() REPRESENTATION_CONTEXT('2D SPACE',''
  ) );
#723 = ADVANCED_FACE('',(#724),#504,.T.);
#724 = FACE_BOUND('',#725,.T.);
#725 = EDGE_LOOP('',(#726,#727,#728,#756));
#726 = ORIENTED_EDGE('',*,*,#487,.F.);
#727 = ORIENTED_EDGE('',*,*,#703,.T.);
#728 = ORIENTED_EDGE('',*,*,#729,.F.);
#729 = EDGE_CURVE('',#730,#676,#732,.T.);
#730 = VERTEX_POINT('',#731);
#731 = CARTESIAN_POINT('',(89.556268259322,15.,-25.00024028956));
#732 = SURFACE_CURVE('',#733,(#738,#745),.PCURVE_S1.);
#733 = CIRCLE('',#734,2.5);
#734 = AXIS2_PLACEMENT_3D('',#735,#736,#737);
#735 = CARTESIAN_POINT('',(92.056268259322,15.,-25.00024028956));
#736 = DIRECTION('',(7.961103309293E-14,-2.280177524854E-16,-1.));
#737 = DIRECTION('',(-2.262079412674E-15,1.,-2.280177524856E-16));
#738 = PCURVE('',#504,#739);
#739 = DEFINITIONAL_REPRESENTATION('',(#740),#744);
#740 = LINE('',#741,#742);
#741 = CARTESIAN_POINT('',(6.28318530718,-25.));
#742 = VECTOR('',#743,1.);
#743 = DIRECTION('',(-1.,0.));
#744 = ( GEOMETRIC_REPRESENTATION_CONTEXT(2) 
PARAMETRIC_REPRESENTATION_CONTEXT() REPRESENTATION_CONTEXT('2D SPACE',''
  ) );
#745 = PCURVE('',#691,#746);
#746 = DEFINITIONAL_REPRESENTATION('',(#747),#755);
#747 = ( BOUNDED_CURVE() B_SPLINE_CURVE(2,(#748,#749,#750,#751,#752,#753
,#754),.UNSPECIFIED.,.T.,.F.) B_SPLINE_CURVE_WITH_KNOTS((1,2,2,2,2,1),(
    -2.094395102393,0.,2.094395102393,4.188790204786,6.28318530718,
8.377580409573),.UNSPECIFIED.) CURVE() GEOMETRIC_REPRESENTATION_ITEM() 
RATIONAL_B_SPLINE_CURVE((1.,0.5,1.,0.5,1.,0.5,1.)) REPRESENTATION_ITEM(
  '') );
#748 = CARTESIAN_POINT('',(2.51643800427,17.5));
#749 = CARTESIAN_POINT('',(6.846565023192,17.5));
#750 = CARTESIAN_POINT('',(4.681501513731,13.75));
#751 = CARTESIAN_POINT('',(2.51643800427,10.));
#752 = CARTESIAN_POINT('',(0.351374494809,13.75));
#753 = CARTESIAN_POINT('',(-1.813689014652,17.5));
#754 = CARTESIAN_POINT('',(2.51643800427,17.5));
#755 = ( GEOMETRIC_REPRESENTATION_CONTEXT(2) 
PARAMETRIC_REPRESENTATION_CONTEXT() REPRESENTATION_CONTEXT('2D SPACE',''
  ) );
#756 = ORIENTED_EDGE('',*,*,#757,.F.);
#757 = EDGE_CURVE('',#488,#730,#758,.T.);
#758 = SURFACE_CURVE('',#759,(#763,#770),.PCURVE_S1.);
#759 = LINE('',#760,#761);
#760 = CARTESIAN_POINT('',(89.556268259319,15.,-2.402895597842E-04));
#761 = VECTOR('',#762,1.);
#762 = DIRECTION('',(7.866631969018E-14,-5.797308251575E-16,-1.));
#763 = PCURVE('',#504,#764);
#764 = DEFINITIONAL_REPRESENTATION('',(#765),#769);
#765 = LINE('',#766,#767);
#766 = CARTESIAN_POINT('',(1.570796326795,0.));
#767 = VECTOR('',#768,1.);
#768 = DIRECTION('',(0.,-1.));
#769 = ( GEOMETRIC_REPRESENTATION_CONTEXT(2) 
PARAMETRIC_REPRESENTATION_CONTEXT() REPRESENTATION_CONTEXT('2D SPACE',''
  ) );
#770 = PCURVE('',#532,#771);
#771 = DEFINITIONAL_REPRESENTATION('',(#772),#776);
#772 = LINE('',#773,#774);
#773 = CARTESIAN_POINT('',(1.861687358755E-30,-4.557985933129E-15));
#774 = VECTOR('',#775,1.);
#775 = DIRECTION('',(1.946512513989E-17,1.));
#776 = ( GEOMETRIC_REPRESENTATION_CONTEXT(2) 
PARAMETRIC_REPRESENTATION_CONTEXT() REPRESENTATION_CONTEXT('2D SPACE',''
  ) );
#777 = ADVANCED_FACE('',(#778),#532,.F.);
#778 = FACE_BOUND('',#779,.T.);
#779 = EDGE_LOOP('',(#780,#781,#782,#805));
#780 = ORIENTED_EDGE('',*,*,#516,.F.);
#781 = ORIENTED_EDGE('',*,*,#757,.T.);
#782 = ORIENTED_EDGE('',*,*,#783,.F.);
#783 = EDGE_CURVE('',#784,#730,#786,.T.);
#784 = VERTEX_POINT('',#785);
#785 = CARTESIAN_POINT('',(89.556268259322,-15.,-25.00024028956));
#786 = SURFACE_CURVE('',#787,(#791,#798),.PCURVE_S1.);
#787 = LINE('',#788,#789);
#788 = CARTESIAN_POINT('',(89.556268259322,7.5,-25.00024028956));
#789 = VECTOR('',#790,1.);
#790 = DIRECTION('',(-2.262079412674E-15,1.,-2.280177524856E-16));
#791 = PCURVE('',#532,#792);
#792 = DEFINITIONAL_REPRESENTATION('',(#793),#797);
#793 = LINE('',#794,#795);
#794 = CARTESIAN_POINT('',(7.5,25.));
#795 = VECTOR('',#796,1.);
#796 = DIRECTION('',(-1.,-3.322479475323E-16));
#797 = ( GEOMETRIC_REPRESENTATION_CONTEXT(2) 
PARAMETRIC_REPRESENTATION_CONTEXT() REPRESENTATION_CONTEXT('2D SPACE',''
  ) );
#798 = PCURVE('',#691,#799);
#799 = DEFINITIONAL_REPRESENTATION('',(#800),#804);
#800 = LINE('',#801,#802);
#801 = CARTESIAN_POINT('',(1.643800426997E-02,7.5));
#802 = VECTOR('',#803,1.);
#803 = DIRECTION('',(-5.976911567876E-30,1.));
#804 = ( GEOMETRIC_REPRESENTATION_CONTEXT(2) 
PARAMETRIC_REPRESENTATION_CONTEXT() REPRESENTATION_CONTEXT('2D SPACE',''
  ) );
#805 = ORIENTED_EDGE('',*,*,#806,.F.);
#806 = EDGE_CURVE('',#517,#784,#807,.T.);
#807 = SURFACE_CURVE('',#808,(#812,#819),.PCURVE_S1.);
#808 = LINE('',#809,#810);
#809 = CARTESIAN_POINT('',(89.55626825932,-15.,-2.402895597719E-04));
#810 = VECTOR('',#811,1.);
#811 = DIRECTION('',(7.866631969018E-14,-5.797308251575E-16,-1.));
#812 = PCURVE('',#532,#813);
#813 = DEFINITIONAL_REPRESENTATION('',(#814),#818);
#814 = LINE('',#815,#816);
#815 = CARTESIAN_POINT('',(30.,2.714806643424E-19));
#816 = VECTOR('',#817,1.);
#817 = DIRECTION('',(1.946512513989E-17,1.));
#818 = ( GEOMETRIC_REPRESENTATION_CONTEXT(2) 
PARAMETRIC_REPRESENTATION_CONTEXT() REPRESENTATION_CONTEXT('2D SPACE',''
  ) );
#819 = PCURVE('',#561,#820);
#820 = DEFINITIONAL_REPRESENTATION('',(#821),#825);
#821 = LINE('',#822,#823);
#822 = CARTESIAN_POINT('',(0.,-3.552713678801E-15));
#823 = VECTOR('',#824,1.);
#824 = DIRECTION('',(0.,-1.));
#825 = ( GEOMETRIC_REPRESENTATION_CONTEXT(2) 
PARAMETRIC_REPRESENTATION_CONTEXT() REPRESENTATION_CONTEXT('2D SPACE',''
  ) );
#826 = ADVANCED_FACE('',(#827),#561,.T.);
#827 = FACE_BOUND('',#828,.T.);
#828 = EDGE_LOOP('',(#829,#830,#831,#859));
#829 = ORIENTED_EDGE('',*,*,#544,.F.);
#830 = ORIENTED_EDGE('',*,*,#806,.T.);
#831 = ORIENTED_EDGE('',*,*,#832,.F.);
#832 = EDGE_CURVE('',#833,#784,#835,.T.);
#833 = VERTEX_POINT('',#834);
#834 = CARTESIAN_POINT('',(92.056268259322,-17.5,-25.00024028956));
#835 = SURFACE_CURVE('',#836,(#841,#848),.PCURVE_S1.);
#836 = CIRCLE('',#837,2.5);
#837 = AXIS2_PLACEMENT_3D('',#838,#839,#840);
#838 = CARTESIAN_POINT('',(92.056268259322,-15.,-25.00024028956));
#839 = DIRECTION('',(7.961103309293E-14,-2.280177524854E-16,-1.));
#840 = DIRECTION('',(-1.,-2.262079412674E-15,-7.961103309293E-14));
#841 = PCURVE('',#561,#842);
#842 = DEFINITIONAL_REPRESENTATION('',(#843),#847);
#843 = LINE('',#844,#845);
#844 = CARTESIAN_POINT('',(6.28318530718,-25.));
#845 = VECTOR('',#846,1.);
#846 = DIRECTION('',(-1.,0.));
#847 = ( GEOMETRIC_REPRESENTATION_CONTEXT(2) 
PARAMETRIC_REPRESENTATION_CONTEXT() REPRESENTATION_CONTEXT('2D SPACE',''
  ) );
#848 = PCURVE('',#691,#849);
#849 = DEFINITIONAL_REPRESENTATION('',(#850),#858);
#850 = ( BOUNDED_CURVE() B_SPLINE_CURVE(2,(#851,#852,#853,#854,#855,#856
,#857),.UNSPECIFIED.,.T.,.F.) B_SPLINE_CURVE_WITH_KNOTS((1,2,2,2,2,1),(
    -2.094395102393,0.,2.094395102393,4.188790204786,6.28318530718,
8.377580409573),.UNSPECIFIED.) CURVE() GEOMETRIC_REPRESENTATION_ITEM() 
RATIONAL_B_SPLINE_CURVE((1.,0.5,1.,0.5,1.,0.5,1.)) REPRESENTATION_ITEM(
  '') );
#851 = CARTESIAN_POINT('',(1.643800427002E-02,-15.));
#852 = CARTESIAN_POINT('',(1.643800427002E-02,-10.66987298107));
#853 = CARTESIAN_POINT('',(3.76643800427,-12.83493649053));
#854 = CARTESIAN_POINT('',(7.51643800427,-15.));
#855 = CARTESIAN_POINT('',(3.76643800427,-17.16506350946));
#856 = CARTESIAN_POINT('',(1.643800427002E-02,-19.33012701892));
#857 = CARTESIAN_POINT('',(1.643800427002E-02,-15.));
#858 = ( GEOMETRIC_REPRESENTATION_CONTEXT(2) 
PARAMETRIC_REPRESENTATION_CONTEXT() REPRESENTATION_CONTEXT('2D SPACE',''
  ) );
#859 = ORIENTED_EDGE('',*,*,#860,.F.);
#860 = EDGE_CURVE('',#545,#833,#861,.T.);
#861 = SURFACE_CURVE('',#862,(#866,#873),.PCURVE_S1.);
#862 = LINE('',#863,#864);
#863 = CARTESIAN_POINT('',(92.05626825932,-17.5,-2.402895595727E-04));
#864 = VECTOR('',#865,1.);
#865 = DIRECTION('',(7.866631969018E-14,-5.797308251575E-16,-1.));
#866 = PCURVE('',#561,#867);
#867 = DEFINITIONAL_REPRESENTATION('',(#868),#872);
#868 = LINE('',#869,#870);
#869 = CARTESIAN_POINT('',(1.570796326795,-3.552713678801E-15));
#870 = VECTOR('',#871,1.);
#871 = DIRECTION('',(0.,-1.));
#872 = ( GEOMETRIC_REPRESENTATION_CONTEXT(2) 
PARAMETRIC_REPRESENTATION_CONTEXT() REPRESENTATION_CONTEXT('2D SPACE',''
  ) );
#873 = PCURVE('',#589,#874);
#874 = DEFINITIONAL_REPRESENTATION('',(#875),#879);
#875 = LINE('',#876,#877);
#876 = CARTESIAN_POINT('',(-0.,0.));
#877 = VECTOR('',#878,1.);
#878 = DIRECTION('',(-9.866933349485E-16,1.));
#879 = ( GEOMETRIC_REPRESENTATION_CONTEXT(2) 
PARAMETRIC_REPRESENTATION_CONTEXT() REPRESENTATION_CONTEXT('2D SPACE',''
  ) );
#880 = ADVANCED_FACE('',(#881),#589,.F.);
#881 = FACE_BOUND('',#882,.T.);
#882 = EDGE_LOOP('',(#883,#884,#885,#908));
#883 = ORIENTED_EDGE('',*,*,#573,.F.);
#884 = ORIENTED_EDGE('',*,*,#860,.T.);
#885 = ORIENTED_EDGE('',*,*,#886,.F.);
#886 = EDGE_CURVE('',#887,#833,#889,.T.);
#887 = VERTEX_POINT('',#888);
#888 = CARTESIAN_POINT('',(104.53983025505,-17.5,-25.00024028955));
#889 = SURFACE_CURVE('',#890,(#894,#901),.PCURVE_S1.);
#890 = LINE('',#891,#892);
#891 = CARTESIAN_POINT('',(90.798049257186,-17.5,-25.00024028956));
#892 = VECTOR('',#893,1.);
#893 = DIRECTION('',(-1.,-2.081668171172E-15,-7.961103309293E-14));
#894 = PCURVE('',#589,#895);
#895 = DEFINITIONAL_REPRESENTATION('',(#896),#900);
#896 = LINE('',#897,#898);
#897 = CARTESIAN_POINT('',(-1.258219002135,25.));
#898 = VECTOR('',#899,1.);
#899 = DIRECTION('',(-1.,-4.197993219325E-17));
#900 = ( GEOMETRIC_REPRESENTATION_CONTEXT(2) 
PARAMETRIC_REPRESENTATION_CONTEXT() REPRESENTATION_CONTEXT('2D SPACE',''
  ) );
#901 = PCURVE('',#691,#902);
#902 = DEFINITIONAL_REPRESENTATION('',(#903),#907);
#903 = LINE('',#904,#905);
#904 = CARTESIAN_POINT('',(1.258219002135,-17.5));
#905 = VECTOR('',#906,1.);
#906 = DIRECTION('',(-1.,1.804112415016E-16));
#907 = ( GEOMETRIC_REPRESENTATION_CONTEXT(2) 
PARAMETRIC_REPRESENTATION_CONTEXT() REPRESENTATION_CONTEXT('2D SPACE',''
  ) );
#908 = ORIENTED_EDGE('',*,*,#909,.F.);
#909 = EDGE_CURVE('',#574,#887,#910,.T.);
#910 = SURFACE_CURVE('',#911,(#915,#922),.PCURVE_S1.);
#911 = LINE('',#912,#913);
#912 = CARTESIAN_POINT('',(104.53983025505,-17.5,-2.402895585784E-04));
#913 = VECTOR('',#914,1.);
#914 = DIRECTION('',(7.866631969018E-14,-5.797308251575E-16,-1.));
#915 = PCURVE('',#589,#916);
#916 = DEFINITIONAL_REPRESENTATION('',(#917),#921);
#917 = LINE('',#918,#919);
#918 = CARTESIAN_POINT('',(12.48356199573,1.574213233805E-19));
#919 = VECTOR('',#920,1.);
#920 = DIRECTION('',(-9.866933349485E-16,1.));
#921 = ( GEOMETRIC_REPRESENTATION_CONTEXT(2) 
PARAMETRIC_REPRESENTATION_CONTEXT() REPRESENTATION_CONTEXT('2D SPACE',''
  ) );
#922 = PCURVE('',#344,#923);
#923 = DEFINITIONAL_REPRESENTATION('',(#924),#928);
#924 = LINE('',#925,#926);
#925 = CARTESIAN_POINT('',(0.,0.));
#926 = VECTOR('',#927,1.);
#927 = DIRECTION('',(-3.517265055452E-16,1.));
#928 = ( GEOMETRIC_REPRESENTATION_CONTEXT(2) 
PARAMETRIC_REPRESENTATION_CONTEXT() REPRESENTATION_CONTEXT('2D SPACE',''
  ) );
#929 = ADVANCED_FACE('',(#930),#944,.F.);
#930 = FACE_BOUND('',#931,.T.);
#931 = EDGE_LOOP('',(#932,#962,#990,#1018));
#932 = ORIENTED_EDGE('',*,*,#933,.F.);
#933 = EDGE_CURVE('',#934,#936,#938,.T.);
#934 = VERTEX_POINT('',#935);
#935 = CARTESIAN_POINT('',(79.539830255052,-32.5,-25.00024028956));
#936 = VERTEX_POINT('',#937);
#937 = CARTESIAN_POINT('',(104.53983025505,-32.5,-25.00024028955));
#938 = SURFACE_CURVE('',#939,(#943,#955),.PCURVE_S1.);
#939 = LINE('',#940,#941);
#940 = CARTESIAN_POINT('',(79.539830255052,-32.5,-25.00024028956));
#941 = VECTOR('',#942,1.);
#942 = DIRECTION('',(1.,5.093148125468E-15,7.958085695794E-14));
#943 = PCURVE('',#944,#949);
#944 = PLANE('',#945);
#945 = AXIS2_PLACEMENT_3D('',#946,#947,#948);
#946 = CARTESIAN_POINT('',(79.539830255052,-32.5,-25.00024028956));
#947 = DIRECTION('',(-5.093148125468E-15,1.,-2.567568543579E-16));
#948 = DIRECTION('',(1.,5.093148125468E-15,7.958085695794E-14));
#949 = DEFINITIONAL_REPRESENTATION('',(#950),#954);
#950 = LINE('',#951,#952);
#951 = CARTESIAN_POINT('',(-0.,0.));
#952 = VECTOR('',#953,1.);
#953 = DIRECTION('',(1.,6.310887241768E-29));
#954 = ( GEOMETRIC_REPRESENTATION_CONTEXT(2) 
PARAMETRIC_REPRESENTATION_CONTEXT() REPRESENTATION_CONTEXT('2D SPACE',''
  ) );
#955 = PCURVE('',#691,#956);
#956 = DEFINITIONAL_REPRESENTATION('',(#957),#961);
#957 = LINE('',#958,#959);
#958 = CARTESIAN_POINT('',(-10.,-32.5));
#959 = VECTOR('',#960,1.);
#960 = DIRECTION('',(1.,2.844946500602E-15));
#961 = ( GEOMETRIC_REPRESENTATION_CONTEXT(2) 
PARAMETRIC_REPRESENTATION_CONTEXT() REPRESENTATION_CONTEXT('2D SPACE',''
  ) );
#962 = ORIENTED_EDGE('',*,*,#963,.T.);
#963 = EDGE_CURVE('',#934,#964,#966,.T.);
#964 = VERTEX_POINT('',#965);
#965 = CARTESIAN_POINT('',(79.539830255052,-32.5,-27.50024028956));
#966 = SURFACE_CURVE('',#967,(#971,#978),.PCURVE_S1.);
#967 = LINE('',#968,#969);
#968 = CARTESIAN_POINT('',(79.539830255052,-32.5,-25.00024028956));
#969 = VECTOR('',#970,1.);
#970 = DIRECTION('',(8.641769498938E-14,-2.567568543575E-16,-1.));
#971 = PCURVE('',#944,#972);
#972 = DEFINITIONAL_REPRESENTATION('',(#973),#977);
#973 = LINE('',#974,#975);
#974 = CARTESIAN_POINT('',(-0.,0.));
#975 = VECTOR('',#976,1.);
#976 = DIRECTION('',(6.836838031439E-15,1.));
#977 = ( GEOMETRIC_REPRESENTATION_CONTEXT(2) 
PARAMETRIC_REPRESENTATION_CONTEXT() REPRESENTATION_CONTEXT('2D SPACE',''
  ) );
#978 = PCURVE('',#979,#984);
#979 = CYLINDRICAL_SURFACE('',#980,5.);
#980 = AXIS2_PLACEMENT_3D('',#981,#982,#983);
#981 = CARTESIAN_POINT('',(79.539830255052,-27.5,-25.00024028956));
#982 = DIRECTION('',(-8.641769498938E-14,2.567568543575E-16,1.));
#983 = DIRECTION('',(-1.,-4.038436252074E-15,-8.641769498938E-14));
#984 = DEFINITIONAL_REPRESENTATION('',(#985),#989);
#985 = LINE('',#986,#987);
#986 = CARTESIAN_POINT('',(1.570796326795,0.));
#987 = VECTOR('',#988,1.);
#988 = DIRECTION('',(4.529709940471E-15,-1.));
#989 = ( GEOMETRIC_REPRESENTATION_CONTEXT(2) 
PARAMETRIC_REPRESENTATION_CONTEXT() REPRESENTATION_CONTEXT('2D SPACE',''
  ) );
#990 = ORIENTED_EDGE('',*,*,#991,.T.);
#991 = EDGE_CURVE('',#964,#992,#994,.T.);
#992 = VERTEX_POINT('',#993);
#993 = CARTESIAN_POINT('',(104.53983025505,-32.5,-27.50024028955));
#994 = SURFACE_CURVE('',#995,(#999,#1006),.PCURVE_S1.);
#995 = LINE('',#996,#997);
#996 = CARTESIAN_POINT('',(79.539830255052,-32.5,-27.50024028956));
#997 = VECTOR('',#998,1.);
#998 = DIRECTION('',(1.,5.093148125468E-15,7.958085695794E-14));
#999 = PCURVE('',#944,#1000);
#1000 = DEFINITIONAL_REPRESENTATION('',(#1001),#1005);
#1001 = LINE('',#1002,#1003);
#1002 = CARTESIAN_POINT('',(-1.960245958496E-13,2.5));
#1003 = VECTOR('',#1004,1.);
#1004 = DIRECTION('',(1.,6.310887241768E-29));
#1005 = ( GEOMETRIC_REPRESENTATION_CONTEXT(2) 
PARAMETRIC_REPRESENTATION_CONTEXT() REPRESENTATION_CONTEXT('2D SPACE',''
  ) );
#1006 = PCURVE('',#1007,#1012);
#1007 = PLANE('',#1008);
#1008 = AXIS2_PLACEMENT_3D('',#1009,#1010,#1011);
#1009 = CARTESIAN_POINT('',(97.048049257186,-8.75,-27.50024028955));
#1010 = DIRECTION('',(-7.961103256588E-14,5.827380487969E-16,1.));
#1011 = DIRECTION('',(1.,2.262079412674E-15,7.961103256588E-14));
#1012 = DEFINITIONAL_REPRESENTATION('',(#1013),#1017);
#1013 = LINE('',#1014,#1015);
#1014 = CARTESIAN_POINT('',(-17.50821900213,-23.75));
#1015 = VECTOR('',#1016,1.);
#1016 = DIRECTION('',(1.,2.844946500602E-15));
#1017 = ( GEOMETRIC_REPRESENTATION_CONTEXT(2) 
PARAMETRIC_REPRESENTATION_CONTEXT() REPRESENTATION_CONTEXT('2D SPACE',''
  ) );
#1018 = ORIENTED_EDGE('',*,*,#1019,.F.);
#1019 = EDGE_CURVE('',#936,#992,#1020,.T.);
#1020 = SURFACE_CURVE('',#1021,(#1025,#1032),.PCURVE_S1.);
#1021 = LINE('',#1022,#1023);
#1022 = CARTESIAN_POINT('',(104.53983025505,-32.5,-25.00024028955));
#1023 = VECTOR('',#1024,1.);
#1024 = DIRECTION('',(8.641769498938E-14,-2.567568543575E-16,-1.));
#1025 = PCURVE('',#944,#1026);
#1026 = DEFINITIONAL_REPRESENTATION('',(#1027),#1031);
#1027 = LINE('',#1028,#1029);
#1028 = CARTESIAN_POINT('',(25.,-3.993184266875E-14));
#1029 = VECTOR('',#1030,1.);
#1030 = DIRECTION('',(6.836838031439E-15,1.));
#1031 = ( GEOMETRIC_REPRESENTATION_CONTEXT(2) 
PARAMETRIC_REPRESENTATION_CONTEXT() REPRESENTATION_CONTEXT('2D SPACE',''
  ) );
#1032 = PCURVE('',#344,#1033);
#1033 = DEFINITIONAL_REPRESENTATION('',(#1034),#1038);
#1034 = LINE('',#1035,#1036);
#1035 = CARTESIAN_POINT('',(-15.,25.));
#1036 = VECTOR('',#1037,1.);
#1037 = DIRECTION('',(-2.875253474513E-17,1.));
#1038 = ( GEOMETRIC_REPRESENTATION_CONTEXT(2) 
PARAMETRIC_REPRESENTATION_CONTEXT() REPRESENTATION_CONTEXT('2D SPACE',''
  ) );
#1039 = ADVANCED_FACE('',(#1040),#979,.T.);
#1040 = FACE_BOUND('',#1041,.T.);
#1041 = EDGE_LOOP('',(#1042,#1066,#1094,#1116));
#1042 = ORIENTED_EDGE('',*,*,#1043,.F.);
#1043 = EDGE_CURVE('',#1044,#934,#1046,.T.);
#1044 = VERTEX_POINT('',#1045);
#1045 = CARTESIAN_POINT('',(74.539830255052,-27.5,-25.00024028956));
#1046 = SURFACE_CURVE('',#1047,(#1052,#1059),.PCURVE_S1.);
#1047 = CIRCLE('',#1048,5.);
#1048 = AXIS2_PLACEMENT_3D('',#1049,#1050,#1051);
#1049 = CARTESIAN_POINT('',(79.539830255052,-27.5,-25.00024028956));
#1050 = DIRECTION('',(-7.970442980677E-14,2.280191106609E-16,1.));
#1051 = DIRECTION('',(-1.,-4.038436252074E-15,-7.970442980677E-14));
#1052 = PCURVE('',#979,#1053);
#1053 = DEFINITIONAL_REPRESENTATION('',(#1054),#1058);
#1054 = LINE('',#1055,#1056);
#1055 = CARTESIAN_POINT('',(0.,3.19744231092E-14));
#1056 = VECTOR('',#1057,1.);
#1057 = DIRECTION('',(1.,-2.035554996137E-14));
#1058 = ( GEOMETRIC_REPRESENTATION_CONTEXT(2) 
PARAMETRIC_REPRESENTATION_CONTEXT() REPRESENTATION_CONTEXT('2D SPACE',''
  ) );
#1059 = PCURVE('',#691,#1060);
#1060 = DEFINITIONAL_REPRESENTATION('',(#1061),#1065);
#1061 = CIRCLE('',#1062,5.);
#1062 = AXIS2_PLACEMENT_2D('',#1063,#1064);
#1063 = CARTESIAN_POINT('',(-10.,-27.5));
#1064 = DIRECTION('',(-1.,-1.762479051592E-15));
#1065 = ( GEOMETRIC_REPRESENTATION_CONTEXT(2) 
PARAMETRIC_REPRESENTATION_CONTEXT() REPRESENTATION_CONTEXT('2D SPACE',''
  ) );
#1066 = ORIENTED_EDGE('',*,*,#1067,.T.);
#1067 = EDGE_CURVE('',#1044,#1068,#1070,.T.);
#1068 = VERTEX_POINT('',#1069);
#1069 = CARTESIAN_POINT('',(74.539830255052,-27.5,-27.50024028956));
#1070 = SURFACE_CURVE('',#1071,(#1075,#1082),.PCURVE_S1.);
#1071 = LINE('',#1072,#1073);
#1072 = CARTESIAN_POINT('',(74.539830255052,-27.5,-25.00024028956));
#1073 = VECTOR('',#1074,1.);
#1074 = DIRECTION('',(8.641769498938E-14,-2.567568543575E-16,-1.));
#1075 = PCURVE('',#979,#1076);
#1076 = DEFINITIONAL_REPRESENTATION('',(#1077),#1081);
#1077 = LINE('',#1078,#1079);
#1078 = CARTESIAN_POINT('',(0.,2.48689957516E-14));
#1079 = VECTOR('',#1080,1.);
#1080 = DIRECTION('',(0.,-1.));
#1081 = ( GEOMETRIC_REPRESENTATION_CONTEXT(2) 
PARAMETRIC_REPRESENTATION_CONTEXT() REPRESENTATION_CONTEXT('2D SPACE',''
  ) );
#1082 = PCURVE('',#1083,#1088);
#1083 = PLANE('',#1084);
#1084 = AXIS2_PLACEMENT_3D('',#1085,#1086,#1087);
#1085 = CARTESIAN_POINT('',(74.539830255052,27.5,-25.00024028956));
#1086 = DIRECTION('',(1.,9.575673587392E-16,8.641769498938E-14));
#1087 = DIRECTION('',(9.575673587392E-16,-1.,2.384695670324E-16));
#1088 = DEFINITIONAL_REPRESENTATION('',(#1089),#1093);
#1089 = LINE('',#1090,#1091);
#1090 = CARTESIAN_POINT('',(55.,-2.339730087211E-15));
#1091 = VECTOR('',#1092,1.);
#1092 = DIRECTION('',(1.828728732512E-17,1.));
#1093 = ( GEOMETRIC_REPRESENTATION_CONTEXT(2) 
PARAMETRIC_REPRESENTATION_CONTEXT() REPRESENTATION_CONTEXT('2D SPACE',''
  ) );
#1094 = ORIENTED_EDGE('',*,*,#1095,.T.);
#1095 = EDGE_CURVE('',#1068,#964,#1096,.T.);
#1096 = SURFACE_CURVE('',#1097,(#1102,#1109),.PCURVE_S1.);
#1097 = CIRCLE('',#1098,5.);
#1098 = AXIS2_PLACEMENT_3D('',#1099,#1100,#1101);
#1099 = CARTESIAN_POINT('',(79.539830255052,-27.5,-27.50024028956));
#1100 = DIRECTION('',(-7.970442980677E-14,2.280191106609E-16,1.));
#1101 = DIRECTION('',(-1.,-4.038436252074E-15,-7.970442980677E-14));
#1102 = PCURVE('',#979,#1103);
#1103 = DEFINITIONAL_REPRESENTATION('',(#1104),#1108);
#1104 = LINE('',#1105,#1106);
#1105 = CARTESIAN_POINT('',(0.,-2.5));
#1106 = VECTOR('',#1107,1.);
#1107 = DIRECTION('',(1.,-2.035554996137E-14));
#1108 = ( GEOMETRIC_REPRESENTATION_CONTEXT(2) 
PARAMETRIC_REPRESENTATION_CONTEXT() REPRESENTATION_CONTEXT('2D SPACE',''
  ) );
#1109 = PCURVE('',#1007,#1110);
#1110 = DEFINITIONAL_REPRESENTATION('',(#1111),#1115);
#1111 = CIRCLE('',#1112,5.);
#1112 = AXIS2_PLACEMENT_2D('',#1113,#1114);
#1113 = CARTESIAN_POINT('',(-17.50821900213,-18.75));
#1114 = DIRECTION('',(-1.,-1.762479051592E-15));
#1115 = ( GEOMETRIC_REPRESENTATION_CONTEXT(2) 
PARAMETRIC_REPRESENTATION_CONTEXT() REPRESENTATION_CONTEXT('2D SPACE',''
  ) );
#1116 = ORIENTED_EDGE('',*,*,#963,.F.);
#1117 = ADVANCED_FACE('',(#1118),#1083,.F.);
#1118 = FACE_BOUND('',#1119,.T.);
#1119 = EDGE_LOOP('',(#1120,#1143,#1171,#1192));
#1120 = ORIENTED_EDGE('',*,*,#1121,.F.);
#1121 = EDGE_CURVE('',#1122,#1044,#1124,.T.);
#1122 = VERTEX_POINT('',#1123);
#1123 = CARTESIAN_POINT('',(74.539830255052,27.5,-25.00024028956));
#1124 = SURFACE_CURVE('',#1125,(#1129,#1136),.PCURVE_S1.);
#1125 = LINE('',#1126,#1127);
#1126 = CARTESIAN_POINT('',(74.539830255052,27.5,-25.00024028956));
#1127 = VECTOR('',#1128,1.);
#1128 = DIRECTION('',(9.575673587392E-16,-1.,2.384695670324E-16));
#1129 = PCURVE('',#1083,#1130);
#1130 = DEFINITIONAL_REPRESENTATION('',(#1131),#1135);
#1131 = LINE('',#1132,#1133);
#1132 = CARTESIAN_POINT('',(0.,0.));
#1133 = VECTOR('',#1134,1.);
#1134 = DIRECTION('',(1.,8.504906634414E-31));
#1135 = ( GEOMETRIC_REPRESENTATION_CONTEXT(2) 
PARAMETRIC_REPRESENTATION_CONTEXT() REPRESENTATION_CONTEXT('2D SPACE',''
  ) );
#1136 = PCURVE('',#691,#1137);
#1137 = DEFINITIONAL_REPRESENTATION('',(#1138),#1142);
#1138 = LINE('',#1139,#1140);
#1139 = CARTESIAN_POINT('',(-15.,27.5));
#1140 = VECTOR('',#1141,1.);
#1141 = DIRECTION('',(-1.290634266127E-15,-1.));
#1142 = ( GEOMETRIC_REPRESENTATION_CONTEXT(2) 
PARAMETRIC_REPRESENTATION_CONTEXT() REPRESENTATION_CONTEXT('2D SPACE',''
  ) );
#1143 = ORIENTED_EDGE('',*,*,#1144,.T.);
#1144 = EDGE_CURVE('',#1122,#1145,#1147,.T.);
#1145 = VERTEX_POINT('',#1146);
#1146 = CARTESIAN_POINT('',(74.539830255052,27.5,-27.50024028956));
#1147 = SURFACE_CURVE('',#1148,(#1152,#1159),.PCURVE_S1.);
#1148 = LINE('',#1149,#1150);
#1149 = CARTESIAN_POINT('',(74.539830255052,27.5,-25.00024028956));
#1150 = VECTOR('',#1151,1.);
#1151 = DIRECTION('',(8.641769498938E-14,-2.567568543575E-16,-1.));
#1152 = PCURVE('',#1083,#1153);
#1153 = DEFINITIONAL_REPRESENTATION('',(#1154),#1158);
#1154 = LINE('',#1155,#1156);
#1155 = CARTESIAN_POINT('',(0.,0.));
#1156 = VECTOR('',#1157,1.);
#1157 = DIRECTION('',(1.828728732512E-17,1.));
#1158 = ( GEOMETRIC_REPRESENTATION_CONTEXT(2) 
PARAMETRIC_REPRESENTATION_CONTEXT() REPRESENTATION_CONTEXT('2D SPACE',''
  ) );
#1159 = PCURVE('',#1160,#1165);
#1160 = CYLINDRICAL_SURFACE('',#1161,5.);
#1161 = AXIS2_PLACEMENT_3D('',#1162,#1163,#1164);
#1162 = CARTESIAN_POINT('',(79.539830255052,27.5,-25.00024028956));
#1163 = DIRECTION('',(-8.641769498938E-14,2.567568543575E-16,1.));
#1164 = DIRECTION('',(-2.262079412674E-15,1.,-2.567568543577E-16));
#1165 = DEFINITIONAL_REPRESENTATION('',(#1166),#1170);
#1166 = LINE('',#1167,#1168);
#1167 = CARTESIAN_POINT('',(1.570796326795,2.48689957516E-14));
#1168 = VECTOR('',#1169,1.);
#1169 = DIRECTION('',(0.,-1.));
#1170 = ( GEOMETRIC_REPRESENTATION_CONTEXT(2) 
PARAMETRIC_REPRESENTATION_CONTEXT() REPRESENTATION_CONTEXT('2D SPACE',''
  ) );
#1171 = ORIENTED_EDGE('',*,*,#1172,.T.);
#1172 = EDGE_CURVE('',#1145,#1068,#1173,.T.);
#1173 = SURFACE_CURVE('',#1174,(#1178,#1185),.PCURVE_S1.);
#1174 = LINE('',#1175,#1176);
#1175 = CARTESIAN_POINT('',(74.539830255052,27.5,-27.50024028956));
#1176 = VECTOR('',#1177,1.);
#1177 = DIRECTION('',(9.575673587392E-16,-1.,2.384695670324E-16));
#1178 = PCURVE('',#1083,#1179);
#1179 = DEFINITIONAL_REPRESENTATION('',(#1180),#1184);
#1180 = LINE('',#1181,#1182);
#1181 = CARTESIAN_POINT('',(5.176665010178E-16,2.5));
#1182 = VECTOR('',#1183,1.);
#1183 = DIRECTION('',(1.,8.504906634414E-31));
#1184 = ( GEOMETRIC_REPRESENTATION_CONTEXT(2) 
PARAMETRIC_REPRESENTATION_CONTEXT() REPRESENTATION_CONTEXT('2D SPACE',''
  ) );
#1185 = PCURVE('',#1007,#1186);
#1186 = DEFINITIONAL_REPRESENTATION('',(#1187),#1191);
#1187 = LINE('',#1188,#1189);
#1188 = CARTESIAN_POINT('',(-22.50821900213,36.25));
#1189 = VECTOR('',#1190,1.);
#1190 = DIRECTION('',(-1.290634266127E-15,-1.));
#1191 = ( GEOMETRIC_REPRESENTATION_CONTEXT(2) 
PARAMETRIC_REPRESENTATION_CONTEXT() REPRESENTATION_CONTEXT('2D SPACE',''
  ) );
#1192 = ORIENTED_EDGE('',*,*,#1067,.F.);
#1193 = ADVANCED_FACE('',(#1194),#1160,.T.);
#1194 = FACE_BOUND('',#1195,.T.);
#1195 = EDGE_LOOP('',(#1196,#1220,#1248,#1270));
#1196 = ORIENTED_EDGE('',*,*,#1197,.F.);
#1197 = EDGE_CURVE('',#1198,#1122,#1200,.T.);
#1198 = VERTEX_POINT('',#1199);
#1199 = CARTESIAN_POINT('',(79.539830255052,32.5,-25.00024028956));
#1200 = SURFACE_CURVE('',#1201,(#1206,#1213),.PCURVE_S1.);
#1201 = CIRCLE('',#1202,5.);
#1202 = AXIS2_PLACEMENT_3D('',#1203,#1204,#1205);
#1203 = CARTESIAN_POINT('',(79.539830255052,27.5,-25.00024028956));
#1204 = DIRECTION('',(-7.961103256588E-14,1.705383118723E-16,1.));
#1205 = DIRECTION('',(-2.262079412674E-15,1.,-1.705383118725E-16));
#1206 = PCURVE('',#1160,#1207);
#1207 = DEFINITIONAL_REPRESENTATION('',(#1208),#1212);
#1208 = LINE('',#1209,#1210);
#1209 = CARTESIAN_POINT('',(0.,0.));
#1210 = VECTOR('',#1211,1.);
#1211 = DIRECTION('',(1.,2.261727773485E-14));
#1212 = ( GEOMETRIC_REPRESENTATION_CONTEXT(2) 
PARAMETRIC_REPRESENTATION_CONTEXT() REPRESENTATION_CONTEXT('2D SPACE',''
  ) );
#1213 = PCURVE('',#691,#1214);
#1214 = DEFINITIONAL_REPRESENTATION('',(#1215),#1219);
#1215 = CIRCLE('',#1216,5.);
#1216 = AXIS2_PLACEMENT_2D('',#1217,#1218);
#1217 = CARTESIAN_POINT('',(-10.,27.5));
#1218 = DIRECTION('',(-5.976911567876E-30,1.));
#1219 = ( GEOMETRIC_REPRESENTATION_CONTEXT(2) 
PARAMETRIC_REPRESENTATION_CONTEXT() REPRESENTATION_CONTEXT('2D SPACE',''
  ) );
#1220 = ORIENTED_EDGE('',*,*,#1221,.T.);
#1221 = EDGE_CURVE('',#1198,#1222,#1224,.T.);
#1222 = VERTEX_POINT('',#1223);
#1223 = CARTESIAN_POINT('',(79.539830255052,32.5,-27.50024028956));
#1224 = SURFACE_CURVE('',#1225,(#1229,#1236),.PCURVE_S1.);
#1225 = LINE('',#1226,#1227);
#1226 = CARTESIAN_POINT('',(79.539830255051,32.5,-25.00024028956));
#1227 = VECTOR('',#1228,1.);
#1228 = DIRECTION('',(8.641769498938E-14,-2.567568543575E-16,-1.));
#1229 = PCURVE('',#1160,#1230);
#1230 = DEFINITIONAL_REPRESENTATION('',(#1231),#1235);
#1231 = LINE('',#1232,#1233);
#1232 = CARTESIAN_POINT('',(0.,0.));
#1233 = VECTOR('',#1234,1.);
#1234 = DIRECTION('',(0.,-1.));
#1235 = ( GEOMETRIC_REPRESENTATION_CONTEXT(2) 
PARAMETRIC_REPRESENTATION_CONTEXT() REPRESENTATION_CONTEXT('2D SPACE',''
  ) );
#1236 = PCURVE('',#1237,#1242);
#1237 = PLANE('',#1238);
#1238 = AXIS2_PLACEMENT_3D('',#1239,#1240,#1241);
#1239 = CARTESIAN_POINT('',(104.53983025505,32.5,-25.00024028955));
#1240 = DIRECTION('',(1.915134717478E-15,-1.,2.567568543576E-16));
#1241 = DIRECTION('',(-1.,-1.915134717478E-15,-7.961103309293E-14));
#1242 = DEFINITIONAL_REPRESENTATION('',(#1243),#1247);
#1243 = LINE('',#1244,#1245);
#1244 = CARTESIAN_POINT('',(25.,3.917743929392E-14));
#1245 = VECTOR('',#1246,1.);
#1246 = DIRECTION('',(-6.806661896446E-15,1.));
#1247 = ( GEOMETRIC_REPRESENTATION_CONTEXT(2) 
PARAMETRIC_REPRESENTATION_CONTEXT() REPRESENTATION_CONTEXT('2D SPACE',''
  ) );
#1248 = ORIENTED_EDGE('',*,*,#1249,.T.);
#1249 = EDGE_CURVE('',#1222,#1145,#1250,.T.);
#1250 = SURFACE_CURVE('',#1251,(#1256,#1263),.PCURVE_S1.);
#1251 = CIRCLE('',#1252,5.);
#1252 = AXIS2_PLACEMENT_3D('',#1253,#1254,#1255);
#1253 = CARTESIAN_POINT('',(79.539830255052,27.5,-27.50024028956));
#1254 = DIRECTION('',(-7.961103256588E-14,1.705383118723E-16,1.));
#1255 = DIRECTION('',(-2.262079412674E-15,1.,-1.705383118725E-16));
#1256 = PCURVE('',#1160,#1257);
#1257 = DEFINITIONAL_REPRESENTATION('',(#1258),#1262);
#1258 = LINE('',#1259,#1260);
#1259 = CARTESIAN_POINT('',(0.,-2.5));
#1260 = VECTOR('',#1261,1.);
#1261 = DIRECTION('',(1.,2.261727773485E-14));
#1262 = ( GEOMETRIC_REPRESENTATION_CONTEXT(2) 
PARAMETRIC_REPRESENTATION_CONTEXT() REPRESENTATION_CONTEXT('2D SPACE',''
  ) );
#1263 = PCURVE('',#1007,#1264);
#1264 = DEFINITIONAL_REPRESENTATION('',(#1265),#1269);
#1265 = CIRCLE('',#1266,5.);
#1266 = AXIS2_PLACEMENT_2D('',#1267,#1268);
#1267 = CARTESIAN_POINT('',(-17.50821900213,36.25));
#1268 = DIRECTION('',(-3.380117651795E-29,1.));
#1269 = ( GEOMETRIC_REPRESENTATION_CONTEXT(2) 
PARAMETRIC_REPRESENTATION_CONTEXT() REPRESENTATION_CONTEXT('2D SPACE',''
  ) );
#1270 = ORIENTED_EDGE('',*,*,#1144,.F.);
#1271 = ADVANCED_FACE('',(#1272),#1237,.F.);
#1272 = FACE_BOUND('',#1273,.T.);
#1273 = EDGE_LOOP('',(#1274,#1297,#1320,#1341));
#1274 = ORIENTED_EDGE('',*,*,#1275,.F.);
#1275 = EDGE_CURVE('',#1276,#1198,#1278,.T.);
#1276 = VERTEX_POINT('',#1277);
#1277 = CARTESIAN_POINT('',(104.53983025505,32.5,-25.00024028955));
#1278 = SURFACE_CURVE('',#1279,(#1283,#1290),.PCURVE_S1.);
#1279 = LINE('',#1280,#1281);
#1280 = CARTESIAN_POINT('',(104.53983025505,32.5,-25.00024028955));
#1281 = VECTOR('',#1282,1.);
#1282 = DIRECTION('',(-1.,-1.915134717478E-15,-7.961103309293E-14));
#1283 = PCURVE('',#1237,#1284);
#1284 = DEFINITIONAL_REPRESENTATION('',(#1285),#1289);
#1285 = LINE('',#1286,#1287);
#1286 = CARTESIAN_POINT('',(0.,0.));
#1287 = VECTOR('',#1288,1.);
#1288 = DIRECTION('',(1.,-7.573064690122E-29));
#1289 = ( GEOMETRIC_REPRESENTATION_CONTEXT(2) 
PARAMETRIC_REPRESENTATION_CONTEXT() REPRESENTATION_CONTEXT('2D SPACE',''
  ) );
#1290 = PCURVE('',#691,#1291);
#1291 = DEFINITIONAL_REPRESENTATION('',(#1292),#1296);
#1292 = LINE('',#1293,#1294);
#1293 = CARTESIAN_POINT('',(15.,32.5));
#1294 = VECTOR('',#1295,1.);
#1295 = DIRECTION('',(-1.,3.469446951954E-16));
#1296 = ( GEOMETRIC_REPRESENTATION_CONTEXT(2) 
PARAMETRIC_REPRESENTATION_CONTEXT() REPRESENTATION_CONTEXT('2D SPACE',''
  ) );
#1297 = ORIENTED_EDGE('',*,*,#1298,.T.);
#1298 = EDGE_CURVE('',#1276,#1299,#1301,.T.);
#1299 = VERTEX_POINT('',#1300);
#1300 = CARTESIAN_POINT('',(104.53983025505,32.5,-27.50024028955));
#1301 = SURFACE_CURVE('',#1302,(#1306,#1313),.PCURVE_S1.);
#1302 = LINE('',#1303,#1304);
#1303 = CARTESIAN_POINT('',(104.53983025505,32.5,-25.00024028955));
#1304 = VECTOR('',#1305,1.);
#1305 = DIRECTION('',(8.641769498938E-14,-2.567568543575E-16,-1.));
#1306 = PCURVE('',#1237,#1307);
#1307 = DEFINITIONAL_REPRESENTATION('',(#1308),#1312);
#1308 = LINE('',#1309,#1310);
#1309 = CARTESIAN_POINT('',(0.,0.));
#1310 = VECTOR('',#1311,1.);
#1311 = DIRECTION('',(-6.806661896446E-15,1.));
#1312 = ( GEOMETRIC_REPRESENTATION_CONTEXT(2) 
PARAMETRIC_REPRESENTATION_CONTEXT() REPRESENTATION_CONTEXT('2D SPACE',''
  ) );
#1313 = PCURVE('',#442,#1314);
#1314 = DEFINITIONAL_REPRESENTATION('',(#1315),#1319);
#1315 = LINE('',#1316,#1317);
#1316 = CARTESIAN_POINT('',(17.5,25.));
#1317 = VECTOR('',#1318,1.);
#1318 = DIRECTION('',(-2.871780504372E-17,1.));
#1319 = ( GEOMETRIC_REPRESENTATION_CONTEXT(2) 
PARAMETRIC_REPRESENTATION_CONTEXT() REPRESENTATION_CONTEXT('2D SPACE',''
  ) );
#1320 = ORIENTED_EDGE('',*,*,#1321,.T.);
#1321 = EDGE_CURVE('',#1299,#1222,#1322,.T.);
#1322 = SURFACE_CURVE('',#1323,(#1327,#1334),.PCURVE_S1.);
#1323 = LINE('',#1324,#1325);
#1324 = CARTESIAN_POINT('',(104.53983025505,32.5,-27.50024028955));
#1325 = VECTOR('',#1326,1.);
#1326 = DIRECTION('',(-1.,-1.915134717478E-15,-7.961103309293E-14));
#1327 = PCURVE('',#1237,#1328);
#1328 = DEFINITIONAL_REPRESENTATION('',(#1329),#1333);
#1329 = LINE('',#1330,#1331);
#1330 = CARTESIAN_POINT('',(1.961000361871E-13,2.5));
#1331 = VECTOR('',#1332,1.);
#1332 = DIRECTION('',(1.,-7.573064690122E-29));
#1333 = ( GEOMETRIC_REPRESENTATION_CONTEXT(2) 
PARAMETRIC_REPRESENTATION_CONTEXT() REPRESENTATION_CONTEXT('2D SPACE',''
  ) );
#1334 = PCURVE('',#1007,#1335);
#1335 = DEFINITIONAL_REPRESENTATION('',(#1336),#1340);
#1336 = LINE('',#1337,#1338);
#1337 = CARTESIAN_POINT('',(7.491780997865,41.25));
#1338 = VECTOR('',#1339,1.);
#1339 = DIRECTION('',(-1.,3.469446951954E-16));
#1340 = ( GEOMETRIC_REPRESENTATION_CONTEXT(2) 
PARAMETRIC_REPRESENTATION_CONTEXT() REPRESENTATION_CONTEXT('2D SPACE',''
  ) );
#1341 = ORIENTED_EDGE('',*,*,#1221,.F.);
#1342 = ADVANCED_FACE('',(#1343),#691,.T.);
#1343 = FACE_BOUND('',#1344,.T.);
#1344 = EDGE_LOOP('',(#1345,#1346,#1347,#1348,#1349,#1350,#1371,#1372,
    #1373,#1374,#1375,#1376));
#1345 = ORIENTED_EDGE('',*,*,#886,.T.);
#1346 = ORIENTED_EDGE('',*,*,#832,.T.);
#1347 = ORIENTED_EDGE('',*,*,#783,.T.);
#1348 = ORIENTED_EDGE('',*,*,#729,.T.);
#1349 = ORIENTED_EDGE('',*,*,#675,.T.);
#1350 = ORIENTED_EDGE('',*,*,#1351,.T.);
#1351 = EDGE_CURVE('',#653,#1276,#1352,.T.);
#1352 = SURFACE_CURVE('',#1353,(#1357,#1364),.PCURVE_S1.);
#1353 = LINE('',#1354,#1355);
#1354 = CARTESIAN_POINT('',(104.53983025505,15.,-25.00024028955));
#1355 = VECTOR('',#1356,1.);
#1356 = DIRECTION('',(-2.262079412674E-15,1.,-2.280177524856E-16));
#1357 = PCURVE('',#691,#1358);
#1358 = DEFINITIONAL_REPRESENTATION('',(#1359),#1363);
#1359 = LINE('',#1360,#1361);
#1360 = CARTESIAN_POINT('',(15.,15.));
#1361 = VECTOR('',#1362,1.);
#1362 = DIRECTION('',(-5.976911567876E-30,1.));
#1363 = ( GEOMETRIC_REPRESENTATION_CONTEXT(2) 
PARAMETRIC_REPRESENTATION_CONTEXT() REPRESENTATION_CONTEXT('2D SPACE',''
  ) );
#1364 = PCURVE('',#442,#1365);
#1365 = DEFINITIONAL_REPRESENTATION('',(#1366),#1370);
#1366 = LINE('',#1367,#1368);
#1367 = CARTESIAN_POINT('',(-7.977429998883E-16,25.));
#1368 = VECTOR('',#1369,1.);
#1369 = DIRECTION('',(1.,-2.12968283778E-20));
#1370 = ( GEOMETRIC_REPRESENTATION_CONTEXT(2) 
PARAMETRIC_REPRESENTATION_CONTEXT() REPRESENTATION_CONTEXT('2D SPACE',''
  ) );
#1371 = ORIENTED_EDGE('',*,*,#1275,.T.);
#1372 = ORIENTED_EDGE('',*,*,#1197,.T.);
#1373 = ORIENTED_EDGE('',*,*,#1121,.T.);
#1374 = ORIENTED_EDGE('',*,*,#1043,.T.);
#1375 = ORIENTED_EDGE('',*,*,#933,.T.);
#1376 = ORIENTED_EDGE('',*,*,#1377,.T.);
#1377 = EDGE_CURVE('',#936,#887,#1378,.T.);
#1378 = SURFACE_CURVE('',#1379,(#1383,#1390),.PCURVE_S1.);
#1379 = LINE('',#1380,#1381);
#1380 = CARTESIAN_POINT('',(104.53983025505,-32.5,-25.00024028955));
#1381 = VECTOR('',#1382,1.);
#1382 = DIRECTION('',(-2.262079412674E-15,1.,-2.280165693482E-16));
#1383 = PCURVE('',#691,#1384);
#1384 = DEFINITIONAL_REPRESENTATION('',(#1385),#1389);
#1385 = LINE('',#1386,#1387);
#1386 = CARTESIAN_POINT('',(15.,-32.5));
#1387 = VECTOR('',#1388,1.);
#1388 = DIRECTION('',(-5.976911567876E-30,1.));
#1389 = ( GEOMETRIC_REPRESENTATION_CONTEXT(2) 
PARAMETRIC_REPRESENTATION_CONTEXT() REPRESENTATION_CONTEXT('2D SPACE',''
  ) );
#1390 = PCURVE('',#344,#1391);
#1391 = DEFINITIONAL_REPRESENTATION('',(#1392),#1396);
#1392 = LINE('',#1393,#1394);
#1393 = CARTESIAN_POINT('',(-15.,25.));
#1394 = VECTOR('',#1395,1.);
#1395 = DIRECTION('',(1.,1.224973568799E-20));
#1396 = ( GEOMETRIC_REPRESENTATION_CONTEXT(2) 
PARAMETRIC_REPRESENTATION_CONTEXT() REPRESENTATION_CONTEXT('2D SPACE',''
  ) );
#1397 = ADVANCED_FACE('',(#1398),#1412,.F.);
#1398 = FACE_BOUND('',#1399,.T.);
#1399 = EDGE_LOOP('',(#1400,#1435,#1458,#1481));
#1400 = ORIENTED_EDGE('',*,*,#1401,.F.);
#1401 = EDGE_CURVE('',#1402,#1404,#1406,.T.);
#1402 = VERTEX_POINT('',#1403);
#1403 = CARTESIAN_POINT('',(92.056268259318,-15.,27.49975971044));
#1404 = VERTEX_POINT('',#1405);
#1405 = CARTESIAN_POINT('',(92.056268259322,-15.,-27.50024028956));
#1406 = SURFACE_CURVE('',#1407,(#1411,#1423),.PCURVE_S1.);
#1407 = LINE('',#1408,#1409);
#1408 = CARTESIAN_POINT('',(92.056268259319,-15.,-2.402895595726E-04));
#1409 = VECTOR('',#1410,1.);
#1410 = DIRECTION('',(7.866631969018E-14,-5.797308251575E-16,-1.));
#1411 = PCURVE('',#1412,#1417);
#1412 = PLANE('',#1413);
#1413 = AXIS2_PLACEMENT_3D('',#1414,#1415,#1416);
#1414 = CARTESIAN_POINT('',(104.53983025505,-15.,-2.40289558579E-04));
#1415 = DIRECTION('',(2.442490654175E-15,-1.,5.797308251577E-16));
#1416 = DIRECTION('',(-1.,-2.442490654175E-15,-7.959298397013E-14));
#1417 = DEFINITIONAL_REPRESENTATION('',(#1418),#1422);
#1418 = LINE('',#1419,#1420);
#1419 = CARTESIAN_POINT('',(12.48356199573,1.979374349516E-19));
#1420 = VECTOR('',#1421,1.);
#1421 = DIRECTION('',(9.266642799499E-16,1.));
#1422 = ( GEOMETRIC_REPRESENTATION_CONTEXT(2) 
PARAMETRIC_REPRESENTATION_CONTEXT() REPRESENTATION_CONTEXT('2D SPACE',''
  ) );
#1423 = PCURVE('',#1424,#1429);
#1424 = PLANE('',#1425);
#1425 = AXIS2_PLACEMENT_3D('',#1426,#1427,#1428);
#1426 = CARTESIAN_POINT('',(92.056268259319,-15.,-2.402895595726E-04));
#1427 = DIRECTION('',(-1.,-2.262079412674E-15,-7.866631969018E-14));
#1428 = DIRECTION('',(-2.262079412674E-15,1.,-5.827380487971E-16));
#1429 = DEFINITIONAL_REPRESENTATION('',(#1430),#1434);
#1430 = LINE('',#1431,#1432);
#1431 = CARTESIAN_POINT('',(0.,0.));
#1432 = VECTOR('',#1433,1.);
#1433 = DIRECTION('',(3.007223639399E-18,1.));
#1434 = ( GEOMETRIC_REPRESENTATION_CONTEXT(2) 
PARAMETRIC_REPRESENTATION_CONTEXT() REPRESENTATION_CONTEXT('2D SPACE',''
  ) );
#1435 = ORIENTED_EDGE('',*,*,#1436,.T.);
#1436 = EDGE_CURVE('',#1402,#1437,#1439,.T.);
#1437 = VERTEX_POINT('',#1438);
#1438 = CARTESIAN_POINT('',(104.53983025504,-15.,27.499759710441));
#1439 = SURFACE_CURVE('',#1440,(#1444,#1451),.PCURVE_S1.);
#1440 = LINE('',#1441,#1442);
#1441 = CARTESIAN_POINT('',(92.056268259317,-15.,27.49975971044));
#1442 = VECTOR('',#1443,1.);
#1443 = DIRECTION('',(1.,2.442490654175E-15,7.959298397013E-14));
#1444 = PCURVE('',#1412,#1445);
#1445 = DEFINITIONAL_REPRESENTATION('',(#1446),#1450);
#1446 = LINE('',#1447,#1448);
#1447 = CARTESIAN_POINT('',(12.48356199573,-27.5));
#1448 = VECTOR('',#1449,1.);
#1449 = DIRECTION('',(-1.,7.573064690122E-29));
#1450 = ( GEOMETRIC_REPRESENTATION_CONTEXT(2) 
PARAMETRIC_REPRESENTATION_CONTEXT() REPRESENTATION_CONTEXT('2D SPACE',''
  ) );
#1451 = PCURVE('',#102,#1452);
#1452 = DEFINITIONAL_REPRESENTATION('',(#1453),#1457);
#1453 = LINE('',#1454,#1455);
#1454 = CARTESIAN_POINT('',(-4.991780997865,-6.25));
#1455 = VECTOR('',#1456,1.);
#1456 = DIRECTION('',(1.,1.804112415016E-16));
#1457 = ( GEOMETRIC_REPRESENTATION_CONTEXT(2) 
PARAMETRIC_REPRESENTATION_CONTEXT() REPRESENTATION_CONTEXT('2D SPACE',''
  ) );
#1458 = ORIENTED_EDGE('',*,*,#1459,.T.);
#1459 = EDGE_CURVE('',#1437,#1460,#1462,.T.);
#1460 = VERTEX_POINT('',#1461);
#1461 = CARTESIAN_POINT('',(104.53983025505,-15.,-27.50024028955));
#1462 = SURFACE_CURVE('',#1463,(#1467,#1474),.PCURVE_S1.);
#1463 = LINE('',#1464,#1465);
#1464 = CARTESIAN_POINT('',(104.53983025505,-15.,-2.40289558579E-04));
#1465 = VECTOR('',#1466,1.);
#1466 = DIRECTION('',(7.866631969018E-14,-5.797308251575E-16,-1.));
#1467 = PCURVE('',#1412,#1468);
#1468 = DEFINITIONAL_REPRESENTATION('',(#1469),#1473);
#1469 = LINE('',#1470,#1471);
#1470 = CARTESIAN_POINT('',(0.,0.));
#1471 = VECTOR('',#1472,1.);
#1472 = DIRECTION('',(9.266642799499E-16,1.));
#1473 = ( GEOMETRIC_REPRESENTATION_CONTEXT(2) 
PARAMETRIC_REPRESENTATION_CONTEXT() REPRESENTATION_CONTEXT('2D SPACE',''
  ) );
#1474 = PCURVE('',#344,#1475);
#1475 = DEFINITIONAL_REPRESENTATION('',(#1476),#1480);
#1476 = LINE('',#1477,#1478);
#1477 = CARTESIAN_POINT('',(2.5,-1.277932713185E-19));
#1478 = VECTOR('',#1479,1.);
#1479 = DIRECTION('',(-3.517265055452E-16,1.));
#1480 = ( GEOMETRIC_REPRESENTATION_CONTEXT(2) 
PARAMETRIC_REPRESENTATION_CONTEXT() REPRESENTATION_CONTEXT('2D SPACE',''
  ) );
#1481 = ORIENTED_EDGE('',*,*,#1482,.T.);
#1482 = EDGE_CURVE('',#1460,#1404,#1483,.T.);
#1483 = SURFACE_CURVE('',#1484,(#1488,#1495),.PCURVE_S1.);
#1484 = LINE('',#1485,#1486);
#1485 = CARTESIAN_POINT('',(92.056268259322,-15.,-27.50024028956));
#1486 = VECTOR('',#1487,1.);
#1487 = DIRECTION('',(-1.,-2.442490654175E-15,-7.959298397013E-14));
#1488 = PCURVE('',#1412,#1489);
#1489 = DEFINITIONAL_REPRESENTATION('',(#1490),#1494);
#1490 = LINE('',#1491,#1492);
#1491 = CARTESIAN_POINT('',(12.48356199573,27.5));
#1492 = VECTOR('',#1493,1.);
#1493 = DIRECTION('',(1.,-7.573064690122E-29));
#1494 = ( GEOMETRIC_REPRESENTATION_CONTEXT(2) 
PARAMETRIC_REPRESENTATION_CONTEXT() REPRESENTATION_CONTEXT('2D SPACE',''
  ) );
#1495 = PCURVE('',#1007,#1496);
#1496 = DEFINITIONAL_REPRESENTATION('',(#1497),#1501);
#1497 = LINE('',#1498,#1499);
#1498 = CARTESIAN_POINT('',(-4.991780997865,-6.25));
#1499 = VECTOR('',#1500,1.);
#1500 = DIRECTION('',(-1.,-1.804112415016E-16));
#1501 = ( GEOMETRIC_REPRESENTATION_CONTEXT(2) 
PARAMETRIC_REPRESENTATION_CONTEXT() REPRESENTATION_CONTEXT('2D SPACE',''
  ) );
#1502 = ADVANCED_FACE('',(#1503),#344,.F.);
#1503 = FACE_BOUND('',#1504,.T.);
#1504 = EDGE_LOOP('',(#1505,#1506,#1527,#1528,#1529,#1530,#1531,#1532));
#1505 = ORIENTED_EDGE('',*,*,#1459,.F.);
#1506 = ORIENTED_EDGE('',*,*,#1507,.T.);
#1507 = EDGE_CURVE('',#1437,#329,#1508,.T.);
#1508 = SURFACE_CURVE('',#1509,(#1513,#1520),.PCURVE_S1.);
#1509 = LINE('',#1510,#1511);
#1510 = CARTESIAN_POINT('',(104.53983025504,-17.5,27.499759710441));
#1511 = VECTOR('',#1512,1.);
#1512 = DIRECTION('',(2.262079412674E-15,-1.,2.280043196125E-16));
#1513 = PCURVE('',#344,#1514);
#1514 = DEFINITIONAL_REPRESENTATION('',(#1515),#1519);
#1515 = LINE('',#1516,#1517);
#1516 = CARTESIAN_POINT('',(-5.734061731866E-15,-27.5));
#1517 = VECTOR('',#1518,1.);
#1518 = DIRECTION('',(-1.,-1.787262988391E-30));
#1519 = ( GEOMETRIC_REPRESENTATION_CONTEXT(2) 
PARAMETRIC_REPRESENTATION_CONTEXT() REPRESENTATION_CONTEXT('2D SPACE',''
  ) );
#1520 = PCURVE('',#102,#1521);
#1521 = DEFINITIONAL_REPRESENTATION('',(#1522),#1526);
#1522 = LINE('',#1523,#1524);
#1523 = CARTESIAN_POINT('',(7.491780997865,-8.75));
#1524 = VECTOR('',#1525,1.);
#1525 = DIRECTION('',(3.380117651795E-29,-1.));
#1526 = ( GEOMETRIC_REPRESENTATION_CONTEXT(2) 
PARAMETRIC_REPRESENTATION_CONTEXT() REPRESENTATION_CONTEXT('2D SPACE',''
  ) );
#1527 = ORIENTED_EDGE('',*,*,#328,.F.);
#1528 = ORIENTED_EDGE('',*,*,#601,.T.);
#1529 = ORIENTED_EDGE('',*,*,#909,.T.);
#1530 = ORIENTED_EDGE('',*,*,#1377,.F.);
#1531 = ORIENTED_EDGE('',*,*,#1019,.T.);
#1532 = ORIENTED_EDGE('',*,*,#1533,.T.);
#1533 = EDGE_CURVE('',#992,#1460,#1534,.T.);
#1534 = SURFACE_CURVE('',#1535,(#1539,#1546),.PCURVE_S1.);
#1535 = LINE('',#1536,#1537);
#1536 = CARTESIAN_POINT('',(104.53983025505,-32.5,-27.50024028955));
#1537 = VECTOR('',#1538,1.);
#1538 = DIRECTION('',(-2.262079412674E-15,1.,-2.280165693482E-16));
#1539 = PCURVE('',#344,#1540);
#1540 = DEFINITIONAL_REPRESENTATION('',(#1541),#1545);
#1541 = LINE('',#1542,#1543);
#1542 = CARTESIAN_POINT('',(-15.,27.5));
#1543 = VECTOR('',#1544,1.);
#1544 = DIRECTION('',(1.,1.224973568799E-20));
#1545 = ( GEOMETRIC_REPRESENTATION_CONTEXT(2) 
PARAMETRIC_REPRESENTATION_CONTEXT() REPRESENTATION_CONTEXT('2D SPACE',''
  ) );
#1546 = PCURVE('',#1007,#1547);
#1547 = DEFINITIONAL_REPRESENTATION('',(#1548),#1552);
#1548 = LINE('',#1549,#1550);
#1549 = CARTESIAN_POINT('',(7.491780997865,-23.75));
#1550 = VECTOR('',#1551,1.);
#1551 = DIRECTION('',(-3.380117651795E-29,1.));
#1552 = ( GEOMETRIC_REPRESENTATION_CONTEXT(2) 
PARAMETRIC_REPRESENTATION_CONTEXT() REPRESENTATION_CONTEXT('2D SPACE',''
  ) );
#1553 = ADVANCED_FACE('',(#1554),#102,.T.);
#1554 = FACE_BOUND('',#1555,.T.);
#1555 = EDGE_LOOP('',(#1556,#1579,#1580,#1581,#1582,#1583,#1584,#1585,
    #1586,#1609));
#1556 = ORIENTED_EDGE('',*,*,#1557,.F.);
#1557 = EDGE_CURVE('',#406,#1558,#1560,.T.);
#1558 = VERTEX_POINT('',#1559);
#1559 = CARTESIAN_POINT('',(104.53983025504,15.,27.499759710441));
#1560 = SURFACE_CURVE('',#1561,(#1565,#1572),.PCURVE_S1.);
#1561 = LINE('',#1562,#1563);
#1562 = CARTESIAN_POINT('',(104.53983025504,15.,27.499759710441));
#1563 = VECTOR('',#1564,1.);
#1564 = DIRECTION('',(2.262079412674E-15,-1.,2.280177524856E-16));
#1565 = PCURVE('',#102,#1566);
#1566 = DEFINITIONAL_REPRESENTATION('',(#1567),#1571);
#1567 = LINE('',#1568,#1569);
#1568 = CARTESIAN_POINT('',(7.491780997865,23.75));
#1569 = VECTOR('',#1570,1.);
#1570 = DIRECTION('',(3.380117651795E-29,-1.));
#1571 = ( GEOMETRIC_REPRESENTATION_CONTEXT(2) 
PARAMETRIC_REPRESENTATION_CONTEXT() REPRESENTATION_CONTEXT('2D SPACE',''
  ) );
#1572 = PCURVE('',#442,#1573);
#1573 = DEFINITIONAL_REPRESENTATION('',(#1574),#1578);
#1574 = LINE('',#1575,#1576);
#1575 = CARTESIAN_POINT('',(-5.735016798655E-15,-27.5));
#1576 = VECTOR('',#1577,1.);
#1577 = DIRECTION('',(-1.,2.12968283778E-20));
#1578 = ( GEOMETRIC_REPRESENTATION_CONTEXT(2) 
PARAMETRIC_REPRESENTATION_CONTEXT() REPRESENTATION_CONTEXT('2D SPACE',''
  ) );
#1579 = ORIENTED_EDGE('',*,*,#405,.F.);
#1580 = ORIENTED_EDGE('',*,*,#85,.F.);
#1581 = ORIENTED_EDGE('',*,*,#198,.F.);
#1582 = ORIENTED_EDGE('',*,*,#275,.F.);
#1583 = ORIENTED_EDGE('',*,*,#356,.F.);
#1584 = ORIENTED_EDGE('',*,*,#1507,.F.);
#1585 = ORIENTED_EDGE('',*,*,#1436,.F.);
#1586 = ORIENTED_EDGE('',*,*,#1587,.F.);
#1587 = EDGE_CURVE('',#1588,#1402,#1590,.T.);
#1588 = VERTEX_POINT('',#1589);
#1589 = CARTESIAN_POINT('',(92.056268259318,15.,27.49975971044));
#1590 = SURFACE_CURVE('',#1591,(#1595,#1602),.PCURVE_S1.);
#1591 = LINE('',#1592,#1593);
#1592 = CARTESIAN_POINT('',(92.056268259317,3.836930773105E-13,
    27.49975971044));
#1593 = VECTOR('',#1594,1.);
#1594 = DIRECTION('',(2.262079412674E-15,-1.,5.827380487971E-16));
#1595 = PCURVE('',#102,#1596);
#1596 = DEFINITIONAL_REPRESENTATION('',(#1597),#1601);
#1597 = LINE('',#1598,#1599);
#1598 = CARTESIAN_POINT('',(-4.991780997865,8.75));
#1599 = VECTOR('',#1600,1.);
#1600 = DIRECTION('',(3.380117651795E-29,-1.));
#1601 = ( GEOMETRIC_REPRESENTATION_CONTEXT(2) 
PARAMETRIC_REPRESENTATION_CONTEXT() REPRESENTATION_CONTEXT('2D SPACE',''
  ) );
#1602 = PCURVE('',#1424,#1603);
#1603 = DEFINITIONAL_REPRESENTATION('',(#1604),#1608);
#1604 = LINE('',#1605,#1606);
#1605 = CARTESIAN_POINT('',(15.,-27.5));
#1606 = VECTOR('',#1607,1.);
#1607 = DIRECTION('',(-1.,9.3677232495E-31));
#1608 = ( GEOMETRIC_REPRESENTATION_CONTEXT(2) 
PARAMETRIC_REPRESENTATION_CONTEXT() REPRESENTATION_CONTEXT('2D SPACE',''
  ) );
#1609 = ORIENTED_EDGE('',*,*,#1610,.F.);
#1610 = EDGE_CURVE('',#1558,#1588,#1611,.T.);
#1611 = SURFACE_CURVE('',#1612,(#1616,#1623),.PCURVE_S1.);
#1612 = LINE('',#1613,#1614);
#1613 = CARTESIAN_POINT('',(104.53983025504,15.,27.499759710441));
#1614 = VECTOR('',#1615,1.);
#1615 = DIRECTION('',(-1.,-1.387778780782E-16,-8.00505715109E-14));
#1616 = PCURVE('',#102,#1617);
#1617 = DEFINITIONAL_REPRESENTATION('',(#1618),#1622);
#1618 = LINE('',#1619,#1620);
#1619 = CARTESIAN_POINT('',(7.491780997865,23.75));
#1620 = VECTOR('',#1621,1.);
#1621 = DIRECTION('',(-1.,2.137179322403E-15));
#1622 = ( GEOMETRIC_REPRESENTATION_CONTEXT(2) 
PARAMETRIC_REPRESENTATION_CONTEXT() REPRESENTATION_CONTEXT('2D SPACE',''
  ) );
#1623 = PCURVE('',#1624,#1629);
#1624 = PLANE('',#1625);
#1625 = AXIS2_PLACEMENT_3D('',#1626,#1627,#1628);
#1626 = CARTESIAN_POINT('',(92.056268259319,15.,-2.402895595851E-04));
#1627 = DIRECTION('',(-1.387778780781E-16,1.,-5.797308251575E-16));
#1628 = DIRECTION('',(1.,1.387778780782E-16,8.00505715109E-14));
#1629 = DEFINITIONAL_REPRESENTATION('',(#1630),#1634);
#1630 = LINE('',#1631,#1632);
#1631 = CARTESIAN_POINT('',(12.48356199573,-27.5));
#1632 = VECTOR('',#1633,1.);
#1633 = DIRECTION('',(-1.,-6.310887241768E-29));
#1634 = ( GEOMETRIC_REPRESENTATION_CONTEXT(2) 
PARAMETRIC_REPRESENTATION_CONTEXT() REPRESENTATION_CONTEXT('2D SPACE',''
  ) );
#1635 = ADVANCED_FACE('',(#1636),#442,.F.);
#1636 = FACE_BOUND('',#1637,.T.);
#1637 = EDGE_LOOP('',(#1638,#1639,#1640,#1641,#1642,#1665,#1686,#1687));
#1638 = ORIENTED_EDGE('',*,*,#652,.F.);
#1639 = ORIENTED_EDGE('',*,*,#627,.T.);
#1640 = ORIENTED_EDGE('',*,*,#428,.T.);
#1641 = ORIENTED_EDGE('',*,*,#1557,.T.);
#1642 = ORIENTED_EDGE('',*,*,#1643,.T.);
#1643 = EDGE_CURVE('',#1558,#1644,#1646,.T.);
#1644 = VERTEX_POINT('',#1645);
#1645 = CARTESIAN_POINT('',(104.53983025505,15.,-27.50024028955));
#1646 = SURFACE_CURVE('',#1647,(#1651,#1658),.PCURVE_S1.);
#1647 = LINE('',#1648,#1649);
#1648 = CARTESIAN_POINT('',(104.53983025505,15.,-2.402895585858E-04));
#1649 = VECTOR('',#1650,1.);
#1650 = DIRECTION('',(7.866631969018E-14,-5.797308251575E-16,-1.));
#1651 = PCURVE('',#442,#1652);
#1652 = DEFINITIONAL_REPRESENTATION('',(#1653),#1657);
#1653 = LINE('',#1654,#1655);
#1654 = CARTESIAN_POINT('',(0.,0.));
#1655 = VECTOR('',#1656,1.);
#1656 = DIRECTION('',(-3.516917758438E-16,1.));
#1657 = ( GEOMETRIC_REPRESENTATION_CONTEXT(2) 
PARAMETRIC_REPRESENTATION_CONTEXT() REPRESENTATION_CONTEXT('2D SPACE',''
  ) );
#1658 = PCURVE('',#1624,#1659);
#1659 = DEFINITIONAL_REPRESENTATION('',(#1660),#1664);
#1660 = LINE('',#1661,#1662);
#1661 = CARTESIAN_POINT('',(12.48356199573,1.13770689638E-19));
#1662 = VECTOR('',#1663,1.);
#1663 = DIRECTION('',(-1.384251820718E-15,1.));
#1664 = ( GEOMETRIC_REPRESENTATION_CONTEXT(2) 
PARAMETRIC_REPRESENTATION_CONTEXT() REPRESENTATION_CONTEXT('2D SPACE',''
  ) );
#1665 = ORIENTED_EDGE('',*,*,#1666,.T.);
#1666 = EDGE_CURVE('',#1644,#1299,#1667,.T.);
#1667 = SURFACE_CURVE('',#1668,(#1672,#1679),.PCURVE_S1.);
#1668 = LINE('',#1669,#1670);
#1669 = CARTESIAN_POINT('',(104.53983025505,15.,-27.50024028955));
#1670 = VECTOR('',#1671,1.);
#1671 = DIRECTION('',(-2.262079412674E-15,1.,-2.28039049314E-16));
#1672 = PCURVE('',#442,#1673);
#1673 = DEFINITIONAL_REPRESENTATION('',(#1674),#1678);
#1674 = LINE('',#1675,#1676);
#1675 = CARTESIAN_POINT('',(-9.333601951535E-14,27.5));
#1676 = VECTOR('',#1677,1.);
#1677 = DIRECTION('',(1.,4.067564042546E-31));
#1678 = ( GEOMETRIC_REPRESENTATION_CONTEXT(2) 
PARAMETRIC_REPRESENTATION_CONTEXT() REPRESENTATION_CONTEXT('2D SPACE',''
  ) );
#1679 = PCURVE('',#1007,#1680);
#1680 = DEFINITIONAL_REPRESENTATION('',(#1681),#1685);
#1681 = LINE('',#1682,#1683);
#1682 = CARTESIAN_POINT('',(7.491780997865,23.75));
#1683 = VECTOR('',#1684,1.);
#1684 = DIRECTION('',(-3.380117651795E-29,1.));
#1685 = ( GEOMETRIC_REPRESENTATION_CONTEXT(2) 
PARAMETRIC_REPRESENTATION_CONTEXT() REPRESENTATION_CONTEXT('2D SPACE',''
  ) );
#1686 = ORIENTED_EDGE('',*,*,#1298,.F.);
#1687 = ORIENTED_EDGE('',*,*,#1351,.F.);
#1688 = ADVANCED_FACE('',(#1689),#1624,.F.);
#1689 = FACE_BOUND('',#1690,.T.);
#1690 = EDGE_LOOP('',(#1691,#1692,#1693,#1716));
#1691 = ORIENTED_EDGE('',*,*,#1643,.F.);
#1692 = ORIENTED_EDGE('',*,*,#1610,.T.);
#1693 = ORIENTED_EDGE('',*,*,#1694,.T.);
#1694 = EDGE_CURVE('',#1588,#1695,#1697,.T.);
#1695 = VERTEX_POINT('',#1696);
#1696 = CARTESIAN_POINT('',(92.056268259322,15.,-27.50024028956));
#1697 = SURFACE_CURVE('',#1698,(#1702,#1709),.PCURVE_S1.);
#1698 = LINE('',#1699,#1700);
#1699 = CARTESIAN_POINT('',(92.056268259319,15.,-2.402895595851E-04));
#1700 = VECTOR('',#1701,1.);
#1701 = DIRECTION('',(7.866631969018E-14,-5.797308251575E-16,-1.));
#1702 = PCURVE('',#1624,#1703);
#1703 = DEFINITIONAL_REPRESENTATION('',(#1704),#1708);
#1704 = LINE('',#1705,#1706);
#1705 = CARTESIAN_POINT('',(-0.,0.));
#1706 = VECTOR('',#1707,1.);
#1707 = DIRECTION('',(-1.384251820718E-15,1.));
#1708 = ( GEOMETRIC_REPRESENTATION_CONTEXT(2) 
PARAMETRIC_REPRESENTATION_CONTEXT() REPRESENTATION_CONTEXT('2D SPACE',''
  ) );
#1709 = PCURVE('',#1424,#1710);
#1710 = DEFINITIONAL_REPRESENTATION('',(#1711),#1715);
#1711 = LINE('',#1712,#1713);
#1712 = CARTESIAN_POINT('',(30.,-4.930423362027E-15));
#1713 = VECTOR('',#1714,1.);
#1714 = DIRECTION('',(3.007223639399E-18,1.));
#1715 = ( GEOMETRIC_REPRESENTATION_CONTEXT(2) 
PARAMETRIC_REPRESENTATION_CONTEXT() REPRESENTATION_CONTEXT('2D SPACE',''
  ) );
#1716 = ORIENTED_EDGE('',*,*,#1717,.T.);
#1717 = EDGE_CURVE('',#1695,#1644,#1718,.T.);
#1718 = SURFACE_CURVE('',#1719,(#1723,#1730),.PCURVE_S1.);
#1719 = LINE('',#1720,#1721);
#1720 = CARTESIAN_POINT('',(104.53983025505,15.,-27.50024028955));
#1721 = VECTOR('',#1722,1.);
#1722 = DIRECTION('',(1.,1.387778780782E-16,8.00505715109E-14));
#1723 = PCURVE('',#1624,#1724);
#1724 = DEFINITIONAL_REPRESENTATION('',(#1725),#1729);
#1725 = LINE('',#1726,#1727);
#1726 = CARTESIAN_POINT('',(12.48356199573,27.5));
#1727 = VECTOR('',#1728,1.);
#1728 = DIRECTION('',(1.,6.310887241768E-29));
#1729 = ( GEOMETRIC_REPRESENTATION_CONTEXT(2) 
PARAMETRIC_REPRESENTATION_CONTEXT() REPRESENTATION_CONTEXT('2D SPACE',''
  ) );
#1730 = PCURVE('',#1007,#1731);
#1731 = DEFINITIONAL_REPRESENTATION('',(#1732),#1736);
#1732 = LINE('',#1733,#1734);
#1733 = CARTESIAN_POINT('',(7.491780997865,23.75));
#1734 = VECTOR('',#1735,1.);
#1735 = DIRECTION('',(1.,-2.137179322403E-15));
#1736 = ( GEOMETRIC_REPRESENTATION_CONTEXT(2) 
PARAMETRIC_REPRESENTATION_CONTEXT() REPRESENTATION_CONTEXT('2D SPACE',''
  ) );
#1737 = ADVANCED_FACE('',(#1738),#1424,.F.);
#1738 = FACE_BOUND('',#1739,.T.);
#1739 = EDGE_LOOP('',(#1740,#1741,#1742,#1743));
#1740 = ORIENTED_EDGE('',*,*,#1694,.F.);
#1741 = ORIENTED_EDGE('',*,*,#1587,.T.);
#1742 = ORIENTED_EDGE('',*,*,#1401,.T.);
#1743 = ORIENTED_EDGE('',*,*,#1744,.T.);
#1744 = EDGE_CURVE('',#1404,#1695,#1745,.T.);
#1745 = SURFACE_CURVE('',#1746,(#1750,#1757),.PCURVE_S1.);
#1746 = LINE('',#1747,#1748);
#1747 = CARTESIAN_POINT('',(92.056268259322,3.623767952377E-13,
    -27.50024028956));
#1748 = VECTOR('',#1749,1.);
#1749 = DIRECTION('',(-2.262079412674E-15,1.,-5.827380487971E-16));
#1750 = PCURVE('',#1424,#1751);
#1751 = DEFINITIONAL_REPRESENTATION('',(#1752),#1756);
#1752 = LINE('',#1753,#1754);
#1753 = CARTESIAN_POINT('',(15.,27.5));
#1754 = VECTOR('',#1755,1.);
#1755 = DIRECTION('',(1.,-9.3677232495E-31));
#1756 = ( GEOMETRIC_REPRESENTATION_CONTEXT(2) 
PARAMETRIC_REPRESENTATION_CONTEXT() REPRESENTATION_CONTEXT('2D SPACE',''
  ) );
#1757 = PCURVE('',#1007,#1758);
#1758 = DEFINITIONAL_REPRESENTATION('',(#1759),#1763);
#1759 = LINE('',#1760,#1761);
#1760 = CARTESIAN_POINT('',(-4.991780997865,8.75));
#1761 = VECTOR('',#1762,1.);
#1762 = DIRECTION('',(-3.380117651795E-29,1.));
#1763 = ( GEOMETRIC_REPRESENTATION_CONTEXT(2) 
PARAMETRIC_REPRESENTATION_CONTEXT() REPRESENTATION_CONTEXT('2D SPACE',''
  ) );
#1764 = ADVANCED_FACE('',(#1765),#1007,.F.);
#1765 = FACE_BOUND('',#1766,.T.);
#1766 = EDGE_LOOP('',(#1767,#1768,#1769,#1770,#1771,#1772,#1773,#1774,
    #1775,#1776));
#1767 = ORIENTED_EDGE('',*,*,#1533,.F.);
#1768 = ORIENTED_EDGE('',*,*,#991,.F.);
#1769 = ORIENTED_EDGE('',*,*,#1095,.F.);
#1770 = ORIENTED_EDGE('',*,*,#1172,.F.);
#1771 = ORIENTED_EDGE('',*,*,#1249,.F.);
#1772 = ORIENTED_EDGE('',*,*,#1321,.F.);
#1773 = ORIENTED_EDGE('',*,*,#1666,.F.);
#1774 = ORIENTED_EDGE('',*,*,#1717,.F.);
#1775 = ORIENTED_EDGE('',*,*,#1744,.F.);
#1776 = ORIENTED_EDGE('',*,*,#1482,.F.);
#1777 = ( GEOMETRIC_REPRESENTATION_CONTEXT(3) 
GLOBAL_UNCERTAINTY_ASSIGNED_CONTEXT((#1781)) 
GLOBAL_UNIT_ASSIGNED_CONTEXT((#1778,#1779,#1780)) REPRESENTATION_CONTEXT
('Context #1','3D Context with UNIT and UNCERTAINTY') );
#1778 = ( LENGTH_UNIT() NAMED_UNIT(*) SI_UNIT(.MILLI.,.METRE.) );
#1779 = ( NAMED_UNIT(*) PLANE_ANGLE_UNIT() SI_UNIT($,.RADIAN.) );
#1780 = ( NAMED_UNIT(*) SI_UNIT($,.STERADIAN.) SOLID_ANGLE_UNIT() );
#1781 = UNCERTAINTY_MEASURE_WITH_UNIT(LENGTH_MEASURE(1.E-07),#1778,
  'distance_accuracy_value','confusion accuracy');
#1782 = PRODUCT_RELATED_PRODUCT_CATEGORY('part',$,(#7));
ENDSEC;
END-ISO-10303-21;
