ISO-10303-21;
HEADER;
FILE_DESCRIPTION(('Open CASCADE Model'),'2;1');
FILE_NAME('Open CASCADE Shape Model','2026-10-05T12:46:08',('Author'),(
    'Open CASCADE'),'Open CASCADE STEP processor 8.0','Open CASCADE 8.0'
  ,'Unknown');
FILE_SCHEMA(('AUTOMOTIVE_DESIGN { 1 0 10303 214 1 1 1 1 }'));
ENDSEC;
DATA;
#1 = APPLICATION_PROTOCOL_DEFINITION('international standard',
  'automotive_design',2000,#2);
#2 = APPLICATION_CONTEXT(
  'core data for automotive mechanical design processes');
#3 = SHAPE_DEFINITION_REPRESENTATION(#4,#10);
#4 = PRODUCT_DEFINITION_SHAPE('','',#5);
#5 = PRODUCT_DEFINITION('design','',#6,#9);
#6 = PRODUCT_DEFINITION_FORMATION('','',#7);
#7 = PRODUCT('utron_core 5','utron_core 5','',(#8));
#8 = PRODUCT_CONTEXT('',#2,'mechanical');
#9 = PRODUCT_DEFINITION_CONTEXT('part definition',#2,'design');
#10 = ADVANCED_BREP_SHAPE_REPRESENTATION('',(#11,#15),#261);
#11 = AXIS2_PLACEMENT_3D('',#12,#13,#14);
#12 = CARTESIAN_POINT('',(0.,0.,0.));
#13 = DIRECTION('',(0.,0.,1.));
#14 = DIRECTION('',(1.,0.,-0.));
#15 = BREP_WITH_VOIDS('',#16,(#150));
#16 = CLOSED_SHELL('',(#17,#78));
#17 = ADVANCED_FACE('',(#18),#31,.T.);
#18 = FACE_BOUND('',#19,.T.);
#19 = EDGE_LOOP('',(#20,#54,#77));
#20 = ORIENTED_EDGE('',*,*,#21,.F.);
#21 = EDGE_CURVE('',#22,#22,#24,.T.);
#22 = VERTEX_POINT('',#23);
#23 = CARTESIAN_POINT('',(22.980100644101,-1.573510290359E-14,
    -22.98850204775));
#24 = SURFACE_CURVE('',#25,(#30,#42),.PCURVE_S1.);
#25 = CIRCLE('',#26,32.504710685085);
#26 = AXIS2_PLACEMENT_3D('',#27,#28,#29);
#27 = CARTESIAN_POINT('',(-4.200701828459E-03,-1.690101678597E-14,
    -4.200701827498E-03));
#28 = DIRECTION('',(0.707106781187,-8.659560562355E-17,0.707106781187));
#29 = DIRECTION('',(-0.707106781187,8.659560562355E-17,0.707106781187));
#30 = PCURVE('',#31,#36);
#31 = CONICAL_SURFACE('',#32,16.252355342542,0.785559080329);
#32 = AXIS2_PLACEMENT_3D('',#33,#34,#35);
#33 = CARTESIAN_POINT('',(-11.49265340658,-1.549408710277E-14,
    -11.49265340658));
#34 = DIRECTION('',(0.707106781187,-8.659560562355E-17,0.707106781187));
#35 = DIRECTION('',(-0.707106781187,8.659560562355E-17,0.707106781187));
#36 = DEFINITIONAL_REPRESENTATION('',(#37),#41);
#37 = LINE('',#38,#39);
#38 = CARTESIAN_POINT('',(-6.28318530718,16.247125625747));
#39 = VECTOR('',#40,1.);
#40 = DIRECTION('',(1.,0.));
#41 = ( GEOMETRIC_REPRESENTATION_CONTEXT(2) 
PARAMETRIC_REPRESENTATION_CONTEXT() REPRESENTATION_CONTEXT('2D SPACE',''
  ) );
#42 = PCURVE('',#43,#48);
#43 = CONICAL_SURFACE('',#44,32.504710685085,0.785382206265);
#44 = AXIS2_PLACEMENT_3D('',#45,#46,#47);
#45 = CARTESIAN_POINT('',(-4.200701828459E-03,-1.690101678597E-14,
    -4.200701827498E-03));
#46 = DIRECTION('',(-0.707106781187,8.659560562355E-17,-0.707106781187)
  );
#47 = DIRECTION('',(-0.707106781187,8.659560562355E-17,0.707106781187));
#48 = DEFINITIONAL_REPRESENTATION('',(#49),#53);
#49 = LINE('',#50,#51);
#50 = CARTESIAN_POINT('',(6.28318530718,-7.105427353982E-15));
#51 = VECTOR('',#52,1.);
#52 = DIRECTION('',(-1.,0.));
#53 = ( GEOMETRIC_REPRESENTATION_CONTEXT(2) 
PARAMETRIC_REPRESENTATION_CONTEXT() REPRESENTATION_CONTEXT('2D SPACE',''
  ) );
#54 = ORIENTED_EDGE('',*,*,#55,.T.);
#55 = EDGE_CURVE('',#22,#56,#58,.T.);
#56 = VERTEX_POINT('',#57);
#57 = CARTESIAN_POINT('',(-22.98110611134,-1.408715741956E-14,
    -22.98110611133));
#58 = SEAM_CURVE('',#59,(#63,#70),.PCURVE_S1.);
#59 = LINE('',#60,#61);
#60 = CARTESIAN_POINT('',(-5.027336192977E-04,-1.491113016158E-14,
    -22.98480407954));
#61 = VECTOR('',#62,1.);
#62 = DIRECTION('',(-0.999999987053,3.585513912771E-17,
    1.609169307336E-04));
#63 = PCURVE('',#31,#64);
#64 = DEFINITIONAL_REPRESENTATION('',(#65),#69);
#65 = LINE('',#66,#67);
#66 = CARTESIAN_POINT('',(-3.14159265359,-3.516441115927E-14));
#67 = VECTOR('',#68,1.);
#68 = DIRECTION('',(0.,-1.));
#69 = ( GEOMETRIC_REPRESENTATION_CONTEXT(2) 
PARAMETRIC_REPRESENTATION_CONTEXT() REPRESENTATION_CONTEXT('2D SPACE',''
  ) );
#70 = PCURVE('',#31,#71);
#71 = DEFINITIONAL_REPRESENTATION('',(#72),#76);
#72 = LINE('',#73,#74);
#73 = CARTESIAN_POINT('',(3.14159265359,-3.516441115927E-14));
#74 = VECTOR('',#75,1.);
#75 = DIRECTION('',(0.,-1.));
#76 = ( GEOMETRIC_REPRESENTATION_CONTEXT(2) 
PARAMETRIC_REPRESENTATION_CONTEXT() REPRESENTATION_CONTEXT('2D SPACE',''
  ) );
#77 = ORIENTED_EDGE('',*,*,#55,.F.);
#78 = ADVANCED_FACE('',(#79),#43,.T.);
#79 = FACE_BOUND('',#80,.T.);
#80 = EDGE_LOOP('',(#81,#148,#149));
#81 = ORIENTED_EDGE('',*,*,#82,.T.);
#82 = EDGE_CURVE('',#83,#22,#85,.T.);
#83 = VERTEX_POINT('',#84);
#84 = CARTESIAN_POINT('',(22.980834182879,-1.971587172596E-14,
    22.98083418288));
#85 = SEAM_CURVE('',#86,(#90,#119),.PCURVE_S1.);
#86 = LINE('',#87,#88);
#87 = CARTESIAN_POINT('',(22.980100644101,-1.573510290359E-14,
    -22.98850204775));
#88 = VECTOR('',#89,1.);
#89 = DIRECTION('',(-1.595713224681E-05,8.659617798009E-17,
    -0.999999999873));
#90 = PCURVE('',#43,#91);
#91 = DEFINITIONAL_REPRESENTATION('',(#92),#118);
#92 = B_SPLINE_CURVE_WITH_KNOTS('',3,(#93,#94,#95,#96,#97,#98,#99,#100,
    #101,#102,#103,#104,#105,#106,#107,#108,#109,#110,#111,#112,#113,
    #114,#115,#116,#117),.UNSPECIFIED.,.F.,.F.,(4,1,1,1,1,1,1,1,1,1,1,1,
    1,1,1,1,1,1,1,1,1,1,4),(-45.96933623649,-43.87982095301,
    -41.79030566953,-39.70079038606,-37.61127510258,-35.5217598191,
    -33.43224453562,-31.34272925215,-29.25321396867,-27.16369868519,
    -25.07418340172,-22.98466811824,-20.89515283476,-18.80563755129,
    -16.71612226781,-14.62660698433,-12.53709170086,-10.44757641738,
    -8.358061133907,-6.26854585043,-4.179030566954,-2.089515283477,0.),
  .UNSPECIFIED.);
#93 = CARTESIAN_POINT('',(3.14159265359,-32.50574806557));
#94 = CARTESIAN_POINT('',(3.14159265359,-32.01323673124));
#95 = CARTESIAN_POINT('',(3.14159265359,-31.02821406259));
#96 = CARTESIAN_POINT('',(3.14159265359,-29.55068005961));
#97 = CARTESIAN_POINT('',(3.14159265359,-28.07314605663));
#98 = CARTESIAN_POINT('',(3.14159265359,-26.59561205365));
#99 = CARTESIAN_POINT('',(3.14159265359,-25.11807805066));
#100 = CARTESIAN_POINT('',(3.14159265359,-23.64054404768));
#101 = CARTESIAN_POINT('',(3.14159265359,-22.1630100447));
#102 = CARTESIAN_POINT('',(3.14159265359,-20.68547604172));
#103 = CARTESIAN_POINT('',(3.14159265359,-19.20794203874));
#104 = CARTESIAN_POINT('',(3.14159265359,-17.73040803576));
#105 = CARTESIAN_POINT('',(3.14159265359,-16.25287403278));
#106 = CARTESIAN_POINT('',(3.14159265359,-14.7753400298));
#107 = CARTESIAN_POINT('',(3.14159265359,-13.29780602682));
#108 = CARTESIAN_POINT('',(3.14159265359,-11.82027202384));
#109 = CARTESIAN_POINT('',(3.14159265359,-10.34273802086));
#110 = CARTESIAN_POINT('',(3.14159265359,-8.865204017883));
#111 = CARTESIAN_POINT('',(3.14159265359,-7.387670014903));
#112 = CARTESIAN_POINT('',(3.14159265359,-5.910136011922));
#113 = CARTESIAN_POINT('',(3.14159265359,-4.432602008942));
#114 = CARTESIAN_POINT('',(3.14159265359,-2.955068005961));
#115 = CARTESIAN_POINT('',(3.14159265359,-1.477534002981));
#116 = CARTESIAN_POINT('',(3.14159265359,-0.492511334327));
#117 = CARTESIAN_POINT('',(3.14159265359,2.131764267059E-14));
#118 = ( GEOMETRIC_REPRESENTATION_CONTEXT(2) 
PARAMETRIC_REPRESENTATION_CONTEXT() REPRESENTATION_CONTEXT('2D SPACE',''
  ) );
#119 = PCURVE('',#43,#120);
#120 = DEFINITIONAL_REPRESENTATION('',(#121),#147);
#121 = B_SPLINE_CURVE_WITH_KNOTS('',3,(#122,#123,#124,#125,#126,#127,
    #128,#129,#130,#131,#132,#133,#134,#135,#136,#137,#138,#139,#140,
    #141,#142,#143,#144,#145,#146),.UNSPECIFIED.,.F.,.F.,(4,1,1,1,1,1,1,
    1,1,1,1,1,1,1,1,1,1,1,1,1,1,1,4),(-45.96933623649,-43.87982095301,
    -41.79030566953,-39.70079038606,-37.61127510258,-35.5217598191,
    -33.43224453562,-31.34272925215,-29.25321396867,-27.16369868519,
    -25.07418340172,-22.98466811824,-20.89515283476,-18.80563755129,
    -16.71612226781,-14.62660698433,-12.53709170086,-10.44757641738,
    -8.358061133907,-6.26854585043,-4.179030566954,-2.089515283477,0.),
  .UNSPECIFIED.);
#122 = CARTESIAN_POINT('',(-3.14159265359,-32.50574806557));
#123 = CARTESIAN_POINT('',(-3.14159265359,-32.01323673124));
#124 = CARTESIAN_POINT('',(-3.14159265359,-31.02821406259));
#125 = CARTESIAN_POINT('',(-3.14159265359,-29.55068005961));
#126 = CARTESIAN_POINT('',(-3.14159265359,-28.07314605663));
#127 = CARTESIAN_POINT('',(-3.14159265359,-26.59561205365));
#128 = CARTESIAN_POINT('',(-3.14159265359,-25.11807805066));
#129 = CARTESIAN_POINT('',(-3.14159265359,-23.64054404768));
#130 = CARTESIAN_POINT('',(-3.14159265359,-22.1630100447));
#131 = CARTESIAN_POINT('',(-3.14159265359,-20.68547604172));
#132 = CARTESIAN_POINT('',(-3.14159265359,-19.20794203874));
#133 = CARTESIAN_POINT('',(-3.14159265359,-17.73040803576));
#134 = CARTESIAN_POINT('',(-3.14159265359,-16.25287403278));
#135 = CARTESIAN_POINT('',(-3.14159265359,-14.7753400298));
#136 = CARTESIAN_POINT('',(-3.14159265359,-13.29780602682));
#137 = CARTESIAN_POINT('',(-3.14159265359,-11.82027202384));
#138 = CARTESIAN_POINT('',(-3.14159265359,-10.34273802086));
#139 = CARTESIAN_POINT('',(-3.14159265359,-8.865204017883));
#140 = CARTESIAN_POINT('',(-3.14159265359,-7.387670014903));
#141 = CARTESIAN_POINT('',(-3.14159265359,-5.910136011922));
#142 = CARTESIAN_POINT('',(-3.14159265359,-4.432602008942));
#143 = CARTESIAN_POINT('',(-3.14159265359,-2.955068005961));
#144 = CARTESIAN_POINT('',(-3.14159265359,-1.477534002981));
#145 = CARTESIAN_POINT('',(-3.14159265359,-0.492511334327));
#146 = CARTESIAN_POINT('',(-3.14159265359,2.131764267059E-14));
#147 = ( GEOMETRIC_REPRESENTATION_CONTEXT(2) 
PARAMETRIC_REPRESENTATION_CONTEXT() REPRESENTATION_CONTEXT('2D SPACE',''
  ) );
#148 = ORIENTED_EDGE('',*,*,#21,.T.);
#149 = ORIENTED_EDGE('',*,*,#82,.F.);
#150 = ORIENTED_CLOSED_SHELL('',*,#151,.F.);
#151 = CLOSED_SHELL('',(#152,#257));
#152 = ADVANCED_FACE('',(#153),#167,.T.);
#153 = FACE_BOUND('',#154,.T.);
#154 = EDGE_LOOP('',(#155,#229,#256));
#155 = ORIENTED_EDGE('',*,*,#156,.T.);
#156 = EDGE_CURVE('',#157,#159,#161,.T.);
#157 = VERTEX_POINT('',#158);
#158 = CARTESIAN_POINT('',(3.727829630975E-03,-1.690198775104E-14,
    3.7278296318E-03));
#159 = VERTEX_POINT('',#160);
#160 = CARTESIAN_POINT('',(3.727576601193E-03,-1.690061461191E-14,
    -1.212898025763E-02));
#161 = SEAM_CURVE('',#162,(#166,#200),.PCURVE_S1.);
#162 = LINE('',#163,#164);
#163 = CARTESIAN_POINT('',(3.72770311656E-03,-1.690130118147E-14,
    -4.200575312914E-03));
#164 = VECTOR('',#165,1.);
#165 = DIRECTION('',(-1.59571322466E-05,8.659617798009E-17,
    -0.999999999873));
#166 = PCURVE('',#167,#172);
#167 = CONICAL_SURFACE('',#168,5.606139441069E-03,0.785382206265);
#168 = AXIS2_PLACEMENT_3D('',#169,#170,#171);
#169 = CARTESIAN_POINT('',(-2.364360992421E-04,-1.69015022685E-14,
    -2.36436097856E-04));
#170 = DIRECTION('',(-0.707106781187,8.659560562355E-17,-0.707106781187)
  );
#171 = DIRECTION('',(-0.707106781187,8.659560562355E-17,0.707106781187)
  );
#172 = DEFINITIONAL_REPRESENTATION('',(#173),#199);
#173 = B_SPLINE_CURVE_WITH_KNOTS('',3,(#174,#175,#176,#177,#178,#179,
    #180,#181,#182,#183,#184,#185,#186,#187,#188,#189,#190,#191,#192,
    #193,#194,#195,#196,#197,#198),.UNSPECIFIED.,.F.,.F.,(4,1,1,1,1,1,1,
    1,1,1,1,1,1,1,1,1,1,1,1,1,1,1,4),(-7.928404945723E-03,
    -7.207640859748E-03,-6.486876773773E-03,-5.766112687798E-03,
    -5.045348601823E-03,-4.324584515848E-03,-3.603820429873E-03,
    -2.883056343898E-03,-2.162292257924E-03,-1.441528171949E-03,
    -7.207640859738E-04,1.148386941097E-15,7.20764085976E-04,
    1.441528171951E-03,2.162292257926E-03,2.883056343901E-03,
    3.603820429876E-03,4.324584515851E-03,5.045348601825E-03,
    5.7661126878E-03,6.486876773775E-03,7.20764085975E-03,
    7.928404945725E-03),.UNSPECIFIED.);
#174 = CARTESIAN_POINT('',(3.14159265359,-5.606318360273E-03));
#175 = CARTESIAN_POINT('',(3.14159265359,-5.436429924808E-03));
#176 = CARTESIAN_POINT('',(3.14159265359,-5.096653054216E-03));
#177 = CARTESIAN_POINT('',(3.14159265359,-4.586987748892E-03));
#178 = CARTESIAN_POINT('',(3.14159265359,-4.077322443449E-03));
#179 = CARTESIAN_POINT('',(3.14159265359,-3.567657138007E-03));
#180 = CARTESIAN_POINT('',(3.14159265359,-3.057991832593E-03));
#181 = CARTESIAN_POINT('',(3.14159265359,-2.548326527153E-03));
#182 = CARTESIAN_POINT('',(3.14159265359,-2.038661221703E-03));
#183 = CARTESIAN_POINT('',(3.14159265359,-1.528995916316E-03));
#184 = CARTESIAN_POINT('',(3.14159265359,-1.019330610859E-03));
#185 = CARTESIAN_POINT('',(3.14159265359,-5.096653054513E-04));
#186 = CARTESIAN_POINT('',(3.14159265359,5.934746863997E-17));
#187 = CARTESIAN_POINT('',(3.14159265359,5.096653054115E-04));
#188 = CARTESIAN_POINT('',(3.14159265359,1.019330610854E-03));
#189 = CARTESIAN_POINT('',(3.14159265359,1.528995916299E-03));
#190 = CARTESIAN_POINT('',(3.14159265359,2.038661221701E-03));
#191 = CARTESIAN_POINT('',(3.14159265359,2.548326527185E-03));
#192 = CARTESIAN_POINT('',(3.14159265359,3.057991832556E-03));
#193 = CARTESIAN_POINT('',(3.14159265359,3.567657138044E-03));
#194 = CARTESIAN_POINT('',(3.14159265359,4.07732244343E-03));
#195 = CARTESIAN_POINT('',(3.14159265359,4.586987748852E-03));
#196 = CARTESIAN_POINT('',(3.14159265359,5.096653054316E-03));
#197 = CARTESIAN_POINT('',(3.14159265359,5.436429924604E-03));
#198 = CARTESIAN_POINT('',(3.14159265359,5.606318359734E-03));
#199 = ( GEOMETRIC_REPRESENTATION_CONTEXT(2) 
PARAMETRIC_REPRESENTATION_CONTEXT() REPRESENTATION_CONTEXT('2D SPACE',''
  ) );
#200 = PCURVE('',#167,#201);
#201 = DEFINITIONAL_REPRESENTATION('',(#202),#228);
#202 = B_SPLINE_CURVE_WITH_KNOTS('',3,(#203,#204,#205,#206,#207,#208,
    #209,#210,#211,#212,#213,#214,#215,#216,#217,#218,#219,#220,#221,
    #222,#223,#224,#225,#226,#227),.UNSPECIFIED.,.F.,.F.,(4,1,1,1,1,1,1,
    1,1,1,1,1,1,1,1,1,1,1,1,1,1,1,4),(-7.928404945723E-03,
    -7.207640859748E-03,-6.486876773773E-03,-5.766112687798E-03,
    -5.045348601823E-03,-4.324584515848E-03,-3.603820429873E-03,
    -2.883056343898E-03,-2.162292257924E-03,-1.441528171949E-03,
    -7.207640859738E-04,1.148386941097E-15,7.20764085976E-04,
    1.441528171951E-03,2.162292257926E-03,2.883056343901E-03,
    3.603820429876E-03,4.324584515851E-03,5.045348601825E-03,
    5.7661126878E-03,6.486876773775E-03,7.20764085975E-03,
    7.928404945725E-03),.UNSPECIFIED.);
#203 = CARTESIAN_POINT('',(-3.14159265359,-5.606318360273E-03));
#204 = CARTESIAN_POINT('',(-3.14159265359,-5.436429924808E-03));
#205 = CARTESIAN_POINT('',(-3.14159265359,-5.096653054216E-03));
#206 = CARTESIAN_POINT('',(-3.14159265359,-4.586987748892E-03));
#207 = CARTESIAN_POINT('',(-3.14159265359,-4.077322443449E-03));
#208 = CARTESIAN_POINT('',(-3.14159265359,-3.567657138007E-03));
#209 = CARTESIAN_POINT('',(-3.14159265359,-3.057991832593E-03));
#210 = CARTESIAN_POINT('',(-3.14159265359,-2.548326527153E-03));
#211 = CARTESIAN_POINT('',(-3.14159265359,-2.038661221703E-03));
#212 = CARTESIAN_POINT('',(-3.14159265359,-1.528995916316E-03));
#213 = CARTESIAN_POINT('',(-3.14159265359,-1.019330610859E-03));
#214 = CARTESIAN_POINT('',(-3.14159265359,-5.096653054513E-04));
#215 = CARTESIAN_POINT('',(-3.14159265359,5.934746863997E-17));
#216 = CARTESIAN_POINT('',(-3.14159265359,5.096653054115E-04));
#217 = CARTESIAN_POINT('',(-3.14159265359,1.019330610854E-03));
#218 = CARTESIAN_POINT('',(-3.14159265359,1.528995916299E-03));
#219 = CARTESIAN_POINT('',(-3.14159265359,2.038661221701E-03));
#220 = CARTESIAN_POINT('',(-3.14159265359,2.548326527185E-03));
#221 = CARTESIAN_POINT('',(-3.14159265359,3.057991832556E-03));
#222 = CARTESIAN_POINT('',(-3.14159265359,3.567657138044E-03));
#223 = CARTESIAN_POINT('',(-3.14159265359,4.07732244343E-03));
#224 = CARTESIAN_POINT('',(-3.14159265359,4.586987748852E-03));
#225 = CARTESIAN_POINT('',(-3.14159265359,5.096653054316E-03));
#226 = CARTESIAN_POINT('',(-3.14159265359,5.436429924604E-03));
#227 = CARTESIAN_POINT('',(-3.14159265359,5.606318359734E-03));
#228 = ( GEOMETRIC_REPRESENTATION_CONTEXT(2) 
PARAMETRIC_REPRESENTATION_CONTEXT() REPRESENTATION_CONTEXT('2D SPACE',''
  ) );
#229 = ORIENTED_EDGE('',*,*,#230,.T.);
#230 = EDGE_CURVE('',#159,#159,#231,.T.);
#231 = SURFACE_CURVE('',#232,(#237,#244),.PCURVE_S1.);
#232 = CIRCLE('',#233,1.121227888213E-02);
#233 = AXIS2_PLACEMENT_3D('',#234,#235,#236);
#234 = CARTESIAN_POINT('',(-4.200701828459E-03,-1.690101678597E-14,
    -4.200701827518E-03));
#235 = DIRECTION('',(0.707106781187,-8.659560562355E-17,0.707106781187)
  );
#236 = DIRECTION('',(-0.707106781187,8.659560562355E-17,0.707106781187)
  );
#237 = PCURVE('',#167,#238);
#238 = DEFINITIONAL_REPRESENTATION('',(#239),#243);
#239 = LINE('',#240,#241);
#240 = CARTESIAN_POINT('',(6.28318530718,5.606318359734E-03));
#241 = VECTOR('',#242,1.);
#242 = DIRECTION('',(-1.,0.));
#243 = ( GEOMETRIC_REPRESENTATION_CONTEXT(2) 
PARAMETRIC_REPRESENTATION_CONTEXT() REPRESENTATION_CONTEXT('2D SPACE',''
  ) );
#244 = PCURVE('',#245,#250);
#245 = PLANE('',#246);
#246 = AXIS2_PLACEMENT_3D('',#247,#248,#249);
#247 = CARTESIAN_POINT('',(-4.200701828459E-03,-1.690101678597E-14,
    -4.200701827534E-03));
#248 = DIRECTION('',(0.707106781187,-8.659560562355E-17,0.707106781187)
  );
#249 = DIRECTION('',(-0.707106781187,8.659560562355E-17,0.707106781187)
  );
#250 = DEFINITIONAL_REPRESENTATION('',(#251),#255);
#251 = CIRCLE('',#252,1.121227888213E-02);
#252 = AXIS2_PLACEMENT_2D('',#253,#254);
#253 = CARTESIAN_POINT('',(1.098972723823E-14,-1.915653139358E-46));
#254 = DIRECTION('',(1.,-3.486303134597E-32));
#255 = ( GEOMETRIC_REPRESENTATION_CONTEXT(2) 
PARAMETRIC_REPRESENTATION_CONTEXT() REPRESENTATION_CONTEXT('2D SPACE',''
  ) );
#256 = ORIENTED_EDGE('',*,*,#156,.F.);
#257 = ADVANCED_FACE('',(#258),#245,.F.);
#258 = FACE_BOUND('',#259,.F.);
#259 = EDGE_LOOP('',(#260));
#260 = ORIENTED_EDGE('',*,*,#230,.T.);
#261 = ( GEOMETRIC_REPRESENTATION_CONTEXT(3) 
GLOBAL_UNCERTAINTY_ASSIGNED_CONTEXT((#265)) GLOBAL_UNIT_ASSIGNED_CONTEXT
((#262,#263,#264)) REPRESENTATION_CONTEXT('Context #1',
  '3D Context with UNIT and UNCERTAINTY') );
#262 = ( LENGTH_UNIT() NAMED_UNIT(*) SI_UNIT(.MILLI.,.METRE.) );
#263 = ( NAMED_UNIT(*) PLANE_ANGLE_UNIT() SI_UNIT($,.RADIAN.) );
#264 = ( NAMED_UNIT(*) SI_UNIT($,.STERADIAN.) SOLID_ANGLE_UNIT() );
#265 = UNCERTAINTY_MEASURE_WITH_UNIT(LENGTH_MEASURE(1.E-07),#262,
  'distance_accuracy_value','confusion accuracy');
#266 = PRODUCT_RELATED_PRODUCT_CATEGORY('part',$,(#7));
ENDSEC;
END-ISO-10303-21;
