<svg xmlns="http://www.w3.org/2000/svg" viewBox="0 0 460 460" font-family="monospace"><rect width="460" height="460" fill="#0b0f14"/><text x="230" y="20" fill="#b8975a" font-size="12" text-anchor="middle" font-family="monospace">CROSS-SECTION — r0.15 ref-radii (from DXF)</text><circle cx="230" cy="230" r="10.0" fill="none" stroke="#3a4a5a" stroke-width="1" stroke-dasharray="3 3"/><line x1="230" y1="220.0" x2="326" y2="220.0" stroke="#2a3a48" stroke-width="0.5"/><text x="330" y="223.0" fill="#9fb0bf" font-size="8.5" font-family="monospace">R25 ring-in</text><circle cx="230" cy="230" r="38.0" fill="none" stroke="#5fa8d3" stroke-width="1" stroke-dasharray="3 3"/><line x1="230" y1="192.0" x2="326" y2="192.0" stroke="#2a3a48" stroke-width="0.5"/><text x="330" y="195.0" fill="#9fb0bf" font-size="8.5" font-family="monospace">R95 active inner</text><circle cx="230" cy="230" r="154.8" fill="none" stroke="#7cd0ff" stroke-width="2"/><line x1="230" y1="75.2" x2="326" y2="75.2" stroke="#2a3a48" stroke-width="0.5"/><text x="330" y="78.2" fill="#9fb0bf" font-size="8.5" font-family="monospace">R387 active outer</text><circle cx="230" cy="230" r="196.4" fill="none" stroke="#b8975a" stroke-width="2"/><line x1="230" y1="33.6" x2="326" y2="33.6" stroke="#2a3a48" stroke-width="0.5"/><text x="330" y="36.6" fill="#9fb0bf" font-size="8.5" font-family="monospace">R491 rotor outer (after bus)</text><circle cx="230" cy="230" r="200.0" fill="none" stroke="#1e2733" stroke-width="1"/><line x1="230" y1="30.0" x2="326" y2="30.0" stroke="#2a3a48" stroke-width="0.5"/><text x="330" y="33.0" fill="#9fb0bf" font-size="8.5" font-family="monospace">R500 plate edge</text><path d="M 267.2,222.1 L 381.4,197.8 A 154.8 154.8 0 0 1 381.4,262.2 L 267.2,237.9 A 38.0 38.0 0 0 0 267.2,222.1 Z" fill="#13202c" stroke="#2a4a5e" stroke-width="0.6"/><path d="M 255.4,258.2 L 333.6,345.0 A 154.8 154.8 0 0 1 277.8,377.2 L 241.7,266.1 A 38.0 38.0 0 0 0 255.4,258.2 Z" fill="#13202c" stroke="#2a4a5e" stroke-width="0.6"/><path d="M 218.3,266.1 L 182.2,377.2 A 154.8 154.8 0 0 1 126.4,345.0 L 204.6,258.2 A 38.0 38.0 0 0 0 218.3,266.1 Z" fill="#13202c" stroke="#2a4a5e" stroke-width="0.6"/><path d="M 192.8,237.9 L 78.6,262.2 A 154.8 154.8 0 0 1 78.6,197.8 L 192.8,222.1 A 38.0 38.0 0 0 0 192.8,237.9 Z" fill="#13202c" stroke="#2a4a5e" stroke-width="0.6"/><path d="M 204.6,201.8 L 126.4,115.0 A 154.8 154.8 0 0 1 182.2,82.8 L 218.3,193.9 A 38.0 38.0 0 0 0 204.6,201.8 Z" fill="#13202c" stroke="#2a4a5e" stroke-width="0.6"/><path d="M 241.7,193.9 L 277.8,82.8 A 154.8 154.8 0 0 1 333.6,115.0 L 255.4,201.8 A 38.0 38.0 0 0 0 241.7,193.9 Z" fill="#13202c" stroke="#2a4a5e" stroke-width="0.6"/><line x1="357.5" y1="264.2" x2="369.1" y2="267.3" stroke="#e0a83a" stroke-width="1.4"/><line x1="323.3" y1="323.3" x2="331.8" y2="331.8" stroke="#e0a83a" stroke-width="1.4"/><line x1="264.2" y1="357.5" x2="267.3" y2="369.1" stroke="#e0a83a" stroke-width="1.4"/><line x1="195.8" y1="357.5" x2="192.7" y2="369.1" stroke="#e0a83a" stroke-width="1.4"/><line x1="136.7" y1="323.3" x2="128.2" y2="331.8" stroke="#e0a83a" stroke-width="1.4"/><line x1="102.5" y1="264.2" x2="90.9" y2="267.3" stroke="#e0a83a" stroke-width="1.4"/><line x1="102.5" y1="195.8" x2="90.9" y2="192.7" stroke="#e0a83a" stroke-width="1.4"/><line x1="136.7" y1="136.7" x2="128.2" y2="128.2" stroke="#e0a83a" stroke-width="1.4"/><line x1="195.8" y1="102.5" x2="192.7" y2="90.9" stroke="#e0a83a" stroke-width="1.4"/><line x1="264.2" y1="102.5" x2="267.3" y2="90.9" stroke="#e0a83a" stroke-width="1.4"/><line x1="323.3" y1="136.7" x2="331.8" y2="128.2" stroke="#e0a83a" stroke-width="1.4"/><line x1="357.5" y1="195.8" x2="369.1" y2="192.7" stroke="#e0a83a" stroke-width="1.4"/><circle cx="230" cy="230" r="10.0" fill="#7d3cb5" opacity="0.5"/><text x="230" y="233" fill="#dfe8f1" font-size="7" text-anchor="middle" font-family="monospace">C_R</text><rect x="403.0" y="227.0" width="6" height="6" fill="#8ab" opacity="0.7"/><rect x="379.4" y="315.0" width="6" height="6" fill="#8ab" opacity="0.7"/><rect x="315.0" y="379.4" width="6" height="6" fill="#8ab" opacity="0.7"/><rect x="227.0" y="403.0" width="6" height="6" fill="#8ab" opacity="0.7"/><rect x="139.0" y="379.4" width="6" height="6" fill="#8ab" opacity="0.7"/><rect x="74.6" y="315.0" width="6" height="6" fill="#8ab" opacity="0.7"/><rect x="51.0" y="227.0" width="6" height="6" fill="#8ab" opacity="0.7"/><rect x="74.6" y="139.0" width="6" height="6" fill="#8ab" opacity="0.7"/><rect x="139.0" y="74.6" width="6" height="6" fill="#8ab" opacity="0.7"/><rect x="227.0" y="51.0" width="6" height="6" fill="#8ab" opacity="0.7"/><rect x="315.0" y="74.6" width="6" height="6" fill="#8ab" opacity="0.7"/><rect x="379.4" y="139.0" width="6" height="6" fill="#8ab" opacity="0.7"/><rect x="10" y="402" width="9" height="9" fill="#13202c"/><text x="23" y="410" fill="#9fb0bf" font-size="8" font-family="monospace">varicap plates ND1/ND9 (R95–R387)</text><rect x="10" y="415" width="9" height="9" fill="#e0a83a"/><text x="23" y="423" fill="#9fb0bf" font-size="8" font-family="monospace">island bars ND7/ND8 (~R350)</text><rect x="10" y="428" width="9" height="9" fill="#7d3cb5"/><text x="23" y="436" fill="#9fb0bf" font-size="8" font-family="monospace">C_R septum (12 mm, centre)</text><rect x="10" y="441" width="9" height="9" fill="#8ab"/><text x="23" y="449" fill="#9fb0bf" font-size="8" font-family="monospace">Cem cores (12, ~R440)</text></svg>