<svg xmlns="http://www.w3.org/2000/svg" viewBox="0 0 680 760" font-family="monospace"><rect width="680" height="760" fill="#0b0f14"/><defs><marker id="ar" markerWidth="7" markerHeight="7" refX="5" refY="3" orient="auto"><path d="M0 0 L6 3 L0 6 Z" fill="#7cd0ff"/></marker></defs><text x="340.0" y="22" fill="#b8975a" font-size="12" text-anchor="middle">SCHEMATIC — varicap doubler + shuttle + Cem motor + resonator</text><text x="340.0" y="36" fill="#7e8b99" font-size="8.5" text-anchor="middle">(structure from topology_edge_list.csv; part values inherited from the solver)</text><circle cx="230" cy="120" r="3.2" fill="#b8975a"/><text x="239" y="123" fill="#b8975a" font-size="8" text-anchor="start">ND7</text><circle cx="450" cy="120" r="3.2" fill="#b8975a"/><text x="459" y="123" fill="#b8975a" font-size="8" text-anchor="start">ND8</text><line x1="175" y1="250" x2="230" y2="128" stroke="#e0a83a" stroke-width="1.2"/><circle cx="202.5" cy="189.0" r="2.6" fill="none" stroke="#e0a83a" stroke-width="1.2"/><text x="202.5" y="184.0" fill="#e0a83a" font-size="7.5" text-anchor="middle">SG3a</text><line x1="175" y1="250" x2="175" y2="470" stroke="#46627a" stroke-width="1.2"/><text x="224" y="106" fill="#cfe9ff" font-size="8.5" text-anchor="end">Cx3</text><text id="sv_Cx3" x="224" y="95" fill="#ffb454" font-size="8" text-anchor="end">471 pF</text><line x1="220" y1="114" x2="220" y2="126" stroke="#7cd0ff" stroke-width="1.5"/><line x1="226" y1="114" x2="226" y2="126" stroke="#7cd0ff" stroke-width="1.5"/><line x1="230" y1="128" x2="375" y2="250" stroke="#e0a83a" stroke-width="1.2"/><circle cx="302.5" cy="189.0" r="2.6" fill="none" stroke="#e0a83a" stroke-width="1.2"/><text x="302.5" y="184.0" fill="#e0a83a" font-size="7.5" text-anchor="middle">SG3b</text><line x1="242" y1="136" x2="367" y2="258" stroke="#e0a83a" stroke-width="1.2"/><circle cx="304.5" cy="197.0" r="2.6" fill="none" stroke="#e0a83a" stroke-width="1.2"/><text x="304.5" y="192.0" fill="#e0a83a" font-size="7.5" text-anchor="middle">BS3</text><line x1="375" y1="250" x2="375" y2="470" stroke="#46627a" stroke-width="1.2"/><line x1="505" y1="250" x2="450" y2="128" stroke="#e0a83a" stroke-width="1.2"/><circle cx="477.5" cy="189.0" r="2.6" fill="none" stroke="#e0a83a" stroke-width="1.2"/><text x="477.5" y="184.0" fill="#e0a83a" font-size="7.5" text-anchor="middle">SG4a</text><line x1="505" y1="250" x2="505" y2="470" stroke="#46627a" stroke-width="1.2"/><text x="456" y="106" fill="#cfe9ff" font-size="8.5" text-anchor="start">Cx4</text><text id="sv_Cx4" x="456" y="95" fill="#ffb454" font-size="8" text-anchor="start">471 pF</text><line x1="460" y1="114" x2="460" y2="126" stroke="#7cd0ff" stroke-width="1.5"/><line x1="454" y1="114" x2="454" y2="126" stroke="#7cd0ff" stroke-width="1.5"/><line x1="450" y1="128" x2="305" y2="250" stroke="#e0a83a" stroke-width="1.2"/><circle cx="377.5" cy="189.0" r="2.6" fill="none" stroke="#e0a83a" stroke-width="1.2"/><text x="377.5" y="184.0" fill="#e0a83a" font-size="7.5" text-anchor="middle">SG4b</text><line x1="438" y1="136" x2="313" y2="258" stroke="#e0a83a" stroke-width="1.2"/><circle cx="375.5" cy="197.0" r="2.6" fill="none" stroke="#e0a83a" stroke-width="1.2"/><text x="375.5" y="192.0" fill="#e0a83a" font-size="7.5" text-anchor="middle">BS4</text><line x1="305" y1="250" x2="305" y2="470" stroke="#46627a" stroke-width="1.2"/><path d="M 175 250 A 7.5 7.5 0 0 1 190.0 250 A 7.5 7.5 0 0 1 205.0 250 A 7.5 7.5 0 0 1 220.0 250 A 7.5 7.5 0 0 1 235.0 250 " fill="none" stroke="#8fb0c8" stroke-width="1.4"/><text x="205.0" y="241" fill="#cfe9ff" font-size="8" text-anchor="middle">L_A1</text><text x="205.0" y="265" fill="#ffb454" font-size="7.5" text-anchor="middle">0.64 H</text><circle cx="235" cy="250" r="3" fill="#b8975a"/><text x="235" y="262" fill="#b8975a" font-size="6.5" text-anchor="middle">ND11</text><line x1="267" y1="250" x2="276" y2="250" stroke="#46627a" stroke-width="1.2"/><line x1="284" y1="250" x2="293" y2="250" stroke="#46627a" stroke-width="1.2"/><line x1="276" y1="241" x2="276" y2="259" stroke="#7cd0ff" stroke-width="1.6"/><line x1="284" y1="241" x2="284" y2="259" stroke="#7cd0ff" stroke-width="1.6"/><text x="280" y="238" fill="#cfe9ff" font-size="8.5" text-anchor="middle">C_AR1</text><path d="M 175 284 A 7.5 7.5 0 0 1 190.0 284 A 7.5 7.5 0 0 1 205.0 284 A 7.5 7.5 0 0 1 220.0 284 A 7.5 7.5 0 0 1 235.0 284 " fill="none" stroke="#8fb0c8" stroke-width="1.4"/><text x="205.0" y="275" fill="#cfe9ff" font-size="8" text-anchor="middle">L_A2</text><text x="205.0" y="299" fill="#ffb454" font-size="7.5" text-anchor="middle">0.64 H</text><circle cx="235" cy="284" r="3" fill="#b8975a"/><text x="235" y="296" fill="#b8975a" font-size="6.5" text-anchor="middle">ND12</text><line x1="267" y1="284" x2="276" y2="284" stroke="#46627a" stroke-width="1.2"/><line x1="284" y1="284" x2="293" y2="284" stroke="#46627a" stroke-width="1.2"/><line x1="276" y1="275" x2="276" y2="293" stroke="#7cd0ff" stroke-width="1.6"/><line x1="284" y1="275" x2="284" y2="293" stroke="#7cd0ff" stroke-width="1.6"/><text x="280" y="272" fill="#cfe9ff" font-size="8.5" text-anchor="middle">C_AR2</text><path d="M 175 318 A 7.5 7.5 0 0 1 190.0 318 A 7.5 7.5 0 0 1 205.0 318 A 7.5 7.5 0 0 1 220.0 318 A 7.5 7.5 0 0 1 235.0 318 " fill="none" stroke="#8fb0c8" stroke-width="1.4"/><text x="205.0" y="309" fill="#cfe9ff" font-size="8" text-anchor="middle">L_A3</text><text x="205.0" y="333" fill="#ffb454" font-size="7.5" text-anchor="middle">0.64 H</text><circle cx="235" cy="318" r="3" fill="#b8975a"/><text x="235" y="330" fill="#b8975a" font-size="6.5" text-anchor="middle">ND13</text><line x1="267" y1="318" x2="276" y2="318" stroke="#46627a" stroke-width="1.2"/><line x1="284" y1="318" x2="293" y2="318" stroke="#46627a" stroke-width="1.2"/><line x1="276" y1="309" x2="276" y2="327" stroke="#7cd0ff" stroke-width="1.6"/><line x1="284" y1="309" x2="284" y2="327" stroke="#7cd0ff" stroke-width="1.6"/><text x="280" y="306" fill="#cfe9ff" font-size="8.5" text-anchor="middle">C_AR3</text><path d="M 175 352 A 7.5 7.5 0 0 1 190.0 352 A 7.5 7.5 0 0 1 205.0 352 A 7.5 7.5 0 0 1 220.0 352 A 7.5 7.5 0 0 1 235.0 352 " fill="none" stroke="#8fb0c8" stroke-width="1.4"/><text x="205.0" y="343" fill="#cfe9ff" font-size="8" text-anchor="middle">L_A4</text><text x="205.0" y="367" fill="#ffb454" font-size="7.5" text-anchor="middle">0.64 H</text><circle cx="235" cy="352" r="3" fill="#b8975a"/><text x="235" y="364" fill="#b8975a" font-size="6.5" text-anchor="middle">ND14</text><line x1="267" y1="352" x2="276" y2="352" stroke="#46627a" stroke-width="1.2"/><line x1="284" y1="352" x2="293" y2="352" stroke="#46627a" stroke-width="1.2"/><line x1="276" y1="343" x2="276" y2="361" stroke="#7cd0ff" stroke-width="1.6"/><line x1="284" y1="343" x2="284" y2="361" stroke="#7cd0ff" stroke-width="1.6"/><text x="280" y="340" fill="#cfe9ff" font-size="8.5" text-anchor="middle">C_AR4</text><path d="M 175 386 A 7.5 7.5 0 0 1 190.0 386 A 7.5 7.5 0 0 1 205.0 386 A 7.5 7.5 0 0 1 220.0 386 A 7.5 7.5 0 0 1 235.0 386 " fill="none" stroke="#8fb0c8" stroke-width="1.4"/><text x="205.0" y="377" fill="#cfe9ff" font-size="8" text-anchor="middle">L_A5</text><text x="205.0" y="401" fill="#ffb454" font-size="7.5" text-anchor="middle">0.64 H</text><circle cx="235" cy="386" r="3" fill="#b8975a"/><text x="235" y="398" fill="#b8975a" font-size="6.5" text-anchor="middle">ND15</text><line x1="267" y1="386" x2="276" y2="386" stroke="#46627a" stroke-width="1.2"/><line x1="284" y1="386" x2="293" y2="386" stroke="#46627a" stroke-width="1.2"/><line x1="276" y1="377" x2="276" y2="395" stroke="#7cd0ff" stroke-width="1.6"/><line x1="284" y1="377" x2="284" y2="395" stroke="#7cd0ff" stroke-width="1.6"/><text x="280" y="374" fill="#cfe9ff" font-size="8.5" text-anchor="middle">C_AR5</text><path d="M 175 420 A 7.5 7.5 0 0 1 190.0 420 A 7.5 7.5 0 0 1 205.0 420 A 7.5 7.5 0 0 1 220.0 420 A 7.5 7.5 0 0 1 235.0 420 " fill="none" stroke="#8fb0c8" stroke-width="1.4"/><text x="205.0" y="411" fill="#cfe9ff" font-size="8" text-anchor="middle">L_A6</text><text x="205.0" y="435" fill="#ffb454" font-size="7.5" text-anchor="middle">0.64 H</text><circle cx="235" cy="420" r="3" fill="#b8975a"/><text x="235" y="432" fill="#b8975a" font-size="6.5" text-anchor="middle">ND16</text><line x1="267" y1="420" x2="276" y2="420" stroke="#46627a" stroke-width="1.2"/><line x1="284" y1="420" x2="293" y2="420" stroke="#46627a" stroke-width="1.2"/><line x1="276" y1="411" x2="276" y2="429" stroke="#7cd0ff" stroke-width="1.6"/><line x1="284" y1="411" x2="284" y2="429" stroke="#7cd0ff" stroke-width="1.6"/><text x="280" y="408" fill="#cfe9ff" font-size="8.5" text-anchor="middle">C_AR6</text><line x1="175" y1="250" x2="175" y2="470" stroke="#46627a" stroke-width="1.2"/><line x1="305" y1="250" x2="305" y2="470" stroke="#46627a" stroke-width="1.2"/><line x1="305" y1="250" x2="305" y2="250" stroke="#46627a" stroke-width="1.2"/><line x1="305" y1="284" x2="305" y2="284" stroke="#46627a" stroke-width="1.2"/><line x1="305" y1="318" x2="305" y2="318" stroke="#46627a" stroke-width="1.2"/><line x1="305" y1="352" x2="305" y2="352" stroke="#46627a" stroke-width="1.2"/><line x1="305" y1="386" x2="305" y2="386" stroke="#46627a" stroke-width="1.2"/><line x1="305" y1="420" x2="305" y2="420" stroke="#46627a" stroke-width="1.2"/><path d="M 445 250 A 7.5 7.5 0 0 1 460.0 250 A 7.5 7.5 0 0 1 475.0 250 A 7.5 7.5 0 0 1 490.0 250 A 7.5 7.5 0 0 1 505.0 250 " fill="none" stroke="#8fb0c8" stroke-width="1.4"/><text x="475.0" y="241" fill="#cfe9ff" font-size="8" text-anchor="middle">L_B1</text><text x="475.0" y="265" fill="#ffb454" font-size="7.5" text-anchor="middle">0.64 H</text><circle cx="445" cy="250" r="3" fill="#b8975a"/><text x="445" y="262" fill="#b8975a" font-size="6.5" text-anchor="middle">ND17</text><line x1="387" y1="250" x2="396" y2="250" stroke="#46627a" stroke-width="1.2"/><line x1="404" y1="250" x2="413" y2="250" stroke="#46627a" stroke-width="1.2"/><line x1="396" y1="241" x2="396" y2="259" stroke="#7cd0ff" stroke-width="1.6"/><line x1="404" y1="241" x2="404" y2="259" stroke="#7cd0ff" stroke-width="1.6"/><text x="400" y="238" fill="#cfe9ff" font-size="8.5" text-anchor="middle">C_BR1</text><path d="M 445 284 A 7.5 7.5 0 0 1 460.0 284 A 7.5 7.5 0 0 1 475.0 284 A 7.5 7.5 0 0 1 490.0 284 A 7.5 7.5 0 0 1 505.0 284 " fill="none" stroke="#8fb0c8" stroke-width="1.4"/><text x="475.0" y="275" fill="#cfe9ff" font-size="8" text-anchor="middle">L_B2</text><text x="475.0" y="299" fill="#ffb454" font-size="7.5" text-anchor="middle">0.64 H</text><circle cx="445" cy="284" r="3" fill="#b8975a"/><text x="445" y="296" fill="#b8975a" font-size="6.5" text-anchor="middle">ND18</text><line x1="387" y1="284" x2="396" y2="284" stroke="#46627a" stroke-width="1.2"/><line x1="404" y1="284" x2="413" y2="284" stroke="#46627a" stroke-width="1.2"/><line x1="396" y1="275" x2="396" y2="293" stroke="#7cd0ff" stroke-width="1.6"/><line x1="404" y1="275" x2="404" y2="293" stroke="#7cd0ff" stroke-width="1.6"/><text x="400" y="272" fill="#cfe9ff" font-size="8.5" text-anchor="middle">C_BR2</text><path d="M 445 318 A 7.5 7.5 0 0 1 460.0 318 A 7.5 7.5 0 0 1 475.0 318 A 7.5 7.5 0 0 1 490.0 318 A 7.5 7.5 0 0 1 505.0 318 " fill="none" stroke="#8fb0c8" stroke-width="1.4"/><text x="475.0" y="309" fill="#cfe9ff" font-size="8" text-anchor="middle">L_B3</text><text x="475.0" y="333" fill="#ffb454" font-size="7.5" text-anchor="middle">0.64 H</text><circle cx="445" cy="318" r="3" fill="#b8975a"/><text x="445" y="330" fill="#b8975a" font-size="6.5" text-anchor="middle">ND19</text><line x1="387" y1="318" x2="396" y2="318" stroke="#46627a" stroke-width="1.2"/><line x1="404" y1="318" x2="413" y2="318" stroke="#46627a" stroke-width="1.2"/><line x1="396" y1="309" x2="396" y2="327" stroke="#7cd0ff" stroke-width="1.6"/><line x1="404" y1="309" x2="404" y2="327" stroke="#7cd0ff" stroke-width="1.6"/><text x="400" y="306" fill="#cfe9ff" font-size="8.5" text-anchor="middle">C_BR3</text><path d="M 445 352 A 7.5 7.5 0 0 1 460.0 352 A 7.5 7.5 0 0 1 475.0 352 A 7.5 7.5 0 0 1 490.0 352 A 7.5 7.5 0 0 1 505.0 352 " fill="none" stroke="#8fb0c8" stroke-width="1.4"/><text x="475.0" y="343" fill="#cfe9ff" font-size="8" text-anchor="middle">L_B4</text><text x="475.0" y="367" fill="#ffb454" font-size="7.5" text-anchor="middle">0.64 H</text><circle cx="445" cy="352" r="3" fill="#b8975a"/><text x="445" y="364" fill="#b8975a" font-size="6.5" text-anchor="middle">ND20</text><line x1="387" y1="352" x2="396" y2="352" stroke="#46627a" stroke-width="1.2"/><line x1="404" y1="352" x2="413" y2="352" stroke="#46627a" stroke-width="1.2"/><line x1="396" y1="343" x2="396" y2="361" stroke="#7cd0ff" stroke-width="1.6"/><line x1="404" y1="343" x2="404" y2="361" stroke="#7cd0ff" stroke-width="1.6"/><text x="400" y="340" fill="#cfe9ff" font-size="8.5" text-anchor="middle">C_BR4</text><path d="M 445 386 A 7.5 7.5 0 0 1 460.0 386 A 7.5 7.5 0 0 1 475.0 386 A 7.5 7.5 0 0 1 490.0 386 A 7.5 7.5 0 0 1 505.0 386 " fill="none" stroke="#8fb0c8" stroke-width="1.4"/><text x="475.0" y="377" fill="#cfe9ff" font-size="8" text-anchor="middle">L_B5</text><text x="475.0" y="401" fill="#ffb454" font-size="7.5" text-anchor="middle">0.64 H</text><circle cx="445" cy="386" r="3" fill="#b8975a"/><text x="445" y="398" fill="#b8975a" font-size="6.5" text-anchor="middle">ND21</text><line x1="387" y1="386" x2="396" y2="386" stroke="#46627a" stroke-width="1.2"/><line x1="404" y1="386" x2="413" y2="386" stroke="#46627a" stroke-width="1.2"/><line x1="396" y1="377" x2="396" y2="395" stroke="#7cd0ff" stroke-width="1.6"/><line x1="404" y1="377" x2="404" y2="395" stroke="#7cd0ff" stroke-width="1.6"/><text x="400" y="374" fill="#cfe9ff" font-size="8.5" text-anchor="middle">C_BR5</text><path d="M 445 420 A 7.5 7.5 0 0 1 460.0 420 A 7.5 7.5 0 0 1 475.0 420 A 7.5 7.5 0 0 1 490.0 420 A 7.5 7.5 0 0 1 505.0 420 " fill="none" stroke="#8fb0c8" stroke-width="1.4"/><text x="475.0" y="411" fill="#cfe9ff" font-size="8" text-anchor="middle">L_B6</text><text x="475.0" y="435" fill="#ffb454" font-size="7.5" text-anchor="middle">0.64 H</text><circle cx="445" cy="420" r="3" fill="#b8975a"/><text x="445" y="432" fill="#b8975a" font-size="6.5" text-anchor="middle">ND22</text><line x1="387" y1="420" x2="396" y2="420" stroke="#46627a" stroke-width="1.2"/><line x1="404" y1="420" x2="413" y2="420" stroke="#46627a" stroke-width="1.2"/><line x1="396" y1="411" x2="396" y2="429" stroke="#7cd0ff" stroke-width="1.6"/><line x1="404" y1="411" x2="404" y2="429" stroke="#7cd0ff" stroke-width="1.6"/><text x="400" y="408" fill="#cfe9ff" font-size="8.5" text-anchor="middle">C_BR6</text><line x1="505" y1="250" x2="505" y2="470" stroke="#46627a" stroke-width="1.2"/><line x1="375" y1="250" x2="375" y2="470" stroke="#46627a" stroke-width="1.2"/><circle cx="175" cy="470" r="3.2" fill="#b8975a"/><text x="184" y="473" fill="#b8975a" font-size="8" text-anchor="start">ND1</text><circle cx="305" cy="470" r="3.2" fill="#b8975a"/><text x="314" y="473" fill="#b8975a" font-size="8" text-anchor="start">ND2</text><circle cx="375" cy="470" r="3.2" fill="#b8975a"/><text x="384" y="473" fill="#b8975a" font-size="8" text-anchor="start">ND3</text><circle cx="505" cy="470" r="3.2" fill="#b8975a"/><text x="514" y="473" fill="#b8975a" font-size="8" text-anchor="start">ND4</text><line x1="227.0" y1="470" x2="236.0" y2="470" stroke="#46627a" stroke-width="1.2"/><line x1="244.0" y1="470" x2="253.0" y2="470" stroke="#46627a" stroke-width="1.2"/><line x1="236.0" y1="461" x2="236.0" y2="479" stroke="#7cd0ff" stroke-width="1.6"/><line x1="244.0" y1="461" x2="244.0" y2="479" stroke="#7cd0ff" stroke-width="1.6"/><text x="240.0" y="458" fill="#cfe9ff" font-size="8.5" text-anchor="middle">Ca</text><text id="sv_Ca" x="240.0" y="488" fill="#ffb454" font-size="8" text-anchor="middle">309 pF</text><line x1="188" y1="470" x2="227.0" y2="470" stroke="#46627a" stroke-width="1.2"/><line x1="253.0" y1="470" x2="305" y2="470" stroke="#46627a" stroke-width="1.2"/><line x1="427.0" y1="470" x2="436.0" y2="470" stroke="#46627a" stroke-width="1.2"/><line x1="444.0" y1="470" x2="453.0" y2="470" stroke="#46627a" stroke-width="1.2"/><line x1="436.0" y1="461" x2="436.0" y2="479" stroke="#7cd0ff" stroke-width="1.6"/><line x1="444.0" y1="461" x2="444.0" y2="479" stroke="#7cd0ff" stroke-width="1.6"/><text x="440.0" y="458" fill="#cfe9ff" font-size="8.5" text-anchor="middle">Cb</text><text id="sv_Cb" x="440.0" y="488" fill="#ffb454" font-size="8" text-anchor="middle">309 pF</text><line x1="375" y1="470" x2="427.0" y2="470" stroke="#46627a" stroke-width="1.2"/><line x1="453.0" y1="470" x2="505" y2="470" stroke="#46627a" stroke-width="1.2"/><line x1="175" y1="470" x2="70" y2="470" stroke="#46627a" stroke-width="1.2"/><line x1="70" y1="470" x2="70" y2="560" stroke="#46627a" stroke-width="1.2"/><line x1="70" y1="562" x2="70" y2="571" stroke="#46627a" stroke-width="1.2"/><line x1="70" y1="579" x2="70" y2="588" stroke="#46627a" stroke-width="1.2"/><line x1="61" y1="571" x2="79" y2="571" stroke="#7cd0ff" stroke-width="1.6"/><line x1="61" y1="579" x2="79" y2="579" stroke="#7cd0ff" stroke-width="1.6"/><line x1="59" y1="584" x2="81" y2="566" stroke="#7cd0ff" stroke-width="1" marker-end="url(#ar)"/><text x="57" y="577" fill="#cfe9ff" font-size="8.5" text-anchor="end">C1</text><text id="sv_C1" x="83" y="577" fill="#ffb454" font-size="8" text-anchor="start">280 pF</text><line x1="70" y1="590" x2="70" y2="690" stroke="#46627a" stroke-width="1.2"/><line x1="70" y1="690" x2="110" y2="690" stroke="#46627a" stroke-width="1.2"/><line x1="505" y1="470" x2="610" y2="470" stroke="#46627a" stroke-width="1.2"/><line x1="610" y1="470" x2="610" y2="560" stroke="#46627a" stroke-width="1.2"/><line x1="610" y1="562" x2="610" y2="571" stroke="#46627a" stroke-width="1.2"/><line x1="610" y1="579" x2="610" y2="588" stroke="#46627a" stroke-width="1.2"/><line x1="601" y1="571" x2="619" y2="571" stroke="#7cd0ff" stroke-width="1.6"/><line x1="601" y1="579" x2="619" y2="579" stroke="#7cd0ff" stroke-width="1.6"/><line x1="599" y1="584" x2="621" y2="566" stroke="#7cd0ff" stroke-width="1" marker-end="url(#ar)"/><text x="597" y="577" fill="#cfe9ff" font-size="8.5" text-anchor="end">C2</text><text id="sv_C2" x="623" y="577" fill="#ffb454" font-size="8" text-anchor="start">280 pF</text><line x1="610" y1="590" x2="610" y2="690" stroke="#46627a" stroke-width="1.2"/><line x1="610" y1="690" x2="570" y2="690" stroke="#46627a" stroke-width="1.2"/><line x1="305" y1="470" x2="305" y2="560" stroke="#46627a" stroke-width="1.2"/><line x1="305" y1="562" x2="305" y2="570" stroke="#46627a" stroke-width="1.2"/><line x1="305" y1="580" x2="305" y2="588" stroke="#46627a" stroke-width="1.2"/><path d="M 299 570 L 311 570 L 305 574.5 Z" fill="#e0a83a"/><path d="M 299 580 L 311 580 L 305 575.5 Z" fill="#e0a83a"/><text x="315" y="577" fill="#e0a83a" font-size="8" text-anchor="start">SG1</text><line x1="305" y1="590" x2="305" y2="690" stroke="#46627a" stroke-width="1.2"/><line x1="305" y1="690" x2="110" y2="690" stroke="#46627a" stroke-width="1.2"/><line x1="375" y1="470" x2="375" y2="560" stroke="#46627a" stroke-width="1.2"/><line x1="375" y1="562" x2="375" y2="570" stroke="#46627a" stroke-width="1.2"/><line x1="375" y1="580" x2="375" y2="588" stroke="#46627a" stroke-width="1.2"/><path d="M 369 570 L 381 570 L 375 574.5 Z" fill="#e0a83a"/><path d="M 369 580 L 381 580 L 375 575.5 Z" fill="#e0a83a"/><text x="385" y="577" fill="#e0a83a" font-size="8" text-anchor="start">SG2</text><line x1="375" y1="590" x2="375" y2="690" stroke="#46627a" stroke-width="1.2"/><line x1="375" y1="690" x2="570" y2="690" stroke="#46627a" stroke-width="1.2"/><circle cx="110" cy="690" r="3.2" fill="#b8975a"/><text x="119" y="693" fill="#b8975a" font-size="8" text-anchor="start">ND5</text><circle cx="570" cy="690" r="3.2" fill="#b8975a"/><text x="579" y="693" fill="#b8975a" font-size="8" text-anchor="start">ND6</text><circle cx="300" cy="690" r="3.2" fill="#b8975a"/><text x="309" y="693" fill="#b8975a" font-size="8" text-anchor="start">ND9</text><circle cx="380" cy="690" r="3.2" fill="#b8975a"/><text x="389" y="693" fill="#b8975a" font-size="8" text-anchor="start">ND10</text><path d="M 110 690 A 21.0 21.0 0 0 1 152.0 690 A 21.0 21.0 0 0 1 194.0 690 A 21.0 21.0 0 0 1 236.0 690 A 21.0 21.0 0 0 1 278.0 690 " fill="none" stroke="#b48ad0" stroke-width="1.4"/><text x="194.0" y="681" fill="#cfe9ff" font-size="8" text-anchor="middle">L_R1</text><text x="194.0" y="705" fill="#ffb454" font-size="7.5" text-anchor="middle">39.5 µH</text><line x1="278" y1="690" x2="279" y2="690" stroke="#46627a" stroke-width="1.2"/><path d="M 340.0 675 L 355.0 690 L 340.0 705 L 325.0 690 Z" fill="none" stroke="#b48ad0" stroke-width="1.2"/><line x1="334.0" y1="683" x2="334.0" y2="697" stroke="#7cd0ff" stroke-width="1.5"/><line x1="346.0" y1="683" x2="346.0" y2="697" stroke="#7cd0ff" stroke-width="1.5"/><line x1="319.0" y1="690" x2="325.0" y2="690" stroke="#46627a" stroke-width="1.2"/><line x1="355.0" y1="690" x2="361.0" y2="690" stroke="#46627a" stroke-width="1.2"/><text x="340.0" y="670" fill="#cfe9ff" font-size="9" text-anchor="middle">C_R</text><text id="sv_CR" x="340.0" y="718" fill="#ffb454" font-size="8" text-anchor="middle">789 pF</text><path d="M 402 690 A 21.0 21.0 0 0 1 444.0 690 A 21.0 21.0 0 0 1 486.0 690 A 21.0 21.0 0 0 1 528.0 690 A 21.0 21.0 0 0 1 570.0 690 " fill="none" stroke="#b48ad0" stroke-width="1.4"/><text x="486.0" y="681" fill="#cfe9ff" font-size="8" text-anchor="middle">L_R2</text><text x="486.0" y="705" fill="#ffb454" font-size="7.5" text-anchor="middle">39.5 µH</text><line x1="380" y1="690" x2="402" y2="690" stroke="#46627a" stroke-width="1.2"/><text x="340.0" y="750" fill="#46c46a" font-size="9" text-anchor="middle">connectivity vs netlist: 42 components, 22/22 nodes — MATCH</text></svg>