<svg xmlns="http://www.w3.org/2000/svg" viewBox="0 0 480 440" font-family="monospace"><rect width="480" height="440" fill="#0b0f14"/><text x="240.0" y="18" fill="#b8975a" font-size="12" text-anchor="middle" font-family="monospace">SCHEMATIC — from topology_edge_list.csv (netlist of record)</text><line x1="160" y1="90" x2="90" y2="145" stroke="#7cd0ff" stroke-width="1" opacity="0.65"/><text x="125.0" y="115.5" fill="#7cd0ff" font-size="6.5" text-anchor="middle" font-family="monospace">C1</text><line x1="320" y1="90" x2="390" y2="145" stroke="#7cd0ff" stroke-width="1" opacity="0.65"/><text x="355.0" y="115.5" fill="#7cd0ff" font-size="6.5" text-anchor="middle" font-family="monospace">C2</text><line x1="160" y1="90" x2="160" y2="200" stroke="#7cd0ff" stroke-width="1" opacity="0.65"/><text x="160.0" y="143.0" fill="#7cd0ff" font-size="6.5" text-anchor="middle" font-family="monospace">Ca</text><line x1="320" y1="200" x2="320" y2="90" stroke="#7cd0ff" stroke-width="1" opacity="0.65"/><text x="320.0" y="143.0" fill="#7cd0ff" font-size="6.5" text-anchor="middle" font-family="monospace">Cb</text><line x1="160" y1="300" x2="320" y2="200" stroke="#e0a83a" stroke-width="1" opacity="0.65"/><text x="240.0" y="248.0" fill="#e0a83a" font-size="6.5" text-anchor="middle" font-family="monospace">Cx3</text><line x1="320" y1="300" x2="160" y2="200" stroke="#e0a83a" stroke-width="1" opacity="0.65"/><text x="240.0" y="248.0" fill="#e0a83a" font-size="6.5" text-anchor="middle" font-family="monospace">Cx4</text><line x1="160" y1="200" x2="90" y2="145" stroke="#e0a83a" stroke-width="1" opacity="0.65"/><text x="125.0" y="170.5" fill="#e0a83a" font-size="6.5" text-anchor="middle" font-family="monospace">SG1</text><line x1="320" y1="200" x2="390" y2="145" stroke="#e0a83a" stroke-width="1" opacity="0.65"/><text x="355.0" y="170.5" fill="#e0a83a" font-size="6.5" text-anchor="middle" font-family="monospace">SG2</text><line x1="160" y1="90" x2="160" y2="300" stroke="#e0a83a" stroke-width="1" opacity="0.65"/><text x="160.0" y="193.0" fill="#e0a83a" font-size="6.5" text-anchor="middle" font-family="monospace">SG3a</text><line x1="160" y1="300" x2="320" y2="200" stroke="#e0a83a" stroke-width="1" opacity="0.65"/><text x="240.0" y="248.0" fill="#e0a83a" font-size="6.5" text-anchor="middle" font-family="monospace">SG3b</text><line x1="320" y1="200" x2="160" y2="300" stroke="#e0a83a" stroke-width="1" opacity="0.65"/><text x="240.0" y="248.0" fill="#e0a83a" font-size="6.5" text-anchor="middle" font-family="monospace">BS3</text><line x1="320" y1="90" x2="320" y2="300" stroke="#e0a83a" stroke-width="1" opacity="0.65"/><text x="320.0" y="193.0" fill="#e0a83a" font-size="6.5" text-anchor="middle" font-family="monospace">SG4a</text><line x1="320" y1="300" x2="160" y2="200" stroke="#e0a83a" stroke-width="1" opacity="0.65"/><text x="240.0" y="248.0" fill="#e0a83a" font-size="6.5" text-anchor="middle" font-family="monospace">SG4b</text><line x1="160" y1="200" x2="320" y2="300" stroke="#e0a83a" stroke-width="1" opacity="0.65"/><text x="240.0" y="248.0" fill="#e0a83a" font-size="6.5" text-anchor="middle" font-family="monospace">BS4</text><line x1="210" y1="380" x2="270" y2="380" stroke="#7d3cb5" stroke-width="1" opacity="0.65"/><text x="240.0" y="378.0" fill="#7d3cb5" font-size="6.5" text-anchor="middle" font-family="monospace">C_R</text><line x1="90" y1="145" x2="210" y2="380" stroke="#7d3cb5" stroke-width="1" opacity="0.65"/><text x="150.0" y="260.5" fill="#7d3cb5" font-size="6.5" text-anchor="middle" font-family="monospace">L_R1</text><line x1="270" y1="380" x2="390" y2="145" stroke="#7d3cb5" stroke-width="1" opacity="0.65"/><text x="330.0" y="260.5" fill="#7d3cb5" font-size="6.5" text-anchor="middle" font-family="monospace">L_R2</text><line x1="160" y1="90" x2="40" y2="70" stroke="#8ab" stroke-width="1" opacity="0.65"/><text x="100.0" y="78.0" fill="#8ab" font-size="6.5" text-anchor="middle" font-family="monospace">L_A1</text><line x1="160" y1="90" x2="40" y2="110" stroke="#8ab" stroke-width="1" opacity="0.65"/><text x="100.0" y="98.0" fill="#8ab" font-size="6.5" text-anchor="middle" font-family="monospace">L_A2</text><line x1="160" y1="90" x2="40" y2="150" stroke="#8ab" stroke-width="1" opacity="0.65"/><text x="100.0" y="118.0" fill="#8ab" font-size="6.5" text-anchor="middle" font-family="monospace">L_A3</text><line x1="160" y1="90" x2="40" y2="190" stroke="#8ab" stroke-width="1" opacity="0.65"/><text x="100.0" y="138.0" fill="#8ab" font-size="6.5" text-anchor="middle" font-family="monospace">L_A4</text><line x1="160" y1="90" x2="40" y2="230" stroke="#8ab" stroke-width="1" opacity="0.65"/><text x="100.0" y="158.0" fill="#8ab" font-size="6.5" text-anchor="middle" font-family="monospace">L_A5</text><line x1="160" y1="90" x2="40" y2="270" stroke="#8ab" stroke-width="1" opacity="0.65"/><text x="100.0" y="178.0" fill="#8ab" font-size="6.5" text-anchor="middle" font-family="monospace">L_A6</text><line x1="40" y1="70" x2="160" y2="200" stroke="#8ab" stroke-width="1" opacity="0.65"/><text x="100.0" y="133.0" fill="#8ab" font-size="6.5" text-anchor="middle" font-family="monospace">C_AR1</text><line x1="40" y1="110" x2="160" y2="200" stroke="#8ab" stroke-width="1" opacity="0.65"/><text x="100.0" y="153.0" fill="#8ab" font-size="6.5" text-anchor="middle" font-family="monospace">C_AR2</text><line x1="40" y1="150" x2="160" y2="200" stroke="#8ab" stroke-width="1" opacity="0.65"/><text x="100.0" y="173.0" fill="#8ab" font-size="6.5" text-anchor="middle" font-family="monospace">C_AR3</text><line x1="40" y1="190" x2="160" y2="200" stroke="#8ab" stroke-width="1" opacity="0.65"/><text x="100.0" y="193.0" fill="#8ab" font-size="6.5" text-anchor="middle" font-family="monospace">C_AR4</text><line x1="40" y1="230" x2="160" y2="200" stroke="#8ab" stroke-width="1" opacity="0.65"/><text x="100.0" y="213.0" fill="#8ab" font-size="6.5" text-anchor="middle" font-family="monospace">C_AR5</text><line x1="40" y1="270" x2="160" y2="200" stroke="#8ab" stroke-width="1" opacity="0.65"/><text x="100.0" y="233.0" fill="#8ab" font-size="6.5" text-anchor="middle" font-family="monospace">C_AR6</text><line x1="320" y1="90" x2="440" y2="70" stroke="#8ab" stroke-width="1" opacity="0.65"/><text x="380.0" y="78.0" fill="#8ab" font-size="6.5" text-anchor="middle" font-family="monospace">L_B1</text><line x1="320" y1="90" x2="440" y2="110" stroke="#8ab" stroke-width="1" opacity="0.65"/><text x="380.0" y="98.0" fill="#8ab" font-size="6.5" text-anchor="middle" font-family="monospace">L_B2</text><line x1="320" y1="90" x2="440" y2="150" stroke="#8ab" stroke-width="1" opacity="0.65"/><text x="380.0" y="118.0" fill="#8ab" font-size="6.5" text-anchor="middle" font-family="monospace">L_B3</text><line x1="320" y1="90" x2="440" y2="190" stroke="#8ab" stroke-width="1" opacity="0.65"/><text x="380.0" y="138.0" fill="#8ab" font-size="6.5" text-anchor="middle" font-family="monospace">L_B4</text><line x1="320" y1="90" x2="440" y2="230" stroke="#8ab" stroke-width="1" opacity="0.65"/><text x="380.0" y="158.0" fill="#8ab" font-size="6.5" text-anchor="middle" font-family="monospace">L_B5</text><line x1="320" y1="90" x2="440" y2="270" stroke="#8ab" stroke-width="1" opacity="0.65"/><text x="380.0" y="178.0" fill="#8ab" font-size="6.5" text-anchor="middle" font-family="monospace">L_B6</text><line x1="440" y1="70" x2="320" y2="200" stroke="#8ab" stroke-width="1" opacity="0.65"/><text x="380.0" y="133.0" fill="#8ab" font-size="6.5" text-anchor="middle" font-family="monospace">C_BR1</text><line x1="440" y1="110" x2="320" y2="200" stroke="#8ab" stroke-width="1" opacity="0.65"/><text x="380.0" y="153.0" fill="#8ab" font-size="6.5" text-anchor="middle" font-family="monospace">C_BR2</text><line x1="440" y1="150" x2="320" y2="200" stroke="#8ab" stroke-width="1" opacity="0.65"/><text x="380.0" y="173.0" fill="#8ab" font-size="6.5" text-anchor="middle" font-family="monospace">C_BR3</text><line x1="440" y1="190" x2="320" y2="200" stroke="#8ab" stroke-width="1" opacity="0.65"/><text x="380.0" y="193.0" fill="#8ab" font-size="6.5" text-anchor="middle" font-family="monospace">C_BR4</text><line x1="440" y1="230" x2="320" y2="200" stroke="#8ab" stroke-width="1" opacity="0.65"/><text x="380.0" y="213.0" fill="#8ab" font-size="6.5" text-anchor="middle" font-family="monospace">C_BR5</text><line x1="440" y1="270" x2="320" y2="200" stroke="#8ab" stroke-width="1" opacity="0.65"/><text x="380.0" y="233.0" fill="#8ab" font-size="6.5" text-anchor="middle" font-family="monospace">C_BR6</text><circle cx="160" cy="90" r="9" fill="#121821" stroke="#2a4a5e" stroke-width="1"/><text x="160" y="93" fill="#dfe8f1" font-size="8" text-anchor="middle" font-family="monospace">1</text><circle cx="160" cy="200" r="9" fill="#121821" stroke="#2a4a5e" stroke-width="1"/><text x="160" y="203" fill="#dfe8f1" font-size="8" text-anchor="middle" font-family="monospace">2</text><circle cx="320" cy="200" r="9" fill="#121821" stroke="#2a4a5e" stroke-width="1"/><text x="320" y="203" fill="#dfe8f1" font-size="8" text-anchor="middle" font-family="monospace">3</text><circle cx="320" cy="90" r="9" fill="#121821" stroke="#2a4a5e" stroke-width="1"/><text x="320" y="93" fill="#dfe8f1" font-size="8" text-anchor="middle" font-family="monospace">4</text><circle cx="90" cy="145" r="9" fill="#121821" stroke="#2a4a5e" stroke-width="1"/><text x="90" y="148" fill="#dfe8f1" font-size="8" text-anchor="middle" font-family="monospace">5</text><circle cx="160" cy="300" r="9" fill="#121821" stroke="#2a4a5e" stroke-width="1"/><text x="160" y="303" fill="#dfe8f1" font-size="8" text-anchor="middle" font-family="monospace">7</text><circle cx="320" cy="300" r="9" fill="#121821" stroke="#2a4a5e" stroke-width="1"/><text x="320" y="303" fill="#dfe8f1" font-size="8" text-anchor="middle" font-family="monospace">8</text><circle cx="390" cy="145" r="9" fill="#121821" stroke="#2a4a5e" stroke-width="1"/><text x="390" y="148" fill="#dfe8f1" font-size="8" text-anchor="middle" font-family="monospace">6</text><circle cx="210" cy="380" r="9" fill="#121821" stroke="#2a4a5e" stroke-width="1"/><text x="210" y="383" fill="#dfe8f1" font-size="8" text-anchor="middle" font-family="monospace">9</text><circle cx="270" cy="380" r="9" fill="#121821" stroke="#2a4a5e" stroke-width="1"/><text x="270" y="383" fill="#dfe8f1" font-size="8" text-anchor="middle" font-family="monospace">10</text><circle cx="40" cy="70" r="9" fill="#121821" stroke="#2a4a5e" stroke-width="1"/><text x="40" y="73" fill="#dfe8f1" font-size="8" text-anchor="middle" font-family="monospace">11</text><circle cx="40" cy="110" r="9" fill="#121821" stroke="#2a4a5e" stroke-width="1"/><text x="40" y="113" fill="#dfe8f1" font-size="8" text-anchor="middle" font-family="monospace">12</text><circle cx="40" cy="150" r="9" fill="#121821" stroke="#2a4a5e" stroke-width="1"/><text x="40" y="153" fill="#dfe8f1" font-size="8" text-anchor="middle" font-family="monospace">13</text><circle cx="40" cy="190" r="9" fill="#121821" stroke="#2a4a5e" stroke-width="1"/><text x="40" y="193" fill="#dfe8f1" font-size="8" text-anchor="middle" font-family="monospace">14</text><circle cx="40" cy="230" r="9" fill="#121821" stroke="#2a4a5e" stroke-width="1"/><text x="40" y="233" fill="#dfe8f1" font-size="8" text-anchor="middle" font-family="monospace">15</text><circle cx="40" cy="270" r="9" fill="#121821" stroke="#2a4a5e" stroke-width="1"/><text x="40" y="273" fill="#dfe8f1" font-size="8" text-anchor="middle" font-family="monospace">16</text><circle cx="440" cy="70" r="9" fill="#121821" stroke="#2a4a5e" stroke-width="1"/><text x="440" y="73" fill="#dfe8f1" font-size="8" text-anchor="middle" font-family="monospace">17</text><circle cx="440" cy="110" r="9" fill="#121821" stroke="#2a4a5e" stroke-width="1"/><text x="440" y="113" fill="#dfe8f1" font-size="8" text-anchor="middle" font-family="monospace">18</text><circle cx="440" cy="150" r="9" fill="#121821" stroke="#2a4a5e" stroke-width="1"/><text x="440" y="153" fill="#dfe8f1" font-size="8" text-anchor="middle" font-family="monospace">19</text><circle cx="440" cy="190" r="9" fill="#121821" stroke="#2a4a5e" stroke-width="1"/><text x="440" y="193" fill="#dfe8f1" font-size="8" text-anchor="middle" font-family="monospace">20</text><circle cx="440" cy="230" r="9" fill="#121821" stroke="#2a4a5e" stroke-width="1"/><text x="440" y="233" fill="#dfe8f1" font-size="8" text-anchor="middle" font-family="monospace">21</text><circle cx="440" cy="270" r="9" fill="#121821" stroke="#2a4a5e" stroke-width="1"/><text x="440" y="273" fill="#dfe8f1" font-size="8" text-anchor="middle" font-family="monospace">22</text><text x="240.0" y="432" fill="#46c46a" font-size="8.5" text-anchor="middle" font-family="monospace">connectivity: 42 components, 22/22 nodes — MATCH</text></svg>