<svg xmlns="http://www.w3.org/2000/svg" viewBox="0 0 1440 1210" width="1440" height="1210" font-family="DejaVu Sans, Arial, sans-serif" font-size="13">
<title>Rotor circuits</title>
<rect width="1440" height="1210" fill="#ffffff"/>
<style>
    .w{stroke:#111;stroke-width:2;fill:none} .ut{stroke:#1f6fb2;stroke-width:2.4;fill:none} .ah{stroke:#c0392b;stroke-width:2.6;fill:none}
    .st{stroke:#8a8a8a;stroke-width:2;fill:none} .lim{stroke:#7d3c98;stroke-width:2.2;fill:none}
    .zl{stroke:#7d3c98;stroke-width:2;fill:none} .va{stroke:#111;stroke-width:1.6}
    .pl{stroke:#111;stroke-width:2.6} .rail{stroke:#111;stroke-width:3} .mag{stroke:#7f8c8d;stroke-width:1.4;stroke-dasharray:3 4}
    .br{fill:#9aa3ad;stroke:#5d6670;stroke-width:1} .brush{fill:#444;stroke:#111;stroke-width:1}
    .ring{stroke:#111;stroke-width:4} .ball{fill:#fff;stroke:#111;stroke-width:1.6} .dot{fill:#111}
    .zone_cr{fill:#f3f0e6;stroke:#b9ad8a;stroke-width:1;stroke-dasharray:6 4} .zone_r{fill:#eef3f8;stroke:#9fb3c8;stroke-width:1;stroke-dasharray:6 4}
    .kick{fill:#fff7ec;stroke:#d68910;stroke-width:1.4;stroke-dasharray:5 4} .frame{fill:none;stroke:#999;stroke-width:1}
    .t{fill:#111} .tu{fill:#1f6fb2} .ta{fill:#c0392b} .tl{fill:#7d3c98} .nd{fill:#111;font-size:12.5px}
    .m{fill:#444;font-size:12px} .ms{fill:#555;font-size:11px} .zh{fill:#333;font-size:12.5px;font-weight:bold;letter-spacing:0.06em}
    .tk{fill:#111;font-size:11.5px;font-weight:bold} .tk2{fill:#9c640c;font-size:11.5px;font-weight:bold} .tv{fill:#333;font-size:11.5px}
    .op{fill:#1d3f5e;font-size:11.5px} .h{font-size:17px;font-weight:bold;fill:#111} .h2{font-size:14px;font-weight:bold;fill:#111}
    .n{fill:#444;font-size:11.5px} .te{fill:#1d3f5e;font-size:12px;font-weight:bold} .ef{stroke:#1d3f5e;stroke-width:1.8}
    .cone_a{fill:#f6d5d1;stroke:#c0392b;stroke-width:2.6} .cone_b{fill:#dbe7f3;stroke:#1f6fb2;stroke-width:2.6}
    .glass{fill:#eaf3f8;fill-opacity:0.92;stroke:#6f8ea6;stroke-width:1.3}
  </style>
<text x="20.0" y="30.0" class="h" text-anchor="start" >DCCREG turbine: the rotor's two circuits as built (tube, wound utrons; rotor and counter-rotor geared 1 : −1)</text>
<text x="20.0" y="52.0" class="m" text-anchor="start" >(a) the reluctance pump drives the AH pair · (b) the electrostatic pump's rings hold a DC field on the AH null; only C1 / C2 straddle the bodies · operating point g 0.5 / 6 bridges / 1200 rpm relative · only diodes switch</text>
<rect x="20.0" y="70.0" width="760.0" height="940.0" class="frame"/>
<text x="32.0" y="94.0" class="h2" text-anchor="start" >(a) RELUCTANCE: magnetic dual doubler → AH pair</text>
<rect x="800.0" y="70.0" width="620.0" height="940.0" class="frame"/>
<text x="812.0" y="94.0" class="h2" text-anchor="start" >(b) ELECTROSTATIC: de Queiroz diode doubler → DC field on the null</text>
<rect x="50.0" y="110.0" width="700.0" height="64.0" class="zone_cr"/>
<text x="62.0" y="128.0" class="zh" text-anchor="start" >COUNTER-ROTOR</text>
<text x="62.0" y="145.0" class="m" text-anchor="start" >6 SiFe bridges per side: passive iron, no wires</text>
<text x="62.0" y="162.0" class="m" text-anchor="start" >B row 30° offset · radial gap 0.5 mm at r 130 mm</text>
<rect x="432.0" y="126" width="26" height="9" class="br"/>
<rect x="457.0" y="150" width="26" height="9" class="br"/>
<rect x="482.0" y="126" width="26" height="9" class="br"/>
<rect x="507.0" y="150" width="26" height="9" class="br"/>
<rect x="532.0" y="126" width="26" height="9" class="br"/>
<rect x="557.0" y="150" width="26" height="9" class="br"/>
<rect x="582.0" y="126" width="26" height="9" class="br"/>
<rect x="607.0" y="150" width="26" height="9" class="br"/>
<rect x="632.0" y="126" width="26" height="9" class="br"/>
<rect x="657.0" y="150" width="26" height="9" class="br"/>
<rect x="682.0" y="126" width="26" height="9" class="br"/>
<rect x="707.0" y="150" width="26" height="9" class="br"/>
<text x="420.0" y="134.0" class="m" text-anchor="end" >A</text>
<text x="420.0" y="158.0" class="m" text-anchor="end" >B</text>
<rect x="50.0" y="186.0" width="700.0" height="560.0" class="zone_r"/>
<text x="740.0" y="736.0" class="zh" text-anchor="end" >ROTOR · the whole circuit, no rotating contact</text>
<circle cx="90.0" cy="300.0" r="3.6" class="dot"/>
<text x="74.0" y="286.0" class="nd" text-anchor="start" >a</text>
<circle cx="360.0" cy="300.0" r="3.6" class="dot"/>
<text x="356.0" y="286.0" class="nd" text-anchor="start" >d</text>
<circle cx="480.0" cy="300.0" r="3.6" class="dot"/>
<text x="476.0" y="286.0" class="nd" text-anchor="start" >c</text>
<circle cx="710.0" cy="300.0" r="3.6" class="dot"/>
<text x="718.0" y="286.0" class="nd" text-anchor="start" >b</text>
<line x1="90.0" y1="300.0" x2="104.0" y2="300.0" class="w"/>
<path d="M104.0 300.0 q6 -10 12 0 q6 -10 12 0 q6 -10 12 0" class="ut"/>
<line x1="103.0" y1="312.0" x2="141.0" y2="278.0" class="va"/>
<polygon points="141.0,278.0 137.0,286.1 132.5,281.1" fill="#111"/>
<line x1="122.0" y1="176.0" x2="122.0" y2="274.0" class="mag"/>
<text x="122.0" y="322.0" class="tu" text-anchor="middle" >A1</text>
<line x1="140.0" y1="300.0" x2="154.0" y2="300.0" class="w"/>
<path d="M154.0 300.0 q6 -10 12 0 q6 -10 12 0 q6 -10 12 0" class="ut"/>
<line x1="153.0" y1="312.0" x2="191.0" y2="278.0" class="va"/>
<polygon points="191.0,278.0 187.0,286.1 182.5,281.1" fill="#111"/>
<line x1="172.0" y1="176.0" x2="172.0" y2="274.0" class="mag"/>
<text x="172.0" y="322.0" class="tu" text-anchor="middle" >A2</text>
<line x1="190.0" y1="300.0" x2="204.0" y2="300.0" class="w"/>
<path d="M204.0 300.0 q6 -10 12 0 q6 -10 12 0 q6 -10 12 0" class="ut"/>
<line x1="203.0" y1="312.0" x2="241.0" y2="278.0" class="va"/>
<polygon points="241.0,278.0 237.0,286.1 232.5,281.1" fill="#111"/>
<line x1="222.0" y1="176.0" x2="222.0" y2="274.0" class="mag"/>
<text x="222.0" y="322.0" class="tu" text-anchor="middle" >A3</text>
<line x1="240.0" y1="300.0" x2="254.0" y2="300.0" class="w"/>
<circle cx="254.0" cy="300.0" r="2.8" class="dot"/>
<text x="254.0" y="322.0" class="ms" text-anchor="middle" >x1</text>
<line x1="254.0" y1="300.0" x2="268.0" y2="300.0" class="w"/>
<path d="M268.0 300.0 q6 -10 12 0 q6 -10 12 0 q6 -10 12 0" class="ah"/>
<text x="286.0" y="322.0" class="ta" text-anchor="middle" font-weight="bold">AH</text>
<line x1="304.0" y1="300.0" x2="360.0" y2="300.0" class="w"/>
<text x="104.0" y="346.0" class="tu" text-anchor="start" font-weight="bold">A group  L1(θ)</text>
<text x="104.0" y="362.0" class="ms" text-anchor="start" >3 utrons + AH coil</text>
<line x1="480.0" y1="300.0" x2="494.0" y2="300.0" class="w"/>
<path d="M494.0 300.0 q6 -10 12 0 q6 -10 12 0 q6 -10 12 0" class="ut"/>
<line x1="493.0" y1="312.0" x2="531.0" y2="278.0" class="va"/>
<polygon points="531.0,278.0 527.0,286.1 522.5,281.1" fill="#111"/>
<line x1="512.0" y1="176.0" x2="512.0" y2="274.0" class="mag"/>
<text x="512.0" y="322.0" class="tu" text-anchor="middle" >B1</text>
<line x1="530.0" y1="300.0" x2="544.0" y2="300.0" class="w"/>
<path d="M544.0 300.0 q6 -10 12 0 q6 -10 12 0 q6 -10 12 0" class="ut"/>
<line x1="543.0" y1="312.0" x2="581.0" y2="278.0" class="va"/>
<polygon points="581.0,278.0 577.0,286.1 572.5,281.1" fill="#111"/>
<line x1="562.0" y1="176.0" x2="562.0" y2="274.0" class="mag"/>
<text x="562.0" y="322.0" class="tu" text-anchor="middle" >B2</text>
<line x1="580.0" y1="300.0" x2="594.0" y2="300.0" class="w"/>
<path d="M594.0 300.0 q6 -10 12 0 q6 -10 12 0 q6 -10 12 0" class="ut"/>
<line x1="593.0" y1="312.0" x2="631.0" y2="278.0" class="va"/>
<polygon points="631.0,278.0 627.0,286.1 622.5,281.1" fill="#111"/>
<line x1="612.0" y1="176.0" x2="612.0" y2="274.0" class="mag"/>
<text x="612.0" y="322.0" class="tu" text-anchor="middle" >B3</text>
<line x1="630.0" y1="300.0" x2="644.0" y2="300.0" class="w"/>
<circle cx="644.0" cy="300.0" r="2.8" class="dot"/>
<text x="644.0" y="322.0" class="ms" text-anchor="middle" >x2</text>
<line x1="644.0" y1="300.0" x2="658.0" y2="300.0" class="w"/>
<path d="M658.0 300.0 q6 -10 12 0 q6 -10 12 0 q6 -10 12 0" class="ah"/>
<text x="676.0" y="322.0" class="ta" text-anchor="middle" font-weight="bold">AH</text>
<line x1="694.0" y1="300.0" x2="710.0" y2="300.0" class="w"/>
<text x="494.0" y="346.0" class="tu" text-anchor="start" font-weight="bold">B group  L2(θ)</text>
<text x="494.0" y="362.0" class="ms" text-anchor="start" >3 utrons + AH coil, antiphase</text>
<line x1="90.0" y1="300.0" x2="90.0" y2="470.0" class="w"/>
<path d="M90.0 470.0 q10 6 0 12 q10 6 0 12 q10 6 0 12 q10 6 0 12 q10 6 0 12 q10 6 0 12" class="w"/>
<line x1="90.0" y1="542.0" x2="90.0" y2="690.0" class="w"/>
<text x="76.0" y="500.0" class="t" text-anchor="end" font-weight="bold">La</text>
<line x1="480.0" y1="300.0" x2="480.0" y2="470.0" class="w"/>
<path d="M480.0 470.0 q10 6 0 12 q10 6 0 12 q10 6 0 12 q10 6 0 12 q10 6 0 12 q10 6 0 12" class="w"/>
<line x1="480.0" y1="542.0" x2="480.0" y2="690.0" class="w"/>
<text x="498.0" y="500.0" class="t" text-anchor="start" font-weight="bold">Lb</text>
<line x1="360.0" y1="300.0" x2="360.0" y2="480.0" class="w"/>
<polygon points="371.0,498.0 349.0,498.0 360.0,480.0" fill="none" stroke="#111" stroke-width="2"/>
<line x1="371.0" y1="480.0" x2="349.0" y2="480.0" stroke="#111" stroke-width="2"/>
<line x1="360.0" y1="498.0" x2="360.0" y2="690.0" class="w"/>
<text x="376.0" y="494.0" class="t" text-anchor="start" >D3*</text>
<line x1="710.0" y1="300.0" x2="710.0" y2="480.0" class="w"/>
<polygon points="721.0,498.0 699.0,498.0 710.0,480.0" fill="none" stroke="#111" stroke-width="2"/>
<line x1="721.0" y1="480.0" x2="699.0" y2="480.0" stroke="#111" stroke-width="2"/>
<line x1="710.0" y1="498.0" x2="710.0" y2="690.0" class="w"/>
<text x="694.0" y="494.0" class="t" text-anchor="end" >D4*</text>
<circle cx="360.0" cy="370.0" r="3.6" class="dot"/>
<line x1="360.0" y1="370.0" x2="370.0" y2="370.0" class="w"/>
<path d="M370.0 370.0 q6 -10 12 0 q6 -10 12 0 q6 -10 12 0" class="st"/>
<line x1="406.0" y1="370.0" x2="416.0" y2="370.0" class="w"/>
<circle cx="416.0" cy="370.0" r="2.8" class="dot"/>
<text x="416.0" y="390.0" class="ms" text-anchor="middle" >f3</text>
<line x1="416.0" y1="370.0" x2="424.0" y2="370.0" class="w"/>
<polygon points="442.0,359.0 442.0,381.0 424.0,370.0" fill="none" stroke="#111" stroke-width="2"/>
<line x1="424.0" y1="359.0" x2="424.0" y2="381.0" stroke="#111" stroke-width="2"/>
<line x1="442.0" y1="370.0" x2="480.0" y2="370.0" class="w"/>
<circle cx="480.0" cy="370.0" r="3.6" class="dot"/>
<text x="388.0" y="354.0" class="ms" text-anchor="middle" >Lp3</text>
<text x="433.0" y="354.0" class="t" text-anchor="middle" >D2*</text>
<circle cx="90.0" cy="430.0" r="3.6" class="dot"/>
<polyline points="90.0,430.0 120.0,430.0 120.0,640.0 134.0,640.0" class="w"/>
<path d="M134.0 640.0 q6 -10 12 0 q6 -10 12 0 q6 -10 12 0" class="st"/>
<line x1="170.0" y1="640.0" x2="184.0" y2="640.0" class="w"/>
<circle cx="184.0" cy="640.0" r="2.8" class="dot"/>
<text x="184.0" y="660.0" class="ms" text-anchor="middle" >f2</text>
<text x="152.0" y="624.0" class="ms" text-anchor="middle" >Lp2</text>
<line x1="184.0" y1="640.0" x2="640.0" y2="640.0" class="w"/>
<polygon points="640.0,651.0 640.0,629.0 658.0,640.0" fill="none" stroke="#111" stroke-width="2"/>
<line x1="658.0" y1="651.0" x2="658.0" y2="629.0" stroke="#111" stroke-width="2"/>
<text x="649.0" y="624.0" class="t" text-anchor="middle" >D1*</text>
<polyline points="658.0,640.0 740.0,640.0 740.0,400.0 710.0,400.0" class="w"/>
<circle cx="710.0" cy="400.0" r="3.6" class="dot"/>
<line x1="60.0" y1="690.0" x2="720.0" y2="690.0" class="rail"/>
<circle cx="90.0" cy="690.0" r="3.6" class="dot"/>
<circle cx="360.0" cy="690.0" r="3.6" class="dot"/>
<circle cx="480.0" cy="690.0" r="3.6" class="dot"/>
<circle cx="710.0" cy="690.0" r="3.6" class="dot"/>
<text x="60.0" y="710.0" class="m" text-anchor="start" >REF = shaft (rotor), shared with (b)</text>
<rect x="150.0" y="520.0" width="190.0" height="66.0" class="kick"/>
<text x="160.0" y="540.0" class="tk2" text-anchor="start" >START KICK: source open</text>
<text x="160.0" y="557.0" class="ms" text-anchor="start" >once, ≥ 20 % of I_pk (38 mJ)</text>
<text x="160.0" y="573.0" class="ms" text-anchor="start" >into the utron loop at start-up</text>
<circle cx="550.0" cy="528.0" r="3.6" class="dot"/>
<text x="560.0" y="532.0" class="ms" text-anchor="start" >any node</text>
<line x1="550.0" y1="528.0" x2="550.0" y2="542.0" class="w"/>
<line x1="538.0" y1="542.0" x2="562.0" y2="542.0" class="pl"/>
<line x1="538.0" y1="552.0" x2="562.0" y2="552.0" class="pl"/>
<line x1="550.0" y1="552.0" x2="550.0" y2="564.0" class="w"/>
<polyline points="550.0,564.0 557.0,566.5 543.0,571.5 557.0,576.5 543.0,581.5 557.0,586.5 543.0,591.5 550.0,594.0" class="w"/>
<line x1="550.0" y1="594.0" x2="550.0" y2="602.0" class="w"/>
<line x1="538.0" y1="602.0" x2="562.0" y2="602.0" class="w"/>
<line x1="543.0" y1="607.0" x2="557.0" y2="607.0" class="w"/>
<line x1="547.0" y1="612.0" x2="553.0" y2="612.0" class="w"/>
<text x="572.0" y="558.0" class="ms" text-anchor="start" >RC to REF at each</text>
<text x="572.0" y="573.0" class="ms" text-anchor="start" >of the 8 nodes [IR]</text>
<text x="572.0" y="588.0" class="ms" text-anchor="start" >21 nF + 243 Ω</text>
<rect x="810.0" y="110.0" width="600.0" height="87.0" class="zone_cr"/>
<text x="822.0" y="128.0" class="zh" text-anchor="start" >COUNTER-ROTOR</text>
<text x="822.0" y="145.0" class="m" text-anchor="start" >stator vanes only: the reference plates of C1 / C2, no HV</text>
<text x="822.0" y="161.0" class="m" text-anchor="start" >joined to the shaft through one inner bearing (right)</text>
<rect x="810.0" y="202.0" width="600.0" height="554.0" class="zone_r"/>
<text x="1400.0" y="748.0" class="zh" text-anchor="end" >ROTOR · the HV circuit and the core, no rotating contact</text>
<line x1="1010.0" y1="176.0" x2="1385.0" y2="176.0" class="rail"/>
<circle cx="1030.0" cy="176.0" r="3.6" class="dot"/>
<line x1="1030.0" y1="176.0" x2="1030.0" y2="194.0" class="w"/>
<line x1="1010.0" y1="194.0" x2="1050.0" y2="194.0" class="pl"/>
<line x1="1010.0" y1="204.0" x2="1050.0" y2="204.0" class="pl"/>
<line x1="1005.0" y1="219.0" x2="1055.0" y2="179.0" class="va"/>
<polygon points="1055.0,179.0 1050.6,186.8 1046.4,181.6" fill="#111"/>
<line x1="1030.0" y1="204.0" x2="1030.0" y2="262.0" class="w"/>
<text x="992.0" y="201.0" class="t" text-anchor="end" font-weight="bold">C1(θ)</text>
<circle cx="1315.0" cy="176.0" r="3.6" class="dot"/>
<line x1="1315.0" y1="176.0" x2="1315.0" y2="194.0" class="w"/>
<line x1="1295.0" y1="194.0" x2="1335.0" y2="194.0" class="pl"/>
<line x1="1295.0" y1="204.0" x2="1335.0" y2="204.0" class="pl"/>
<line x1="1290.0" y1="219.0" x2="1340.0" y2="179.0" class="va"/>
<polygon points="1340.0,179.0 1335.6,186.8 1331.4,181.6" fill="#111"/>
<line x1="1315.0" y1="204.0" x2="1315.0" y2="262.0" class="w"/>
<text x="1277.0" y="201.0" class="t" text-anchor="end" font-weight="bold">C2(θ)</text>
<text x="1060.0" y="190.0" class="ms" text-anchor="start" >6 stator vanes (REF)</text>
<text x="1042.0" y="223.0" class="ms" text-anchor="start" >6 rotor vanes (R-A)</text>
<circle cx="1030.0" cy="262.0" r="3.6" class="dot"/>
<text x="1020.0" y="256.0" class="nd" text-anchor="end" >node 1</text>
<circle cx="1125.0" cy="262.0" r="3.6" class="dot"/>
<text x="1125.0" y="250.0" class="nd" text-anchor="middle" >node 2</text>
<circle cx="1220.0" cy="262.0" r="3.6" class="dot"/>
<text x="1220.0" y="250.0" class="nd" text-anchor="middle" >node 3</text>
<circle cx="1315.0" cy="262.0" r="3.6" class="dot"/>
<text x="1325.0" y="256.0" class="nd" text-anchor="start" >node 4</text>
<line x1="1030.0" y1="262.0" x2="1072.5" y2="262.0" class="w"/>
<line x1="1072.5" y1="248.0" x2="1072.5" y2="276.0" class="pl"/>
<line x1="1082.5" y1="248.0" x2="1082.5" y2="276.0" class="pl"/>
<line x1="1082.5" y1="262.0" x2="1125.0" y2="262.0" class="w"/>
<text x="1077.5" y="240.0" class="t" text-anchor="middle" font-weight="bold">Ca</text>
<line x1="1220.0" y1="262.0" x2="1262.5" y2="262.0" class="w"/>
<line x1="1262.5" y1="248.0" x2="1262.5" y2="276.0" class="pl"/>
<line x1="1272.5" y1="248.0" x2="1272.5" y2="276.0" class="pl"/>
<line x1="1272.5" y1="262.0" x2="1315.0" y2="262.0" class="w"/>
<text x="1267.5" y="240.0" class="t" text-anchor="middle" font-weight="bold">Cb</text>
<circle cx="1030.0" cy="300.0" r="3.6" class="dot"/>
<line x1="1030.0" y1="300.0" x2="1186.0" y2="300.0" class="w"/>
<polygon points="1186.0,311.0 1186.0,289.0 1204.0,300.0" fill="none" stroke="#111" stroke-width="2"/>
<line x1="1204.0" y1="311.0" x2="1204.0" y2="289.0" stroke="#111" stroke-width="2"/>
<line x1="1204.0" y1="300.0" x2="1220.0" y2="300.0" class="w"/>
<circle cx="1220.0" cy="300.0" r="3.6" class="dot"/>
<text x="1195.0" y="285.0" class="t" text-anchor="middle" >D3</text>
<line x1="1315.0" y1="262.0" x2="1315.0" y2="372.0" class="w"/>
<circle cx="1315.0" cy="336.0" r="3.6" class="dot"/>
<line x1="1315.0" y1="336.0" x2="1159.0" y2="336.0" class="w"/>
<polygon points="1159.0,325.0 1159.0,347.0 1141.0,336.0" fill="none" stroke="#111" stroke-width="2"/>
<line x1="1141.0" y1="325.0" x2="1141.0" y2="347.0" stroke="#111" stroke-width="2"/>
<line x1="1141.0" y1="336.0" x2="1125.0" y2="336.0" class="w"/>
<circle cx="1125.0" cy="336.0" r="3.6" class="dot"/>
<text x="1150.0" y="321.0" class="t" text-anchor="middle" >D4</text>
<line x1="1125.0" y1="262.0" x2="1125.0" y2="392.0" class="w"/>
<polygon points="1114.0,392.0 1136.0,392.0 1125.0,410.0" fill="none" stroke="#111" stroke-width="2"/>
<line x1="1114.0" y1="410.0" x2="1136.0" y2="410.0" stroke="#111" stroke-width="2"/>
<line x1="1125.0" y1="410.0" x2="1125.0" y2="700.0" class="w"/>
<text x="1141.0" y="406.0" class="t" text-anchor="start" >D1</text>
<line x1="1220.0" y1="262.0" x2="1220.0" y2="392.0" class="w"/>
<polygon points="1209.0,392.0 1231.0,392.0 1220.0,410.0" fill="none" stroke="#111" stroke-width="2"/>
<line x1="1209.0" y1="410.0" x2="1231.0" y2="410.0" stroke="#111" stroke-width="2"/>
<line x1="1220.0" y1="410.0" x2="1220.0" y2="700.0" class="w"/>
<text x="1204.0" y="406.0" class="t" text-anchor="end" >D2</text>
<circle cx="1030.0" cy="372.0" r="3.6" class="dot"/>
<polyline points="1030.0,372.0 1078.0,372.0 1078.0,392.0" class="lim"/>
<polygon points="1067.0,392.0 1089.0,392.0 1078.0,410.0" fill="none" stroke="#7d3c98" stroke-width="2"/>
<polyline points="1067.0,405.0 1067.0,410.0 1089.0,410.0 1089.0,415.0" class="zl"/>
<line x1="1078.0" y1="410.0" x2="1078.0" y2="700.0" class="lim"/>
<text x="1092.0" y="406.0" class="tl" text-anchor="start" >Z1</text>
<circle cx="1315.0" cy="372.0" r="3.6" class="dot"/>
<polyline points="1315.0,372.0 1267.0,372.0 1267.0,392.0" class="lim"/>
<polygon points="1256.0,392.0 1278.0,392.0 1267.0,410.0" fill="none" stroke="#7d3c98" stroke-width="2"/>
<polyline points="1256.0,405.0 1256.0,410.0 1278.0,410.0 1278.0,415.0" class="zl"/>
<line x1="1267.0" y1="410.0" x2="1267.0" y2="700.0" class="lim"/>
<text x="1253.0" y="406.0" class="tl" text-anchor="end" >Z4</text>
<line x1="1030.0" y1="262.0" x2="1030.0" y2="448.0" class="w"/>
<circle cx="1030.0" cy="448.0" r="3.6" class="dot"/>
<line x1="1315.0" y1="372.0" x2="1315.0" y2="536.0" class="w"/>
<circle cx="1315.0" cy="536.0" r="3.6" class="dot"/>
<circle cx="885.0" cy="345.0" r="40.0" class="glass"/>
<polyline points="870.5,305.1 869.5,305.4 868.5,305.8 867.5,306.3 866.5,306.7 865.6,307.2 864.6,307.7 863.7,308.2 862.8,308.8 861.9,309.3 861.0,309.9 860.1,310.5 859.3,311.2 858.4,311.8 857.6,312.5 856.8,313.2 856.0,313.9 855.2,314.7 854.5,315.4 853.8,316.2 853.0,317.0 852.3,317.8 851.7,318.6 851.0,319.5" fill="none" stroke="#1f6fb2" stroke-width="5" stroke-linecap="round"/>
<polyline points="899.5,305.1 900.5,305.4 901.5,305.8 902.5,306.3 903.5,306.7 904.4,307.2 905.4,307.7 906.3,308.2 907.2,308.8 908.1,309.3 909.0,309.9 909.9,310.5 910.7,311.2 911.6,311.8 912.4,312.5 913.2,313.2 914.0,313.9 914.8,314.7 915.5,315.4 916.2,316.2 917.0,317.0 917.7,317.8 918.3,318.6 919.0,319.5" fill="none" stroke="#1f6fb2" stroke-width="5" stroke-linecap="round"/>
<polyline points="870.5,384.9 869.5,384.6 868.5,384.2 867.5,383.7 866.5,383.3 865.6,382.8 864.6,382.3 863.7,381.8 862.8,381.2 861.9,380.7 861.0,380.1 860.1,379.5 859.3,378.8 858.4,378.2 857.6,377.5 856.8,376.8 856.0,376.1 855.2,375.3 854.5,374.6 853.8,373.8 853.0,373.0 852.3,372.2 851.7,371.4 851.0,370.5" fill="none" stroke="#c0392b" stroke-width="5" stroke-linecap="round"/>
<polyline points="899.5,384.9 900.5,384.6 901.5,384.2 902.5,383.7 903.5,383.3 904.4,382.8 905.4,382.3 906.3,381.8 907.2,381.2 908.1,380.7 909.0,380.1 909.9,379.5 910.7,378.8 911.6,378.2 912.4,377.5 913.2,376.8 914.0,376.1 914.8,375.3 915.5,374.6 916.2,373.8 917.0,373.0 917.7,372.2 918.3,371.4 919.0,370.5" fill="none" stroke="#c0392b" stroke-width="5" stroke-linecap="round"/>
<line x1="885.0" y1="332.0" x2="885.0" y2="351.0" class="ef"/>
<polygon points="885.0,360.0 880.5,351.0 889.5,351.0" fill="#1d3f5e"/>
<text x="878.0" y="349.0" class="te" text-anchor="end" >E</text>
<polyline points="910.3,379.1 910.3,448.0 885.0,448.0" class="w"/>
<line x1="885.0" y1="448.0" x2="950.0" y2="448.0" class="w"/>
<polygon points="950.0,459.0 950.0,437.0 968.0,448.0" fill="none" stroke="#111" stroke-width="2"/>
<line x1="968.0" y1="459.0" x2="968.0" y2="437.0" stroke="#111" stroke-width="2"/>
<line x1="968.0" y1="448.0" x2="1030.0" y2="448.0" class="w"/>
<text x="959.0" y="433.0" class="t" text-anchor="middle" font-weight="bold">Dk</text>
<circle cx="912.0" cy="448.0" r="3.6" class="dot"/>
<line x1="912.0" y1="448.0" x2="912.0" y2="466.0" class="w"/>
<line x1="898.0" y1="466.0" x2="926.0" y2="466.0" class="pl"/>
<line x1="898.0" y1="476.0" x2="926.0" y2="476.0" class="pl"/>
<line x1="912.0" y1="476.0" x2="912.0" y2="492.0" class="w"/>
<line x1="900.0" y1="492.0" x2="924.0" y2="492.0" class="w"/>
<line x1="905.0" y1="497.0" x2="919.0" y2="497.0" class="w"/>
<line x1="909.0" y1="502.0" x2="915.0" y2="502.0" class="w"/>
<text x="932.0" y="475.0" class="t" text-anchor="start" font-weight="bold">C_A</text>
<polyline points="859.7,310.9 859.7,270.0 828.0,270.0 828.0,536.0 880.0,536.0" class="w"/>
<circle cx="828.0" cy="536.0" r="3.6" class="dot"/>
<line x1="828.0" y1="536.0" x2="828.0" y2="566.0" class="w"/>
<line x1="814.0" y1="566.0" x2="842.0" y2="566.0" class="pl"/>
<line x1="814.0" y1="576.0" x2="842.0" y2="576.0" class="pl"/>
<line x1="828.0" y1="576.0" x2="828.0" y2="594.0" class="w"/>
<line x1="816.0" y1="594.0" x2="840.0" y2="594.0" class="w"/>
<line x1="821.0" y1="599.0" x2="835.0" y2="599.0" class="w"/>
<line x1="825.0" y1="604.0" x2="831.0" y2="604.0" class="w"/>
<text x="848.0" y="575.0" class="t" text-anchor="start" font-weight="bold">Cs</text>
<polygon points="898.0,525.0 898.0,547.0 880.0,536.0" fill="none" stroke="#111" stroke-width="2"/>
<line x1="880.0" y1="525.0" x2="880.0" y2="547.0" stroke="#111" stroke-width="2"/>
<line x1="898.0" y1="536.0" x2="930.0" y2="536.0" class="w"/>
<text x="889.0" y="521.0" class="t" text-anchor="middle" font-weight="bold">Dp</text>
<circle cx="930.0" cy="536.0" r="3.6" class="dot"/>
<text x="930.0" y="526.0" class="ms" text-anchor="middle" >m</text>
<line x1="930.0" y1="536.0" x2="930.0" y2="554.0" class="w"/>
<polygon points="941.0,572.0 919.0,572.0 930.0,554.0" fill="none" stroke="#111" stroke-width="2"/>
<line x1="941.0" y1="554.0" x2="919.0" y2="554.0" stroke="#111" stroke-width="2"/>
<line x1="930.0" y1="572.0" x2="930.0" y2="594.0" class="w"/>
<line x1="918.0" y1="594.0" x2="942.0" y2="594.0" class="w"/>
<line x1="923.0" y1="599.0" x2="937.0" y2="599.0" class="w"/>
<line x1="927.0" y1="604.0" x2="933.0" y2="604.0" class="w"/>
<text x="946.0" y="567.0" class="t" text-anchor="start" font-weight="bold">Dc</text>
<line x1="930.0" y1="536.0" x2="970.0" y2="536.0" class="w"/>
<line x1="970.0" y1="526.0" x2="970.0" y2="546.0" class="pl"/>
<line x1="980.0" y1="526.0" x2="980.0" y2="546.0" class="pl"/>
<line x1="980.0" y1="536.0" x2="1315.0" y2="536.0" class="w"/>
<text x="975.0" y="520.0" class="t" text-anchor="middle" font-weight="bold">Co</text>
<rect x="816.0" y="502.0" width="186.0" height="104" fill="none" stroke="#7f8c8d" stroke-width="1.2" stroke-dasharray="5 4"/>
<text x="1008.0" y="498.0" class="t" text-anchor="end" font-weight="bold">× 3 stages</text>
<text x="822.0" y="626.0" class="ms" text-anchor="start" >C_A, Co, Cs 100 pF · ground = the shaft</text>
<text x="935.0" y="322.0" class="tu" text-anchor="start" font-weight="bold">B +19.0 kV</text>
<text x="935.0" y="340.0" class="ms" text-anchor="start" >rings 20–53°</text>
<text x="935.0" y="354.0" class="ms" text-anchor="start" >7.8 kV/cm ↓</text>
<text x="935.0" y="368.0" class="ms" text-anchor="start" >2.7 Pa</text>
<text x="935.0" y="388.0" class="ta" text-anchor="start" font-weight="bold">A −13.2 kV</text>
<text x="822.0" y="226.0" class="zh" text-anchor="start" >THE CORE (hub)</text>
<text x="822.0" y="242.0" class="ms" text-anchor="start" >rings outside the glass</text>
<line x1="1385.0" y1="176.0" x2="1385.0" y2="189.0" class="w"/>
<line x1="1368.0" y1="189.0" x2="1402.0" y2="189.0" class="ring"/>
<line x1="1368.0" y1="209.0" x2="1402.0" y2="209.0" class="ring"/>
<circle cx="1375.0" cy="199.0" r="3.8" class="ball"/>
<circle cx="1385.0" cy="199.0" r="3.8" class="ball"/>
<circle cx="1395.0" cy="199.0" r="3.8" class="ball"/>
<line x1="1385.0" y1="209.0" x2="1385.0" y2="700.0" class="w"/>
<text x="1377.0" y="560.0" class="t" text-anchor="end" font-weight="bold">inner bearing</text>
<text x="1377.0" y="575.0" class="ms" text-anchor="end" >(6205), for now;</text>
<text x="1377.0" y="590.0" class="ms" text-anchor="end" >a brush later</text>
<text x="1377.0" y="605.0" class="ms" text-anchor="end" >0.40 mA rms AC</text>
<text x="1377.0" y="620.0" class="ms" text-anchor="end" >no DC</text>
<line x1="1060.0" y1="700.0" x2="1397.0" y2="700.0" class="rail"/>
<circle cx="1078.0" cy="700.0" r="3.6" class="dot"/>
<circle cx="1125.0" cy="700.0" r="3.6" class="dot"/>
<circle cx="1220.0" cy="700.0" r="3.6" class="dot"/>
<circle cx="1267.0" cy="700.0" r="3.6" class="dot"/>
<circle cx="1385.0" cy="700.0" r="3.6" class="dot"/>
<text x="1060.0" y="720.0" class="m" text-anchor="start" >shaft (rotor) = REF, shared with (a)</text>
<text x="62.0" y="778.0" class="tk" text-anchor="start" >A1–A3, B1–B3</text>
<text x="154.0" y="778.0" class="tv" text-anchor="start" >wound utrons at 0 / 120 / 240°, 200 t of Ø1.55 mm Cu: 81.0 / 9.4 mH (aligned / unaligned), 0.58 Ω each</text>
<text x="62.0" y="797.5" class="tk" text-anchor="start" >group</text>
<text x="154.0" y="797.5" class="tv" text-anchor="start" >L̂ 0.243 H, ratio κ 8.6, τ = L/R 0.140 s; Ψs 0.134 Wb-t (the 3.0 mm NiFe neck)</text>
<text x="62.0" y="817.0" class="tk" text-anchor="start" >bridges</text>
<text x="154.0" y="817.0" class="tv" text-anchor="start" >a passing bridge closes the utron's flux path: L(θ) 6 × per rev; B row half a pitch on</text>
<text x="62.0" y="836.5" class="tk" text-anchor="start" >AH</text>
<text x="154.0" y="836.5" class="tv" text-anchor="start" >anti-Helmholtz pair at the hub, one coil per branch: 160 t, 1.01 mH, 0.27 Ω each [RH]</text>
<text x="62.0" y="856.0" class="tk" text-anchor="start" >La, Lb</text>
<text x="154.0" y="856.0" class="tv" text-anchor="start" >0.146 H DC chokes: 0.87–1.15 A, ≤ 110 V, 0.29 Ω (τ 0.5 s [RH]); not designed</text>
<text x="62.0" y="875.5" class="tk" text-anchor="start" ></text>
<text x="154.0" y="875.5" class="tv" text-anchor="start" >first cut [RH]: gapped EI of M235-35A, 28 mm leg, 179 t, 0.21 mm gap, 1.0 kg Fe + 0.4 kg Cu each</text>
<text x="62.0" y="895.0" class="tk" text-anchor="start" >Lp2, Lp3</text>
<text x="154.0" y="895.0" class="tv" text-anchor="start" >4.4 mH wiring stray, as modelled (dual of Cpar) [IR]</text>
<text x="62.0" y="914.5" class="tk" text-anchor="start" >D1*–D4*</text>
<text x="154.0" y="914.5" class="tv" text-anchor="start" >Si, 0.55 V at 1 A; 2.8 A peak; reverse 112 / 101 / 43 / 45 V peak</text>
<text x="62.0" y="940.0" class="op" text-anchor="start" >At 1200 rpm relative (120 Hz): 0.87–2.81 A in each branch, 101 V peak per group; AH 139–449 A-turns.</text>
<text x="62.0" y="958.0" class="op" text-anchor="start" >Belt 17.6 W = utron Cu 6 × 2.15 + La / Lb 0.66 + AH 2.00 + diodes 2.01 W; + iron 1.25 W = 18.8 W.</text>
<text x="822.0" y="778.0" class="tk" text-anchor="start" >C1, C2</text>
<text x="898.0" y="778.0" class="tv" text-anchor="start" >6 + 6 vanes, 6 × 22° / 22°, 6 mm air gaps, 3 mm full rounds: 55–410 pF, κ 7.5</text>
<text x="822.0" y="797.5" class="tk" text-anchor="start" >Ca, Cb</text>
<text x="898.0" y="797.5" class="tv" text-anchor="start" >451 pF (1.1 C_max): full-annulus plates, now on the rotor</text>
<text x="822.0" y="817.0" class="tk" text-anchor="start" >D1–D4</text>
<text x="898.0" y="817.0" class="tv" text-anchor="start" >HV stacks, reverse peaks 6.2 / 6.1 / 13.2 / 13.2 kV; parts not chosen</text>
<text x="822.0" y="836.5" class="tk" text-anchor="start" >Z1, Z4</text>
<text x="898.0" y="836.5" class="tv" text-anchor="start" >avalanche strings, BV 13.1 kV (e.g. 66 × 200 V), on the rotor: 1.04 W, 0.93 mA peak each</text>
<text x="822.0" y="856.0" class="tk" text-anchor="start" >core</text>
<text x="898.0" y="856.0" class="tv" text-anchor="start" >two rings outside the 50 mm glass: bands 20–53°, 32.2 mm apart along it</text>
<text x="822.0" y="875.5" class="tk" text-anchor="start" >supply</text>
<text x="898.0" y="875.5" class="tv" text-anchor="start" >A: Dk + C_A on node 1's peak, −13.2 kV · B: three CW stages on node 4, +19.0 kV</text>
<text x="822.0" y="895.0" class="tk" text-anchor="start" ></text>
<text x="898.0" y="895.0" class="tv" text-anchor="start" >C_A, Co, Cs 100 pF; Dk, Dc, Dp see ≤ 7.5 kV reverse</text>
<text x="822.0" y="914.5" class="tk" text-anchor="start" ></text>
<text x="898.0" y="914.5" class="tv" text-anchor="start" >32.2 kV across: 7.8 kV/cm, 2.7 Pa at the null (as connected; 8.9 settled)</text>
<text x="822.0" y="934.0" class="tk" text-anchor="start" >strays</text>
<text x="898.0" y="934.0" class="tv" text-anchor="start" >≈ 20 pF per node [RH]; the rings 7.4 pF each to REF, 1.3 pF between</text>
<text x="822.0" y="953.5" class="tk" text-anchor="start" >bearing</text>
<text x="898.0" y="953.5" class="tv" text-anchor="start" >one inner bearing, for now: 0.40 mA rms AC (0.90 mA pk), no DC</text>
<text x="822.0" y="979.0" class="op" text-anchor="start" >At 1200 rpm relative (120 Hz): belt 2.15 W, into Z1 + Z4; z at start 1.178 (bare 1.310).</text>
<text x="822.0" y="997.0" class="op" text-anchor="start" >Leakage only (54 mW at 10 GΩ [RH]); 1 / 2 stages give 5.7 / 7.1 kV/cm: sim/hub-locked-findings.md.</text>
<text x="20.0" y="1034.0" class="n" text-anchor="start" >Bodies. Rotor: shaft, sleeve, rotor vanes (nodes 1 / 4), Ca / Cb plates, the 6 utrons on their carrier discs, the hub (the glass vessel with the rings outside it, the AH pair, retainer and coupler).</text>
<text x="20.0" y="1053.0" class="n" text-anchor="start" >Counter-rotor: stator cage, stator vanes (REF), bridges. Frame: end bearings, the gear.</text>
<text x="20.0" y="1072.0" class="n" text-anchor="start" >Not in the solids yet: La, Lb, D1*–D4*, the RC snubbers, the kick source, D1–D4, Z1 / Z4, Dk, the CW stage, C_A, the rings (all rotor);</text>
<text x="20.0" y="1091.0" class="n" text-anchor="start" >sim/tube_geometry.py still puts Ca / Cb on the counter-rotor. Each pump's reaction torque goes into the gear.</text>
<text x="20.0" y="1110.0" class="n" text-anchor="start" >(a) is the planar dual of (b) [OC]: C → L, V → I, Q → Ψ, Ca / Cb → La / Lb, Cpar → Lp2 / Lp3, D1–D4 → D1*–D4*, the clamps Z1 / Z4 → the NiFe neck's saturation.</text>
<text x="20.0" y="1129.0" class="n" text-anchor="start" >A and B swap every half cycle: one group generates (L falling) while the other motors. The AH coils are named by branch; sim/magnetic_doubler.py calls them AH top / bottom (A was then the upper side).</text>
<text x="20.0" y="1148.0" class="n" text-anchor="start" >Polarity: (b) runs negative; ring A takes node 1's negative peak and ring B three CW stages positive: E at the null is steady, B to A. de Queiroz's Fig. 1 draws the core positive, all four diodes the other way (sim/queiroz_fig1_check.py).</text>
<text x="20.0" y="1167.0" class="n" text-anchor="start" >Numbers: sim/pole_design_variants_op.json (g 0.5 / 6 bridges / 1200 rpm), sim/utron_profile.py, sim/rotor_parts_duty_results.json, sim/core_field_results.json, sim/hub_locked_results.json (b: the air build's capped stack)</text>
<text x="20.0" y="1186.0" class="n" text-anchor="start" >Netlists: sim/magnetic_doubler.py, sim/core_field.py · findings: sim/pole-design-findings.md, sim/hub-locked-findings.md · generator: docs/make_schematic_rotor.py</text>
</svg>
